<?xml version="1.0" encoding="UTF-8"?>
<svg xmlns="http://www.w3.org/2000/svg" xmlns:xlink="http://www.w3.org/1999/xlink" width="3.466253in" height="2.410771in" version="1.1" viewBox="179.917433 204.564711 457.545401 318.221732">
  <!--
	Exported with Concepts: Smarter Sketching
	Version: 380
	iOS Version: 11.0
	https://concepts.tophatch.com/
	-->
  <title>Untitled</title>
  <desc>Drawing exported from Concepts: Smarter Sketching</desc>
  <g id="Fill" opacity="1.000">
    <path id="STROKE_AECA9E5B-0369-4446-9AFF-84E686CFF61D" opacity="1.000" fill="#00bacb" stroke="#00bacb" stroke-width="1.000" stroke-opacity="1.000" stroke-linecap="round" stroke-linejoin="round" d="M 402.102 315.889 Q 402.102 315.228 402.866 314.636 L 403.629 314.044 L 402.102 315.889"></path>
    <path id="STROKE_EAAF7987-BC4B-477F-9089-5D8358BE0522" opacity="1.000" fill="#00bacb" stroke="#00bacb" stroke-width="1.000" stroke-opacity="1.000" stroke-linecap="round" stroke-linejoin="round" d="M 405.750 311.728 Q 393.092 318.867 388.587 322.978 384.083 327.088 381.257 329.105 378.432 331.122 376.413 333.604 374.394 336.085 369.058 340.291 363.721 344.497 360.336 346.616 356.951 348.735 356.688 351.910 356.425 355.085 354.864 361.607 353.303 368.129 351.513 373.786 349.723 379.442 348.467 384.144 347.212 388.847 348.866 391.195 350.520 393.542 353.905 395.528 357.290 397.513 358.818 398.906 360.345 400.300 365.282 403.443 370.220 406.586 376.914 411.683 383.607 416.780 388.214 419.624 392.821 422.468 394.577 423.232 396.333 423.995 398.921 426.178 401.508 428.360 403.765 430.848 406.022 433.336 410.196 429.525 414.370 425.713 419.282 421.813 424.194 417.912 425.382 416.621 426.570 415.329 434.731 409.240 442.893 403.150 445.175 401.655 447.457 400.160 450.673 398.906 453.888 397.653 453.761 385.964 453.633 374.276 454.092 372.227 454.550 370.178 454.914 365.177 455.279 360.175 455.211 351.967 L 455.144 343.759 L 405.750 311.728"></path>
    <path id="STROKE_691EFCD2-FE57-4695-8EE4-EE2F8F165E58" opacity="1.000" fill="#00bacb" stroke="#00bacb" stroke-width="1.000" stroke-opacity="1.000" stroke-linecap="round" stroke-linejoin="round" d="M 505.553 364.067 Q 503.814 368.521 503.101 371.251 502.388 373.980 502.537 375.544 502.685 377.108 503.580 377.927 504.475 378.746 505.843 378.929 507.211 379.112 508.429 378.334 509.646 377.556 509.928 376.273 510.210 374.989 509.466 372.383 508.721 369.778 507.536 367.369 L 506.350 364.961 L 505.553 364.067"></path>
    <path id="STROKE_EC3CEB48-DE1E-475E-98E6-F17014CD5D04" opacity="1.000" fill="#00bacb" stroke="#00bacb" stroke-width="1.000" stroke-opacity="1.000" stroke-linecap="round" stroke-linejoin="round" d="M 504.942 406.434 Q 504.195 407.627 502.853 411.277 501.510 414.926 501.345 416.919 501.179 418.912 501.485 419.715 501.790 420.519 502.942 421.387 504.094 422.256 504.823 422.356 505.553 422.456 506.340 422.043 507.126 421.629 507.981 420.593 508.836 419.558 509.052 417.904 509.269 416.249 508.206 413.303 507.143 410.357 506.265 408.967 505.387 407.577 505.553 407.138 L 505.718 406.698 L 504.942 406.434"></path>
    <path id="STROKE_1084B11D-764A-4AE3-B95E-97F94636E2FA" opacity="1.000" fill="#00bacb" stroke="#00bacb" stroke-width="1.000" stroke-opacity="1.000" stroke-linecap="round" stroke-linejoin="round" d="M 504.959 445.891 Q 504.441 445.907 503.546 447.636 502.651 449.365 501.930 451.342 501.209 453.320 500.995 456.126 500.781 458.932 501.203 460.056 501.625 461.181 502.462 461.594 503.300 462.008 504.303 461.768 505.307 461.528 506.293 460.395 507.279 459.263 507.610 457.118 507.941 454.974 507.742 453.510 507.542 452.047 506.929 450.367 506.316 448.687 505.703 447.776 505.090 446.864 505.305 446.211 L 505.519 445.557 L 504.959 445.891"></path>
    <path id="STROKE_54DB120A-3E42-4A40-8286-D40C4EC84E96" opacity="0.204" fill="#000000" stroke="#000000" stroke-width="1.000" stroke-opacity="1.000" stroke-linecap="round" stroke-linejoin="round" d="M 276.138 260.216 Q 276.161 259.497 274.831 259.722 273.500 259.947 272.247 260.567 270.994 261.186 270.374 261.928 269.753 262.671 269.008 264.450 268.264 266.230 268.119 267.492 267.975 268.754 268.538 270.612 269.101 272.469 270.431 273.495 271.762 274.521 274.132 274.915 276.502 275.309 278.531 274.972 280.560 274.634 281.992 273.822 283.424 273.010 284.350 271.220 285.277 269.430 285.029 267.628 284.780 265.827 284.339 265.208 283.897 264.589 281.224 262.740 278.551 260.891 277.616 260.567 L 276.681 260.242 L 276.138 260.216"></path>
    <path id="STROKE_826BF98A-E331-4BE8-9335-9463FFB687C7" opacity="0.204" fill="#000000" stroke="#000000" stroke-width="1.000" stroke-opacity="1.000" stroke-linecap="round" stroke-linejoin="round" d="M 523.749 250.295 Q 524.157 257.368 524.772 259.822 525.387 262.277 526.616 262.198 527.846 262.119 532.698 260.323 537.550 258.526 538.940 257.753 540.330 256.979 541.674 254.909 543.017 252.839 542.845 252.079 542.673 251.318 541.432 250.761 540.190 250.203 536.967 249.613 533.744 249.023 531.981 248.953 530.218 248.883 526.917 249.508 L 523.615 250.133 L 523.749 250.295"></path>
    <path id="STROKE_CDB9E620-FEE7-46C7-B895-B41460BBF40F" opacity="0.204" fill="#000000" stroke="#000000" stroke-width="1.000" stroke-opacity="1.000" stroke-linecap="round" stroke-linejoin="round" d="M 288.684 256.833 Q 293.166 261.918 294.874 261.628 296.583 261.338 298.643 260.420 300.702 259.502 302.093 258.654 303.484 257.807 305.264 256.121 307.043 254.436 307.097 253.648 307.151 252.860 306.463 252.223 305.775 251.585 304.087 251.014 302.399 250.442 300.877 250.412 299.355 250.382 296.949 250.643 294.544 250.905 293.081 251.356 291.618 251.807 290.101 252.790 288.584 253.772 288.328 254.475 L 288.072 255.178 L 288.684 256.833"></path>
    <path id="STROKE_B72E7858-18DB-4854-B224-432E6501FE63" opacity="0.204" fill="#000000" stroke="#000000" stroke-width="1.000" stroke-opacity="1.000" stroke-linecap="round" stroke-linejoin="round" d="M 316.487 257.117 Q 315.268 258.748 314.398 260.920 313.528 263.092 312.903 265.550 312.277 268.008 313.565 267.515 314.854 267.023 316.607 265.935 318.360 264.847 318.451 264.445 318.542 264.043 317.406 260.610 L 316.271 257.176 L 316.487 257.117"></path>
    <path id="STROKE_F447EA12-CBA2-47C9-BCC0-EEE0D2133117" opacity="0.204" fill="#000000" stroke="#000000" stroke-width="1.000" stroke-opacity="1.000" stroke-linecap="round" stroke-linejoin="round" d="M 484.825 251.141 Q 484.244 251.984 483.794 254.996 483.344 258.008 483.445 258.881 483.545 259.753 484.023 259.942 484.501 260.132 486.375 259.762 488.250 259.393 490.076 258.106 491.903 256.820 492.808 255.594 493.712 254.368 494.008 252.700 494.305 251.033 493.420 249.637 492.535 248.241 491.672 247.870 490.809 247.498 488.407 248.054 486.005 248.610 485.001 249.412 L 483.997 250.214 L 484.825 251.141"></path>
    <path id="STROKE_C590FB33-117F-455B-842B-6DDBA5D10D03" opacity="0.204" fill="#000000" stroke="#000000" stroke-width="1.000" stroke-opacity="1.000" stroke-linecap="round" stroke-linejoin="round" d="M 301.473 413.128 Q 300.515 412.797 299.221 413.766 297.927 414.735 297.588 416.257 297.248 417.780 297.223 418.938 297.197 420.096 297.520 421.098 297.842 422.100 298.432 422.770 299.021 423.439 300.935 423.713 302.848 423.987 303.959 422.943 305.070 421.900 305.361 420.625 305.652 419.351 305.321 418.632 304.990 417.913 303.200 415.306 L 301.410 412.699 L 301.473 413.128"></path>
    <path id="STROKE_9D98FD1A-2CA6-4F6D-8F1E-637D01880C02" opacity="0.204" fill="#000000" stroke="#000000" stroke-width="1.000" stroke-opacity="1.000" stroke-linecap="round" stroke-linejoin="round" d="M 390.983 479.494 Q 389.757 478.899 388.397 480.263 387.038 481.628 386.664 483.217 386.291 484.807 386.257 486.386 386.223 487.966 386.647 489.779 387.071 491.593 388.189 493.231 389.307 494.870 390.037 495.159 390.766 495.449 392.365 495.498 393.965 495.547 395.275 494.629 396.586 493.711 397.299 492.022 398.011 490.333 397.912 488.322 397.812 486.311 396.983 484.376 396.153 482.440 393.502 480.338 L 390.851 478.237 L 390.983 479.494"></path>
    <path id="STROKE_428DF29F-C2F3-4316-A061-1FAA340A3B59" opacity="0.204" fill="#000000" stroke="#000000" stroke-width="1.000" stroke-opacity="1.000" stroke-linecap="round" stroke-linejoin="round" d="M 417.477 407.116 Q 415.977 408.491 414.477 409.116 412.977 409.741 411.789 410.053 410.602 410.366 409.477 410.991 408.352 411.616 408.102 411.991 L 407.852 412.366 L 417.477 407.116"></path>
  </g>
  <g id="Pen" opacity="1.000">
    <path id="STROKE_3210B3E2-B288-41F5-9E1A-1EB68AF061FD" opacity="1.000" fill="none" stroke="#000000" stroke-width="3.095" stroke-opacity="1.000" stroke-linecap="round" stroke-linejoin="round" d="M 396.481 309.466 Q 373.812 327.473 367.941 331.609 362.070 335.745 356.929 340.084 351.788 344.424 351.593 351.111 351.398 357.798 349.769 371.568 348.140 385.337 348.047 390.733 347.953 396.129 352.059 397.713 356.166 399.297 366.745 407.245 377.324 415.192 381.829 418.997 386.334 422.802 387.861 425.385 389.389 427.969 393.927 431.742 398.466 435.515 412.125 423.763 425.784 412.010 436.695 404.235 447.605 396.460 451.711 394.640 455.817 392.820 455.554 367.725 455.291 342.629 448.895 338.761 442.498 334.892 437.526 330.852 432.555 326.811 421.084 318.870 409.614 310.929 405.398 309.739 401.181 308.549 399.493 307.092 397.805 305.635 395.455 308.842 L 393.104 312.049 "></path>
    <path id="STROKE_FC6DF033-342D-4291-8F79-E8D4BDDD2370" opacity="1.000" fill="none" stroke="#000000" stroke-width="3.095" stroke-opacity="1.000" stroke-linecap="round" stroke-linejoin="round" d="M 397.347 435.383 Q 398.247 433.933 398.507 435.449 398.767 436.965 398.369 445.203 397.971 453.442 398.328 457.578 398.685 461.713 398.195 464.081 L 397.705 466.449 "></path>
    <path id="STROKE_D6057580-9DE4-4EE7-8898-B5D9F9B80895" opacity="1.000" fill="none" stroke="#000000" stroke-width="3.095" stroke-opacity="1.000" stroke-linecap="round" stroke-linejoin="round" d="M 452.106 341.252 Q 455.025 338.274 463.975 332.579 472.926 326.885 477.660 323.372 482.394 319.860 484.684 319.300 486.975 318.740 492.846 324.034 498.717 329.328 502.560 333.966 506.403 338.605 507.269 338.770 508.134 338.936 519.036 334.100 529.938 329.264 538.557 324.798 547.177 320.331 556.025 316.723 L 564.874 313.115 "></path>
    <path id="STROKE_E255709C-9F37-43C3-A5F7-D73E4663228B" opacity="1.000" fill="none" stroke="#000000" stroke-width="3.095" stroke-opacity="1.000" stroke-linecap="round" stroke-linejoin="round" d="M 346.940 395.528 Q 346.024 396.457 340.289 400.166 334.554 403.876 333.391 404.703 332.229 405.530 330.040 406.854 327.851 408.177 325.662 409.666 323.474 411.155 321.616 412.580 319.758 414.006 318.400 414.502 317.043 414.998 315.422 415.825 313.802 416.653 313.963 416.882 L 314.124 417.111 "></path>
    <path id="STROKE_3C663444-2471-4F91-9C51-8E168A23616E" opacity="1.000" fill="none" stroke="#000000" stroke-width="3.095" stroke-opacity="1.000" stroke-linecap="round" stroke-linejoin="round" d="M 392.023 479.467 Q 391.905 477.813 390.013 477.482 388.121 477.151 386.560 478.640 384.999 480.129 383.904 482.744 382.810 485.359 382.615 488.305 382.420 491.251 383.947 493.173 385.474 495.095 387.357 495.623 389.241 496.151 391.031 496.087 392.821 496.024 393.754 495.260 394.687 494.496 395.018 491.220 395.349 487.943 394.357 485.461 393.364 482.980 391.302 479.970 L 389.241 476.960 "></path>
    <path id="STROKE_B90291E7-E549-4A5E-B204-1833B350905C" opacity="1.000" fill="none" stroke="#000000" stroke-width="3.095" stroke-opacity="1.000" stroke-linecap="round" stroke-linejoin="round" d="M 402.764 476.299 Q 402.577 476.222 402.577 484.666 402.577 493.109 402.942 494.732 403.307 496.354 403.672 496.119 L 404.037 495.884 "></path>
    <path id="STROKE_12FF3AD9-3C2B-4777-9A4E-3042BC98F5CB" opacity="1.000" fill="none" stroke="#000000" stroke-width="3.095" stroke-opacity="1.000" stroke-linecap="round" stroke-linejoin="round" d="M 410.060 476.222 Q 409.992 479.073 411.121 483.743 412.249 488.414 413.640 492.645 415.032 496.876 414.837 496.813 L 414.641 496.749 "></path>
    <path id="STROKE_75E1EDC8-CC74-486A-A212-8DB186B423E4" opacity="1.000" fill="none" stroke="#000000" stroke-width="3.095" stroke-opacity="1.000" stroke-linecap="round" stroke-linejoin="round" d="M 401.984 490.793 Q 401.644 489.928 402.603 489.699 403.562 489.470 409.297 488.611 415.032 487.752 415.464 487.548 L 415.897 487.345 "></path>
    <path id="STROKE_D510D4F8-53A1-415B-A038-811BE7D7E5B9" opacity="1.000" fill="none" stroke="#000000" stroke-width="3.095" stroke-opacity="1.000" stroke-linecap="round" stroke-linejoin="round" d="M 276.863 410.290 Q 276.727 415.393 276.999 419.497 277.270 423.601 277.533 425.287 277.796 426.973 278.458 426.611 L 279.120 426.248 "></path>
    <path id="STROKE_03B4682A-D82A-49ED-8472-E51A2703E955" opacity="1.000" fill="none" stroke="#000000" stroke-width="3.095" stroke-opacity="1.000" stroke-linecap="round" stroke-linejoin="round" d="M 285.143 405.199 Q 283.956 407.452 284.159 410.824 284.363 414.196 285.551 418.600 286.738 423.003 287.672 425.885 L 288.605 428.768 "></path>
    <path id="STROKE_978B3CFA-B843-4D92-A413-E2BFEA7F6DDC" opacity="1.000" fill="none" stroke="#000000" stroke-width="3.095" stroke-opacity="1.000" stroke-linecap="round" stroke-linejoin="round" d="M 276.337 421.807 Q 276.066 421.476 277.330 421.018 278.594 420.559 283.531 419.032 L 288.469 417.505 "></path>
    <path id="STROKE_813B032C-AB40-454A-82D2-9F25842BDD9D" opacity="1.000" fill="none" stroke="#000000" stroke-width="3.095" stroke-opacity="1.000" stroke-linecap="round" stroke-linejoin="round" d="M 301.653 409.832 Q 297.954 409.692 296.529 411.384 295.104 413.077 294.374 415.164 293.644 417.251 293.975 419.732 294.306 422.214 296.028 423.238 297.750 424.263 299.371 424.364 300.991 424.466 302.221 422.875 303.452 421.285 303.520 418.867 303.587 416.449 302.323 414.527 301.059 412.606 300.067 411.849 299.074 411.091 298.276 411.225 L 297.479 411.359 "></path>
    <path id="STROKE_5311E628-DED8-43EF-AB18-D2F1DFC0CF11" opacity="1.000" fill="none" stroke="#000000" stroke-width="3.095" stroke-opacity="1.000" stroke-linecap="round" stroke-linejoin="round" d="M 571.305 323.703 Q 570.779 324.632 570.380 316.952 569.981 309.272 572.204 314.235 574.427 319.198 575.657 321.451 576.887 323.703 577.982 324.829 579.076 325.956 579.237 321.489 579.399 317.022 578.474 310.831 L 577.549 304.640 "></path>
    <path id="STROKE_3B5608D7-3C1A-4184-8B82-D391446A5E80" opacity="1.000" fill="none" stroke="#000000" stroke-width="3.095" stroke-opacity="1.000" stroke-linecap="round" stroke-linejoin="round" d="M 586.627 308.216 Q 585.897 308.750 585.931 310.735 585.965 312.721 586.992 318.905 588.018 325.090 587.653 324.562 L 587.289 324.034 "></path>
    <path id="STROKE_4DA95EAA-FF22-4A27-A760-6DAEF4DC2042" opacity="1.000" fill="none" stroke="#000000" stroke-width="3.095" stroke-opacity="1.000" stroke-linecap="round" stroke-linejoin="round" d="M 590.801 305.963 Q 591.463 304.767 591.768 306.689 592.073 308.610 592.566 313.478 593.058 318.346 593.787 321.820 594.517 325.294 594.950 324.931 L 595.382 324.568 "></path>
    <path id="STROKE_BFCAAF0F-7E8C-4ECC-BDE5-836E543BCAA2" opacity="1.000" fill="none" stroke="#000000" stroke-width="3.095" stroke-opacity="1.000" stroke-linecap="round" stroke-linejoin="round" d="M 586.830 317.417 Q 586.695 316.424 587.755 316.125 588.816 315.826 590.809 315.527 592.803 315.228 593.261 314.999 L 593.719 314.770 "></path>
    <path id="STROKE_BE8E1F31-38A7-4F20-880F-15E83D865F37" opacity="1.000" fill="none" stroke="#000000" stroke-width="3.095" stroke-opacity="1.000" stroke-linecap="round" stroke-linejoin="round" d="M 601.474 324.759 Q 601.542 322.647 603.501 321.654 605.461 320.662 606.818 320.496 608.176 320.331 608.244 321.654 608.312 322.978 605.028 327.381 601.745 331.784 601.414 333.502 601.083 335.220 602.509 335.754 603.934 336.289 606.454 336.353 608.973 336.416 610.263 335.888 L 611.552 335.360 "></path>
    <path id="STROKE_9532A05D-DFF5-4762-BCCE-9C16C98D539D" opacity="1.000" fill="none" stroke="#000000" stroke-width="3.095" stroke-opacity="1.000" stroke-linecap="round" stroke-linejoin="round" d="M 504.350 358.394 Q 499.311 371.565 499.277 374.282 499.243 376.999 500.201 377.629 501.160 378.259 503.315 378.354 505.470 378.450 506.530 377.527 507.591 376.604 507.693 374.746 507.795 372.888 506.072 366.239 504.350 359.590 504.384 358.795 L 504.418 357.999 "></path>
    <path id="STROKE_177B32A4-98BA-4C19-8F79-A3A97A2C0C0B" opacity="1.000" fill="none" stroke="#000000" stroke-width="3.095" stroke-opacity="1.000" stroke-linecap="round" stroke-linejoin="round" d="M 503.417 400.300 Q 499.107 412.415 498.878 416.188 498.649 419.961 500.804 420.521 502.959 421.081 504.418 420.025 505.877 418.969 506.174 415.361 506.471 411.753 504.715 406.586 502.959 401.420 502.390 400.497 L 501.822 399.574 "></path>
    <path id="STROKE_929880D3-CE2A-41F4-A7A9-FE4288986C0B" opacity="1.000" fill="none" stroke="#000000" stroke-width="3.095" stroke-opacity="1.000" stroke-linecap="round" stroke-linejoin="round" d="M 503.688 442.002 Q 502.026 444.255 500.532 448.092 499.039 451.929 498.581 455.772 498.123 459.615 499.209 460.506 500.295 461.397 503.018 460.900 505.741 460.404 506.539 458.648 507.336 456.892 507.235 454.945 507.133 452.998 505.478 448.359 503.824 443.720 503.128 442.397 L 502.433 441.073 "></path>
    <path id="STROKE_17AD3CA2-D1AE-4DC8-A1A4-45C002F0CC85" opacity="1.000" fill="none" stroke="#000000" stroke-width="3.095" stroke-opacity="1.000" stroke-linecap="round" stroke-linejoin="round" d="M 361.600 347.399 Q 361.804 355.212 361.303 357.567 360.803 359.921 360.608 363.198 360.412 366.475 358.818 376.006 357.223 385.538 357.290 387.122 L 357.358 388.707 "></path>
    <path id="STROKE_70413D54-8C76-4AF8-86BD-ED245362C45E" opacity="1.000" fill="none" stroke="#000000" stroke-width="3.095" stroke-opacity="1.000" stroke-linecap="round" stroke-linejoin="round" d="M 396.944 422.468 Q 397.538 421.145 398.895 420.687 400.253 420.229 404.266 417.149 408.279 414.069 409.110 413.108 409.941 412.148 414.378 408.705 418.816 405.263 421.734 403.609 424.652 401.954 427.333 399.505 430.014 397.055 433.535 394.872 437.056 392.690 440.933 389.610 L 444.810 386.531 "></path>
    <path id="STROKE_A650F43A-2693-429A-90E4-02BDB8C30E52" opacity="1.000" fill="none" stroke="#000000" stroke-width="3.095" stroke-opacity="1.000" stroke-linecap="round" stroke-linejoin="round" d="M 401.508 316.157 Q 410.332 322.520 413.810 324.467 417.288 326.414 420.309 328.698 423.329 330.982 424.389 331.479 425.450 331.975 427.707 333.998 429.963 336.022 433.179 338.236 436.394 340.450 438.379 342.073 L 440.365 343.695 "></path>
    <path id="STROKE_F7BC0700-178A-462C-907D-1B788FF413C4" opacity="1.000" fill="none" stroke="#000000" stroke-width="2.583" stroke-opacity="1.000" stroke-linecap="round" stroke-linejoin="round" d="M 230.322 253.990 Q 229.333 254.264 229.024 256.022 228.716 257.779 228.575 260.672 228.434 263.566 229.164 267.245 229.893 270.925 231.218 274.763 L 232.544 278.602 "></path>
    <path id="STROKE_C57B1969-0A9F-4CD4-89C2-119D4A15CCA9" opacity="1.000" fill="none" stroke="#000000" stroke-width="3.568" stroke-opacity="1.000" stroke-linecap="round" stroke-linejoin="round" d="M 210.881 255.485 Q 209.459 254.126 212.016 253.383 214.572 252.640 220.409 252.057 226.247 251.474 231.631 251.699 237.016 251.924 242.110 253.368 247.204 254.812 249.596 256.088 251.988 257.363 254.651 260.362 257.314 263.361 257.200 265.710 257.085 268.060 253.483 271.107 249.881 274.154 244.177 277.260 238.473 280.366 232.867 282.640 227.262 284.914 228.535 284.721 L 229.809 284.529 "></path>
    <path id="STROKE_B4A991CB-9994-4BAE-B77A-41345B3179FA" opacity="1.000" fill="none" stroke="#000000" stroke-width="2.745" stroke-opacity="1.000" stroke-linecap="round" stroke-linejoin="round" d="M 277.643 258.229 Q 272.737 256.824 269.718 259.094 266.699 261.364 265.761 262.806 264.823 264.247 264.193 267.179 263.563 270.111 264.220 271.208 264.877 272.306 267.160 273.285 269.442 274.264 272.400 274.445 275.357 274.626 278.575 273.525 281.794 272.424 282.683 271.463 283.573 270.503 283.809 268.196 284.045 265.890 283.136 264.718 282.226 263.546 278.255 260.936 L 274.284 258.325 "></path>
    <path id="STROKE_CA267961-06F4-4ACB-928C-D02187E7AA7D" opacity="1.000" fill="none" stroke="#000000" stroke-width="2.493" stroke-opacity="1.000" stroke-linecap="round" stroke-linejoin="round" d="M 290.027 261.150 Q 292.886 264.895 293.318 265.852 293.751 266.809 294.733 269.887 L 295.715 272.966 "></path>
    <path id="STROKE_A7D756B1-79E3-44AD-B664-C410E5C7C329" opacity="1.000" fill="none" stroke="#000000" stroke-width="2.661" stroke-opacity="1.000" stroke-linecap="round" stroke-linejoin="round" d="M 286.573 257.759 Q 285.592 254.166 288.695 252.706 291.799 251.246 293.846 250.955 295.892 250.664 300.764 250.741 305.635 250.817 307.084 251.600 308.534 252.383 307.277 253.741 306.021 255.099 300.896 257.527 295.770 259.954 294.141 261.517 292.511 263.080 293.658 263.458 L 294.805 263.836 "></path>
    <path id="STROKE_ECC7F2B3-5219-4218-8C87-1510D866E331" opacity="1.000" fill="none" stroke="#000000" stroke-width="2.493" stroke-opacity="1.000" stroke-linecap="round" stroke-linejoin="round" d="M 330.332 268.988 Q 328.061 269.125 327.785 266.825 327.509 264.524 329.136 260.284 330.764 256.044 331.522 255.759 332.279 255.473 335.007 261.054 337.734 266.634 338.461 262.412 339.187 258.190 341.230 255.259 343.273 252.328 344.048 252.366 344.823 252.403 345.967 254.200 347.110 255.998 348.047 260.524 348.983 265.050 351.064 266.087 L 353.146 267.124 "></path>
    <path id="STROKE_EFE60DBA-7958-4D9F-8E68-B6D6DDD39DDF" opacity="1.000" fill="none" stroke="#000000" stroke-width="2.493" stroke-opacity="1.000" stroke-linecap="round" stroke-linejoin="round" d="M 362.781 256.253 Q 361.401 254.054 361.605 256.480 361.809 258.907 362.419 260.970 363.029 263.032 363.972 264.367 L 364.915 265.702 "></path>
    <path id="STROKE_45FFEFE4-25EE-44A0-B5E6-1D75995BADA0" opacity="1.000" fill="none" stroke="#000000" stroke-width="2.493" stroke-opacity="1.000" stroke-linecap="round" stroke-linejoin="round" d="M 374.033 267.819 Q 374.034 265.440 372.893 260.352 371.753 255.264 372.505 254.917 373.257 254.569 375.259 256.569 377.260 258.569 380.187 260.899 383.115 263.230 384.690 263.957 386.266 264.684 388.810 264.870 391.355 265.056 391.932 261.862 392.509 258.668 391.014 254.077 389.518 249.486 389.987 249.869 L 390.456 250.251 "></path>
    <path id="STROKE_C255AA12-5D88-4E19-9259-174849BA5BCB" opacity="1.000" fill="none" stroke="#000000" stroke-width="2.493" stroke-opacity="1.000" stroke-linecap="round" stroke-linejoin="round" d="M 415.023 248.349 Q 415.438 246.634 408.151 248.305 400.864 249.977 399.856 251.508 398.848 253.039 399.894 255.991 400.940 258.942 402.576 261.153 404.211 263.365 407.071 263.696 409.930 264.028 411.709 263.309 L 413.487 262.590 "></path>
    <path id="STROKE_0EE598BF-0F70-4AF6-AECD-2CCFEBA9D2C1" opacity="1.000" fill="none" stroke="#000000" stroke-width="2.553" stroke-opacity="1.000" stroke-linecap="round" stroke-linejoin="round" d="M 400.762 261.586 Q 399.532 261.389 399.546 260.423 399.560 259.457 402.107 258.230 404.654 257.003 411.209 255.067 L 417.765 253.130 "></path>
    <path id="STROKE_4A0F260C-3249-4D1D-964A-4C9971E10BD0" opacity="1.000" fill="none" stroke="#000000" stroke-width="2.643" stroke-opacity="1.000" stroke-linecap="round" stroke-linejoin="round" d="M 448.386 238.237 Q 448.345 241.779 449.038 245.364 449.731 248.949 451.457 256.606 453.183 264.263 453.348 265.622 L 453.513 266.981 "></path>
    <path id="STROKE_1A6EC9B6-ADE3-4882-BB6A-DE0485D2FB39" opacity="1.000" fill="none" stroke="#000000" stroke-width="3.543" stroke-opacity="1.000" stroke-linecap="round" stroke-linejoin="round" d="M 434.502 235.565 Q 434.317 233.945 438.915 233.010 443.513 232.075 449.204 232.637 454.894 233.199 459.159 235.217 463.423 237.234 468.125 241.299 472.827 245.364 474.402 247.635 475.977 249.905 476.368 253.760 476.758 257.615 474.718 260.317 472.678 263.019 468.608 265.820 464.539 268.621 460.862 270.475 457.186 272.328 452.254 274.183 447.321 276.037 448.196 275.206 L 449.071 274.375 "></path>
    <path id="STROKE_E33E305C-B044-4809-898D-4D321F8697D2" opacity="1.000" fill="none" stroke="#000000" stroke-width="2.493" stroke-opacity="1.000" stroke-linecap="round" stroke-linejoin="round" d="M 485.667 260.305 Q 485.055 259.631 484.878 261.909 484.701 264.187 485.004 266.618 485.307 269.050 484.068 265.990 482.829 262.931 482.549 260.017 482.270 257.103 482.656 254.444 483.041 251.786 484.080 250.486 485.118 249.185 486.468 248.607 487.818 248.028 489.304 248.069 490.789 248.110 491.874 248.901 492.960 249.691 493.467 251.327 493.974 252.963 489.717 256.046 485.460 259.130 484.927 260.232 484.394 261.334 487.543 263.005 490.693 264.677 495.160 268.309 499.626 271.941 500.754 270.676 L 501.881 269.411 "></path>
    <path id="STROKE_FD100A75-DF15-42A5-BD5C-D66475B8FC85" opacity="1.000" fill="none" stroke="#000000" stroke-width="2.493" stroke-opacity="1.000" stroke-linecap="round" stroke-linejoin="round" d="M 510.385 255.312 Q 509.877 255.225 509.943 257.100 510.008 258.974 510.214 260.174 510.420 261.374 510.647 264.515 510.874 267.656 510.795 269.294 L 510.715 270.932 "></path>
    <path id="STROKE_1C831093-6097-45FD-9445-14034CEE94D9" opacity="1.000" fill="none" stroke="#000000" stroke-width="2.493" stroke-opacity="1.000" stroke-linecap="round" stroke-linejoin="round" d="M 523.037 275.461 Q 522.870 270.756 521.919 260.422 520.968 250.089 520.934 248.928 520.899 247.768 522.633 248.466 L 524.368 249.164 "></path>
    <path id="STROKE_7D072DAF-C0F6-40C5-BF03-4F66D3E56AAD" opacity="1.000" fill="none" stroke="#000000" stroke-width="2.731" stroke-opacity="1.000" stroke-linecap="round" stroke-linejoin="round" d="M 520.450 250.200 Q 519.867 248.944 521.763 248.522 523.659 248.100 527.852 248.205 532.044 248.310 535.756 248.944 539.469 249.577 540.590 250.307 541.711 251.037 541.641 251.969 541.571 252.902 536.475 255.393 531.379 257.884 525.175 259.905 518.970 261.927 520.139 261.854 L 521.307 261.781 "></path>
    <path id="STROKE_C4062AC3-3A54-4272-A134-A86054307603" opacity="1.000" fill="none" stroke="#000000" stroke-width="2.554" stroke-opacity="1.000" stroke-linecap="round" stroke-linejoin="round" d="M 312.343 261.945 Q 310.612 269.020 309.687 271.075 308.763 273.131 308.729 272.068 308.695 271.005 309.619 268.028 310.544 265.050 312.563 261.245 314.583 257.440 315.745 256.250 316.907 255.060 317.968 262.040 319.028 269.020 320.453 273.786 321.879 278.552 321.650 276.897 L 321.421 275.243 "></path>
    <path id="STROKE_CD380756-97C3-4D40-8C82-CFB465BB6BBA" opacity="1.000" fill="none" stroke="#000000" stroke-width="2.493" stroke-opacity="1.000" stroke-linecap="round" stroke-linejoin="round" d="M 310.951 269.555 Q 311.800 269.351 312.462 268.791 313.123 268.231 314.489 267.340 315.855 266.450 318.434 265.190 L 321.013 263.930 "></path>
  </g>
</svg>