<?xml version="1.0" standalone="no"?>
<!DOCTYPE svg PUBLIC "-//W3C//DTD SVG 1.1//EN" "http://www.w3.org/Graphics/SVG/1.1/DTD/svg11.dtd">
<svg width="100%" height="100%" viewBox="0 0 1257 535" version="1.1" xmlns="http://www.w3.org/2000/svg" xmlns:xlink="http://www.w3.org/1999/xlink" xml:space="preserve" style="fill-rule:evenodd;clip-rule:evenodd;stroke-linecap:round;stroke-linejoin:round;stroke-miterlimit:1.41421;">
    <g transform="matrix(0.985345,0,0,0.985345,-30.953,298.197)">
        <rect x="39.324" y="26.869" width="204.631" height="204.631" style="fill:white;"/>
    </g>
    <g transform="matrix(0.985345,0,0,0.985345,-22.953,305.197)">
        <rect x="39.324" y="26.869" width="204.631" height="204.631" style="fill:rgb(104,200,124);"/>
    </g>
    <g transform="matrix(0.985345,0,0,0.985345,-30.953,298.197)">
        <rect x="39.324" y="26.869" width="204.631" height="204.631" style="fill:none;stroke-width:9.13px;stroke:black;"/>
    </g>
    <g transform="matrix(0.985345,0,0,0.985345,-30.953,-18.6813)">
        <rect x="39.324" y="26.869" width="204.631" height="204.631" style="fill:white;"/>
    </g>
    <g transform="matrix(0.985345,0,0,0.985345,-23.4236,-25.3382)">
        <rect x="39.324" y="26.869" width="204.631" height="204.631" style="fill:rgb(104,200,124);"/>
    </g>
    <g transform="matrix(0.985345,0,0,0.985345,-30.953,-18.6813)">
        <rect x="39.324" y="26.869" width="204.631" height="204.631" style="fill:none;stroke-width:9.13px;stroke:black;"/>
    </g>
    <g transform="matrix(0.881302,0,0,0.881302,329.123,150.915)">
        <rect x="39.324" y="26.869" width="204.631" height="204.631" style="fill:white;"/>
    </g>
    <g transform="matrix(0.881273,0.00709035,-0.00709035,0.881273,336.043,156.915)">
        <rect x="39.324" y="26.869" width="204.631" height="204.631" style="fill:rgb(207,55,32);"/>
    </g>
    <g transform="matrix(0.881302,0,0,0.881302,329.123,150.915)">
        <rect x="39.324" y="26.869" width="204.631" height="204.631" style="fill:none;stroke-width:10.21px;stroke:black;"/>
    </g>
    <g transform="matrix(0.881302,0,0,0.881302,681.555,150.419)">
        <rect x="39.324" y="26.869" width="204.631" height="204.631" style="fill:white;"/>
    </g>
    <g transform="matrix(0.880895,-0.0267753,0.0267753,0.880895,685.154,160.264)">
        <rect x="39.324" y="26.869" width="204.631" height="204.631" style="fill:rgb(244,189,64);"/>
    </g>
    <g transform="matrix(0.881302,0,0,0.881302,681.555,150.419)">
        <rect x="39.324" y="26.869" width="204.631" height="204.631" style="fill:none;stroke-width:10.21px;stroke:black;"/>
    </g>
    <g transform="matrix(0.881302,0,0,0.881302,1033.08,150.419)">
        <rect x="39.324" y="26.869" width="204.631" height="204.631" style="fill:white;"/>
    </g>
    <g transform="matrix(0.881225,0.0116206,-0.0116206,0.881225,1041.53,155.509)">
        <rect x="39.324" y="26.869" width="204.631" height="204.631" style="fill:rgb(49,168,184);"/>
    </g>
    <g transform="matrix(0.881302,0,0,0.881302,1033.08,150.419)">
        <rect x="39.324" y="26.869" width="204.631" height="204.631" style="fill:none;stroke-width:10.21px;stroke:black;"/>
    </g>
    <g transform="matrix(1.52919,0,0,1.52919,190.377,41.1017)">
        <path d="M612.525,138.96C612.041,129.802 601.145,128.954 594.488,130.73C594.811,139.688 594.448,150.704 594.77,158.53C596.586,158.733 600.016,158.773 601.51,158.37C601.55,158.37 601.59,158.33 601.63,158.33L601.63,158.29C601.428,150.46 601.59,149.654 601.47,148.16C606.593,149.01 611.84,145.175 612.485,140.05C612.525,139.728 612.525,139.365 612.525,139.002L612.525,138.962L612.525,138.96ZM605.463,137.266C606.875,138.114 607.077,140.051 606.19,141.262C604.898,142.552 602.558,142.31 600.863,142.432L600.743,142.432C600.218,140.818 600.5,138.316 600.38,136.379C600.42,136.339 600.46,136.339 600.5,136.339C602.235,135.894 604.132,136.177 605.463,137.266L605.463,137.266ZM633.507,158.653C631.893,154.213 628.584,150.461 626.324,146.467L626.324,146.427L626.526,146.427C629.109,146.265 630.763,144.853 631.772,142.917C635.122,137.307 631.005,130.327 624.63,130.004C620.716,129.559 617.044,130.124 614.018,130.568C614.421,133.272 614.623,158.773 614.3,158.773C614.825,158.653 619.505,159.096 621.32,158.329C621.2,156.269 620.797,150.904 621.12,148.483L621.2,148.603C623.5,151.428 625.76,156.27 626.81,158.733L626.85,158.733C629.27,158.893 631.65,158.653 633.548,158.653L633.508,158.653L633.507,158.653ZM619.909,136.217C621.805,135.451 623.782,135.249 624.952,136.339C626.445,137.509 626.282,140.736 624.226,141.179C622.934,141.381 621.401,141.299 620.15,141.179L620.11,141.179C619.91,139.969 620.03,137.589 619.91,136.216L619.909,136.217ZM652.31,134.886C651.987,133.958 651.422,133.111 650.656,132.426C647.549,130.044 642.546,129.963 638.996,131.699C638.631,131.899 638.349,132.142 638.066,132.424C636.412,134.32 635.969,136.902 635.928,139.324C635.645,143.56 635.968,147.797 636.13,151.994C636.17,153.567 636.332,155.141 637.098,156.472C638.066,158.612 640.205,159.095 642.425,159.297C643.998,159.417 645.531,159.337 647.025,158.893C648.679,158.45 650.252,157.723 651.18,156.433C652.15,154.858 652.592,152.881 652.714,150.985L652.834,149.653C653.036,146.869 652.874,144.246 653.036,141.381C653.076,140.051 653.076,138.718 652.956,137.387C652.836,136.54 652.673,135.692 652.31,134.885L652.31,134.886ZM647.993,144.731L647.993,146.671C647.993,146.791 647.953,147.678 647.913,148.767C647.711,151.107 648.113,151.107 647.105,152.439C645.451,154.296 642.061,154.053 641.012,151.915C640.487,150.14 640.528,148.122 640.245,146.225C640.125,143.965 640.165,141.665 640.609,139.608C640.929,138.478 641.576,137.55 642.504,136.824C643.351,136.179 644.562,135.814 645.652,136.259C646.902,136.864 647.629,138.196 647.749,139.689C647.789,140.617 647.911,141.949 647.911,141.989L647.991,144.732L647.993,144.731ZM669.944,133.877C668.974,132.304 667.28,130.932 665.544,130.487C662.438,130.609 658.887,130.125 655.82,130.892C655.78,130.932 655.74,131.012 655.7,131.052C655.9,140.414 655.175,150.219 656.345,158.732L656.385,158.692C659.775,158.692 663.447,158.692 666.998,158.572C669.056,156.03 671.033,153.205 672.122,150.017C672.122,149.977 672.162,149.977 672.162,149.937C672.647,147.475 672.606,144.893 672.728,142.351C672.688,141.504 672.648,140.657 672.365,139.811C671.88,137.671 671.115,135.694 669.945,133.878L669.944,133.877ZM666.231,148.525C665.911,149.009 665.506,149.493 664.981,149.815C664.699,149.937 664.537,150.098 664.255,150.058C663.285,150.178 662.115,150.341 661.511,149.816C661.309,146.184 661.631,142.271 661.431,139.366L661.431,139.204L661.551,139.204C662.521,139.002 663.651,139.042 664.578,139.164C666.393,139.809 666.878,141.827 667.2,143.481C667.643,145.459 667.16,147.113 666.23,148.526L666.231,148.525Z" style="fill:black;fill-rule:nonzero;"/>
    </g>
    <g transform="matrix(1.52919,0,0,1.52919,-14.6817,5.17942)">
        <path d="M69.245,266.765C70.085,266.765 70.34,266.619 70.449,266.582L70.449,265.852C70.449,264.867 70.412,263.919 70.412,262.934C70.412,261.584 70.448,260.306 70.448,258.884C70.448,256.804 70.448,254.687 70.411,252.644L70.411,240.894C69.718,240.747 68.915,240.674 68.001,240.674C67.091,240.674 66.214,240.747 65.375,240.894C65.339,242.098 65.302,243.119 65.302,244.141C65.302,245.894 65.412,247.499 65.412,249.433C65.412,250.273 65.302,251.33 65.156,251.44C65.046,251.44 62.383,246.038 62.091,245.345C61.215,243.302 60.887,243.047 60.194,241.258C60.194,241.04 57.784,240.893 57.164,240.893C56.581,240.893 55.997,240.93 55.524,241.04C55.268,244.14 55.194,247.462 55.194,250.82C55.194,255.38 55.304,259.357 55.304,263.992L55.304,266.546C56.434,266.546 57.639,266.766 58.807,266.766C59.353,266.766 59.864,266.728 60.412,266.582C60.375,265.742 60.375,264.685 60.375,263.554C60.375,259.467 60.485,254.284 60.63,254.284C60.74,254.284 60.923,254.834 61.105,255.38L61.47,256.475C62.6,259.575 64.28,262.97 65.885,266.582C66.87,266.582 68.257,266.765 69.242,266.765L69.245,266.765ZM88.33,261.62C85.01,261.73 81.98,261.437 78.77,261.437L78.732,261.401C78.622,260.234 78.477,258.263 78.732,256.841C79.244,256.439 81.652,256.841 83.148,256.439C83.111,254.651 83.33,253.009 83.075,251.367L83.075,251.33C81.579,251.293 80.045,251.33 78.585,251.22L78.55,251.184C78.22,249.87 78.55,248.338 78.514,246.914L78.55,246.878L78.66,246.878C81.87,246.586 85.118,247.133 88.22,246.44L88.22,246.403C88.22,244.689 88.475,242.937 88.22,241.223C88.22,241.003 78.77,241.149 73.113,241.441C72.639,249.798 73.076,257.935 73.076,266.401C77.784,266.803 83.076,266.438 88.036,266.474C88.439,265.014 88.439,263.264 88.329,261.694L88.329,261.621L88.33,261.62ZM105.773,241.15C104.966,241.076 104.166,241.04 103.325,241.04C102.45,241.04 101.575,241.076 100.735,241.258L100.735,241.295C100.335,245.565 100.483,252.607 100.083,256.803C99.495,255.343 98.51,250.016 98.073,249.687C98.036,249.724 98.036,249.761 97.999,249.87C97.451,252.06 96.977,254.14 96.356,256.33C95.298,252.132 95.991,245.42 95.59,241.112C94.715,241.076 93.73,241.002 92.745,241.002C91.905,241.002 91.103,241.076 90.373,241.186L90.373,241.222C90.519,249.652 91.868,258.08 93.036,266.4L93.073,266.4C93.62,266.473 94.058,266.51 94.459,266.51C95.152,266.51 95.626,266.437 96.247,266.327C97.013,265.087 97.341,261.147 98.217,260.269L98.254,260.269C99.129,261.619 99.567,265.341 100.407,266.472L102.157,266.472C102.632,266.472 103.073,266.508 103.397,266.399C104.09,257.933 105.08,249.614 105.807,241.185L105.772,241.148L105.773,241.15ZM32.262,294.57C32.335,294.57 32.372,294.534 32.372,294.497C32.19,292.747 32.555,289.243 32.262,288.513C31.168,288.623 29.052,288.695 27.665,288.513C27.628,288.513 27.628,288.513 27.592,288.476C27.154,287.71 26.972,286.469 27.519,285.192C30.547,284.902 34.633,284.792 37.261,284.608C37.371,283.368 37.261,280.485 37.261,279.208C33.173,278.186 23.468,278.843 20.949,279.281L20.949,279.318C20.949,290.668 20.877,295.192 20.877,304.022L20.914,304.06C21.314,304.28 25.364,304.242 27.264,304.06C27.299,301.286 27.299,298.185 27.554,295.12L27.591,295.12C29.051,294.864 30.766,294.827 32.261,294.572L32.262,294.57ZM54.34,299.13C51.018,299.24 47.99,298.95 44.78,298.95L44.742,298.912C44.632,297.745 44.487,295.774 44.742,294.352C45.252,293.95 47.662,294.352 49.157,293.95C49.121,292.162 49.34,290.52 49.084,288.878L49.084,288.841C47.589,288.805 46.056,288.841 44.596,288.733L44.559,288.696C44.229,287.383 44.559,285.85 44.522,284.426L44.558,284.391L44.668,284.391C47.878,284.098 51.126,284.646 54.228,283.953L54.228,283.916C54.228,282.201 54.483,280.45 54.228,278.734C54.228,278.516 44.778,278.662 39.121,278.954C38.647,287.31 39.084,295.447 39.084,303.914C43.791,304.314 49.082,303.949 54.044,303.984C54.446,302.526 54.446,300.774 54.337,299.206L54.337,299.132L54.34,299.13ZM69.117,291.286C68.533,288.841 66.563,280.266 66.125,278.368C62.915,278.661 62.33,278.442 61.637,278.551C58.134,290.229 56.347,303.037 56.054,304.021C56.09,304.059 56.09,304.059 56.127,304.059C59.447,304.022 60.834,304.204 61.235,304.095C61.272,304.095 61.309,304.059 61.345,304.059C62.185,302.453 62.295,299.497 62.951,297.964C64.046,297.964 63.973,297.819 65.214,298.001C65.871,299.424 66.344,302.381 66.929,303.949L66.966,303.949C68.534,304.279 70.396,304.387 71.856,304.095L71.856,304.059L69.118,291.287L69.117,291.286ZM65.395,293.658C64.483,293.658 63.535,293.695 62.695,293.658C63.715,286.178 63.935,281.068 65.395,293.658ZM85.428,278.733C80.428,278.186 74.992,278.368 70.03,278.405C70.03,278.442 70.066,278.442 70.066,278.478C69.884,280.778 70.03,283.842 70.212,284.208C70.796,284.39 73.459,284.061 74.592,284.645L74.627,284.681C75.211,298.293 74.773,303.694 74.882,304.131C76.634,303.839 79.079,304.168 80.867,303.876L80.867,303.803C80.575,287.857 80.537,285.193 80.685,284.5C80.685,284.462 80.721,284.426 80.721,284.39L80.831,284.39C83.131,284.28 84.371,284.207 85.284,284.39C85.539,282.638 85.539,280.34 85.429,278.733L85.428,278.733ZM102.98,279.682C101.812,278.989 99.002,279.464 97.652,279.572C97.507,285.229 97.579,291.395 97.324,297.234C96.849,299.46 93.529,299.788 92.836,297.416C92.361,291.359 92.252,285.376 92.506,279.5L92.506,279.464C91.048,279.062 88.858,279.281 87.362,279.281L87.326,279.281L87.362,279.318C87.472,285.74 87.216,292.308 87.216,298.731C87.399,303.221 92.434,305.007 96.558,304.606C100.062,304.278 102.138,301.796 102.545,298.586C103.235,292.309 103.27,285.923 102.979,279.683L102.98,279.682ZM122.973,303.984C121.515,299.97 118.523,296.577 116.483,292.964L116.483,292.928L116.666,292.928C118.999,292.782 120.498,291.505 121.406,289.753C124.438,284.681 120.716,278.368 114.95,278.077C111.41,277.675 108.086,278.187 105.353,278.587C105.719,281.032 105.903,304.094 105.61,304.094C106.085,303.984 110.317,304.386 111.96,303.694C111.85,301.832 111.484,296.979 111.776,294.789L111.85,294.899C113.926,297.452 115.967,301.831 116.917,304.057L116.957,304.057C119.141,304.202 121.297,303.983 123.014,303.983L122.974,303.983L122.973,303.984ZM110.677,283.696C112.393,283.003 114.183,282.82 115.241,283.806C116.591,284.864 116.443,287.783 114.584,288.186C113.418,288.366 112.027,288.294 110.902,288.186L110.862,288.186C110.679,287.09 110.787,284.936 110.679,283.696L110.677,283.696ZM139.835,299.13C136.511,299.24 133.485,298.95 130.271,298.95L130.238,298.912C130.13,297.745 129.981,295.774 130.238,294.352C130.748,293.95 133.162,294.352 134.654,293.95C134.62,292.162 134.837,290.52 134.579,288.878L134.579,288.841C133.087,288.805 131.554,288.841 130.096,288.733L130.056,288.696C129.73,287.383 130.056,285.85 130.021,284.426L130.055,284.391L130.165,284.391C133.379,284.098 136.627,284.646 139.727,283.953L139.727,283.916C139.727,282.201 139.977,280.45 139.727,278.734C139.727,278.516 130.272,278.662 124.622,278.954C124.149,287.31 124.582,295.447 124.582,303.914C129.29,304.314 134.58,303.949 139.545,303.984C139.945,302.526 139.945,300.774 139.837,299.206L139.837,299.132L139.835,299.13Z" style="fill:black;fill-rule:nonzero;"/>
    </g>
    <g transform="matrix(1.52919,0,0,1.52919,-8.46335,-4.77668)">
        <path d="M64.25,54.853C63.995,54.561 63.886,54.413 64.068,54.086C65.054,52.444 65.856,50.436 65.856,48.394C65.856,40.22 57.208,40.038 51.369,41.644L51.332,41.68C51.478,50.146 51.15,58.356 51.442,66.785C51.697,66.895 51.952,66.858 52.245,66.858C57.535,67.004 65.563,68.536 66.731,61.64C67.315,58.502 65.781,56.75 64.251,54.853L64.25,54.853ZM60.82,60.91C59.835,62.077 58.047,61.822 56.697,61.822L56.624,61.786C55.821,60.618 56.15,58.1 56.514,56.676C57.427,56.786 58.449,56.714 59.361,56.969C59.981,57.114 60.639,57.625 60.931,58.209C61.259,59.049 61.369,60.179 60.821,60.909L60.82,60.91ZM60.784,50.51C60.018,51.97 58.011,51.788 56.551,51.605C56.114,49.89 56.515,48.211 56.406,47.081C57.136,46.681 58.34,46.789 59.326,46.971C60.092,47.154 60.712,47.556 61.113,48.321C61.515,49.089 61.113,49.928 60.785,50.511L60.784,50.51ZM84.685,42.52C83.517,41.826 80.707,42.3 79.357,42.41C79.211,48.065 79.284,54.232 79.029,60.07C78.554,62.296 75.233,62.625 74.539,60.253C74.065,54.196 73.956,48.211 74.211,42.336L74.211,42.3C72.751,41.9 70.561,42.118 69.066,42.118L69.03,42.118L69.067,42.154C69.177,48.576 68.921,55.144 68.921,61.567C69.104,66.055 74.141,67.843 78.263,67.442C81.767,67.112 83.847,64.632 84.248,61.422C84.941,55.144 84.978,48.759 84.686,42.519L84.685,42.52ZM94.793,54.232C94.756,54.269 94.719,54.269 94.719,54.269C94.682,54.269 94.682,54.269 94.682,54.304L94.682,54.341C94.864,56.021 94.646,56.603 94.828,58.171C95.301,58.355 96.945,58.136 97.528,58.245C97.82,58.355 97.603,60.033 97.494,60.435C97.311,61.128 96.904,61.493 96.359,61.748C95.667,62.003 94.829,62.185 94.099,62.075C93.769,62.003 93.479,61.893 93.259,61.747C92.346,61.017 92.164,59.557 92.055,58.499C91.763,54.849 91.909,50.325 92.602,47.989C92.712,47.589 92.894,47.114 93.004,47.004C93.587,46.42 94.39,46.566 95.229,46.604C96.654,46.604 97.419,48.646 97.712,49.632C99.17,49.814 99.72,49.742 101.144,49.742C101.91,49.704 102.202,49.742 102.311,49.595L102.344,49.375C103.036,43.428 98.438,40.728 93.004,41.421C91.69,41.604 90.449,41.931 89.464,42.771C88.041,43.757 87.566,45.361 87.311,46.968C87.055,48.538 86.983,50.18 86.946,51.748C86.836,55.361 87.019,57.003 87.311,60.105C87.421,61.09 87.603,62.112 87.749,62.659C88.333,64.739 89.245,66.127 91.179,66.966C93.514,67.951 96.505,67.404 98.913,66.711C100.778,66.018 102.127,64.851 102.378,62.369C102.852,59.741 102.676,56.713 102.378,54.122L102.343,54.085L102.269,54.085C101.286,54.085 96.032,53.465 94.792,54.231L94.793,54.232ZM67.024,94.92C67.096,94.92 67.134,94.882 67.134,94.845C66.951,93.095 67.316,89.591 67.024,88.861C65.929,88.971 63.812,89.045 62.426,88.861C62.389,88.861 62.389,88.861 62.353,88.826C61.915,88.059 61.733,86.819 62.28,85.541C65.31,85.251 69.396,85.141 72.023,84.958C72.133,83.718 72.023,80.834 72.023,79.558C67.936,78.535 58.23,79.192 55.713,79.631L55.713,79.667C55.713,91.015 55.639,95.54 55.639,104.37L55.674,104.406C56.076,104.626 60.126,104.588 62.024,104.406C62.06,101.633 62.06,98.531 62.314,95.466L62.352,95.466C63.812,95.21 65.527,95.174 67.022,94.919L67.024,94.92ZM79.503,78.79C77.313,78.827 76.365,78.717 75.489,78.68C75.159,78.68 74.249,78.57 73.993,78.607L73.993,78.681C73.116,86.855 74.393,95.795 73.7,104.589C74.723,104.299 79.54,105.063 80.343,104.261C79.868,95.978 80.379,87.293 80.379,78.937L80.379,78.791L79.502,78.791L79.503,78.79ZM98.405,78.972C98.405,78.936 98.439,78.936 98.439,78.899L98.404,78.899C95.631,78.899 94.098,78.935 92.821,79.045L92.821,79.081C92.127,81.234 91.179,85.431 90.303,87.401C89.61,85.539 88.478,81.381 87.895,79.336C87.749,79.081 87.311,79.154 85.997,79.154C85.122,79.154 83.917,79.19 82.347,79.3C83.954,83.424 85.669,87.51 86.507,91.78C85.633,95.867 83.699,100.5 82.713,104.114C83.626,104.442 84.829,104.442 85.961,104.442C86.545,104.442 87.129,104.406 87.676,104.369C88.843,101.887 89.172,98.786 90.413,96.012L90.449,96.049C91.617,98.347 91.872,101.887 92.929,104.222L92.967,104.259C93.441,104.369 93.952,104.405 94.572,104.405C95.412,104.405 96.142,104.332 96.905,104.332C97.237,104.332 97.529,104.332 97.855,104.368C96.871,100.353 95.155,96.12 94.463,91.998C95.156,87.473 97.053,83.203 98.403,78.97L98.405,78.972Z" style="fill:black;fill-rule:nonzero;"/>
    </g>
    <g transform="matrix(4.5472,0,0,4.5472,-2292.54,-795.209)">
        <path d="M599.892,222.416C599.508,222.188 598.584,222.344 598.14,222.38C598.092,224.24 598.116,226.268 598.032,228.188C597.876,228.92 596.784,229.028 596.556,228.248C596.4,226.256 596.364,224.288 596.448,222.356L596.448,222.344C595.968,222.212 595.248,222.284 594.756,222.284L594.744,222.284L594.756,222.296C594.792,224.408 594.708,226.568 594.708,228.68C594.768,230.156 596.424,230.744 597.78,230.612C598.932,230.504 599.616,229.688 599.748,228.632C599.976,226.568 599.988,224.468 599.892,222.416Z" style="fill:black;fill-rule:nonzero;"/>
        <path d="M605.304,230.504C605.58,230.504 605.664,230.456 605.7,230.444L605.7,230.204C605.7,229.88 605.688,229.568 605.688,229.244C605.688,228.8 605.7,228.38 605.7,227.912C605.7,227.228 605.7,226.532 605.688,225.86L605.688,221.996C605.46,221.948 605.196,221.924 604.896,221.924C604.596,221.924 604.308,221.948 604.032,221.996C604.02,222.392 604.008,222.728 604.008,223.064C604.008,223.64 604.044,224.168 604.044,224.804C604.044,225.08 604.008,225.428 603.96,225.464C603.924,225.464 603.048,223.688 602.952,223.46C602.664,222.788 602.556,222.704 602.328,222.116C602.328,222.044 601.536,221.996 601.332,221.996C601.14,221.996 600.948,222.008 600.792,222.044C600.708,223.064 600.684,224.156 600.684,225.26C600.684,226.76 600.72,228.068 600.72,229.592L600.72,230.432C601.092,230.432 601.488,230.504 601.872,230.504C602.052,230.504 602.22,230.492 602.4,230.444C602.388,230.168 602.388,229.82 602.388,229.448C602.388,228.104 602.424,226.4 602.472,226.4C602.508,226.4 602.568,226.58 602.628,226.76L602.748,227.12C603.12,228.14 603.672,229.256 604.2,230.444C604.524,230.444 604.98,230.504 605.304,230.504Z" style="fill:black;fill-rule:nonzero;"/>
        <path d="M608.424,222.008C607.704,222.02 607.392,221.984 607.104,221.972C606.996,221.972 606.696,221.936 606.612,221.948L606.612,221.972C606.324,224.66 606.744,227.6 606.516,230.492C606.852,230.396 608.436,230.648 608.7,230.384C608.544,227.66 608.712,224.804 608.712,222.056L608.712,222.008L608.424,222.008Z" style="fill:black;fill-rule:nonzero;"/>
        <path d="M614.34,222.104C612.696,221.924 610.908,221.984 609.276,221.996C609.276,222.008 609.288,222.008 609.288,222.02C609.228,222.776 609.276,223.784 609.336,223.904C609.528,223.964 610.404,223.856 610.776,224.048L610.788,224.06C610.98,228.536 610.836,230.312 610.872,230.456C611.448,230.36 612.252,230.468 612.84,230.372L612.84,230.36L612.84,230.348C612.744,225.104 612.732,224.228 612.78,224C612.78,223.988 612.792,223.976 612.792,223.964L612.828,223.964C613.584,223.928 613.992,223.904 614.292,223.964C614.376,223.388 614.376,222.632 614.34,222.104Z" style="fill:black;fill-rule:nonzero;"/>
        <path d="M595.44,234.44C593.796,234.26 592.008,234.32 590.376,234.332C590.376,234.344 590.388,234.344 590.388,234.356C590.328,235.112 590.376,236.12 590.436,236.24C590.628,236.3 591.504,236.192 591.876,236.384L591.888,236.396C592.08,240.872 591.936,242.648 591.972,242.792C592.548,242.696 593.352,242.804 593.94,242.708L593.94,242.696L593.94,242.684C593.844,237.44 593.832,236.564 593.88,236.336C593.88,236.324 593.892,236.312 593.892,236.3L593.928,236.3C594.684,236.264 595.092,236.24 595.392,236.3C595.476,235.724 595.476,234.968 595.44,234.44Z" style="fill:black;fill-rule:nonzero;"/>
        <path d="M601.188,241.148C600.096,241.184 599.1,241.088 598.044,241.088L598.032,241.076C597.996,240.692 597.948,240.044 598.032,239.576C598.2,239.444 598.992,239.576 599.484,239.444C599.472,238.856 599.544,238.316 599.46,237.776L599.46,237.764C598.968,237.752 598.464,237.764 597.984,237.728L597.972,237.716C597.864,237.284 597.972,236.78 597.96,236.312L597.972,236.3L598.008,236.3C599.064,236.204 600.132,236.384 601.152,236.156L601.152,236.144C601.152,235.58 601.236,235.004 601.152,234.44C601.152,234.368 598.044,234.416 596.184,234.512C596.028,237.26 596.172,239.936 596.172,242.72C597.72,242.852 599.46,242.732 601.092,242.744C601.224,242.264 601.224,241.688 601.188,241.172L601.188,241.148Z" style="fill:black;fill-rule:nonzero;"/>
        <path d="M606.936,237.092C607.164,235.892 606.672,235.112 605.904,234.716C605.136,234.368 604.02,234.26 603.24,234.584C601.704,235.22 600.972,237.404 602.448,238.808C602.676,239 602.94,239.156 603.264,239.216C603.936,239.348 604.884,239.456 604.98,240.224C605.172,241.34 603.42,241.316 603.36,240.296C602.82,240.308 602.088,240.224 601.524,240.308L601.524,240.38C601.428,241.904 602.952,242.804 604.356,242.84C605.34,242.876 606.288,242.444 606.672,241.46C607.056,240.632 607.044,239.6 606.48,238.88C606.012,238.196 605.256,237.716 604.404,237.62C604.068,237.572 603.756,237.488 603.624,237.104C603.612,236.996 603.588,236.888 603.624,236.78C603.756,235.88 605.316,236.204 605.124,237.08C605.688,237.236 606.36,237.188 606.924,237.092L606.936,237.092Z" style="fill:black;fill-rule:nonzero;"/>
        <path d="M612.708,234.44C611.064,234.26 609.276,234.32 607.644,234.332C607.644,234.344 607.656,234.344 607.656,234.356C607.596,235.112 607.644,236.12 607.704,236.24C607.896,236.3 608.772,236.192 609.144,236.384L609.156,236.396C609.348,240.872 609.204,242.648 609.24,242.792C609.816,242.696 610.62,242.804 611.208,242.708L611.208,242.696L611.208,242.684C611.112,237.44 611.1,236.564 611.148,236.336C611.148,236.324 611.16,236.312 611.16,236.3L611.196,236.3C611.952,236.264 612.36,236.24 612.66,236.3C612.744,235.724 612.744,234.968 612.708,234.44Z" style="fill:black;fill-rule:nonzero;"/>
        <path d="M618.312,237.092C618.54,235.892 618.048,235.112 617.28,234.716C616.512,234.368 615.396,234.26 614.616,234.584C613.08,235.22 612.348,237.404 613.824,238.808C614.052,239 614.316,239.156 614.64,239.216C615.312,239.348 616.26,239.456 616.356,240.224C616.548,241.34 614.796,241.316 614.736,240.296C614.196,240.308 613.464,240.224 612.9,240.308L612.9,240.38C612.804,241.904 614.328,242.804 615.732,242.84C616.716,242.876 617.664,242.444 618.048,241.46C618.432,240.632 618.42,239.6 617.856,238.88C617.388,238.196 616.632,237.716 615.78,237.62C615.444,237.572 615.132,237.488 615,237.104C614.988,236.996 614.964,236.888 615,236.78C615.132,235.88 616.692,236.204 616.5,237.08C617.064,237.236 617.736,237.188 618.3,237.092L618.312,237.092Z" style="fill:black;fill-rule:nonzero;"/>
    </g>
    <g transform="matrix(4.5472,0,0,4.5472,-1940.93,-795.577)">
        <path d="M600.63,226.232C600.438,225.428 599.79,222.608 599.646,221.984C598.59,222.08 598.398,222.008 598.17,222.044C597.018,225.884 596.43,230.096 596.334,230.42C596.346,230.432 596.346,230.432 596.358,230.432C597.45,230.42 597.906,230.48 598.038,230.444C598.05,230.444 598.062,230.432 598.074,230.432C598.35,229.904 598.386,228.932 598.602,228.428C598.962,228.428 598.938,228.38 599.346,228.44C599.562,228.908 599.718,229.88 599.91,230.396L599.922,230.396C600.438,230.504 601.05,230.54 601.53,230.444L601.53,230.432L600.63,226.232ZM599.406,227.012C599.106,227.012 598.794,227.024 598.518,227.012C598.854,224.552 598.926,222.872 599.406,227.012Z" style="fill:black;fill-rule:nonzero;"/>
        <path d="M607.122,229.352C607.11,229.22 607.122,229.04 607.134,228.884C607.146,228.8 607.146,228.704 607.146,228.62C606.762,228.668 604.35,228.452 604.038,228.548L604.038,228.536C604.074,226.472 603.966,224.12 604.026,222.044C603.57,221.852 602.43,221.876 602.106,222.008C602.154,225.38 602.214,226.64 602.07,230.24L602.07,230.456C605.934,230.516 606.474,230.408 606.81,230.444C607.146,230.444 607.182,230.504 607.122,229.352Z" style="fill:black;fill-rule:nonzero;"/>
        <path d="M612.666,229.352C612.654,229.22 612.666,229.04 612.678,228.884C612.69,228.8 612.69,228.704 612.69,228.62C612.306,228.668 609.894,228.452 609.582,228.548L609.582,228.536C609.618,226.472 609.51,224.12 609.57,222.044C609.114,221.852 607.974,221.876 607.65,222.008C607.698,225.38 607.758,226.64 607.614,230.24L607.614,230.456C611.478,230.516 612.018,230.408 612.354,230.444C612.69,230.444 612.726,230.504 612.666,229.352Z" style="fill:black;fill-rule:nonzero;"/>
        <path d="M595.44,234.44C593.796,234.26 592.008,234.32 590.376,234.332C590.376,234.344 590.388,234.344 590.388,234.356C590.328,235.112 590.376,236.12 590.436,236.24C590.628,236.3 591.504,236.192 591.876,236.384L591.888,236.396C592.08,240.872 591.936,242.648 591.972,242.792C592.548,242.696 593.352,242.804 593.94,242.708L593.94,242.696L593.94,242.684C593.844,237.44 593.832,236.564 593.88,236.336C593.88,236.324 593.892,236.312 593.892,236.3L593.928,236.3C594.684,236.264 595.092,236.24 595.392,236.3C595.476,235.724 595.476,234.968 595.44,234.44Z" style="fill:black;fill-rule:nonzero;"/>
        <path d="M601.188,241.148C600.096,241.184 599.1,241.088 598.044,241.088L598.032,241.076C597.996,240.692 597.948,240.044 598.032,239.576C598.2,239.444 598.992,239.576 599.484,239.444C599.472,238.856 599.544,238.316 599.46,237.776L599.46,237.764C598.968,237.752 598.464,237.764 597.984,237.728L597.972,237.716C597.864,237.284 597.972,236.78 597.96,236.312L597.972,236.3L598.008,236.3C599.064,236.204 600.132,236.384 601.152,236.156L601.152,236.144C601.152,235.58 601.236,235.004 601.152,234.44C601.152,234.368 598.044,234.416 596.184,234.512C596.028,237.26 596.172,239.936 596.172,242.72C597.72,242.852 599.46,242.732 601.092,242.744C601.224,242.264 601.224,241.688 601.188,241.172L601.188,241.148Z" style="fill:black;fill-rule:nonzero;"/>
        <path d="M606.936,237.092C607.164,235.892 606.672,235.112 605.904,234.716C605.136,234.368 604.02,234.26 603.24,234.584C601.704,235.22 600.972,237.404 602.448,238.808C602.676,239 602.94,239.156 603.264,239.216C603.936,239.348 604.884,239.456 604.98,240.224C605.172,241.34 603.42,241.316 603.36,240.296C602.82,240.308 602.088,240.224 601.524,240.308L601.524,240.38C601.428,241.904 602.952,242.804 604.356,242.84C605.34,242.876 606.288,242.444 606.672,241.46C607.056,240.632 607.044,239.6 606.48,238.88C606.012,238.196 605.256,237.716 604.404,237.62C604.068,237.572 603.756,237.488 603.624,237.104C603.612,236.996 603.588,236.888 603.624,236.78C603.756,235.88 605.316,236.204 605.124,237.08C605.688,237.236 606.36,237.188 606.924,237.092L606.936,237.092Z" style="fill:black;fill-rule:nonzero;"/>
        <path d="M612.708,234.44C611.064,234.26 609.276,234.32 607.644,234.332C607.644,234.344 607.656,234.344 607.656,234.356C607.596,235.112 607.644,236.12 607.704,236.24C607.896,236.3 608.772,236.192 609.144,236.384L609.156,236.396C609.348,240.872 609.204,242.648 609.24,242.792C609.816,242.696 610.62,242.804 611.208,242.708L611.208,242.696L611.208,242.684C611.112,237.44 611.1,236.564 611.148,236.336C611.148,236.324 611.16,236.312 611.16,236.3L611.196,236.3C611.952,236.264 612.36,236.24 612.66,236.3C612.744,235.724 612.744,234.968 612.708,234.44Z" style="fill:black;fill-rule:nonzero;"/>
        <path d="M618.312,237.092C618.54,235.892 618.048,235.112 617.28,234.716C616.512,234.368 615.396,234.26 614.616,234.584C613.08,235.22 612.348,237.404 613.824,238.808C614.052,239 614.316,239.156 614.64,239.216C615.312,239.348 616.26,239.456 616.356,240.224C616.548,241.34 614.796,241.316 614.736,240.296C614.196,240.308 613.464,240.224 612.9,240.308L612.9,240.38C612.804,241.904 614.328,242.804 615.732,242.84C616.716,242.876 617.664,242.444 618.048,241.46C618.432,240.632 618.42,239.6 617.856,238.88C617.388,238.196 616.632,237.716 615.78,237.62C615.444,237.572 615.132,237.488 615,237.104C614.988,236.996 614.964,236.888 615,236.78C615.132,235.88 616.692,236.204 616.5,237.08C617.064,237.236 617.736,237.188 618.3,237.092L618.312,237.092Z" style="fill:black;fill-rule:nonzero;"/>
    </g>
    <g transform="matrix(1,0,0,1,-22.3561,-10.7335)">
        <path d="M253.856,134.523L354.611,221.278" style="fill:none;stroke-width:9px;stroke:black;"/>
    </g>
    <g transform="matrix(0.998689,-0.051179,0.051179,0.998689,-33.5358,9.07326)">
        <path d="M330.046,220.559L355.183,220.559L355.183,194.794L332.541,217.436" style="fill:black;stroke-width:9px;stroke:black;"/>
    </g>
    <g transform="matrix(-1.60812e-16,-1,1,-1.60812e-16,103.337,660.074)">
        <path d="M253.856,134.523L354.611,221.278" style="fill:none;stroke-width:9px;stroke:black;"/>
    </g>
    <g transform="matrix(-0.0950364,-0.995474,0.995474,-0.0950364,138.838,679.26)">
        <path d="M330.046,220.559L355.183,220.559L355.183,194.794L332.541,217.436" style="fill:black;stroke-width:9px;stroke:black;"/>
    </g>
    <g transform="matrix(0.583662,-0.506768,0.505522,0.582227,360.697,310.169)">
        <path d="M253.856,134.523L354.611,221.278" style="fill:none;stroke-width:11.66px;stroke:black;"/>
    </g>
    <g transform="matrix(0.710425,-0.703773,0.703773,0.710425,272.552,352.643)">
        <path d="M330.046,220.559L355.183,220.559L355.183,194.794L332.541,217.436" style="fill:black;stroke-width:9px;stroke:black;"/>
    </g>
    <g transform="matrix(0.583662,-0.506768,0.505522,0.582227,713.096,310.169)">
        <path d="M253.856,134.523L354.611,221.278" style="fill:none;stroke-width:11.66px;stroke:black;"/>
    </g>
    <g transform="matrix(0.710425,-0.703773,0.703773,0.710425,624.951,352.643)">
        <path d="M330.046,220.559L355.183,220.559L355.183,194.794L332.541,217.436" style="fill:black;stroke-width:9px;stroke:black;"/>
    </g>
    <g transform="matrix(0.970491,0,0,0.811276,-5.09018,20.5904)">
        <path d="M483.34,165.977C483.34,165.977 487.521,118.886 440.53,95.099C406.853,78.053 341.129,82.023 255.415,82.023" style="fill:none;stroke-width:10.06px;stroke-dasharray:10.06,30.19,10.06,0;stroke:black;"/>
    </g>
    <g transform="matrix(-0.508323,0.41239,-0.508323,-0.41239,524.248,-17.3767)">
        <path d="M330.046,220.559L355.183,220.559L355.183,194.794L332.541,217.436" style="fill:black;stroke-width:12.52px;stroke:black;"/>
    </g>
    <g transform="matrix(-0.508323,0.41239,-0.508323,-0.41239,524.248,31.0809)">
        <path d="M330.046,220.559L355.183,220.559L355.183,194.794L332.541,217.436" style="fill:black;stroke-width:12.52px;stroke:black;"/>
    </g>
    <g transform="matrix(0.991256,0,0,0.811276,-19.0671,-28.0763)">
        <path d="M833.363,225.768C833.363,225.768 843.214,140.571 726.135,107.058C606.635,72.852 359.125,82.023 255.415,82.023" style="fill:none;stroke-width:9.94px;stroke-dasharray:9.94,29.81,9.94,0;stroke:black;"/>
    </g>
    <g transform="matrix(0.970491,0,0,-0.811276,-5.09018,510.042)">
        <path d="M483.34,165.977C483.34,165.977 487.521,118.886 440.53,95.099C406.853,78.053 341.129,82.023 255.415,82.023" style="fill:none;stroke-width:10.06px;stroke-dasharray:10.06,30.19,10.06,0;stroke:black;"/>
    </g>
    <g transform="matrix(-0.508323,-0.41239,-0.508323,0.41239,524.248,548.009)">
        <path d="M330.046,220.559L355.183,220.559L355.183,194.794L332.541,217.436" style="fill:black;stroke-width:12.52px;stroke:black;"/>
    </g>
    <g transform="matrix(-0.508323,-0.41239,-0.508323,0.41239,524.248,499.552)">
        <path d="M330.046,220.559L355.183,220.559L355.183,194.794L332.541,217.436" style="fill:black;stroke-width:12.52px;stroke:black;"/>
    </g>
    <g transform="matrix(0.991256,0,0,-0.811276,-19.0671,558.709)">
        <path d="M833.363,225.768C833.363,225.768 843.214,140.571 726.135,107.058C606.635,72.852 359.125,82.023 255.415,82.023" style="fill:none;stroke-width:9.94px;stroke-dasharray:9.94,29.81,9.94,0;stroke:black;"/>
    </g>
</svg>
