<?xml version="1.0" standalone="no"?>
<!DOCTYPE svg PUBLIC "-//W3C//DTD SVG 1.1//EN" "http://www.w3.org/Graphics/SVG/1.1/DTD/svg11.dtd">
<svg width="100%" height="100%" viewBox="0 0 370 496" version="1.1" xmlns="http://www.w3.org/2000/svg" xmlns:xlink="http://www.w3.org/1999/xlink" xml:space="preserve" style="fill-rule:evenodd;clip-rule:evenodd;stroke-linecap:round;stroke-linejoin:round;stroke-miterlimit:1.41421;">
    <g transform="matrix(0.75,0,0,0.75,-0,-0)">
        <g transform="matrix(1,0,0,1,-52.9849,-17.0163)">
            <path d="M151.24,333.346C151.24,333.346 57.745,286.667 58.183,211.604C58.62,136.54 239.575,-22.676 378.285,104.62C516.995,231.915 606.907,227.586 473.466,333.376" style="fill:white;"/>
        </g>
        <g transform="matrix(0.996653,0,0,1.01456,-45.5277,-22.9543)">
            <path d="M151.24,333.346C151.24,333.346 57.745,286.667 58.183,211.604C58.62,136.54 239.575,-22.676 378.285,104.62C516.995,231.915 606.907,227.586 473.466,333.376" style="fill:rgb(49,168,184);"/>
        </g>
        <g transform="matrix(1,0,0,1,-52.9849,-17.0163)">
            <path d="M151.24,333.346C151.24,333.346 57.745,286.667 58.183,211.604C58.62,136.54 239.575,-22.676 378.285,104.62C516.995,231.915 606.907,227.586 473.466,333.376" style="fill:none;stroke-width:6px;stroke:black;"/>
        </g>
        <path d="M194.275,505.497C194.061,520.142 202.445,550.415 121.437,546.423C38.821,542.352 -49.994,619.804 57.854,627.45C165.702,635.096 437.369,642.172 464.955,613.907C507.24,570.583 421.984,584.602 373.808,561.573C331.255,541.233 309.761,531.58 315.272,514.538" style="fill:white;"/>
        <g transform="matrix(1,0,0,1,-6.84044,4.82817)">
            <path d="M194.275,505.497C194.061,520.142 202.445,550.415 121.437,546.423C38.821,542.352 -49.994,619.804 57.854,627.45C165.702,635.096 437.369,642.172 464.955,613.907C507.24,570.583 422.447,583.608 373.808,561.573C332.461,542.842 306.542,521.922 312.053,504.88" style="fill:rgb(49,168,184);"/>
        </g>
        <g transform="matrix(-0.458428,1.92461e-16,-1.47442e-16,-0.598403,599.627,707.516)">
            <path d="M609.87,321.142L654.896,330.852L695.725,307.604L763.382,330.216L807.17,312.725L871.414,341.853L899.334,316.961L1119.86,652.593L379.781,652.593L529.341,424.971L609.87,321.142Z" style="fill:white;stroke-width:13.13px;stroke:black;"/>
        </g>
        <g transform="matrix(-0.458428,1.92461e-16,-1.47442e-16,-0.598403,594.797,712.749)">
            <path d="M609.87,321.142L654.896,330.852L695.725,307.604L763.382,330.216L807.17,312.725L871.414,341.853L899.334,316.961L1119.86,652.593L379.781,652.593L529.341,424.971L609.87,321.142Z" style="fill:rgb(244,189,64);"/>
        </g>
        <path d="M194.275,510.728C194.061,525.373 202.445,550.415 121.437,546.423C38.821,542.352 -49.994,619.804 57.854,627.45C165.702,635.096 437.369,642.172 464.955,613.907C507.24,570.583 421.984,584.602 373.808,561.573C331.255,541.233 309.761,531.58 315.272,514.538" style="fill:none;stroke-width:6px;stroke:black;"/>
        <g transform="matrix(-0.458428,1.92461e-16,-1.47442e-16,-0.598403,599.627,707.516)">
            <path d="M609.87,321.142L654.896,330.852L695.725,307.604L763.382,330.216L807.17,312.725L871.414,341.853L899.334,316.961L1119.86,652.593L379.781,652.593L529.341,424.971L609.87,321.142Z" style="fill:none;stroke-width:13.13px;stroke:black;"/>
        </g>
        <g transform="matrix(2.30941,0,0,3.01157,-1151.6,-131.868)">
            <path d="M589.166,182.396C589.67,182.492 592.046,182.396 592.382,182.3C592.478,180.956 592.262,179.576 590.774,179.324C589.634,179.036 588.23,179.384 587.81,180.332C587.618,180.86 587.594,181.412 587.546,182C587.486,183.296 587.786,184.712 588.638,185.312C588.83,185.42 589.034,185.492 589.262,185.528C590.174,185.528 591.482,185.768 592.022,185C592.25,184.808 592.298,183.944 592.358,183.128C592.01,183.032 591.17,183.14 590.846,183.104C590.906,184.4 589.73,184.388 589.346,183.644C589.166,183.356 589.178,183.092 589.166,182.612L589.166,182.396ZM590.618,180.536C590.906,180.68 591.086,180.992 591.086,181.316C591.086,181.556 591.158,181.46 590.33,181.46C589.142,181.46 589.142,181.532 589.202,181.196C589.262,180.764 589.442,180.416 590.198,180.416C590.378,180.416 590.486,180.452 590.618,180.536Z" style="fill:black;fill-rule:nonzero;"/>
            <path d="M598.214,185.36C598.25,185.36 598.262,185.36 598.262,185.348C598.214,185.168 598.238,185 598.238,184.82C598.25,184.424 598.286,183.992 598.154,183.668C597.11,183.668 596.258,183.728 595.19,183.692C595.058,183.632 595.262,183.152 595.322,182.996C596.186,181.94 598.274,181.952 598.418,180.176C598.43,179.852 598.406,179.432 598.394,179.096C598.31,178.232 597.938,177.464 597.218,177.092C596.354,176.744 594.422,176.768 593.786,177.596C593.198,178.256 592.994,179.264 593.186,180.368L593.186,180.392L593.198,180.392C593.738,180.452 594.254,180.416 594.974,180.332L594.986,180.332L594.986,180.308C595.022,179.732 595.094,178.856 595.874,178.856C596.618,178.952 596.726,180.152 596.078,180.572C595.25,181.244 594.29,181.544 593.522,182.408C593.006,183.248 593.198,184.304 593.102,185.384C593.102,185.396 593.102,185.408 593.114,185.42L593.654,185.42L598.214,185.36Z" style="fill:black;fill-rule:nonzero;"/>
            <path d="M600.65,182.396C601.154,182.492 603.53,182.396 603.866,182.3C603.962,180.956 603.746,179.576 602.258,179.324C601.118,179.036 599.714,179.384 599.294,180.332C599.102,180.86 599.078,181.412 599.03,182C598.97,183.296 599.27,184.712 600.122,185.312C600.314,185.42 600.518,185.492 600.746,185.528C601.658,185.528 602.966,185.768 603.506,185C603.734,184.808 603.782,183.944 603.842,183.128C603.494,183.032 602.654,183.14 602.33,183.104C602.39,184.4 601.214,184.388 600.83,183.644C600.65,183.356 600.662,183.092 600.65,182.612L600.65,182.396ZM602.102,180.536C602.39,180.68 602.57,180.992 602.57,181.316C602.57,181.556 602.642,181.46 601.814,181.46C600.626,181.46 600.626,181.532 600.686,181.196C600.746,180.764 600.926,180.416 601.682,180.416C601.862,180.416 601.97,180.452 602.102,180.536Z" style="fill:black;fill-rule:nonzero;"/>
            <path d="M609.674,177.2C609.146,177.26 608.546,177.104 608.126,177.164C608.066,177.764 608.114,178.772 608.114,179.468C607.862,179.468 607.586,179.468 607.262,179.456L607.226,180.92C607.562,180.92 607.838,180.92 608.09,180.908C608.078,182.072 608.078,183.116 608.282,184.352C608.69,185.324 610.298,185.468 611.57,185.408C611.738,184.916 611.63,184.232 611.57,183.788C611.03,183.824 610.034,183.752 609.722,183.308C609.71,182.588 609.71,181.748 609.71,180.884L611.57,180.884C611.51,180.452 611.726,179.636 611.498,179.384C610.682,179.432 610.178,179.468 609.686,179.48C609.686,179.24 609.674,179.012 609.674,178.808L609.674,177.2Z" style="fill:black;fill-rule:nonzero;"/>
            <path d="M613.802,182.396C614.306,182.492 616.682,182.396 617.018,182.3C617.114,180.956 616.898,179.576 615.41,179.324C614.27,179.036 612.866,179.384 612.446,180.332C612.254,180.86 612.23,181.412 612.182,182C612.122,183.296 612.422,184.712 613.274,185.312C613.466,185.42 613.67,185.492 613.898,185.528C614.81,185.528 616.118,185.768 616.658,185C616.886,184.808 616.934,183.944 616.994,183.128C616.646,183.032 615.806,183.14 615.482,183.104C615.542,184.4 614.366,184.388 613.982,183.644C613.802,183.356 613.814,183.092 613.802,182.612L613.802,182.396ZM615.254,180.536C615.542,180.68 615.722,180.992 615.722,181.316C615.722,181.556 615.794,181.46 614.966,181.46C613.778,181.46 613.778,181.532 613.838,181.196C613.898,180.764 614.078,180.416 614.834,180.416C615.014,180.416 615.122,180.452 615.254,180.536Z" style="fill:black;fill-rule:nonzero;"/>
            <path d="M622.538,181.256C622.538,180.392 622.25,179.648 621.494,179.324C620.654,179.132 619.43,179.132 618.806,179.3C617.258,179.708 617.03,181.976 618.83,182.588C619.718,182.972 620.81,182.792 620.714,183.584C620.75,184.508 619.25,184.244 619.214,183.512C618.722,183.512 617.966,183.464 617.438,183.524L617.438,183.584C617.438,184.868 618.53,185.66 620.138,185.6C621.062,185.612 621.914,185.3 622.286,184.52C622.586,183.644 622.478,183.104 622.13,182.528C621.758,182.048 620.906,181.88 620.006,181.748C619.25,181.484 619.262,180.644 619.994,180.512C620.402,180.476 620.918,180.848 620.822,181.256C621.362,181.364 622.022,181.34 622.538,181.256Z" style="fill:black;fill-rule:nonzero;"/>
            <path d="M625.478,177.2C624.95,177.26 624.35,177.104 623.93,177.164C623.87,177.764 623.918,178.772 623.918,179.468C623.666,179.468 623.39,179.468 623.066,179.456L623.03,180.92C623.366,180.92 623.642,180.92 623.894,180.908C623.882,182.072 623.882,183.116 624.086,184.352C624.494,185.324 626.102,185.468 627.374,185.408C627.542,184.916 627.434,184.232 627.374,183.788C626.834,183.824 625.838,183.752 625.526,183.308C625.514,182.588 625.514,181.748 625.514,180.884L627.374,180.884C627.314,180.452 627.53,179.636 627.302,179.384C626.486,179.432 625.982,179.468 625.49,179.48C625.49,179.24 625.478,179.012 625.478,178.808L625.478,177.2Z" style="fill:black;fill-rule:nonzero;"/>
            <path d="M633.17,181.256C633.17,180.392 632.882,179.648 632.126,179.324C631.286,179.132 630.062,179.132 629.438,179.3C627.89,179.708 627.662,181.976 629.462,182.588C630.35,182.972 631.442,182.792 631.346,183.584C631.382,184.508 629.882,184.244 629.846,183.512C629.354,183.512 628.598,183.464 628.07,183.524L628.07,183.584C628.07,184.868 629.162,185.66 630.77,185.6C631.694,185.612 632.546,185.3 632.918,184.52C633.218,183.644 633.11,183.104 632.762,182.528C632.39,182.048 631.538,181.88 630.638,181.748C629.882,181.484 629.894,180.644 630.626,180.512C631.034,180.476 631.55,180.848 631.454,181.256C631.994,181.364 632.654,181.34 633.17,181.256Z" style="fill:black;fill-rule:nonzero;"/>
        </g>
        <g transform="matrix(4.55056,0,0,5.93413,-2524.29,-494.304)">
            <path d="M597.62,179.936C597.572,180.116 597.44,180.464 597.428,180.644C597.38,180.944 597.368,181.22 597.368,181.508C597.464,182.552 597.116,184.196 597.98,184.964C598.256,185.24 598.604,185.42 599.012,185.492C599.936,185.492 601.244,185.744 601.796,184.964C602.108,184.652 602.144,183.08 602.18,182.144C602.144,181.088 602.144,180.068 601.688,179.768C601.352,179.444 600.872,179.288 600.356,179.252C600.02,179.216 599.744,179.276 599.42,179.24C598.664,179.24 597.848,179.444 597.62,179.936ZM599.12,181.352C599.228,181.22 599.36,181.136 599.528,181.088C600.152,180.944 600.548,181.22 600.632,181.784C600.728,182.252 600.656,182.78 600.596,183.296C600.548,183.5 600.452,183.632 600.32,183.692C599.9,183.92 598.904,183.884 598.94,183.152C598.976,182.588 598.952,182.108 599.012,181.592C599.036,181.46 599.072,181.388 599.12,181.352Z" style="fill:black;fill-rule:nonzero;"/>
            <path d="M604.484,180.056C604.484,179.864 604.52,176.96 604.472,176.72C604.472,176.612 603.884,176.732 603.752,176.732C603.368,176.768 603.296,176.768 602.912,176.732C602.864,178.844 602.912,183.476 602.912,185.444C603.68,185.384 603.848,185.528 604.4,185.372L604.4,185.324C604.532,184.268 604.352,183.212 604.412,182.108C604.472,181.244 605.288,181.328 605.552,181.46C605.564,181.472 605.588,181.472 605.6,181.484C605.852,181.676 605.864,182.252 605.9,182.648C605.96,183.512 605.888,184.7 605.948,185.432C606.512,185.432 606.884,185.468 607.448,185.384C607.352,183.728 607.7,180.296 607.196,179.84C606.536,179.276 605.444,179.396 604.784,179.876C604.7,179.936 604.568,180.008 604.484,180.056Z" style="fill:black;fill-rule:nonzero;"/>
            <path d="M612.68,180.056C612.668,179.828 612.692,179.696 612.656,179.42C612.656,179.312 612.068,179.432 611.936,179.432C611.552,179.468 611.48,179.468 611.096,179.432C611.036,181.544 611.108,183.476 611.108,185.444C611.876,185.384 612.044,185.528 612.596,185.372L612.596,185.324C612.728,184.268 612.548,183.212 612.608,182.108C612.668,181.244 613.484,181.328 613.748,181.46C613.76,181.472 613.784,181.472 613.796,181.484C614.048,181.676 614.06,182.252 614.096,182.648C614.156,183.512 614.084,184.7 614.144,185.432C614.708,185.432 615.08,185.468 615.644,185.384C615.548,183.728 615.896,180.296 615.392,179.84C614.732,179.276 613.64,179.396 612.98,179.876C612.896,179.936 612.764,180.008 612.68,180.056Z" style="fill:black;fill-rule:nonzero;"/>
            <path d="M616.676,179.936C616.628,180.116 616.496,180.464 616.484,180.644C616.436,180.944 616.424,181.22 616.424,181.508C616.52,182.552 616.172,184.196 617.036,184.964C617.312,185.24 617.66,185.42 618.068,185.492C618.992,185.492 620.3,185.744 620.852,184.964C621.164,184.652 621.2,183.08 621.236,182.144C621.2,181.088 621.2,180.068 620.744,179.768C620.408,179.444 619.928,179.288 619.412,179.252C619.076,179.216 618.8,179.276 618.476,179.24C617.72,179.24 616.904,179.444 616.676,179.936ZM618.176,181.352C618.284,181.22 618.416,181.136 618.584,181.088C619.208,180.944 619.604,181.22 619.688,181.784C619.784,182.252 619.712,182.78 619.652,183.296C619.604,183.5 619.508,183.632 619.376,183.692C618.956,183.92 617.96,183.884 617.996,183.152C618.032,182.588 618.008,182.108 618.068,181.592C618.092,181.46 618.128,181.388 618.176,181.352Z" style="fill:black;fill-rule:nonzero;"/>
            <path d="M622.904,185.384L622.928,185.384C623.108,185.384 623.192,185.396 623.384,185.396L623.468,185.396C623.468,184.928 623.492,184.4 623.504,183.956C623.036,183.956 622.424,183.824 622.04,183.98L622.04,183.992C622.04,184.436 621.896,185.396 622.004,185.396L622.904,185.384ZM621.968,176.984C621.836,179.168 621.968,181.256 621.932,183.368L621.944,183.368C622.412,183.356 623.072,183.356 623.492,183.308C623.396,181.256 623.444,179.012 623.48,176.96C623.036,176.828 622.424,176.948 622.004,176.984L621.968,176.984Z" style="fill:black;fill-rule:nonzero;"/>
        </g>
        <g transform="matrix(1,0,0,1,-39.3019,40.5294)">
            <path d="M373.847,150.366C373.847,150.366 312.055,155.231 316.445,221.954" style="fill:none;stroke-width:6px;stroke:black;"/>
        </g>
        <g transform="matrix(1,0,0,1,-72.2997,40.5316)">
            <path d="M272.706,194.994C272.706,194.994 280.268,85.592 208.279,94.811" style="fill:none;stroke-width:6px;stroke:black;"/>
        </g>
        <g transform="matrix(0.991644,0.129008,-0.129008,0.991644,-6.32462,-56.943)">
            <path d="M382.389,323.038C382.389,323.038 395.26,429.842 389.994,470.665C384.727,511.488 433.893,506.234 430.379,475.507C426.866,444.78 379.129,429.078 409.98,320.25" style="fill:white;stroke-width:6px;stroke:black;"/>
        </g>
        <g transform="matrix(0.983398,0.181463,-0.186008,1.00803,17.1887,-85.5865)">
            <path d="M382.389,323.038C382.389,323.038 395.26,429.842 389.994,470.665C384.727,511.488 433.893,506.234 430.379,475.507C426.866,444.78 379.129,429.078 409.98,320.25" style="fill:rgb(49,168,184);"/>
        </g>
        <g transform="matrix(0.991644,0.129008,-0.129008,0.991644,-6.32462,-56.943)">
            <path d="M382.389,323.038C382.389,323.038 395.26,429.842 389.994,470.665C384.727,511.488 433.893,506.234 430.379,475.507C426.866,444.78 379.129,429.078 409.98,320.25" style="fill:none;stroke-width:6px;stroke:black;"/>
        </g>
    </g>
</svg>
