<?xml version="1.0" standalone="no"?><!DOCTYPE svg PUBLIC "-//W3C//DTD SVG 1.1//EN" "http://www.w3.org/Graphics/SVG/1.1/DTD/svg11.dtd"><svg width="100%" height="100%" viewBox="0 0 732 548" version="1.1" xmlns="http://www.w3.org/2000/svg" xmlns:xlink="http://www.w3.org/1999/xlink" xml:space="preserve" style="fill-rule:evenodd;clip-rule:evenodd;stroke-linejoin:round;stroke-miterlimit:1.41421;"><g><path d="M207.452,365.513c-2.555,-10.618 -4.725,-21.795 -6.805,-32.507c-13.834,-71.252 -21.976,-141.194 -35.809,-212.447c-5.064,-26.079 -10.513,-51.601 -17.572,-77.776c-17.418,1.932 -33.702,4.61 -50.373,7.847c-14.765,2.867 -28.487,6.014 -43.162,9.346c-3.087,4.466 -39.633,93.715 -37.47,115.042c1.085,5.588 55.262,7.151 60.978,6.042c10.479,-2.035 9.045,-29.785 15.508,-29.59c1.109,3.167 1.471,5.03 2.104,8.29c11.663,60.076 17.34,119.864 29.004,179.94l8.86,45.639c13.132,-1.099 31.593,-2.751 47.311,-5.802c11.907,-2.312 28.873,-6.572 27.426,-14.024Z" style="fill:#fff;fill-rule:nonzero;"/><path d="M445.915,325.982c1.429,-0.277 1.905,-0.37 1.815,-0.836c-3.261,-6.615 -3.575,-13.32 -4.931,-20.306c-2.507,-15.46 -4.333,-32.503 -12.014,-44.06c-41.438,8.045 -74.803,16.939 -117.465,23.772c-5.691,-1.311 -1.211,-21.512 -0.005,-28.028c26.337,-47.64 109.304,-63.265 101.638,-133.299c-1.965,-12.666 -6.082,-28.781 -9.09,-41.728c-9.844,-32.884 -30.396,-59.822 -61.777,-68.711c-36.916,-6.847 -113.419,8.972 -132.424,46.007c-18.366,30.145 -18.868,70.836 -2.929,112.202l0.181,0.931l0.476,-0.092c21.886,-1.833 42.095,-7.207 70.04,-16.015l0.477,-0.092l-0.181,-0.932c-2.911,-22.631 -6.654,-57.182 24.306,-63.193c30.253,-2.008 43.582,43.731 21.026,65.024c-27.801,32.46 -63.645,51.5 -87.618,90.949c-14.152,36.576 1.426,76.078 5.753,118.732c0.09,0.465 0.18,0.931 0.747,1.304l21.434,-4.161l180.541,-37.468Z" style="fill:#fff;fill-rule:nonzero;"/></g><g><path d="M214.902,362.685c-2.556,-10.619 -4.726,-21.796 -6.805,-32.507c-13.834,-71.253 -21.976,-141.195 -35.809,-212.448c-5.064,-26.079 -10.513,-51.6 -17.572,-77.776c-17.418,1.932 -33.702,4.611 -50.373,7.847c-14.765,2.867 -28.487,6.014 -43.162,9.346c-3.087,4.466 -39.633,93.715 -37.47,115.042c1.085,5.588 55.262,7.151 60.978,6.042c10.478,-2.035 9.045,-29.785 15.508,-29.59c1.109,3.167 1.471,5.03 2.104,8.29c11.663,60.076 17.34,119.864 29.004,179.94l8.86,45.639c13.132,-1.099 31.593,-2.75 47.311,-5.802c11.907,-2.312 28.873,-6.572 27.426,-14.023Z" style="fill:#2da8bb;fill-rule:nonzero;"/><path d="M453.365,323.153c1.429,-0.277 1.905,-0.37 1.815,-0.835c-3.262,-6.616 -3.575,-13.321 -4.931,-20.307c-2.508,-15.46 -4.334,-32.503 -12.014,-44.06c-41.438,8.045 -74.803,16.939 -117.465,23.772c-5.691,-1.311 -1.211,-21.511 -0.005,-28.028c26.337,-47.64 109.303,-63.264 101.638,-133.298c-1.965,-12.667 -6.083,-28.782 -9.09,-41.729c-9.844,-32.883 -30.396,-59.822 -61.777,-68.71c-36.916,-6.848 -113.419,8.972 -132.424,46.006c-18.366,30.145 -18.868,70.836 -2.929,112.202l0.181,0.931l0.476,-0.092c21.886,-1.833 42.095,-7.206 70.04,-16.015l0.476,-0.092l-0.18,-0.932c-2.911,-22.631 -6.654,-57.182 24.305,-63.193c30.254,-2.007 43.583,43.731 21.027,65.024c-27.801,32.46 -63.645,51.5 -87.618,90.949c-14.152,36.576 1.425,76.079 5.752,118.732c0.091,0.465 0.181,0.931 0.748,1.304l21.433,-4.161l180.542,-37.468Z" style="fill:#2da8bb;fill-rule:nonzero;"/></g><g><path d="M207.452,365.513c-2.555,-10.618 -4.725,-21.795 -6.805,-32.507c-13.834,-71.252 -21.976,-141.194 -35.809,-212.447c-5.064,-26.079 -10.513,-51.601 -17.572,-77.776c-17.418,1.932 -33.702,4.61 -50.373,7.847c-14.765,2.867 -28.487,6.014 -43.162,9.346c-3.087,4.466 -39.633,93.715 -37.47,115.042c1.085,5.588 55.262,7.151 60.978,6.042c10.479,-2.035 9.045,-29.785 15.508,-29.59c1.109,3.167 1.471,5.03 2.104,8.29c11.663,60.076 17.34,119.864 29.004,179.94l8.86,45.639c13.132,-1.099 31.593,-2.751 47.311,-5.802c11.907,-2.312 28.873,-6.572 27.426,-14.024Z" style="fill:none;stroke-width:6px;stroke:#000;"/><path d="M445.915,325.982c1.429,-0.277 1.905,-0.37 1.815,-0.836c-3.261,-6.615 -3.575,-13.32 -4.931,-20.306c-2.507,-15.46 -4.333,-32.503 -12.014,-44.06c-41.438,8.045 -74.803,16.939 -117.465,23.772c-5.691,-1.311 -1.211,-21.512 -0.005,-28.028c26.337,-47.64 109.304,-63.265 101.638,-133.299c-1.965,-12.666 -6.082,-28.781 -9.09,-41.728c-9.844,-32.884 -30.396,-59.822 -61.777,-68.711c-36.916,-6.847 -113.419,8.972 -132.424,46.007c-18.366,30.145 -18.868,70.836 -2.929,112.202l0.181,0.931l0.476,-0.092c21.886,-1.833 42.095,-7.207 70.04,-16.015l0.477,-0.092l-0.181,-0.932c-2.911,-22.631 -6.654,-57.182 24.306,-63.193c30.253,-2.008 43.582,43.731 21.026,65.024c-27.801,32.46 -63.645,51.5 -87.618,90.949c-14.152,36.576 1.426,76.078 5.753,118.732c0.09,0.465 0.18,0.931 0.747,1.304l21.434,-4.161l180.541,-37.468Z" style="fill:none;stroke-width:6px;stroke:#000;"/></g><path d="M516.354,227.205c2.389,-1.485 73.325,1.452 73.216,-2.816l-0.024,-0.949c-0.242,-9.485 3.653,-47.074 1.92,-57.945c6.208,-3.954 53.814,-2.321 57.634,-4.791c1.833,-23.3 -0.591,-42.221 0.187,-68.816c-14.612,-2 -43.666,0.639 -58.738,-0.4c-2.073,-5.167 -2.119,-45.028 -2.47,-58.782c-10.707,-1.15 -62.485,4.916 -70.378,-0.103c-0.401,3.332 -0.85,4.767 -1.238,8.574c-0.328,6.177 -1.092,14.264 -1.347,23.287c-0.147,13.292 -0.39,22.789 -0.208,29.903c-3.371,1.035 -58.059,7.175 -61.479,6.313c0.097,3.794 4.653,49.235 3.549,63.025c0.012,0.475 0.012,0.475 0.509,0.937c5.408,2.709 47.17,3.542 53.96,3.369l0.97,-0.025c0.497,0.462 1.079,4.244 1.212,9.46c2.024,22.253 -0.717,28.966 2.204,48.349c0.036,1.422 0.509,0.936 0.521,1.41Z" style="fill:#fff;fill-rule:nonzero;"/><path d="M509.238,222.815c2.402,-1.462 73.308,2.139 73.239,-2.13l-0.015,-0.949c-0.153,-9.487 4.094,-47.038 2.462,-57.924c6.246,-3.896 53.834,-1.817 57.677,-4.251c2.051,-23.282 -0.196,-42.224 0.832,-68.811c-14.593,-2.137 -43.67,0.23 -58.732,-0.951c-2.024,-5.186 -1.697,-45.046 -1.919,-58.802c-10.695,-1.251 -62.528,4.33 -70.374,-0.763c-0.431,3.328 -0.894,4.759 -1.318,8.562c-0.385,6.174 -1.226,14.253 -1.565,23.274c-0.271,13.289 -0.603,22.783 -0.489,29.899c-3.38,1.003 -58.123,6.63 -61.535,5.736c0.062,3.795 4.192,49.277 2.958,63.056c0.008,0.475 0.008,0.475 0.501,0.941c5.382,2.76 47.134,3.985 53.926,3.875l0.97,-0.015c0.493,0.466 1.039,4.253 1.123,9.471c1.815,22.27 -0.989,28.958 1.751,48.367c0.022,1.423 0.5,0.94 0.508,1.415Z" style="fill:#2da8bb;fill-rule:nonzero;"/><path d="M516.354,227.205c2.389,-1.485 73.325,1.452 73.216,-2.816l-0.024,-0.949c-0.242,-9.485 3.653,-47.074 1.92,-57.945c6.208,-3.954 53.814,-2.321 57.634,-4.791c1.833,-23.3 -0.591,-42.221 0.187,-68.816c-14.612,-2 -43.666,0.639 -58.738,-0.4c-2.073,-5.167 -2.119,-45.028 -2.47,-58.782c-10.707,-1.15 -62.485,4.916 -70.378,-0.103c-0.401,3.332 -0.85,4.767 -1.238,8.574c-0.328,6.177 -1.092,14.264 -1.347,23.287c-0.147,13.292 -0.39,22.789 -0.208,29.903c-3.371,1.035 -58.059,7.175 -61.479,6.313c0.097,3.794 4.653,49.235 3.549,63.025c0.012,0.475 0.012,0.475 0.509,0.937c5.408,2.709 47.17,3.542 53.96,3.369l0.97,-0.025c0.497,0.462 1.079,4.244 1.212,9.46c2.024,22.253 -0.717,28.966 2.204,48.349c0.036,1.422 0.509,0.936 0.521,1.41Z" style="fill:none;stroke-width:6px;stroke:#000;"/><g><path d="M485.006,269.402c-0.094,-1.392 -1.246,-22.468 -1.711,-24.185c-0.053,-0.783 -4.258,0.373 -5.215,0.438c-2.767,0.448 -3.289,0.483 -6.091,0.408c0.68,15.339 3.282,48.904 4.24,63.174c5.54,-0.809 6.828,0.154 10.755,-1.246l-0.023,-0.348c0.443,-7.722 -1.376,-15.292 -1.479,-23.326c0.015,-6.295 5.973,-6.083 7.951,-5.254c0.093,0.081 0.267,0.069 0.36,0.151c1.921,1.269 2.288,5.44 2.742,8.294c0.856,6.236 0.912,14.886 1.703,20.164c4.09,-0.274 6.805,-0.194 10.854,-1.078c-1.502,-11.961 -0.649,-37.017 -4.526,-40.078c-5.06,-3.769 -12.92,-2.367 -17.473,1.435c-0.579,0.475 -1.502,1.062 -2.087,1.451Z" style="fill:#000;fill-rule:nonzero;"/><path d="M514.62,266.54c-0.261,1.329 -1.048,3.916 -1.048,5.227c-0.202,2.199 -0.155,4.206 -0.014,6.295c1.204,7.523 -0.519,19.614 6.119,24.763c2.136,1.867 4.747,3.002 7.741,3.326c6.7,-0.45 16.307,0.741 19.931,-5.184c2.11,-2.414 1.606,-13.831 1.412,-20.635c-0.775,-7.64 -1.272,-15.037 -4.724,-16.99c-2.595,-2.186 -6.151,-3.084 -9.91,-3.094c-2.454,-0.097 -4.427,0.472 -6.794,0.369c-5.482,0.368 -11.299,2.244 -12.713,5.923ZM526.186,276.078c0.719,-1.01 1.635,-1.683 2.83,-2.113c4.455,-1.348 7.461,0.461 8.344,4.51c0.924,3.346 0.659,7.21 0.475,10.981c-0.249,1.503 -0.881,2.507 -1.808,3.006c-2.935,1.858 -10.175,2.081 -10.27,-3.244c-0.014,-4.107 -0.421,-7.576 -0.237,-11.347c0.109,-0.969 0.335,-1.509 0.666,-1.793Z" style="fill:#000;fill-rule:nonzero;"/><path d="M577.705,297.444c0.198,1.647 0.088,2.616 0.484,4.6c0.052,0.783 4.257,-0.373 5.215,-0.437c2.767,-0.448 3.289,-0.483 6.091,-0.409c-0.593,-15.344 -2.055,-29.319 -3.013,-43.59c-5.54,0.809 -6.828,-0.153 -10.755,1.247l0.023,0.348c-0.623,7.646 1.382,15.378 1.478,23.326c-0.014,6.294 -5.972,6.082 -7.951,5.254c-0.093,-0.081 -0.267,-0.07 -0.36,-0.151c-1.92,-1.27 -2.288,-5.441 -2.741,-8.295c-0.856,-6.235 -0.912,-14.885 -1.704,-20.164c-4.089,0.275 -6.804,0.195 -10.853,1.078c1.502,11.962 0.649,37.018 4.525,40.079c5.061,3.769 12.921,2.367 17.473,-1.435c0.58,-0.476 1.502,-1.062 2.088,-1.451Z" style="fill:#000;fill-rule:nonzero;"/><path d="M604.629,259.712c-0.105,-1.566 -0.157,-1.038 -0.286,-2.953c-0.035,-0.522 -4.693,0.403 -5.65,0.467c-2.767,0.448 -3.289,0.483 -6.091,0.409c0.593,15.344 2.055,29.318 3.013,43.589c5.54,-0.809 7.698,0.095 11.625,-1.305l-0.023,-0.348c-0.578,-8.614 -1.08,-14.787 -1.878,-22.775c-0.694,-6.421 3.988,-6.998 10.213,-6.716c0.087,-0.006 1.931,0.132 3.347,0.387c0.627,0.22 1.242,0.266 1.868,0.486l0.801,0.209c-0.501,-3.55 -0.496,-7.397 -1.028,-15.315c-0.023,-0.348 -7.588,0.247 -11.932,1.937c-1.613,0.72 -3.561,1.638 -3.979,1.928Z" style="fill:#000;fill-rule:nonzero;"/><path d="M663.277,266.177c-0.421,-6.265 -2.871,-11.52 -8.511,-13.501c-6.185,-0.984 -15.06,-0.388 -19.503,1.134c-11.027,3.712 -11.576,20.269 1.774,23.831c6.626,2.352 14.457,0.515 14.146,6.305c0.711,6.683 -10.294,5.498 -10.912,0.208c-3.567,0.239 -9.073,0.259 -12.872,0.951l0.029,0.435c0.625,9.311 8.929,14.523 20.56,13.305c6.706,-0.363 12.732,-3.04 15.05,-8.877c1.749,-6.498 0.703,-10.361 -2.101,-14.369c-2.931,-3.299 -9.191,-4.103 -15.781,-4.622c-5.611,-1.546 -5.933,-7.643 -0.689,-8.957c2.941,-0.459 6.864,1.987 6.366,4.992c3.969,0.521 8.743,0.025 12.444,-0.835Z" style="fill:#000;fill-rule:nonzero;"/></g><g><path d="M88.323,460.534c-1.809,-34.221 -42.512,-37.386 -67.386,-30.753c1.206,33.466 -0.151,74.621 1.055,103.867c6.784,0.754 19.598,0.905 25.176,-0.603c0.15,0 0.301,-0.151 0.452,-0.151l0,-0.15c-0.754,-29.246 -0.151,-32.261 -0.603,-37.839c19.145,3.166 38.743,-11.156 41.155,-30.301c0.151,-1.206 0.151,-2.563 0.151,-3.919l0,-0.151ZM61.941,454.202c5.277,3.166 6.03,10.402 2.714,14.925c-4.824,4.824 -13.568,3.919 -19.899,4.371l-0.453,0c-1.959,-6.03 -0.904,-15.376 -1.356,-22.612c0.15,-0.151 0.301,-0.151 0.452,-0.151c6.482,-1.658 13.568,-0.603 18.542,3.467Z" style="fill:#fff;fill-rule:nonzero;"/><path d="M158.573,514.05c-13.719,0.453 -26.231,-0.753 -39.497,-0.753l-0.151,-0.151c-0.452,-4.824 -1.055,-12.965 0,-18.844c2.111,-1.658 12.06,0 18.241,-1.658c-0.151,-7.387 0.754,-14.171 -0.301,-20.955l0,-0.15c-6.181,-0.151 -12.513,0 -18.543,-0.453l-0.151,-0.15c-1.356,-5.427 0,-11.759 -0.15,-17.638l0.15,-0.151l0.453,0c13.266,-1.206 26.683,1.055 39.496,-1.809l0,-0.151c0,-7.085 1.056,-14.321 0,-21.406c0,-0.905 -39.044,-0.302 -62.41,0.904c-1.96,34.522 -0.151,68.14 -0.151,103.114c19.447,1.658 41.306,0.151 61.808,0.301c1.658,-6.03 1.658,-13.266 1.206,-19.748l0,-0.302Z" style="fill:#fff;fill-rule:nonzero;"/><path d="M240.581,534.1c-6.03,-16.582 -18.391,-30.602 -26.833,-45.526l0,-0.151l0.753,0c9.648,-0.603 15.829,-5.88 19.598,-13.116c12.512,-20.954 -2.864,-47.034 -26.683,-48.24c-14.623,-1.658 -28.341,0.452 -39.647,2.111c1.507,10.1 2.261,105.375 1.055,105.375c1.96,-0.453 19.447,1.206 26.23,-1.659c-0.452,-7.688 -1.959,-27.738 -0.753,-36.783l0.301,0.452c8.593,10.553 17.035,28.643 20.955,37.839l0.15,0c9.045,0.603 17.94,-0.302 25.025,-0.302l-0.151,0ZM189.778,450.283c7.085,-2.865 14.472,-3.618 18.844,0.452c5.578,4.372 4.975,16.432 -2.713,18.09c-4.824,0.754 -10.553,0.452 -15.226,0l-0.151,0c-0.754,-4.522 -0.302,-13.417 -0.754,-18.542Z" style="fill:#fff;fill-rule:nonzero;"/><path d="M343.846,441.539c-3.618,-5.879 -9.95,-11.005 -16.432,-12.663c-11.608,0.452 -24.874,-1.357 -36.331,1.508c-0.151,0.15 -0.302,0.452 -0.452,0.603c0.753,34.974 -1.96,71.606 2.412,103.415l0.15,-0.151c12.664,0 26.382,0 39.648,-0.452c7.688,-9.497 15.075,-20.05 19.145,-31.959c0,-0.151 0.151,-0.151 0.151,-0.302c1.809,-9.196 1.658,-18.844 2.111,-28.341c-0.151,-3.166 -0.302,-6.332 -1.357,-9.497c-1.809,-7.99 -4.673,-15.377 -9.045,-22.161ZM329.977,496.262c-1.206,1.809 -2.714,3.618 -4.674,4.824c-1.055,0.452 -1.658,1.055 -2.713,0.904c-3.618,0.453 -7.99,1.056 -10.251,-0.904c-0.754,-13.568 0.452,-28.191 -0.302,-39.045l0,-0.603l0.453,0c3.618,-0.753 7.839,-0.603 11.306,-0.15c6.784,2.412 8.593,9.949 9.799,16.13c1.658,7.387 -0.151,13.568 -3.618,18.844Z" style="fill:#fff;fill-rule:nonzero;"/><path d="M426.608,514.05c-13.718,0.453 -26.231,-0.753 -39.497,-0.753l-0.15,-0.151c-0.453,-4.824 -1.056,-12.965 0,-18.844c2.11,-1.658 12.06,0 18.24,-1.658c-0.15,-7.387 0.754,-14.171 -0.301,-20.955l0,-0.15c-6.181,-0.151 -12.512,0 -18.542,-0.453l-0.151,-0.15c-1.357,-5.427 0,-11.759 -0.151,-17.638l0.151,-0.151l0.452,0c13.266,-1.206 26.683,1.055 39.497,-1.809l0,-0.151c0,-7.085 1.055,-14.321 0,-21.406c0,-0.905 -39.045,-0.302 -62.411,0.904c-1.96,34.522 -0.151,68.14 -0.151,103.114c19.447,1.658 41.306,0.151 61.808,0.301c1.658,-6.03 1.658,-13.266 1.206,-19.748l0,-0.302Z" style="fill:#fff;fill-rule:nonzero;"/><path d="M499.119,431.439c-6.934,-1.206 -14.924,0.151 -21.708,-1.357c-0.151,0 -0.301,0.151 -0.301,0.302c-4.372,16.884 -5.578,37.989 -13.266,70.551c-7.99,-32.562 -6.483,-62.863 -7.99,-70.702c-3.166,-0.754 -19.146,-1.206 -21.407,1.507l0,0.151c2.864,34.824 8.593,69.346 17.638,101.908c3.166,1.055 8.141,1.206 12.512,1.206c4.221,0 7.839,-0.603 9.498,-0.603c9.648,-34.974 18.241,-67.235 25.024,-102.963Z" style="fill:#fff;fill-rule:nonzero;"/><path d="M530.928,428.575c-9.045,0.15 -12.965,-0.302 -16.583,-0.453c-1.357,0 -5.125,-0.452 -6.181,-0.301l0,0.301c-3.618,33.769 1.659,70.703 -1.206,107.034c4.221,-1.206 24.121,1.959 27.437,-1.357c-1.96,-34.221 0.151,-70.099 0.151,-104.621l0,-0.603l-3.618,0Z" style="fill:#fff;fill-rule:nonzero;"/><path d="M566.957,452.846c1.659,-1.659 4.975,-1.96 7.538,-2.412c11.759,-0.453 9.346,12.06 10.553,20.049c7.688,1.357 14.622,2.262 22.009,0.603c9.648,-27.889 -18.994,-53.215 -46.582,-44.17c-2.864,0.754 -5.427,1.809 -7.688,3.468c-3.769,3.467 -6.483,7.839 -8.292,13.115c-1.206,3.015 -2.11,6.633 -1.658,10.1c-0.452,32.563 -0.301,48.09 0.452,62.562c1.659,16.884 19.9,22.01 34.221,20.05c22.01,-0.452 36.18,-23.065 29.396,-43.869c-5.728,-1.658 -14.472,-0.15 -20.2,-0.904c-1.055,4.975 0.301,10.251 -1.96,14.924c-1.96,4.07 -6.332,5.729 -10.703,5.276c-5.88,-1.658 -7.99,-7.989 -8.593,-13.869c-1.206,-13.718 0,-41.908 0.603,-42.964c0.151,-0.452 0.452,-1.507 0.904,-1.959Z" style="fill:#fff;fill-rule:nonzero;"/><path d="M687.407,514.05c-13.718,0.453 -26.23,-0.753 -39.496,-0.753l-0.151,-0.151c-0.452,-4.824 -1.055,-12.965 0,-18.844c2.11,-1.658 12.06,0 18.241,-1.658c-0.151,-7.387 0.754,-14.171 -0.302,-20.955l0,-0.15c-6.18,-0.151 -12.512,0 -18.542,-0.453l-0.151,-0.15c-1.357,-5.427 0,-11.759 -0.151,-17.638l0.151,-0.151l0.452,0c13.267,-1.206 26.683,1.055 39.497,-1.809l0,-0.151c0,-7.085 1.055,-14.321 0,-21.406c0,-0.905 -39.044,-0.302 -62.411,0.904c-1.959,34.522 -0.15,68.14 -0.15,103.114c19.446,1.658 41.305,0.151 61.807,0.301c1.659,-6.03 1.659,-13.266 1.206,-19.748l0,-0.302Z" style="fill:#fff;fill-rule:nonzero;"/><path d="M709.116,534.251l0.301,0c2.261,0 3.317,0.151 5.729,0.151l1.055,0c0,-5.879 0.301,-12.512 0.452,-18.09c-5.879,0 -13.567,-1.659 -18.391,0.301l0,0.151c0,5.578 -1.809,17.638 -0.453,17.638l11.307,-0.151ZM697.357,428.725c-1.658,27.437 0,53.668 -0.452,80.2l0.151,0c5.879,-0.151 14.17,-0.151 19.446,-0.754c-1.206,-25.778 -0.603,-53.969 -0.15,-79.747c-5.578,-1.658 -13.266,-0.151 -18.543,0.301l-0.452,0Z" style="fill:#fff;fill-rule:nonzero;"/></g><g><path d="M92.665,458.488c-1.164,-34.248 -41.8,-38.18 -66.794,-32.017c0.575,33.484 -1.556,74.606 -0.902,103.869c6.769,0.881 19.578,1.273 25.183,-0.129c0.151,0.003 0.304,-0.145 0.455,-0.142l0.003,-0.151c-0.203,-29.254 0.457,-32.257 0.109,-37.843c19.083,3.526 38.947,-10.424 41.719,-29.52c0.173,-1.203 0.199,-2.56 0.225,-3.916l0.002,-0.151ZM66.408,451.661c5.216,3.264 5.833,10.513 2.432,14.973c-4.914,4.732 -13.639,3.663 -19.978,3.996l-0.452,-0.009c-1.846,-6.066 -0.615,-15.391 -0.931,-22.634c0.154,-0.148 0.304,-0.145 0.455,-0.142c6.512,-1.536 13.577,-0.348 18.474,3.816Z" style="fill:#17842e;fill-rule:nonzero;"/><path d="M161.895,513.318c-13.725,0.194 -26.212,-1.247 -39.476,-1.497l-0.148,-0.154c-0.361,-4.831 -0.81,-12.982 0.355,-18.84c2.142,-1.618 12.058,0.227 18.269,-1.315c-0.011,-7.388 1.021,-14.153 0.093,-20.956l0.003,-0.151c-6.177,-0.267 -12.51,-0.235 -18.53,-0.801l-0.148,-0.154c-1.254,-5.451 0.221,-11.756 0.181,-17.637l0.154,-0.148l0.452,0.008c13.287,-0.956 26.658,1.558 39.524,-1.064l0.003,-0.151c0.133,-7.084 1.325,-14.299 0.403,-21.403c0.017,-0.904 -39.032,-1.037 -62.417,-0.271c-2.61,34.479 -1.434,68.124 -2.093,103.092c19.412,2.025 41.296,0.929 61.791,1.466c1.772,-5.998 1.908,-13.232 1.578,-19.722l0.006,-0.302Z" style="fill:#17842e;fill-rule:nonzero;"/><path d="M243.511,534.91c-5.716,-16.694 -17.812,-30.944 -25.971,-46.025l0.003,-0.15l0.753,0.014c9.658,-0.421 15.937,-5.58 19.842,-12.744c12.904,-20.715 -1.978,-47.08 -25.77,-48.734c-14.589,-1.934 -28.345,-0.082 -39.68,1.363c1.317,10.127 0.276,105.399 -0.93,105.376c1.968,-0.415 19.421,1.572 26.257,-1.164c-0.307,-7.695 -1.437,-27.77 -0.061,-36.791l0.293,0.458c8.393,10.713 16.493,28.959 20.238,38.227l0.151,0.002c9.032,0.774 17.942,0.037 25.026,0.17l-0.151,-0.002ZM194.296,450.15c7.138,-2.73 14.538,-3.345 18.832,0.807c5.494,4.476 4.664,16.523 -3.054,18.036c-4.837,0.663 -10.559,0.253 -15.223,-0.287l-0.151,-0.003c-0.668,-4.536 -0.048,-13.42 -0.404,-18.553Z" style="fill:#17842e;fill-rule:nonzero;"/><path d="M348.501,444.31c-3.507,-5.946 -9.741,-11.19 -16.191,-12.97c-11.614,0.233 -24.843,-1.825 -36.352,0.822c-0.154,0.148 -0.31,0.447 -0.464,0.595c0.095,34.982 -3.308,71.557 0.464,103.442l0.153,-0.148c12.661,0.239 26.377,0.497 39.649,0.295c7.866,-9.351 15.45,-19.762 19.744,-31.593c0.003,-0.151 0.154,-0.148 0.157,-0.299c1.981,-9.16 2.012,-18.809 2.644,-28.296c-0.092,-3.168 -0.183,-6.336 -1.178,-9.521c-1.658,-8.023 -4.383,-15.462 -8.626,-22.327ZM333.603,498.762c-1.239,1.786 -2.781,3.566 -4.763,4.735c-1.063,0.432 -1.678,1.024 -2.73,0.853c-3.626,0.384 -8.008,0.905 -10.232,-1.097c-0.498,-13.58 0.983,-28.177 0.434,-39.044l0.011,-0.603l0.452,0.009c3.632,-0.686 7.849,-0.455 11.308,0.062c6.737,2.54 8.403,10.11 9.493,16.312c1.519,7.417 -0.406,13.563 -3.973,18.773Z" style="fill:#17842e;fill-rule:nonzero;"/><path d="M429.883,518.367c-13.725,0.194 -26.212,-1.247 -39.476,-1.497l-0.148,-0.154c-0.361,-4.832 -0.811,-12.982 0.355,-18.84c2.142,-1.619 12.058,0.227 18.269,-1.315c-0.012,-7.388 1.021,-14.154 0.093,-20.956l0.003,-0.151c-6.177,-0.267 -12.51,-0.236 -18.53,-0.801l-0.148,-0.154c-1.255,-5.452 0.221,-11.756 0.181,-17.638l0.154,-0.147l0.452,0.008c13.286,-0.956 26.658,1.558 39.524,-1.065l0.003,-0.15c0.133,-7.084 1.324,-14.299 0.403,-21.403c0.017,-0.905 -39.032,-1.037 -62.417,-0.271c-2.61,34.479 -1.434,68.124 -2.093,103.092c19.412,2.024 41.296,0.929 61.791,1.466c1.772,-5.998 1.908,-13.233 1.578,-19.722l0.006,-0.302Z" style="fill:#17842e;fill-rule:nonzero;"/><path d="M503.937,437.136c-6.91,-1.336 -14.924,-0.13 -21.679,-1.765c-0.15,-0.003 -0.304,0.145 -0.307,0.296c-4.689,16.798 -6.292,37.877 -14.592,70.289c-7.375,-32.707 -5.297,-62.975 -6.657,-70.841c-3.151,-0.813 -19.119,-1.566 -21.431,1.104l-0.003,0.151c2.208,34.871 7.285,69.495 15.715,102.222c3.145,1.115 8.117,1.359 12.488,1.442c4.22,0.079 7.849,-0.456 9.507,-0.424c10.305,-34.787 19.504,-66.88 26.959,-102.474Z" style="fill:#17842e;fill-rule:nonzero;"/><path d="M535.794,434.872c-9.046,-0.02 -12.957,-0.546 -16.571,-0.765c-1.357,-0.026 -5.116,-0.549 -6.174,-0.418l-0.006,0.302c-4.253,33.694 0.326,70.721 -3.222,106.991c4.243,-1.126 24.079,2.414 27.458,-0.84c-1.315,-34.251 1.471,-70.084 2.121,-104.599l0.011,-0.603l-3.617,-0.068Z" style="fill:#17842e;fill-rule:nonzero;"/><path d="M571.36,459.817c1.689,-1.627 5.011,-1.866 7.582,-2.27c11.765,-0.23 9.117,12.234 10.173,20.245c7.661,1.502 14.577,2.537 21.994,1.018c10.172,-27.702 -17.989,-53.564 -45.742,-45.04c-2.878,0.7 -5.46,1.707 -7.752,3.322c-3.833,3.396 -6.629,7.716 -8.537,12.957c-1.263,2.992 -2.235,6.592 -1.848,10.067c-1.066,32.548 -1.207,48.075 -0.726,62.559c1.34,16.913 19.481,22.381 33.836,20.691c22.015,-0.037 36.609,-22.379 30.218,-43.307c-5.696,-1.766 -14.467,-0.423 -20.18,-1.285c-1.149,4.954 0.108,10.255 -2.241,14.885c-2.036,4.033 -6.438,5.608 -10.8,5.074c-5.847,-1.769 -7.838,-8.139 -8.331,-14.029c-0.947,-13.738 0.79,-41.901 1.413,-42.945c0.159,-0.449 0.48,-1.499 0.941,-1.942Z" style="fill:#17842e;fill-rule:nonzero;"/><path d="M690.636,523.28c-13.725,0.194 -26.212,-1.248 -39.476,-1.498l-0.148,-0.153c-0.361,-4.832 -0.811,-12.983 0.355,-18.841c2.142,-1.618 12.058,0.227 18.269,-1.314c-0.011,-7.389 1.021,-14.154 0.093,-20.957l0.003,-0.15c-6.177,-0.268 -12.51,-0.236 -18.53,-0.802l-0.148,-0.153c-1.254,-5.452 0.221,-11.757 0.181,-17.638l0.154,-0.148l0.452,0.009c13.286,-0.956 26.658,1.557 39.524,-1.065l0.003,-0.151c0.133,-7.084 1.325,-14.299 0.403,-21.403c0.017,-0.904 -39.032,-1.037 -62.417,-0.271c-2.61,34.479 -1.434,68.125 -2.093,103.093c19.412,2.024 41.296,0.928 61.791,1.465c1.772,-5.997 1.908,-13.232 1.578,-19.722l0.006,-0.301Z" style="fill:#17842e;fill-rule:nonzero;"/><path d="M711.96,543.886l0.301,0.005c2.261,0.043 3.313,0.214 5.725,0.259l1.055,0.02c0.111,-5.878 0.537,-12.505 0.793,-18.079c-5.879,-0.11 -13.534,-1.913 -18.394,-0.045l-0.003,0.151c-0.105,5.577 -2.141,17.601 -0.785,17.626l11.308,0.063ZM702.191,438.157c-2.175,27.401 -1.011,53.658 -1.963,80.177l0.151,0.003c5.881,-0.04 14.171,0.116 19.457,-0.387c-0.72,-25.797 0.414,-53.971 1.352,-79.736c-5.546,-1.764 -13.261,-0.401 -18.545,-0.048l-0.452,-0.009Z" style="fill:#17842e;fill-rule:nonzero;"/></g><g><path d="M88.323,460.534c-1.809,-34.221 -42.512,-37.386 -67.386,-30.753c1.206,33.466 -0.151,74.621 1.055,103.867c6.784,0.754 19.598,0.905 25.176,-0.603c0.15,0 0.301,-0.151 0.452,-0.151l0,-0.15c-0.754,-29.246 -0.151,-32.261 -0.603,-37.839c19.145,3.166 38.743,-11.156 41.155,-30.301c0.151,-1.206 0.151,-2.563 0.151,-3.919l0,-0.151ZM61.941,454.202c5.277,3.166 6.03,10.402 2.714,14.925c-4.824,4.824 -13.568,3.919 -19.899,4.371l-0.453,0c-1.959,-6.03 -0.904,-15.376 -1.356,-22.612c0.15,-0.151 0.301,-0.151 0.452,-0.151c6.482,-1.658 13.568,-0.603 18.542,3.467Z" style="fill:none;stroke-width:4px;stroke:#000;"/><path d="M158.573,514.05c-13.719,0.453 -26.231,-0.753 -39.497,-0.753l-0.151,-0.151c-0.452,-4.824 -1.055,-12.965 0,-18.844c2.111,-1.658 12.06,0 18.241,-1.658c-0.151,-7.387 0.754,-14.171 -0.301,-20.955l0,-0.15c-6.181,-0.151 -12.513,0 -18.543,-0.453l-0.151,-0.15c-1.356,-5.427 0,-11.759 -0.15,-17.638l0.15,-0.151l0.453,0c13.266,-1.206 26.683,1.055 39.496,-1.809l0,-0.151c0,-7.085 1.056,-14.321 0,-21.406c0,-0.905 -39.044,-0.302 -62.41,0.904c-1.96,34.522 -0.151,68.14 -0.151,103.114c19.447,1.658 41.306,0.151 61.808,0.301c1.658,-6.03 1.658,-13.266 1.206,-19.748l0,-0.302Z" style="fill:none;stroke-width:4px;stroke:#000;"/><path d="M240.581,534.1c-6.03,-16.582 -18.391,-30.602 -26.833,-45.526l0,-0.151l0.753,0c9.648,-0.603 15.829,-5.88 19.598,-13.116c12.512,-20.954 -2.864,-47.034 -26.683,-48.24c-14.623,-1.658 -28.341,0.452 -39.647,2.111c1.507,10.1 2.261,105.375 1.055,105.375c1.96,-0.453 19.447,1.206 26.23,-1.659c-0.452,-7.688 -1.959,-27.738 -0.753,-36.783l0.301,0.452c8.593,10.553 17.035,28.643 20.955,37.839l0.15,0c9.045,0.603 17.94,-0.302 25.025,-0.302l-0.151,0ZM189.778,450.283c7.085,-2.865 14.472,-3.618 18.844,0.452c5.578,4.372 4.975,16.432 -2.713,18.09c-4.824,0.754 -10.553,0.452 -15.226,0l-0.151,0c-0.754,-4.522 -0.302,-13.417 -0.754,-18.542Z" style="fill:none;stroke-width:4px;stroke:#000;"/><path d="M343.846,441.539c-3.618,-5.879 -9.95,-11.005 -16.432,-12.663c-11.608,0.452 -24.874,-1.357 -36.331,1.508c-0.151,0.15 -0.302,0.452 -0.452,0.603c0.753,34.974 -1.96,71.606 2.412,103.415l0.15,-0.151c12.664,0 26.382,0 39.648,-0.452c7.688,-9.497 15.075,-20.05 19.145,-31.959c0,-0.151 0.151,-0.151 0.151,-0.302c1.809,-9.196 1.658,-18.844 2.111,-28.341c-0.151,-3.166 -0.302,-6.332 -1.357,-9.497c-1.809,-7.99 -4.673,-15.377 -9.045,-22.161ZM329.977,496.262c-1.206,1.809 -2.714,3.618 -4.674,4.824c-1.055,0.452 -1.658,1.055 -2.713,0.904c-3.618,0.453 -7.99,1.056 -10.251,-0.904c-0.754,-13.568 0.452,-28.191 -0.302,-39.045l0,-0.603l0.453,0c3.618,-0.753 7.839,-0.603 11.306,-0.15c6.784,2.412 8.593,9.949 9.799,16.13c1.658,7.387 -0.151,13.568 -3.618,18.844Z" style="fill:none;stroke-width:4px;stroke:#000;"/><path d="M426.608,514.05c-13.718,0.453 -26.231,-0.753 -39.497,-0.753l-0.15,-0.151c-0.453,-4.824 -1.056,-12.965 0,-18.844c2.11,-1.658 12.06,0 18.24,-1.658c-0.15,-7.387 0.754,-14.171 -0.301,-20.955l0,-0.15c-6.181,-0.151 -12.512,0 -18.542,-0.453l-0.151,-0.15c-1.357,-5.427 0,-11.759 -0.151,-17.638l0.151,-0.151l0.452,0c13.266,-1.206 26.683,1.055 39.497,-1.809l0,-0.151c0,-7.085 1.055,-14.321 0,-21.406c0,-0.905 -39.045,-0.302 -62.411,0.904c-1.96,34.522 -0.151,68.14 -0.151,103.114c19.447,1.658 41.306,0.151 61.808,0.301c1.658,-6.03 1.658,-13.266 1.206,-19.748l0,-0.302Z" style="fill:none;stroke-width:4px;stroke:#000;"/><path d="M499.119,431.439c-6.934,-1.206 -14.924,0.151 -21.708,-1.357c-0.151,0 -0.301,0.151 -0.301,0.302c-4.372,16.884 -5.578,37.989 -13.266,70.551c-7.99,-32.562 -6.483,-62.863 -7.99,-70.702c-3.166,-0.754 -19.146,-1.206 -21.407,1.507l0,0.151c2.864,34.824 8.593,69.346 17.638,101.908c3.166,1.055 8.141,1.206 12.512,1.206c4.221,0 7.839,-0.603 9.498,-0.603c9.648,-34.974 18.241,-67.235 25.024,-102.963Z" style="fill:none;stroke-width:4px;stroke:#000;"/><path d="M530.928,428.575c-9.045,0.15 -12.965,-0.302 -16.583,-0.453c-1.357,0 -5.125,-0.452 -6.181,-0.301l0,0.301c-3.618,33.769 1.659,70.703 -1.206,107.034c4.221,-1.206 24.121,1.959 27.437,-1.357c-1.96,-34.221 0.151,-70.099 0.151,-104.621l0,-0.603l-3.618,0Z" style="fill:none;stroke-width:4px;stroke:#000;"/><path d="M566.957,452.846c1.659,-1.659 4.975,-1.96 7.538,-2.412c11.759,-0.453 9.346,12.06 10.553,20.049c7.688,1.357 14.622,2.262 22.009,0.603c9.648,-27.889 -18.994,-53.215 -46.582,-44.17c-2.864,0.754 -5.427,1.809 -7.688,3.468c-3.769,3.467 -6.483,7.839 -8.292,13.115c-1.206,3.015 -2.11,6.633 -1.658,10.1c-0.452,32.563 -0.301,48.09 0.452,62.562c1.659,16.884 19.9,22.01 34.221,20.05c22.01,-0.452 36.18,-23.065 29.396,-43.869c-5.728,-1.658 -14.472,-0.15 -20.2,-0.904c-1.055,4.975 0.301,10.251 -1.96,14.924c-1.96,4.07 -6.332,5.729 -10.703,5.276c-5.88,-1.658 -7.99,-7.989 -8.593,-13.869c-1.206,-13.718 0,-41.908 0.603,-42.964c0.151,-0.452 0.452,-1.507 0.904,-1.959Z" style="fill:none;stroke-width:4px;stroke:#000;"/><path d="M687.407,514.05c-13.718,0.453 -26.23,-0.753 -39.496,-0.753l-0.151,-0.151c-0.452,-4.824 -1.055,-12.965 0,-18.844c2.11,-1.658 12.06,0 18.241,-1.658c-0.151,-7.387 0.754,-14.171 -0.302,-20.955l0,-0.15c-6.18,-0.151 -12.512,0 -18.542,-0.453l-0.151,-0.15c-1.357,-5.427 0,-11.759 -0.151,-17.638l0.151,-0.151l0.452,0c13.267,-1.206 26.683,1.055 39.497,-1.809l0,-0.151c0,-7.085 1.055,-14.321 0,-21.406c0,-0.905 -39.044,-0.302 -62.411,0.904c-1.959,34.522 -0.15,68.14 -0.15,103.114c19.446,1.658 41.305,0.151 61.807,0.301c1.659,-6.03 1.659,-13.266 1.206,-19.748l0,-0.302Z" style="fill:none;stroke-width:4px;stroke:#000;"/><path d="M709.116,534.251l0.301,0c2.261,0 3.317,0.151 5.729,0.151l1.055,0c0,-5.879 0.301,-12.512 0.452,-18.09c-5.879,0 -13.567,-1.659 -18.391,0.301l0,0.151c0,5.578 -1.809,17.638 -0.453,17.638l11.307,-0.151ZM697.357,428.725c-1.658,27.437 0,53.668 -0.452,80.2l0.151,0c5.879,-0.151 14.17,-0.151 19.446,-0.754c-1.206,-25.778 -0.603,-53.969 -0.15,-79.747c-5.578,-1.658 -13.266,-0.151 -18.543,0.301l-0.452,0Z" style="fill:none;stroke-width:4px;stroke:#000;"/></g></svg>