<?xml version="1.0" standalone="no"?>
<!DOCTYPE svg PUBLIC "-//W3C//DTD SVG 1.1//EN" "http://www.w3.org/Graphics/SVG/1.1/DTD/svg11.dtd">
<svg width="100%" height="100%" viewBox="0 0 120 48" version="1.1" xmlns="http://www.w3.org/2000/svg" xmlns:xlink="http://www.w3.org/1999/xlink" xml:space="preserve" style="fill-rule:evenodd;clip-rule:evenodd;stroke-linejoin:round;stroke-miterlimit:1.41421;">
    <path id="path243" d="M39.328,18.156C37.041,18.156 34.488,19.037 33.953,21.937C33.896,22.245 34.1,22.392 34.297,22.437L36.641,22.719C36.858,22.708 37.005,22.472 37.047,22.25C37.247,21.252 38.068,20.781 38.984,20.781C39.479,20.781 40.035,20.951 40.328,21.406C40.664,21.913 40.641,22.602 40.641,23.187L40.641,23.531C39.248,23.691 37.413,23.788 36.109,24.375C34.604,25.044 33.547,26.405 33.547,28.406C33.547,30.97 35.118,32.25 37.141,32.25C38.849,32.25 39.792,31.849 41.109,30.469C41.546,31.119 41.686,31.414 42.484,32.094C42.662,32.19 42.888,32.18 43.047,32.031L43.047,32.062C43.527,31.625 44.4,30.828 44.891,30.406C45.087,30.242 45.044,29.973 44.891,29.75C44.452,29.128 43.984,28.626 43.984,27.469L43.984,23.625C43.984,21.997 44.122,20.496 42.953,19.375C42.032,18.468 40.496,18.156 39.328,18.156L39.328,18.156ZM70.828,18.156C68.54,18.156 65.989,19.037 65.453,21.937C65.396,22.245 65.599,22.392 65.797,22.437L68.141,22.719C68.358,22.708 68.506,22.472 68.547,22.25C68.748,21.252 69.568,20.781 70.484,20.781C70.98,20.781 71.535,20.951 71.828,21.406C72.163,21.913 72.109,22.602 72.109,23.187L72.109,23.531C70.716,23.691 68.913,23.788 67.609,24.375C66.103,25.044 65.047,26.405 65.047,28.406C65.047,30.97 66.619,32.25 68.641,32.25C70.347,32.25 71.29,31.849 72.609,30.469C73.044,31.119 73.186,31.414 73.984,32.094C74.163,32.19 74.388,32.18 74.547,32.031L74.547,32.062C75.028,31.625 75.9,30.828 76.391,30.406C76.587,30.242 76.542,29.973 76.391,29.75C75.952,29.128 75.484,28.626 75.484,27.469L75.484,23.625C75.484,21.997 75.59,20.496 74.422,19.375C73.5,18.468 71.996,18.156 70.828,18.156L70.828,18.156ZM53.109,18.281C51.631,18.281 50.535,19.027 49.953,20.625L49.922,20.625L49.922,18.969C49.907,18.738 49.718,18.543 49.484,18.531L47.234,18.531C46.979,18.531 46.766,18.747 46.766,19L46.766,31.656C46.785,31.881 46.974,32.078 47.203,32.094L49.609,32.094C49.866,32.094 50.077,31.88 50.078,31.625L50.078,24.906C50.078,23.441 50.007,21.437 51.734,21.437C53.439,21.437 53.203,23.496 53.203,24.906L53.203,31.625C53.203,31.864 53.399,32.078 53.641,32.094L56.047,32.094C56.303,32.094 56.516,31.88 56.516,31.625L56.516,24.906C56.516,24.187 56.486,23.14 56.734,22.5C56.981,21.86 57.588,21.437 58.172,21.437C58.868,21.437 59.399,21.68 59.578,22.531C59.69,23.037 59.641,24.374 59.641,24.906L59.641,31.625C59.641,31.864 59.836,32.078 60.078,32.094L62.484,32.094C62.74,32.094 62.953,31.88 62.953,31.625L62.953,23.625C62.953,22.266 63.09,20.723 62.328,19.656C61.655,18.698 60.555,18.281 59.547,18.281C58.133,18.281 56.817,19.027 56.234,20.625C55.561,19.028 54.612,18.281 53.109,18.281L53.109,18.281ZM94.016,18.281C90.539,18.281 88.609,21.338 88.609,25.281C88.609,29.197 90.518,32.344 94.016,32.344C97.381,32.344 99.516,29.269 99.516,25.406C99.516,21.412 97.582,18.281 94.016,18.281L94.016,18.281ZM107.734,18.281C106.073,18.281 105.124,19.112 104.453,20.844L104.422,20.844L104.422,18.906C104.379,18.71 104.194,18.574 103.984,18.562L101.766,18.562C101.524,18.562 101.319,18.738 101.297,18.969L101.297,31.625C101.297,31.864 101.493,32.078 101.734,32.094L104.109,32.094C104.365,32.094 104.574,31.881 104.578,31.625L104.578,24.812C104.578,23.958 104.65,23.179 104.984,22.406C105.253,21.793 105.775,21.406 106.359,21.406C108.017,21.406 107.859,23.426 107.859,24.812L107.859,31.687C107.883,31.902 108.077,32.08 108.297,32.094L110.703,32.094C110.94,32.094 111.144,31.913 111.172,31.687L111.172,23.719C111.172,22.494 111.175,20.792 110.547,19.781C109.874,18.688 108.808,18.281 107.734,18.281L107.734,18.281ZM78.859,18.5C78.615,18.5 78.423,18.694 78.422,18.969L78.422,20.781C78.423,21.052 78.609,21.248 78.859,21.25L82.984,21.25L78.266,28.219C77.978,28.668 77.953,29.177 77.953,29.469L77.953,31.312C77.953,31.577 78.242,31.867 78.516,31.719C81.205,30.251 84.427,30.381 86.859,31.687C87.154,31.848 87.453,31.546 87.453,31.281L87.453,29.344C87.429,29.085 87.328,28.835 87.016,28.656C85.636,27.862 84.034,27.619 82.516,27.656L86.609,21.656C86.988,21.117 87.2,20.792 87.203,20.531L87.203,18.969C87.203,18.7 87.02,18.5 86.766,18.5L78.859,18.5ZM94.016,20.875C94.778,20.875 95.339,21.215 95.609,22.094C95.922,23.107 95.953,24.371 95.953,25.437C95.953,27.061 95.878,29.75 94.016,29.75C92.133,29.75 92.141,26.422 92.141,24.875C92.141,23.332 92.245,20.875 94.016,20.875ZM40.609,25.5L40.609,26.031C40.609,26.992 40.644,27.801 40.172,28.656C39.79,29.351 39.19,29.781 38.516,29.781C37.596,29.781 37.047,29.035 37.047,27.969C37.047,25.868 38.872,25.5 40.609,25.5ZM72.109,25.5L72.109,26.031C72.109,26.992 72.144,27.801 71.672,28.656C71.29,29.351 70.693,29.781 70.016,29.781C69.095,29.781 68.547,29.035 68.547,27.969C68.547,25.868 70.37,25.5 72.109,25.5Z" style="fill:rgb(32,28,29);"/>
    <path id="path257" d="M87.703,32.5L87.703,34.312L88.922,34.312L88.922,32.5L87.703,32.5ZM52.359,32.812L52.359,45.719L53.484,45.719L53.484,44.562C53.724,45.02 53.997,45.363 54.328,45.594C54.658,45.825 55.037,45.937 55.453,45.937C56.279,45.937 56.992,45.515 57.609,44.656C58.226,43.797 58.547,42.552 58.547,40.969C58.547,39.932 58.414,39.072 58.141,38.344C57.868,37.617 57.503,37.077 57.047,36.719C56.591,36.362 56.073,36.156 55.516,36.156C55.118,36.156 54.746,36.261 54.422,36.469C54.097,36.677 53.834,37.015 53.578,37.437L53.578,32.812L52.359,32.812ZM63.922,35.844C63.074,35.844 62.401,36.095 61.922,36.594C61.443,37.092 61.203,37.734 61.203,38.531C61.203,38.994 61.307,39.386 61.484,39.75C61.661,40.114 61.915,40.408 62.234,40.625C62.554,40.842 63.193,41.126 64.141,41.437C64.797,41.648 65.188,41.828 65.359,41.969C65.607,42.174 65.734,42.442 65.734,42.812C65.734,43.24 65.586,43.597 65.297,43.875C65.008,44.154 64.606,44.281 64.078,44.281C63.55,44.281 63.116,44.133 62.797,43.812C62.478,43.491 62.306,43.004 62.234,42.344L61.016,42.594C61.292,44.599 62.292,45.595 64.016,45.594C64.936,45.594 65.64,45.333 66.172,44.781C66.704,44.229 66.984,43.487 66.984,42.594C66.984,42.112 66.899,41.694 66.734,41.344C66.569,40.995 66.343,40.734 66.047,40.531C65.75,40.329 65.088,40.06 64.078,39.719C63.344,39.462 62.915,39.273 62.766,39.156C62.517,38.958 62.391,38.689 62.391,38.344C62.391,37.993 62.507,37.694 62.766,37.469C63.025,37.245 63.424,37.125 63.953,37.125C64.885,37.125 65.406,37.636 65.516,38.656L66.703,38.469C66.621,37.824 66.481,37.315 66.266,36.969C66.051,36.623 65.733,36.331 65.328,36.125C64.922,35.92 64.457,35.844 63.922,35.844ZM71.391,35.844C70.415,35.844 69.589,36.247 68.953,37.094C68.316,37.941 68.016,39.169 68.016,40.781C68.016,42.334 68.322,43.551 68.953,44.375C69.584,45.198 70.402,45.594 71.422,45.594C72.232,45.594 72.905,45.351 73.453,44.844C74.002,44.337 74.4,43.591 74.609,42.594L73.359,42.375C73,43.653 72.338,44.279 71.422,44.281C70.838,44.281 70.361,44.033 69.953,43.5C69.545,42.966 69.315,42.174 69.266,41.125L74.641,41.125L74.641,40.687C74.641,39.11 74.326,37.927 73.703,37.094C73.079,36.261 72.323,35.844 71.391,35.844ZM78.797,35.844C78.505,35.844 78.25,35.942 78.016,36.156C77.782,36.37 77.515,36.812 77.234,37.469L77.234,36.031L76.141,36.031L76.141,45.375L77.359,45.375L77.359,40.5C77.359,39.82 77.423,39.166 77.578,38.562C77.666,38.216 77.832,37.943 78.047,37.75C78.262,37.557 78.507,37.469 78.766,37.469C79.053,37.469 79.338,37.583 79.641,37.812L80.047,36.344C79.622,36.004 79.205,35.844 78.797,35.844ZM93.734,35.844C92.769,35.844 91.974,36.25 91.359,37.062C90.745,37.874 90.422,39.095 90.422,40.719C90.422,42.331 90.75,43.551 91.359,44.375C91.969,45.198 92.73,45.594 93.672,45.594C94.449,45.594 95.118,45.305 95.672,44.719C96.227,44.133 96.565,43.27 96.703,42.156L95.516,41.969C95.428,42.766 95.22,43.339 94.891,43.719C94.562,44.097 94.166,44.281 93.703,44.281C93.113,44.281 92.611,44.006 92.234,43.437C91.857,42.869 91.672,41.959 91.672,40.687C91.672,39.455 91.872,38.566 92.266,38C92.66,37.434 93.165,37.125 93.766,37.125C94.168,37.125 94.511,37.282 94.797,37.594C95.085,37.906 95.276,38.401 95.391,39.031L96.578,38.781C96.435,37.796 96.119,37.054 95.609,36.562C95.098,36.069 94.478,35.844 93.734,35.844ZM100.703,35.844C99.727,35.844 98.903,36.247 98.266,37.094C97.629,37.941 97.328,39.169 97.328,40.781C97.328,42.334 97.635,43.551 98.266,44.375C98.898,45.198 99.714,45.594 100.734,45.594C101.543,45.594 102.217,45.351 102.766,44.844C103.314,44.337 103.712,43.591 103.922,42.594L102.672,42.375C102.313,43.653 101.68,44.279 100.766,44.281C100.182,44.281 99.674,44.033 99.266,43.5C98.858,42.966 98.628,42.174 98.578,41.125L103.953,41.125L103.953,40.687C103.953,39.11 103.639,37.927 103.016,37.094C102.394,36.261 101.635,35.844 100.703,35.844ZM107.922,35.844C107.073,35.844 106.401,36.095 105.922,36.594C105.442,37.092 105.203,37.734 105.203,38.531C105.203,38.994 105.276,39.386 105.453,39.75C105.629,40.114 105.883,40.408 106.203,40.625C106.522,40.842 107.161,41.126 108.109,41.437C108.764,41.648 109.188,41.828 109.359,41.969C109.607,42.174 109.734,42.442 109.734,42.812C109.734,43.24 109.586,43.597 109.297,43.875C109.009,44.154 108.605,44.281 108.078,44.281C107.549,44.281 107.116,44.133 106.797,43.812C106.479,43.491 106.274,43.004 106.203,42.344L104.984,42.594C105.259,44.599 106.258,45.595 107.984,45.594C108.905,45.594 109.64,45.333 110.172,44.781C110.704,44.229 110.984,43.487 110.984,42.594C110.984,42.112 110.899,41.693 110.734,41.344C110.569,40.995 110.313,40.734 110.016,40.531C109.72,40.329 109.088,40.06 108.078,39.719C107.344,39.462 106.882,39.273 106.734,39.156C106.485,38.958 106.359,38.689 106.359,38.344C106.359,37.993 106.507,37.693 106.766,37.469C107.025,37.245 107.425,37.125 107.953,37.125C108.884,37.125 109.406,37.636 109.516,38.656L110.703,38.469C110.62,37.824 110.482,37.315 110.266,36.969C110.051,36.623 109.733,36.331 109.328,36.125C108.923,35.92 108.456,35.844 107.922,35.844ZM80.047,36.031L82.766,45.375L83.922,45.375L86.641,36.031L85.391,36.031L83.797,41.75C83.604,42.442 83.433,43.038 83.328,43.531C83.195,42.91 83.068,42.258 82.891,41.625L81.328,36.031L80.047,36.031ZM87.703,36.031L87.703,45.375L88.922,45.375L88.922,36.031L87.703,36.031ZM47.641,36.156C46.674,36.156 45.896,36.59 45.266,37.437C44.635,38.284 44.297,39.513 44.297,41.125C44.297,42.678 44.609,43.864 45.234,44.687C45.859,45.51 46.693,45.937 47.703,45.937C48.505,45.937 49.16,45.663 49.703,45.156C50.245,44.649 50.62,43.903 50.828,42.906L49.609,42.719C49.254,43.997 48.609,44.623 47.703,44.625C47.124,44.625 46.638,44.377 46.234,43.844C45.83,43.31 45.596,42.518 45.547,41.469L50.859,41.469L50.891,41.031C50.891,39.454 50.57,38.239 49.953,37.406C49.336,36.573 48.563,36.156 47.641,36.156ZM33.922,36.375L36.109,45.719L37.391,45.719L38.828,38.531L39.078,40.125L40.234,45.719L41.484,45.719L43.703,36.375L42.547,36.375L41.328,41.781L40.922,43.594L40.547,41.781L39.484,36.375L38.234,36.375L37.109,41.844L36.734,43.781L36.297,41.781L35.172,36.375L33.922,36.375ZM111.703,36.469L111.703,36.906L112.891,36.906L112.891,40.031L113.359,40.031L113.359,36.906L114.547,36.906L114.547,36.469L111.703,36.469ZM115.016,36.469L115.016,40.031L115.453,40.031L115.453,37L116.484,40.031L116.922,40.031L117.953,37.062L117.953,40.031L118.422,40.031L118.422,36.469L117.766,36.469L116.922,38.969C116.837,39.219 116.776,39.399 116.734,39.531L116.547,39L115.703,36.469L115.016,36.469ZM71.359,37.125C71.966,37.125 72.467,37.419 72.859,38C73.129,38.399 73.304,39.003 73.359,39.812L69.328,39.812C69.366,38.991 69.598,38.359 69.984,37.875C70.37,37.391 70.814,37.125 71.359,37.125ZM100.672,37.125C101.277,37.125 101.78,37.419 102.172,38C102.441,38.399 102.617,39.003 102.672,39.812L98.641,39.812C98.679,38.991 98.91,38.359 99.297,37.875C99.682,37.391 100.126,37.125 100.672,37.125ZM47.641,37.469C48.241,37.469 48.722,37.763 49.109,38.344C49.376,38.743 49.554,39.347 49.609,40.156L45.641,40.156C45.679,39.335 45.882,38.671 46.266,38.187C46.648,37.703 47.1,37.469 47.641,37.469ZM55.391,37.469C55.933,37.469 56.394,37.77 56.766,38.344C57.138,38.919 57.297,39.805 57.297,41.031C57.297,42.227 57.12,43.118 56.734,43.719C56.348,44.32 55.889,44.625 55.391,44.625C55.025,44.625 54.692,44.502 54.391,44.25C54.089,43.998 53.867,43.636 53.703,43.156C53.539,42.675 53.453,41.936 53.453,40.969C53.453,39.831 53.656,38.976 54.047,38.375C54.438,37.774 54.893,37.469 55.391,37.469Z" style="fill:black;fill-rule:nonzero;"/>
    <path id="polygon287" d="M16.406,27.563L11.75,29.563L16.063,31.406L21.063,29.563L16.406,27.563ZM9.406,30.063L9.25,39.063L16.063,42.063L16.063,32.719L9.406,30.063ZM23.406,30.063L17.25,32.406L17.25,41.219L23.406,38.719L23.406,30.063Z" style="fill:rgb(247,168,13);"/>
    <path id="polygon311" d="M30.75,2.063L26.063,4.063L30.406,5.906L35.406,4.063L30.75,2.063ZM24.25,4.719L24.25,13.719L30.063,15.406L30.25,7.219L24.25,4.719ZM37.25,5.219L31.75,7.563L31.75,16.406L37.25,13.906L37.25,5.219Z" style="fill:rgb(247,168,13);"/>
    <path id="use3387" d="M8.734,14.73L4.078,16.73L8.391,18.573L13.391,16.73L8.734,14.73L8.734,14.73ZM1.734,17.23L1.578,26.23L8.391,29.23L8.391,19.886L1.734,17.23ZM15.734,17.23L9.578,19.573L9.578,28.386L15.734,25.886L15.734,17.23Z" style="fill:rgb(247,168,13);"/>
    <path id="use3389" d="M23.734,14.397L19.078,16.397L23.391,18.241L28.391,16.397L23.734,14.397L23.734,14.397ZM16.734,16.897L16.578,25.897L23.391,28.897L23.391,19.553L16.734,16.897ZM30.734,16.897L24.578,19.241L24.578,28.053L30.734,25.553L30.734,16.897Z" style="fill:rgb(247,168,13);"/>
    <path id="use3391" d="M45.401,2.063L40.745,4.063L45.058,5.906L50.058,4.063L45.401,2.063ZM38.401,4.563L38.245,13.563L45.058,16.563L45.058,7.219L38.401,4.563ZM52.401,4.563L46.245,6.906L46.245,15.719L52.401,13.219L52.401,4.563Z" style="fill:rgb(247,168,13);"/>
</svg>
