<?xml version="1.0" standalone="no"?>
<!DOCTYPE svg PUBLIC "-//W3C//DTD SVG 1.1//EN" "http://www.w3.org/Graphics/SVG/1.1/DTD/svg11.dtd">
<svg width="100%" height="100%" viewBox="0 0 629 376" version="1.1" xmlns="http://www.w3.org/2000/svg" xmlns:xlink="http://www.w3.org/1999/xlink" xml:space="preserve" style="fill-rule:evenodd;clip-rule:evenodd;stroke-linecap:round;stroke-linejoin:round;stroke-miterlimit:1.41421;">
    <g transform="matrix(0.75,0,0,0.75,-0,-0)">
        <g transform="matrix(0.254548,0,0,0.254548,553.665,-35.199)">
            <path d="M58.345,764.593C58.345,764.593 19.187,741.708 17.339,813.884C15.438,888.163 67.92,1004.24 67.92,1004.24C67.92,1004.24 90.899,1052.35 93.027,1009.65" style="fill:rgb(242,187,166);stroke-width:18.75px;stroke:rgb(38,0,0);"/>
        </g>
        <g transform="matrix(0.254548,0,0,0.254548,525.373,-31.3117)">
            <path d="M937.995,763.691C937.995,763.691 977.287,738.921 982.063,813.081C986.839,887.242 932.992,1003.44 932.992,1003.44C932.992,1003.44 910.885,1029.5 911.832,996.98" style="fill:rgb(220,169,150);stroke-width:18.75px;stroke:rgb(38,0,0);"/>
        </g>
        <g transform="matrix(0.254548,0,0,0.254548,536.819,-15.1139)">
            <path d="M155.388,872.704C155.388,872.704 124.684,698.37 124.727,694.943C126.027,589.428 117.959,554.632 117.959,554.632C110.328,480.975 112.118,383.575 128.659,325.74L145.542,287.283L174.898,255.402C174.898,255.402 243.899,154.783 381.298,109.584C414.297,98.729 449.645,92.782 490.769,96.054C501.86,96.936 592.632,100.579 635.067,111.461C680.506,123.114 728.995,147.909 728.995,147.909L781.712,182.394C781.712,182.394 894.478,244.379 906.515,374.527L912.186,432.551L912.129,536.443L886.791,740.887C890.679,733.329 888.646,793.373 868.674,869.662" style="fill:rgb(85,63,62);stroke-width:18.75px;stroke:rgb(38,0,0);"/>
        </g>
        <g transform="matrix(0.23331,0,0,0.254548,551.253,-15.1139)">
            <path d="M499.411,1409.35C499.411,1409.35 418.389,1410.86 389.634,1391.18C360.879,1371.51 197.619,1189.16 173.741,1130.05C148.677,1068 116.213,957.09 116.213,957.09C116.213,957.09 102.77,894.703 105.793,841.729C108.815,788.756 110.54,749.555 107.509,745.018C104.479,740.481 98.837,640.455 109.434,569.324C116.066,524.816 133.814,455.888 146.17,410.528C153.56,383.397 183.087,308.7 183.087,308.7C183.087,308.7 195.069,349.05 257.732,333.186C270.471,329.961 236.547,402.84 248.263,393.184C269.79,375.442 351.197,297.767 384.312,303.602C393.1,305.15 376.305,309.031 385.57,308.063C392.441,307.345 363.32,372.857 370.41,372.252C382.765,371.196 455.617,302.445 468.609,301.783C479.039,301.251 489.667,300.856 500.484,300.615C701.014,305.161 744.568,305.537 744.568,305.537C766.563,212.378 870.692,453.322 869.497,573.567C868.783,645.45 890.069,732.844 887.095,737.382C884.121,741.92 884.429,784.514 887.396,837.487C890.362,890.46 879.312,958.788 879.312,958.788C879.312,958.788 853.344,1063.22 831.284,1121.87C808.883,1181.42 637.507,1371.51 609.283,1391.18C581.06,1410.86 499.41,1409.35 499.41,1409.35L499.411,1409.35Z" style="fill:rgb(242,187,166);stroke-width:18.75px;stroke:rgb(38,0,0);"/>
        </g>
        <g transform="matrix(0.223282,0,0,0.254548,554.809,-15.7614)">
            <path d="M596.057,1407.52C596.057,1407.52 719.092,1137.41 722.173,1017.99C727.12,826.203 720.599,365.482 720.599,365.482C720.599,365.482 696.484,295.689 672.822,302.254C659.002,306.088 695.9,302.316 720.737,310.787C759.871,324.134 766.9,290.17 783.667,290.269C820.215,290.485 885.778,492.251 896.179,563.382C906.581,634.512 912.977,717.567 910.002,722.105C907.028,726.643 910.349,782.814 913.315,835.787C916.281,888.76 905.458,957.933 905.458,957.933C905.458,957.933 890.26,1060.73 869.7,1121.01C849.114,1181.37 668.438,1357.09 640.214,1376.76" style="fill:rgb(195,150,133);fill-opacity:0.47451;"/>
        </g>
        <g transform="matrix(0.23331,0,0,0.254548,551.253,-15.1139)">
            <path d="M499.411,1409.35C499.411,1409.35 418.389,1410.86 389.634,1391.18C360.879,1371.51 197.619,1189.16 173.741,1130.05C148.677,1068 116.213,957.09 116.213,957.09C116.213,957.09 102.77,894.703 105.793,841.729C108.815,788.756 110.54,749.555 107.509,745.018C104.479,740.481 98.837,640.455 109.434,569.324C116.066,524.816 133.814,455.888 146.17,410.528C153.56,383.397 183.087,308.7 183.087,308.7C183.087,308.7 195.069,349.05 257.732,333.186C270.471,329.961 236.547,402.84 248.263,393.184C269.79,375.442 351.197,297.767 384.312,303.602C393.1,305.15 376.305,309.031 385.57,308.063C392.441,307.345 363.32,372.857 370.41,372.252C382.765,371.196 455.617,302.445 468.609,301.783C479.039,301.251 489.667,300.856 500.484,300.615C701.014,305.161 744.568,305.537 744.568,305.537C766.563,212.378 870.692,453.322 869.497,573.567C868.783,645.45 882.66,698.904 883.388,711.078C883.704,716.363 884.429,784.514 887.396,837.487C890.362,890.46 879.312,958.788 879.312,958.788C879.312,958.788 853.344,1063.22 831.284,1121.87C808.883,1181.42 637.507,1371.51 609.283,1391.18C581.06,1410.86 499.41,1409.35 499.41,1409.35L499.411,1409.35Z" style="fill:none;stroke-width:18.75px;stroke:rgb(38,0,0);"/>
        </g>
        <g transform="matrix(0.254548,0,0,0.254548,536.345,-6.47038)">
            <path d="M876.445,736.213C876.445,736.213 826.448,1026.42 740.143,1053.53C668.32,1076.08 592.047,967.613 584.747,976.044L517.421,1002.64L446.697,974.644C438.35,991.042 391.868,1024.99 286.053,1079C249.366,1097.72 152.849,800.414 153.698,693.511C154.548,586.607 152.889,814.523 152.889,814.523C158.035,909.978 178.057,1004.32 215.673,1097.35C269.168,1189.13 338.113,1276.77 419.592,1359.52C481.91,1377.15 547.294,1377.92 616.47,1357.82C691.328,1280.54 757.75,1198.71 812.579,1110.63C837.561,1032.39 857.708,946.334 871.12,870.776C867.986,795.035 868.859,762.131 887.368,695.448L876.445,736.213Z" style="fill:rgb(85,63,62);stroke-width:17.99px;stroke:rgb(38,0,0);"/>
        </g>
        <g transform="matrix(0.254548,0,0,0.252182,542.392,-2.87939)">
            <path d="M350.603,1104.39C366.326,1118.29 385.278,1132.37 423.651,1147.48C443.772,1155.4 467,1141.41 489.73,1147.78C509.863,1142.49 537.361,1158.97 556.283,1149.77C590.884,1132.94 617.25,1109.86 637.182,1081.9L561.889,1061.24L493.043,1067.77L450.613,1065.74C409.898,1059.27 370.849,1069.89 350.603,1104.39Z" style="fill:rgb(242,187,166);stroke-width:18.07px;stroke:rgb(38,0,0);"/>
        </g>
        <g transform="matrix(0.24574,0,0,0.24574,54.5848,-8.34451)">
            <path d="M63.432,768.836C63.432,768.836 19.187,741.708 17.339,813.884C15.438,888.163 3.645,902.07 45.619,949.633C70.397,977.712 67.92,1004.24 67.92,1004.24C67.92,1004.24 64.599,1062.53 110.846,1031.7" style="fill:rgb(254,207,168);stroke-width:18.75px;stroke:rgb(38,0,0);"/>
        </g>
        <g transform="matrix(0.24574,0,0,0.24574,54.5848,-8.34451)">
            <path d="M932.058,760.298C932.058,760.298 977.287,738.921 982.063,813.081C986.839,887.242 992.548,901.267 951.827,948.83C927.788,976.909 932.992,1003.44 932.992,1003.44C932.992,1003.44 929.55,1058.35 884.683,1027.53" style="fill:rgb(236,185,153);stroke-width:18.75px;stroke:rgb(38,0,0);"/>
        </g>
        <g transform="matrix(0.24574,0,0,0.24574,54.5848,-8.34451)">
            <path d="M87.512,915.125C87.512,915.125 49.108,867.67 62.728,723.902C63.055,720.455 63.599,717.034 63.641,713.608C64.942,608.093 50.937,463 50.937,463C50.937,463 77.444,350.28 111.969,338.45C138.095,329.498 86.763,306.593 86.763,306.593L126.116,293.499L122.105,196.643L169.017,247.113C169.017,247.113 324.275,50.959 604.6,50.197C612.327,50.175 620.148,50.303 628.064,50.587L628.075,50.916L598.434,88.55L597.993,89.023L689.322,92.045L673.661,120.8L728.667,122.315L712.025,147.06L797.828,162.195L781.712,182.394C781.712,182.394 934.355,298.683 954.028,428.831L955.452,430.008L1007.76,487.679L1008.44,488.622L980.67,499.219L997.312,523.963L955.4,532.201L929.212,745.13C929.212,745.13 937.306,879.823 908.551,914.631L887.643,957.086C887.643,957.086 916.281,888.762 913.315,835.789C910.348,782.816 884.121,741.916 887.095,737.378C890.069,732.841 894.703,640.451 884.301,569.32C873.899,498.19 853.8,431.955 853.8,431.955C853.8,431.955 701.013,305.156 500.484,300.611C296.175,305.157 146.989,436.812 146.989,436.812C146.989,436.812 120.032,498.19 109.435,569.32C98.837,640.451 103.558,732.84 106.588,737.378C109.618,741.916 82.896,782.816 79.874,835.789C76.852,888.762 106.03,957.086 106.03,957.086" style="fill:rgb(148,93,64);"/>
        </g>
        <g transform="matrix(0.24574,0,0,0.24574,54.5848,-8.34451)">
            <path d="M853.8,431.956C853.8,431.956 873.899,498.19 884.301,569.321C894.703,640.451 890.069,732.841 887.095,737.379C884.121,741.916 910.348,782.816 913.315,835.789C916.281,888.762 887.643,957.086 887.643,957.086L908.551,914.631C937.306,879.824 929.212,745.13 929.212,745.13L955.399,532.201L997.312,523.964L980.67,499.22L1008.44,488.622L1007.76,487.679L955.452,430.008L954.028,428.831C934.355,298.683 781.712,182.394 781.712,182.394L788.31,173.401L781.043,172.7C781.043,172.7 691.209,233.095 684.479,255.661C675.402,286.098 682.555,335.339 682.555,335.339" style="fill:rgb(131,83,58);"/>
        </g>
        <g transform="matrix(0.24574,0,0,0.24574,54.5848,-8.34451)">
            <path d="M496.632,1409.35C496.632,1409.35 418.389,1410.86 389.633,1391.18C360.878,1371.51 131.227,1185.61 119.122,1123.56C107.017,1061.51 106.028,957.09 106.028,957.09C106.028,957.09 76.851,888.766 79.873,835.793C82.895,782.82 109.617,741.92 106.587,737.382C103.556,732.845 98.836,640.455 109.433,569.324C120.031,498.194 146.988,436.816 146.988,436.816C146.988,436.816 296.175,305.16 500.483,300.615C701.013,305.161 853.799,431.959 853.799,431.959C853.799,431.959 873.898,498.193 884.3,569.324C894.701,640.455 890.068,732.844 887.094,737.382C884.12,741.92 910.347,782.82 913.313,835.793C916.28,888.766 887.642,957.09 887.642,957.09C887.642,957.09 886.671,1061.51 874.79,1123.56C862.909,1185.61 637.506,1371.51 609.282,1391.18C581.059,1410.86 504.262,1409.35 504.262,1409.35" style="fill:rgb(255,215,181);"/>
        </g>
        <g transform="matrix(0.24574,0,0,0.24574,54.5848,-8.34451)">
            <path d="M597.756,1391.4C597.756,1391.4 719.092,1137.41 722.173,1017.99C727.12,826.203 678.043,342.575 678.043,342.575C678.043,342.575 681.598,314.096 764.007,371.876C788.743,389.22 814.306,403.759 853.8,431.954C883.547,453.189 873.899,498.188 884.301,569.319C894.703,640.449 890.07,732.839 887.095,737.377C884.121,741.914 910.349,782.814 913.315,835.787C916.281,888.76 887.643,957.084 887.643,957.084C887.643,957.084 886.673,1061.51 874.792,1123.56C862.911,1185.6 637.508,1371.51 609.284,1391.18" style="fill:rgb(215,152,120);fill-opacity:0.47451;"/>
        </g>
        <g transform="matrix(0.24574,0,0,0.24574,54.5848,-8.34451)">
            <path d="M87.512,915.125C87.512,915.125 49.108,867.67 62.728,723.902C63.055,720.455 63.599,717.034 63.641,713.608C64.942,608.093 50.937,463 50.937,463C50.937,463 77.444,350.28 111.969,338.45C138.095,329.498 86.763,306.593 86.763,306.593L126.116,293.499L122.105,196.643L169.017,247.113C169.017,247.113 324.275,50.959 604.6,50.197C612.327,50.175 620.148,50.303 628.064,50.587L628.075,50.916L598.434,88.55L597.993,89.023L689.322,92.045L673.661,120.8L728.667,122.315L712.025,147.06L797.828,162.195L781.712,182.394C781.712,182.394 934.355,298.683 954.028,428.831L955.452,430.008L1007.76,487.679L1008.44,488.622L980.67,499.219L997.312,523.963L955.4,532.201L929.212,745.13C929.212,745.13 937.306,879.823 908.551,914.631" style="fill:none;stroke-width:18.75px;stroke:rgb(38,0,0);"/>
        </g>
        <g transform="matrix(0.24574,0,0,0.24574,54.5848,-8.34451)">
            <path d="M499.411,1409.35C499.411,1409.35 418.389,1410.86 389.634,1391.18C360.879,1371.51 131.228,1185.61 119.123,1123.56C107.018,1061.51 106.029,957.09 106.029,957.09C106.029,957.09 76.851,888.766 79.874,835.793C82.896,782.82 109.618,741.92 106.587,737.382C103.557,732.845 98.837,640.455 109.434,569.324C120.032,498.194 146.989,436.816 146.989,436.816C146.989,436.816 296.176,305.16 500.484,300.615C701.014,305.161 853.8,431.959 853.8,431.959C853.8,431.959 873.899,498.193 884.301,569.324C894.702,640.455 890.069,732.844 887.095,737.382C884.121,741.92 910.348,782.82 913.314,835.793C916.281,888.766 887.643,957.09 887.643,957.09C887.643,957.09 886.672,1061.51 874.791,1123.56C862.91,1185.61 637.507,1371.51 609.283,1391.18C581.06,1410.86 499.41,1409.35 499.41,1409.35L499.411,1409.35Z" style="fill:none;stroke-width:18.75px;stroke:rgb(38,0,0);"/>
        </g>
        <g transform="matrix(0.633527,0,0,0.633527,346.373,164.177)">
            <path d="M254.604,363.498C252.562,363.198 248.839,363.498 246.437,363.498C246.497,378.091 245.896,392.204 246.437,407.098C248.839,407.398 252.562,406.918 254.364,407.098C255.024,403.555 254.604,398.39 254.604,395.507C257.367,399.05 258.688,403.254 261.09,407.098C263.492,407.578 268.417,407.098 270.759,407.098C267.696,400.912 263.913,395.327 260.309,389.502C263.672,384.998 267.276,380.614 270.218,376.049C267.936,375.869 262.832,376.65 260.73,375.869C258.327,378.632 257.367,382.055 254.604,384.457C254.364,382.595 254.604,379.292 254.604,376.65L254.604,363.498Z" style="fill:black;fill-rule:nonzero;"/>
            <path d="M280.788,392.024C283.31,392.504 295.201,392.024 296.883,391.544C297.363,384.817 296.282,377.911 288.835,376.65C283.13,375.209 276.104,376.95 274.002,381.695C273.041,384.337 272.921,387.1 272.681,390.042C272.38,396.528 273.882,403.615 278.146,406.617C279.106,407.158 280.127,407.518 281.268,407.698C285.833,407.698 292.379,408.899 295.081,405.056C296.222,404.095 296.462,399.771 296.763,395.687C295.021,395.207 290.817,395.747 289.196,395.567C289.496,402.053 283.611,401.993 281.689,398.27C280.788,396.828 280.848,395.507 280.788,393.105L280.788,392.024ZM288.055,382.716C289.496,383.436 290.397,384.998 290.397,386.619C290.397,387.82 290.757,387.34 286.613,387.34C280.668,387.34 280.668,387.7 280.968,386.019C281.268,383.857 282.169,382.115 285.953,382.115C286.854,382.115 287.394,382.295 288.055,382.716Z" style="fill:black;fill-rule:nonzero;"/>
            <path d="M308.533,380.313C308.473,379.172 308.593,378.512 308.413,377.13C308.413,376.59 305.471,377.19 304.81,377.19C302.888,377.371 302.528,377.371 300.606,377.19C300.306,387.76 300.666,397.429 300.666,407.278C304.51,406.978 305.35,407.698 308.113,406.918L308.113,406.677C308.774,401.393 307.873,396.108 308.173,390.583C308.473,386.259 312.557,386.679 313.878,387.34C313.938,387.4 314.058,387.4 314.118,387.46C315.38,388.421 315.44,391.303 315.62,393.285C315.92,397.609 315.56,403.555 315.86,407.218C318.683,407.218 320.544,407.398 323.367,406.978C322.886,398.69 324.628,381.514 322.106,379.232C318.803,376.41 313.338,377.01 310.035,379.413C309.614,379.713 308.954,380.073 308.533,380.313Z" style="fill:black;fill-rule:nonzero;"/>
            <path d="M335.078,407.098L335.198,407.098L335.198,407.038L335.198,406.978C335.198,405.837 335.558,400.071 335.558,399.951C334.477,399.471 329.673,399.411 328.051,400.071C328.051,401.212 327.811,405.236 328.111,407.038L328.291,407.038L335.078,407.098Z" style="fill:black;fill-rule:nonzero;"/>
            <path d="M354.656,365.54C354.415,370.284 354.235,367.281 354.475,378.572C354.175,377.13 347.269,376.17 342.945,377.791C339.402,379.052 338.08,384.397 338.08,389.982C338.261,398.03 339.101,406.257 348.17,406.918C350.392,407.218 352.554,406.737 353.755,404.335C353.995,403.855 354.175,404.155 354.355,404.576C354.355,405.476 354.415,405.777 354.415,406.557C354.415,406.737 354.415,406.918 354.475,406.978C356.878,407.278 360.12,407.038 362.583,407.038C362.883,395.507 362.222,382.175 362.222,368.783L362.222,364.819C359.58,364.339 354.656,364.699 354.656,364.879L354.656,365.54ZM345.347,388.181C345.767,385.358 347.749,383.917 351.052,383.917C354.475,383.917 354.716,384.637 354.716,390.823C354.716,395.868 354.475,399.531 350.392,399.531C346.968,399.531 344.927,395.687 344.927,391.664C344.927,390.523 344.927,389.322 345.347,388.181Z" style="fill:black;fill-rule:nonzero;"/>
            <path d="M374.233,376.89C371.651,376.95 369.789,376.83 368.768,376.77C368.348,376.77 367.387,376.65 367.087,376.71L367.087,376.77C366.126,386.199 367.507,396.949 366.727,407.098C367.808,406.798 374.414,407.638 375.194,406.737C374.654,397.069 375.194,386.739 375.254,377.07L375.254,376.89L374.233,376.89ZM366.847,363.798C366.787,367.462 367.087,369.744 367.087,372.086C370.21,371.906 374.474,372.746 375.194,371.665C375.194,369.263 375.014,364.999 375.014,363.978L366.847,363.798Z" style="fill:black;fill-rule:nonzero;"/>
            <path d="M403.3,395.567C401.618,395.087 397.294,395.627 395.673,395.447C395.433,396.468 395.012,398.09 394.232,398.63C392.37,399.891 387.025,399.651 387.325,395.928C387.506,393.105 387.385,390.583 387.686,388.12C387.806,387.46 387.986,387.1 388.226,386.919C388.767,386.259 389.427,385.838 390.268,385.598C393.391,384.817 395.373,386.619 395.793,389.442C397.835,389.742 401.378,390.222 403.42,389.742C403.24,384.457 403.36,380.554 401.078,378.932C399.396,377.311 396.994,376.59 394.412,376.41C392.73,376.23 391.349,376.53 389.728,376.35C385.944,376.35 381.86,377.371 380.719,379.833C380.479,380.614 379.819,382.475 379.758,383.376C379.518,384.817 379.398,386.259 379.398,387.7C380.059,392.925 378.197,401.152 382.521,404.996C383.902,406.377 385.644,407.278 387.686,407.638C392.31,407.638 398.856,408.899 401.618,404.996C402.699,403.915 403,399.711 403.3,395.567Z" style="fill:black;fill-rule:nonzero;"/>
            <path d="M415.311,363.498C413.269,363.198 409.546,363.498 407.143,363.498C407.204,378.091 406.603,392.204 407.143,407.098C409.546,407.398 413.269,406.918 415.071,407.098C415.731,403.555 415.311,398.39 415.311,395.507C418.073,399.05 419.395,403.254 421.797,407.098C424.199,407.578 429.124,407.098 431.466,407.098C428.403,400.912 424.619,395.327 421.016,389.502C424.379,384.998 427.983,380.614 430.925,376.049C428.643,375.869 423.538,376.65 421.437,375.869C419.034,378.632 418.073,382.055 415.311,384.457C415.071,382.595 415.311,379.292 415.311,376.65L415.311,363.498Z" style="fill:black;fill-rule:nonzero;"/>
            <path d="M441.375,376.89C438.792,376.95 436.931,376.83 435.91,376.77C435.489,376.77 434.529,376.65 434.228,376.71L434.228,376.77C433.267,386.199 434.649,396.949 433.868,407.098C434.949,406.798 441.555,407.638 442.336,406.737C441.795,397.069 442.336,386.739 442.396,377.07L442.396,376.89L441.375,376.89ZM433.988,363.798C433.928,367.462 434.228,369.744 434.228,372.086C437.351,371.906 441.615,372.746 442.336,371.665C442.336,369.263 442.155,364.999 442.155,363.978L433.988,363.798Z" style="fill:black;fill-rule:nonzero;"/>
            <path d="M454.106,380.313C454.046,379.172 454.166,378.512 453.986,377.13C453.986,376.59 451.044,377.19 450.383,377.19C448.461,377.371 448.101,377.371 446.179,377.19C445.879,387.76 446.239,397.429 446.239,407.278C450.083,406.978 450.923,407.698 453.686,406.918L453.686,406.677C454.347,401.393 453.446,396.108 453.746,390.583C454.046,386.259 458.13,386.679 459.451,387.34C459.511,387.4 459.631,387.4 459.692,387.46C460.953,388.421 461.013,391.303 461.193,393.285C461.493,397.609 461.133,403.555 461.433,407.218C464.256,407.218 466.117,407.398 468.94,406.978C468.46,398.69 470.201,381.514 467.679,379.232C464.376,376.41 458.911,377.01 455.608,379.413C455.187,379.713 454.527,380.073 454.106,380.313Z" style="fill:black;fill-rule:nonzero;"/>
            <path d="M497.526,386.319C497.526,381.995 496.085,378.271 492.301,376.65C488.097,375.689 481.972,375.689 478.849,376.53C471.102,378.572 469.961,389.922 478.969,392.985C483.413,394.907 488.878,394.006 488.398,397.969C488.578,402.594 481.071,401.272 480.891,397.609C478.429,397.609 474.645,397.369 472.003,397.669L472.003,397.969C472.003,404.395 477.468,408.359 485.515,408.059C490.139,408.119 494.403,406.557 496.265,402.654C497.766,398.27 497.226,395.567 495.484,392.685C493.623,390.282 489.359,389.442 484.855,388.781C481.071,387.46 481.131,383.256 484.794,382.595C486.836,382.415 489.419,384.277 488.938,386.319C491.641,386.859 494.944,386.739 497.526,386.319Z" style="fill:black;fill-rule:nonzero;"/>
            <path d="M502.871,379.713C502.631,380.614 501.97,382.355 501.91,383.256C501.67,384.757 501.61,386.139 501.61,387.58C502.09,392.805 500.349,401.032 504.673,404.876C506.054,406.257 507.795,407.158 509.837,407.518C514.462,407.518 521.008,408.779 523.77,404.876C525.332,403.314 525.512,395.447 525.692,390.763C525.512,385.478 525.512,380.373 523.23,378.872C521.548,377.251 519.146,376.47 516.563,376.29C514.882,376.109 513.501,376.41 511.879,376.23C508.096,376.23 504.012,377.251 502.871,379.713ZM510.378,386.799C510.918,386.139 511.579,385.718 512.42,385.478C515.543,384.757 517.524,386.139 517.945,388.961C518.425,391.303 518.065,393.946 517.765,396.528C517.524,397.549 517.044,398.21 516.383,398.51C514.281,399.651 509.297,399.471 509.477,395.807C509.657,392.985 509.537,390.583 509.837,388C509.957,387.34 510.138,386.979 510.378,386.799Z" style="fill:black;fill-rule:nonzero;"/>
            <path d="M537.222,380.313C537.162,379.172 537.282,378.512 537.102,377.13C537.102,376.59 534.16,377.19 533.499,377.19C531.577,377.371 531.217,377.371 529.295,377.19C528.995,387.76 529.355,397.429 529.355,407.278C533.199,406.978 534.039,407.698 536.802,406.918L536.802,406.677C537.463,401.393 536.562,396.108 536.862,390.583C537.162,386.259 541.246,386.679 542.567,387.34C542.627,387.4 542.747,387.4 542.807,387.46C544.069,388.421 544.129,391.303 544.309,393.285C544.609,397.609 544.249,403.555 544.549,407.218C547.372,407.218 549.233,407.398 552.056,406.978C551.575,398.69 553.317,381.514 550.795,379.232C547.492,376.41 542.027,377.01 538.724,379.413C538.303,379.713 537.643,380.073 537.222,380.313Z" style="fill:black;fill-rule:nonzero;"/>
            <path d="M577.94,379.232C576.919,378.572 575.658,378.332 574.396,378.332C571.273,378.332 568.031,379.893 566.769,381.514C565.148,383.376 564.307,385.598 564.247,388.181C564.187,390.403 564.367,393.465 565.989,395.327C567.31,396.768 568.991,397.489 571.093,397.489C573.015,397.489 574.637,396.949 575.958,395.868C576.378,396.408 576.859,396.888 577.039,397.069C577.759,397.489 578.6,397.849 579.501,397.849C582.924,397.789 585.507,395.988 586.047,392.925C586.347,391.063 586.407,389.922 586.407,387.52L586.407,384.277C586.407,379.893 586.287,374.248 582.624,370.945C580.762,369.203 578.54,368.242 576.198,367.942C574.577,367.702 572.895,367.522 571.213,367.522C570.253,367.522 569.051,367.522 568.151,367.702C564.788,368.122 561.605,368.843 559.383,371.665C556.8,374.968 556.44,378.872 556.38,382.716L556.38,384.517C556.38,388.361 556.56,391.303 556.8,395.387C556.98,397.729 558.302,401.753 559.803,403.915C561.725,406.497 564.667,407.879 567.85,408.299C569.172,408.419 570.553,408.479 571.994,408.479C574.096,408.479 576.078,408.419 577.94,407.999C580.222,407.698 584.125,405.957 586.287,404.576L584.005,399.651C581.123,401.092 576.558,402.714 573.676,402.894L573.736,402.894C573.255,402.894 572.595,402.954 571.934,402.954C569.952,402.954 567.49,402.714 565.989,401.813C563.827,400.432 563.046,398.21 562.566,395.027C562.145,392.565 561.965,389.922 561.965,387.46C561.965,386.559 561.965,385.658 562.025,384.757C562.205,381.334 562.385,377.251 564.667,374.788C566.289,373.167 568.451,372.626 570.613,372.626C571.093,372.626 571.754,372.686 572.234,372.746C573.616,372.927 575.417,373.227 576.558,373.767L576.498,373.767C579.741,375.569 580.582,379.172 580.762,382.595L580.762,384.277C580.822,385.418 580.882,386.499 580.822,387.88C580.822,389.201 580.462,392.384 579.861,392.865C578.84,392.685 578.6,389.682 578.6,386.619C578.6,385.418 578.6,384.157 578.66,383.136C578.66,382.475 578.72,381.875 578.72,381.394C578.78,380.493 578.54,379.833 578.12,379.352L577.94,379.232ZM569.352,389.742C569.352,388.361 569.292,386.979 570.193,385.538C570.913,384.097 572.234,383.977 573.856,384.157C573.676,384.157 573.556,387.16 573.556,387.88C573.556,389.502 573.315,391.063 571.934,391.604C570.553,392.264 569.352,391.363 569.352,389.922L569.352,389.742Z" style="fill:black;fill-rule:nonzero;"/>
            <path d="M597.517,376.89C594.935,376.95 593.073,376.83 592.052,376.77C591.632,376.77 590.671,376.65 590.371,376.71L590.371,376.77C589.41,386.199 590.791,396.949 590.011,407.098C591.092,406.798 597.698,407.638 598.478,406.737C597.938,397.069 598.478,386.739 598.538,377.07L598.538,376.89L597.517,376.89ZM590.131,363.798C590.071,367.462 590.371,369.744 590.371,372.086C593.494,371.906 597.758,372.746 598.478,371.665C598.478,369.263 598.298,364.999 598.298,363.978L590.131,363.798Z" style="fill:black;fill-rule:nonzero;"/>
            <path d="M610.249,380.313C610.189,379.172 610.309,378.512 610.129,377.13C610.129,376.59 607.186,377.19 606.526,377.19C604.604,377.371 604.244,377.371 602.322,377.19C602.022,387.76 602.382,397.429 602.382,407.278C606.225,406.978 607.066,407.698 609.829,406.918L609.829,406.677C610.489,401.393 609.589,396.108 609.889,390.583C610.189,386.259 614.273,386.679 615.594,387.34C615.654,387.4 615.774,387.4 615.834,387.46C617.095,388.421 617.155,391.303 617.336,393.285C617.636,397.609 617.276,403.555 617.576,407.218C620.398,407.218 622.26,407.398 625.083,406.978C624.602,398.69 626.344,381.514 623.822,379.232C620.519,376.41 615.054,377.01 611.75,379.413C611.33,379.713 610.67,380.073 610.249,380.313Z" style="fill:black;fill-rule:nonzero;"/>
            <path d="M637.274,376.89C634.691,376.95 632.83,376.83 631.809,376.77C631.388,376.77 630.428,376.65 630.127,376.71L630.127,376.77C629.166,386.199 630.548,396.949 629.767,407.098C630.848,406.798 637.454,407.638 638.235,406.737C637.694,397.069 638.235,386.739 638.295,377.07L638.295,376.89L637.274,376.89ZM629.887,363.798C629.827,367.462 630.127,369.744 630.127,372.086C633.25,371.906 637.514,372.746 638.235,371.665C638.235,369.263 638.055,364.999 638.055,363.978L629.887,363.798Z" style="fill:black;fill-rule:nonzero;"/>
            <path d="M650.005,380.313C649.945,379.172 650.066,378.512 649.885,377.13C649.885,376.59 646.943,377.19 646.282,377.19C644.36,377.371 644,377.371 642.078,377.19C641.778,387.76 642.138,397.429 642.138,407.278C645.982,406.978 646.823,407.698 649.585,406.918L649.585,406.677C650.246,401.393 649.345,396.108 649.645,390.583C649.945,386.259 654.029,386.679 655.35,387.34C655.41,387.4 655.531,387.4 655.591,387.46C656.852,388.421 656.912,391.303 657.092,393.285C657.392,397.609 657.032,403.555 657.332,407.218C660.155,407.218 662.016,407.398 664.839,406.978C664.359,398.69 666.1,381.514 663.578,379.232C660.275,376.41 654.81,377.01 651.507,379.413C651.086,379.713 650.426,380.073 650.005,380.313Z" style="fill:black;fill-rule:nonzero;"/>
            <path d="M676.55,407.098L676.67,407.098L676.67,407.038L676.67,406.978C676.67,405.837 677.03,400.071 677.03,399.951C675.949,399.471 671.145,399.411 669.523,400.071C669.523,401.212 669.283,405.236 669.583,407.038L669.764,407.038L676.55,407.098Z" style="fill:black;fill-rule:nonzero;"/>
            <path d="M705.136,395.567C703.454,395.087 699.13,395.627 697.509,395.447C697.269,396.468 696.848,398.09 696.068,398.63C694.206,399.891 688.861,399.651 689.161,395.928C689.341,393.105 689.221,390.583 689.522,388.12C689.642,387.46 689.822,387.1 690.062,386.919C690.603,386.259 691.263,385.838 692.104,385.598C695.227,384.817 697.209,386.619 697.629,389.442C699.671,389.742 703.214,390.222 705.256,389.742C705.076,384.457 705.196,380.554 702.914,378.932C701.232,377.311 698.83,376.59 696.248,376.41C694.566,376.23 693.185,376.53 691.563,376.35C687.78,376.35 683.696,377.371 682.555,379.833C682.315,380.614 681.654,382.475 681.594,383.376C681.354,384.817 681.234,386.259 681.234,387.7C681.895,392.925 680.033,401.152 684.357,404.996C685.738,406.377 687.48,407.278 689.522,407.638C694.146,407.638 700.692,408.899 703.454,404.996C704.535,403.915 704.836,399.711 705.136,395.567Z" style="fill:black;fill-rule:nonzero;"/>
            <path d="M710.421,379.713C710.18,380.614 709.52,382.355 709.46,383.256C709.22,384.757 709.16,386.139 709.16,387.58C709.64,392.805 707.898,401.032 712.222,404.876C713.604,406.257 715.345,407.158 717.387,407.518C722.011,407.518 728.557,408.779 731.32,404.876C732.881,403.314 733.061,395.447 733.242,390.763C733.061,385.478 733.061,380.373 730.779,378.872C729.098,377.251 726.696,376.47 724.113,376.29C722.432,376.109 721.05,376.41 719.429,376.23C715.645,376.23 711.562,377.251 710.421,379.713ZM717.928,386.799C718.468,386.139 719.129,385.718 719.969,385.478C723.092,384.757 725.074,386.139 725.494,388.961C725.975,391.303 725.615,393.946 725.314,396.528C725.074,397.549 724.594,398.21 723.933,398.51C721.831,399.651 716.847,399.471 717.027,395.807C717.207,392.985 717.087,390.583 717.387,388C717.507,387.34 717.687,386.979 717.928,386.799Z" style="fill:black;fill-rule:nonzero;"/>
            <path d="M744.832,380.313C744.772,379.172 744.892,378.512 744.712,377.13C744.712,376.59 741.769,377.19 741.109,377.19C739.187,377.371 738.827,377.371 736.905,377.19C736.605,387.76 736.965,397.429 736.965,407.278C740.808,406.978 741.649,407.698 744.412,406.918L744.412,406.677C745.072,401.393 744.172,396.108 744.472,390.583C744.772,386.259 748.856,386.679 750.177,387.34C750.237,387.4 750.357,387.4 750.417,387.46C751.678,388.421 751.738,391.303 751.919,393.285C752.219,397.609 751.859,403.555 752.159,407.218C754.981,407.218 756.843,407.398 759.666,406.978C759.365,402.113 759.966,394.006 759.786,387.76C761.287,386.619 763.269,386.859 764.29,387.34C764.35,387.4 764.47,387.4 764.53,387.46C765.791,388.421 765.851,391.303 766.032,393.285C766.332,397.609 765.971,403.555 766.272,407.218C769.094,407.218 770.956,407.398 773.779,406.978C773.298,398.69 775.04,381.514 772.517,379.232C769.214,376.41 763.749,377.01 760.446,379.413C760.026,379.713 759.425,380.013 759.005,380.253C758.825,379.773 758.585,379.413 758.405,379.232C755.102,376.41 749.637,377.01 746.334,379.413C745.913,379.713 745.253,380.073 744.832,380.313Z" style="fill:black;fill-rule:nonzero;"/>
        </g>
        <g transform="matrix(0.853593,0,0,0.853593,234.056,140.539)">
            <path d="M348.29,379.232C347.269,378.572 346.008,378.332 344.746,378.332C341.624,378.332 338.381,379.893 337.119,381.514C335.498,383.376 334.657,385.598 334.597,388.181C334.537,390.403 334.717,393.465 336.339,395.327C337.66,396.768 339.342,397.489 341.443,397.489C343.365,397.489 344.987,396.949 346.308,395.868C346.728,396.408 347.209,396.888 347.389,397.069C348.11,397.489 348.95,397.849 349.851,397.849C353.274,397.789 355.857,395.988 356.397,392.925C356.697,391.063 356.757,389.922 356.757,387.52L356.757,384.277C356.757,379.893 356.637,374.248 352.974,370.945C351.112,369.203 348.89,368.242 346.548,367.942C344.927,367.702 343.245,367.522 341.564,367.522C340.603,367.522 339.402,367.522 338.501,367.702C335.138,368.122 331.955,368.843 329.733,371.665C327.15,374.968 326.79,378.872 326.73,382.716L326.73,384.517C326.73,388.361 326.91,391.303 327.15,395.387C327.331,397.729 328.652,401.753 330.153,403.915C332.075,406.497 335.018,407.879 338.2,408.299C339.522,408.419 340.903,408.479 342.344,408.479C344.446,408.479 346.428,408.419 348.29,407.999C350.572,407.698 354.475,405.957 356.637,404.576L354.355,399.651C351.473,401.092 346.908,402.714 344.026,402.894L344.086,402.894C343.605,402.894 342.945,402.954 342.284,402.954C340.302,402.954 337.84,402.714 336.339,401.813C334.177,400.432 333.396,398.21 332.916,395.027C332.495,392.565 332.315,389.922 332.315,387.46C332.315,386.559 332.315,385.658 332.375,384.757C332.555,381.334 332.735,377.251 335.018,374.788C336.639,373.167 338.801,372.626 340.963,372.626C341.443,372.626 342.104,372.686 342.584,372.746C343.966,372.927 345.767,373.227 346.908,373.767L346.848,373.767C350.091,375.569 350.932,379.172 351.112,382.595L351.112,384.277C351.172,385.418 351.232,386.499 351.172,387.88C351.172,389.201 350.812,392.384 350.211,392.865C349.191,392.685 348.95,389.682 348.95,386.619C348.95,385.418 348.95,384.157 349.01,383.136C349.01,382.475 349.07,381.875 349.07,381.394C349.13,380.493 348.89,379.833 348.47,379.352L348.29,379.232ZM339.702,389.742C339.702,388.361 339.642,386.979 340.543,385.538C341.263,384.097 342.584,383.977 344.206,384.157C344.026,384.157 343.906,387.16 343.906,387.88C343.906,389.502 343.665,391.063 342.284,391.604C340.903,392.264 339.702,391.363 339.702,389.922L339.702,389.742Z" style="fill:black;fill-rule:nonzero;"/>
            <path d="M368.828,363.498C366.787,363.198 363.063,363.498 360.661,363.498C360.721,378.091 360.12,392.204 360.661,407.098C363.063,407.398 366.787,406.918 368.588,407.098C369.249,403.555 368.828,398.39 368.828,395.507C371.591,399.05 372.912,403.254 375.314,407.098C377.717,407.578 382.641,407.098 384.983,407.098C381.92,400.912 378.137,395.327 374.534,389.502C377.897,384.998 381.5,380.614 384.443,376.049C382.161,375.869 377.056,376.65 374.954,375.869C372.552,378.632 371.591,382.055 368.828,384.457C368.588,382.595 368.828,379.292 368.828,376.65L368.828,363.498Z" style="fill:black;fill-rule:nonzero;"/>
            <path d="M395.012,392.024C397.535,392.504 409.426,392.024 411.107,391.544C411.588,384.817 410.507,377.911 403.06,376.65C397.355,375.209 390.328,376.95 388.226,381.695C387.265,384.337 387.145,387.1 386.905,390.042C386.605,396.528 388.106,403.615 392.37,406.617C393.331,407.158 394.352,407.518 395.493,407.698C400.057,407.698 406.603,408.899 409.305,405.056C410.446,404.095 410.687,399.771 410.987,395.687C409.245,395.207 405.042,395.747 403.42,395.567C403.72,402.053 397.835,401.993 395.913,398.27C395.012,396.828 395.072,395.507 395.012,393.105L395.012,392.024ZM402.279,382.716C403.72,383.436 404.621,384.998 404.621,386.619C404.621,387.82 404.982,387.34 400.838,387.34C394.892,387.34 394.892,387.7 395.193,386.019C395.493,383.857 396.394,382.115 400.177,382.115C401.078,382.115 401.618,382.295 402.279,382.716Z" style="fill:black;fill-rule:nonzero;"/>
            <path d="M422.758,380.313C422.698,379.172 422.818,378.512 422.638,377.13C422.638,376.59 419.695,377.19 419.034,377.19C417.113,377.371 416.752,377.371 414.831,377.19C414.53,387.76 414.891,397.429 414.891,407.278C418.734,406.978 419.575,407.698 422.337,406.918L422.337,406.677C422.998,401.393 422.097,396.108 422.397,390.583C422.698,386.259 426.781,386.679 428.103,387.34C428.163,387.4 428.283,387.4 428.343,387.46C429.604,388.421 429.664,391.303 429.844,393.285C430.145,397.609 429.784,403.555 430.084,407.218C432.907,407.218 434.769,407.398 437.591,406.978C437.111,398.69 438.852,381.514 436.33,379.232C433.027,376.41 427.562,377.01 424.259,379.413C423.839,379.713 423.178,380.073 422.758,380.313Z" style="fill:black;fill-rule:nonzero;"/>
            <path d="M442.155,409.62C442.155,411.542 442.276,415.505 442.276,415.986C442.516,415.986 473.384,416.106 476.147,416.106C476.147,412.803 475.906,412.563 476.387,409.32L476.327,409.32C474.945,409.32 443.537,409.62 442.155,409.62Z" style="fill:black;fill-rule:nonzero;"/>
            <path d="M495.544,365.54C495.304,370.284 495.124,367.281 495.364,378.572C495.064,377.13 488.158,376.17 483.834,377.791C480.29,379.052 478.969,384.397 478.969,389.982C479.149,398.03 479.99,406.257 489.058,406.918C491.28,407.218 493.442,406.737 494.643,404.335C494.884,403.855 495.064,404.155 495.244,404.576C495.244,405.476 495.304,405.777 495.304,406.557C495.304,406.737 495.304,406.918 495.364,406.978C497.766,407.278 501.009,407.038 503.472,407.038C503.772,395.507 503.111,382.175 503.111,368.783L503.111,364.819C500.469,364.339 495.544,364.699 495.544,364.879L495.544,365.54ZM486.236,388.181C486.656,385.358 488.638,383.917 491.941,383.917C495.364,383.917 495.604,384.637 495.604,390.823C495.604,395.868 495.364,399.531 491.28,399.531C487.857,399.531 485.815,395.687 485.815,391.664C485.815,390.523 485.815,389.322 486.236,388.181Z" style="fill:black;fill-rule:nonzero;"/>
            <path d="M515.122,376.89C512.54,376.95 510.678,376.83 509.657,376.77C509.237,376.77 508.276,376.65 507.976,376.71L507.976,376.77C507.015,386.199 508.396,396.949 507.615,407.098C508.696,406.798 515.302,407.638 516.083,406.737C515.543,397.069 516.083,386.739 516.143,377.07L516.143,376.89L515.122,376.89ZM507.735,363.798C507.675,367.462 507.976,369.744 507.976,372.086C511.098,371.906 515.362,372.746 516.083,371.665C516.083,369.263 515.903,364.999 515.903,363.978L507.735,363.798Z" style="fill:black;fill-rule:nonzero;"/>
            <path d="M544.189,395.567C542.507,395.087 538.183,395.627 536.562,395.447C536.322,396.468 535.901,398.09 535.12,398.63C533.259,399.891 527.914,399.651 528.214,395.928C528.394,393.105 528.274,390.583 528.574,388.12C528.695,387.46 528.875,387.1 529.115,386.919C529.655,386.259 530.316,385.838 531.157,385.598C534.28,384.817 536.261,386.619 536.682,389.442C538.724,389.742 542.267,390.222 544.309,389.742C544.129,384.457 544.249,380.554 541.967,378.932C540.285,377.311 537.883,376.59 535.301,376.41C533.619,376.23 532.238,376.53 530.616,376.35C526.833,376.35 522.749,377.371 521.608,379.833C521.368,380.614 520.707,382.475 520.647,383.376C520.407,384.817 520.287,386.259 520.287,387.7C520.947,392.925 519.086,401.152 523.41,404.996C524.791,406.377 526.533,407.278 528.574,407.638C533.199,407.638 539.745,408.899 542.507,404.996C543.588,403.915 543.888,399.711 544.189,395.567Z" style="fill:black;fill-rule:nonzero;"/>
            <path d="M556.2,363.498C554.158,363.198 550.434,363.498 548.032,363.498C548.092,378.091 547.492,392.204 548.032,407.098C550.434,407.398 554.158,406.918 555.96,407.098C556.62,403.555 556.2,398.39 556.2,395.507C558.962,399.05 560.283,403.254 562.686,407.098C565.088,407.578 570.012,407.098 572.354,407.098C569.292,400.912 565.508,395.327 561.905,389.502C565.268,384.998 568.871,380.614 571.814,376.049C569.532,375.869 564.427,376.65 562.325,375.869C559.923,378.632 558.962,382.055 556.2,384.457C555.96,382.595 556.2,379.292 556.2,376.65L556.2,363.498Z" style="fill:black;fill-rule:nonzero;"/>
            <path d="M582.264,376.89C579.681,376.95 577.819,376.83 576.799,376.77C576.378,376.77 575.417,376.65 575.117,376.71L575.117,376.77C574.156,386.199 575.537,396.949 574.757,407.098C575.838,406.798 582.444,407.638 583.224,406.737C582.684,397.069 583.224,386.739 583.284,377.07L583.284,376.89L582.264,376.89ZM574.877,363.798C574.817,367.462 575.117,369.744 575.117,372.086C578.24,371.906 582.504,372.746 583.224,371.665C583.224,369.263 583.044,364.999 583.044,363.978L574.877,363.798Z" style="fill:black;fill-rule:nonzero;"/>
            <path d="M594.995,380.313C594.935,379.172 595.055,378.512 594.875,377.13C594.875,376.59 591.932,377.19 591.272,377.19C589.35,377.371 588.99,377.371 587.068,377.19C586.768,387.76 587.128,397.429 587.128,407.278C590.972,406.978 591.812,407.698 594.575,406.918L594.575,406.677C595.235,401.393 594.335,396.108 594.635,390.583C594.935,386.259 599.019,386.679 600.34,387.34C600.4,387.4 600.52,387.4 600.58,387.46C601.841,388.421 601.901,391.303 602.082,393.285C602.382,397.609 602.022,403.555 602.322,407.218C605.144,407.218 607.006,407.398 609.829,406.978C609.348,398.69 611.09,381.514 608.568,379.232C605.265,376.41 599.8,377.01 596.497,379.413C596.076,379.713 595.416,380.073 594.995,380.313Z" style="fill:black;fill-rule:nonzero;"/>
            <path d="M638.415,386.319C638.415,381.995 636.974,378.271 633.19,376.65C628.986,375.689 622.861,375.689 619.738,376.53C611.991,378.572 610.85,389.922 619.858,392.985C624.302,394.907 629.767,394.006 629.287,397.969C629.467,402.594 621.96,401.272 621.78,397.609C619.317,397.609 615.534,397.369 612.892,397.669L612.892,397.969C612.892,404.395 618.357,408.359 626.404,408.059C631.028,408.119 635.292,406.557 637.154,402.654C638.655,398.27 638.115,395.567 636.373,392.685C634.511,390.282 630.247,389.442 625.743,388.781C621.96,387.46 622.02,383.256 625.683,382.595C627.725,382.415 630.307,384.277 629.827,386.319C632.529,386.859 635.833,386.739 638.415,386.319Z" style="fill:black;fill-rule:nonzero;"/>
            <path d="M643.76,379.713C643.52,380.614 642.859,382.355 642.799,383.256C642.559,384.757 642.499,386.139 642.499,387.58C642.979,392.805 641.237,401.032 645.561,404.876C646.943,406.257 648.684,407.158 650.726,407.518C655.35,407.518 661.896,408.779 664.659,404.876C666.22,403.314 666.4,395.447 666.581,390.763C666.4,385.478 666.4,380.373 664.118,378.872C662.437,377.251 660.035,376.47 657.452,376.29C655.771,376.109 654.389,376.41 652.768,376.23C648.985,376.23 644.901,377.251 643.76,379.713ZM651.267,386.799C651.807,386.139 652.468,385.718 653.308,385.478C656.431,384.757 658.413,386.139 658.834,388.961C659.314,391.303 658.954,393.946 658.653,396.528C658.413,397.549 657.933,398.21 657.272,398.51C655.17,399.651 650.186,399.471 650.366,395.807C650.546,392.985 650.426,390.583 650.726,388C650.846,387.34 651.026,386.979 651.267,386.799Z" style="fill:black;fill-rule:nonzero;"/>
            <path d="M678.111,380.313C678.051,379.172 678.171,378.512 677.991,377.13C677.991,376.59 675.048,377.19 674.388,377.19C672.466,377.371 672.106,377.371 670.184,377.19C669.884,387.76 670.244,397.429 670.244,407.278C674.087,406.978 674.928,407.698 677.691,406.918L677.691,406.677C678.351,401.393 677.451,396.108 677.751,390.583C678.051,386.259 682.135,386.679 683.456,387.34C683.516,387.4 683.636,387.4 683.696,387.46C684.957,388.421 685.017,391.303 685.198,393.285C685.498,397.609 685.138,403.555 685.438,407.218C688.26,407.218 690.122,407.398 692.945,406.978C692.464,398.69 694.206,381.514 691.684,379.232C688.381,376.41 682.916,377.01 679.613,379.413C679.192,379.713 678.532,380.073 678.111,380.313Z" style="fill:black;fill-rule:nonzero;"/>
        </g>
        <g transform="matrix(0.844563,0,0,0.844563,-254.462,146.148)">
            <path d="M354.025,379.232C353.004,378.572 351.743,378.332 350.482,378.332C347.359,378.332 344.116,379.893 342.855,381.514C341.233,383.376 340.392,385.598 340.332,388.181C340.272,390.403 340.453,393.465 342.074,395.327C343.395,396.768 345.077,397.489 347.179,397.489C349.1,397.489 350.722,396.949 352.043,395.868C352.463,396.408 352.944,396.888 353.124,397.069C353.845,397.489 354.686,397.849 355.586,397.849C359.009,397.789 361.592,395.988 362.132,392.925C362.433,391.063 362.493,389.922 362.493,387.52L362.493,384.277C362.493,379.893 362.373,374.248 358.709,370.945C356.848,369.203 354.625,368.242 352.283,367.942C350.662,367.702 348.98,367.522 347.299,367.522C346.338,367.522 345.137,367.522 344.236,367.702C340.873,368.122 337.69,368.843 335.468,371.665C332.886,374.968 332.525,378.872 332.465,382.716L332.465,384.517C332.465,388.361 332.645,391.303 332.886,395.387C333.066,397.729 334.387,401.753 335.888,403.915C337.81,406.497 340.753,407.879 343.936,408.299C345.257,408.419 346.638,408.479 348.079,408.479C350.181,408.479 352.163,408.419 354.025,407.999C356.307,407.698 360.211,405.957 362.373,404.576L360.09,399.651C357.208,401.092 352.644,402.714 349.761,402.894L349.821,402.894C349.341,402.894 348.68,402.954 348.019,402.954C346.038,402.954 343.575,402.714 342.074,401.813C339.912,400.432 339.131,398.21 338.651,395.027C338.23,392.565 338.05,389.922 338.05,387.46C338.05,386.559 338.05,385.658 338.11,384.757C338.291,381.334 338.471,377.251 340.753,374.788C342.374,373.167 344.536,372.626 346.698,372.626C347.179,372.626 347.839,372.686 348.32,372.746C349.701,372.927 351.503,373.227 352.644,373.767L352.584,373.767C355.827,375.569 356.667,379.172 356.848,382.595L356.848,384.277C356.908,385.418 356.968,386.499 356.908,387.88C356.908,389.201 356.547,392.384 355.947,392.865C354.926,392.685 354.686,389.682 354.686,386.619C354.686,385.418 354.686,384.157 354.746,383.136C354.746,382.475 354.806,381.875 354.806,381.394C354.866,380.493 354.625,379.833 354.205,379.352L354.025,379.232ZM345.437,389.742C345.437,388.361 345.377,386.979 346.278,385.538C346.999,384.097 348.32,383.977 349.941,384.157C349.761,384.157 349.641,387.16 349.641,387.88C349.641,389.502 349.401,391.063 348.019,391.604C346.638,392.264 345.437,391.363 345.437,389.922L345.437,389.742Z" style="fill:black;fill-rule:nonzero;"/>
            <path d="M374.203,364.879C374.203,364.699 369.279,364.339 366.636,364.819L366.636,368.783C366.636,382.115 365.976,395.507 366.276,407.038C368.738,407.038 371.981,407.278 374.384,406.978C374.444,406.918 374.444,406.737 374.444,406.557C374.444,405.777 374.504,405.476 374.504,404.576C374.684,404.155 374.864,403.855 375.104,404.335C376.305,406.737 378.467,407.218 380.689,406.918C389.878,406.257 390.478,398.03 390.779,389.982C390.779,384.397 389.457,379.052 385.914,377.791C381.59,376.17 374.684,377.13 374.384,378.572C374.624,367.281 374.444,370.284 374.203,365.54L374.203,364.879ZM383.512,388.181C383.932,389.322 383.932,390.523 383.932,391.664C383.932,395.687 381.89,399.531 378.467,399.531C374.384,399.531 374.143,395.868 374.143,390.823C374.143,384.637 374.384,383.917 377.807,383.917C381.11,383.917 383.091,385.358 383.512,388.181Z" style="fill:black;fill-rule:nonzero;"/>
            <path d="M403.63,379.172C403.63,378.091 403.57,378.452 403.57,377.13C403.57,376.77 400.327,377.19 399.667,377.19C397.745,377.371 397.385,377.371 395.463,377.19C395.163,387.76 395.523,397.429 395.523,407.278C399.366,406.978 400.808,407.698 403.57,406.918L403.57,406.677C403.57,400.732 403.51,396.468 403.33,390.943C403.15,386.499 406.393,386.319 410.657,386.799C410.717,386.799 411.978,386.979 412.939,387.22C413.359,387.4 413.78,387.46 414.2,387.64L414.74,387.82C414.56,385.358 414.74,382.716 414.74,377.251C414.74,377.01 409.516,377.07 406.453,378.031C405.312,378.452 403.931,378.992 403.63,379.172Z" style="fill:black;fill-rule:nonzero;"/>
            <path d="M441.885,377.19C439.303,377.01 437.381,376.95 436,376.89C435.519,376.89 433.117,376.77 433.117,376.95C433.117,377.911 432.817,378.752 432.877,380.013C431.736,377.251 429.634,377.251 426.751,377.251C421.106,377.431 416.662,383.136 416.662,391.123C416.662,397.549 419.305,407.218 425.49,407.218C428.313,407.218 431.496,405.656 433.417,403.735C433.417,404.515 433.177,404.936 433.177,405.837C433.177,406.497 433.357,406.978 433.898,407.158C434.799,407.158 435.579,406.978 436.48,406.978C437.741,406.978 439.123,407.158 440.384,407.158L441.105,407.158C442.065,406.978 441.885,405.717 441.885,404.696C442.426,396.108 441.765,387.88 442.005,379.232L442.005,378.632C442.005,378.151 441.945,377.671 441.885,377.19ZM424.409,389.141C424.83,387.16 426.691,385.298 429.994,385.298C433.297,385.298 433.117,385.958 433.117,391.544C433.117,396.048 433.357,398.81 429.394,398.81C426.031,398.81 424.049,395.928 424.049,392.324C424.049,391.303 424.109,390.162 424.409,389.141Z" style="fill:black;fill-rule:nonzero;"/>
            <path d="M454.257,380.313C454.196,379.172 454.317,378.512 454.136,377.13C454.136,376.59 451.194,377.19 450.533,377.19C448.611,377.371 448.251,377.371 446.329,377.19C446.029,387.76 446.389,397.429 446.389,407.278C450.233,406.978 451.074,407.698 453.836,406.918L453.836,406.677C454.497,401.393 453.596,396.108 453.896,390.583C454.196,386.259 458.28,386.679 459.601,387.34C459.661,387.4 459.782,387.4 459.842,387.46C461.103,388.421 461.163,391.303 461.343,393.285C461.643,397.609 461.283,403.555 461.583,407.218C464.406,407.218 466.268,407.398 469.09,406.978C468.61,398.69 470.351,381.514 467.829,379.232C464.526,376.41 459.061,377.01 455.758,379.413C455.338,379.713 454.677,380.073 454.257,380.313Z" style="fill:black;fill-rule:nonzero;"/>
            <path d="M489.088,365.54C488.848,370.284 488.668,367.281 488.908,378.572C488.608,377.13 481.702,376.17 477.378,377.791C473.834,379.052 472.513,384.397 472.513,389.982C472.693,398.03 473.534,406.257 482.602,406.918C484.824,407.218 486.986,406.737 488.188,404.335C488.428,403.855 488.608,404.155 488.788,404.576C488.788,405.476 488.848,405.777 488.848,406.557C488.848,406.737 488.848,406.918 488.908,406.978C491.31,407.278 494.553,407.038 497.016,407.038C497.316,395.507 496.655,382.175 496.655,368.783L496.655,364.819C494.013,364.339 489.088,364.699 489.088,364.879L489.088,365.54ZM479.78,388.181C480.2,385.358 482.182,383.917 485.485,383.917C488.908,383.917 489.148,384.637 489.148,390.823C489.148,395.868 488.908,399.531 484.824,399.531C481.401,399.531 479.359,395.687 479.359,391.664C479.359,390.523 479.359,389.322 479.78,388.181Z" style="fill:black;fill-rule:nonzero;"/>
            <path d="M508.786,392.024C511.309,392.504 523.2,392.024 524.881,391.544C525.362,384.817 524.281,377.911 516.834,376.65C511.129,375.209 504.102,376.95 502,381.695C501.039,384.337 500.919,387.1 500.679,390.042C500.379,396.528 501.88,403.615 506.144,406.617C507.105,407.158 508.126,407.518 509.267,407.698C513.831,407.698 520.377,408.899 523.079,405.056C524.22,404.095 524.461,399.771 524.761,395.687C523.019,395.207 518.816,395.747 517.194,395.567C517.494,402.053 511.609,401.993 509.687,398.27C508.786,396.828 508.846,395.507 508.786,393.105L508.786,392.024ZM516.053,382.716C517.494,383.436 518.395,384.998 518.395,386.619C518.395,387.82 518.755,387.34 514.612,387.34C508.666,387.34 508.666,387.7 508.967,386.019C509.267,383.857 510.168,382.115 513.951,382.115C514.852,382.115 515.392,382.295 516.053,382.716Z" style="fill:black;fill-rule:nonzero;"/>
            <path d="M536.532,380.313C536.472,379.172 536.592,378.512 536.412,377.13C536.412,376.59 533.469,377.19 532.808,377.19C530.887,377.371 530.526,377.371 528.604,377.19C528.304,387.76 528.665,397.429 528.665,407.278C532.508,406.978 533.349,407.698 536.111,406.918L536.111,406.677C536.772,401.393 535.871,396.108 536.171,390.583C536.472,386.259 540.555,386.679 541.877,387.34C541.937,387.4 542.057,387.4 542.117,387.46C543.378,388.421 543.438,391.303 543.618,393.285C543.918,397.609 543.558,403.555 543.858,407.218C546.681,407.218 548.543,407.398 551.365,406.978C550.885,398.69 552.626,381.514 550.104,379.232C546.801,376.41 541.336,377.01 538.033,379.413C537.613,379.713 536.952,380.073 536.532,380.313Z" style="fill:black;fill-rule:nonzero;"/>
            <path d="M564.157,364.879C564.157,364.699 559.232,364.339 556.59,364.819L556.59,368.783C556.59,382.115 555.929,395.507 556.23,407.038C558.692,407.038 561.935,407.278 564.337,406.978C564.397,406.918 564.397,406.737 564.397,406.557C564.397,405.777 564.457,405.476 564.457,404.576C564.637,404.155 564.818,403.855 565.058,404.335C566.259,406.737 568.421,407.218 570.643,406.918C579.831,406.257 580.432,398.03 580.732,389.982C580.732,384.397 579.411,379.052 575.868,377.791C571.544,376.17 564.637,377.13 564.337,378.572C564.577,367.281 564.397,370.284 564.157,365.54L564.157,364.879ZM573.466,388.181C573.886,389.322 573.886,390.523 573.886,391.664C573.886,395.687 571.844,399.531 568.421,399.531C564.337,399.531 564.097,395.868 564.097,390.823C564.097,384.637 564.337,383.917 567.76,383.917C571.063,383.917 573.045,385.358 573.466,388.181Z" style="fill:black;fill-rule:nonzero;"/>
            <path d="M591.722,377.251C589.14,376.95 585.717,377.371 582.834,377.07C585.296,386.139 588.119,395.988 589.8,405.656C590.581,411.001 585.837,409.74 581.933,409.74C581.513,411.962 581.513,415.325 582.294,417.728C602.712,418.929 602.832,402.113 605.955,390.403C606.916,386.259 607.877,381.935 609.138,377.13C605.775,376.89 603.073,377.19 600.37,377.13C598.448,381.935 598.148,394.066 596.406,398.87C594.665,394.066 592.863,383.016 591.722,377.251Z" style="fill:black;fill-rule:nonzero;"/>
            <path d="M619.407,392.024C621.93,392.504 633.821,392.024 635.502,391.544C635.983,384.817 634.902,377.911 627.455,376.65C621.75,375.209 614.723,376.95 612.621,381.695C611.66,384.337 611.54,387.1 611.3,390.042C611,396.528 612.501,403.615 616.765,406.617C617.726,407.158 618.747,407.518 619.888,407.698C624.452,407.698 630.998,408.899 633.701,405.056C634.842,404.095 635.082,399.771 635.382,395.687C633.641,395.207 629.437,395.747 627.815,395.567C628.115,402.053 622.23,401.993 620.308,398.27C619.407,396.828 619.468,395.507 619.407,393.105L619.407,392.024ZM626.674,382.716C628.115,383.436 629.016,384.998 629.016,386.619C629.016,387.82 629.377,387.34 625.233,387.34C619.287,387.34 619.287,387.7 619.588,386.019C619.888,383.857 620.789,382.115 624.572,382.115C625.473,382.115 626.014,382.295 626.674,382.716Z" style="fill:black;fill-rule:nonzero;"/>
            <path d="M648.294,379.172C648.294,378.091 648.234,378.452 648.234,377.13C648.234,376.77 644.991,377.19 644.33,377.19C642.409,377.371 642.048,377.371 640.126,377.19C639.826,387.76 640.186,397.429 640.186,407.278C644.03,406.978 645.471,407.698 648.234,406.918L648.234,406.677C648.234,400.732 648.174,396.468 647.994,390.943C647.813,386.499 651.056,386.319 655.32,386.799C655.38,386.799 656.642,386.979 657.602,387.22C658.023,387.4 658.443,387.46 658.864,387.64L659.404,387.82C659.224,385.358 659.404,382.716 659.404,377.251C659.404,377.01 654.179,377.07 651.116,378.031C649.975,378.452 648.594,378.992 648.294,379.172Z" style="fill:black;fill-rule:nonzero;"/>
            <path d="M688.29,386.319C688.29,381.995 686.849,378.271 683.066,376.65C678.862,375.689 672.736,375.689 669.613,376.53C661.866,378.572 660.725,389.922 669.733,392.985C674.178,394.907 679.643,394.006 679.162,397.969C679.342,402.594 671.835,401.272 671.655,397.609C669.193,397.609 665.41,397.369 662.767,397.669L662.767,397.969C662.767,404.395 668.232,408.359 676.279,408.059C680.904,408.119 685.168,406.557 687.029,402.654C688.531,398.27 687.99,395.567 686.249,392.685C684.387,390.282 680.123,389.442 675.619,388.781C671.835,387.46 671.895,383.256 675.559,382.595C677.601,382.415 680.183,384.277 679.703,386.319C682.405,386.859 685.708,386.739 688.29,386.319Z" style="fill:black;fill-rule:nonzero;"/>
        </g>
        <g transform="matrix(0.626825,0,0,0.626825,-144.742,169.536)">
            <path d="M241.002,364.879C241.002,364.699 236.077,364.339 233.435,364.819L233.435,368.783C233.435,382.115 232.774,395.507 233.074,407.038C235.537,407.038 238.78,407.278 241.182,406.978C241.242,406.918 241.242,406.737 241.242,406.557C241.242,405.777 241.302,405.476 241.302,404.576C241.482,404.155 241.662,403.855 241.902,404.335C243.104,406.737 245.266,407.218 247.488,406.918C256.676,406.257 257.276,398.03 257.577,389.982C257.577,384.397 256.256,379.052 252.712,377.791C248.388,376.17 241.482,377.13 241.182,378.572C241.422,367.281 241.242,370.284 241.002,365.54L241.002,364.879ZM250.31,388.181C250.731,389.322 250.731,390.523 250.731,391.664C250.731,395.687 248.689,399.531 245.266,399.531C241.182,399.531 240.942,395.868 240.942,390.823C240.942,384.637 241.182,383.917 244.605,383.917C247.908,383.917 249.89,385.358 250.31,388.181Z" style="fill:black;fill-rule:nonzero;"/>
            <path d="M270.429,379.172C270.429,378.091 270.368,378.452 270.368,377.13C270.368,376.77 267.125,377.19 266.465,377.19C264.543,377.371 264.183,377.371 262.261,377.19C261.961,387.76 262.321,397.429 262.321,407.278C266.165,406.978 267.606,407.698 270.368,406.918L270.368,406.677C270.368,400.732 270.308,396.468 270.128,390.943C269.948,386.499 273.191,386.319 277.455,386.799C277.515,386.799 278.776,386.979 279.737,387.22C280.157,387.4 280.578,387.46 280.998,387.64L281.539,387.82C281.359,385.358 281.539,382.716 281.539,377.251C281.539,377.01 276.314,377.07 273.251,378.031C272.11,378.452 270.729,378.992 270.429,379.172Z" style="fill:black;fill-rule:nonzero;"/>
            <path d="M308.683,377.19C306.101,377.01 304.179,376.95 302.798,376.89C302.318,376.89 299.915,376.77 299.915,376.95C299.915,377.911 299.615,378.752 299.675,380.013C298.534,377.251 296.432,377.251 293.55,377.251C287.904,377.431 283.46,383.136 283.46,391.123C283.46,397.549 286.103,407.218 292.288,407.218C295.111,407.218 298.294,405.656 300.216,403.735C300.216,404.515 299.976,404.936 299.976,405.837C299.976,406.497 300.156,406.978 300.696,407.158C301.597,407.158 302.378,406.978 303.279,406.978C304.54,406.978 305.921,407.158 307.182,407.158L307.903,407.158C308.864,406.978 308.683,405.717 308.683,404.696C309.224,396.108 308.563,387.88 308.804,379.232L308.804,378.632C308.804,378.151 308.744,377.671 308.683,377.19ZM291.208,389.141C291.628,387.16 293.49,385.298 296.793,385.298C300.096,385.298 299.915,385.958 299.915,391.544C299.915,396.048 300.156,398.81 296.192,398.81C292.829,398.81 290.847,395.928 290.847,392.324C290.847,391.303 290.907,390.162 291.208,389.141Z" style="fill:black;fill-rule:nonzero;"/>
            <path d="M321.055,380.313C320.995,379.172 321.115,378.512 320.935,377.13C320.935,376.59 317.992,377.19 317.331,377.19C315.41,377.371 315.049,377.371 313.128,377.19C312.827,387.76 313.188,397.429 313.188,407.278C317.031,406.978 317.872,407.698 320.634,406.918L320.634,406.677C321.295,401.393 320.394,396.108 320.694,390.583C320.995,386.259 325.078,386.679 326.4,387.34C326.46,387.4 326.58,387.4 326.64,387.46C327.901,388.421 327.961,391.303 328.141,393.285C328.442,397.609 328.081,403.555 328.381,407.218C331.204,407.218 333.066,407.398 335.888,406.978C335.408,398.69 337.15,381.514 334.627,379.232C331.324,376.41 325.859,377.01 322.556,379.413C322.136,379.713 321.475,380.073 321.055,380.313Z" style="fill:black;fill-rule:nonzero;"/>
            <path d="M355.887,365.54C355.646,370.284 355.466,367.281 355.706,378.572C355.406,377.13 348.5,376.17 344.176,377.791C340.633,379.052 339.311,384.397 339.311,389.982C339.492,398.03 340.332,406.257 349.401,406.918C351.623,407.218 353.785,406.737 354.986,404.335C355.226,403.855 355.406,404.155 355.586,404.576C355.586,405.476 355.646,405.777 355.646,406.557C355.646,406.737 355.646,406.918 355.706,406.978C358.109,407.278 361.352,407.038 363.814,407.038C364.114,395.507 363.454,382.175 363.454,368.783L363.454,364.819C360.811,364.339 355.887,364.699 355.887,364.879L355.887,365.54ZM346.578,388.181C346.999,385.358 348.98,383.917 352.283,383.917C355.706,383.917 355.947,384.637 355.947,390.823C355.947,395.868 355.706,399.531 351.623,399.531C348.2,399.531 346.158,395.687 346.158,391.664C346.158,390.523 346.158,389.322 346.578,388.181Z" style="fill:black;fill-rule:nonzero;"/>
            <path d="M375.585,392.024C378.107,392.504 389.998,392.024 391.679,391.544C392.16,384.817 391.079,377.911 383.632,376.65C377.927,375.209 370.9,376.95 368.798,381.695C367.838,384.337 367.717,387.1 367.477,390.042C367.177,396.528 368.678,403.615 372.942,406.617C373.903,407.158 374.924,407.518 376.065,407.698C380.629,407.698 387.175,408.899 389.878,405.056C391.019,404.095 391.259,399.771 391.559,395.687C389.818,395.207 385.614,395.747 383.992,395.567C384.293,402.053 378.407,401.993 376.485,398.27C375.585,396.828 375.645,395.507 375.585,393.105L375.585,392.024ZM382.851,382.716C384.293,383.436 385.193,384.998 385.193,386.619C385.193,387.82 385.554,387.34 381.41,387.34C375.465,387.34 375.465,387.7 375.765,386.019C376.065,383.857 376.966,382.115 380.749,382.115C381.65,382.115 382.191,382.295 382.851,382.716Z" style="fill:black;fill-rule:nonzero;"/>
            <path d="M403.33,380.313C403.27,379.172 403.39,378.512 403.21,377.13C403.21,376.59 400.267,377.19 399.607,377.19C397.685,377.371 397.325,377.371 395.403,377.19C395.102,387.76 395.463,397.429 395.463,407.278C399.306,406.978 400.147,407.698 402.91,406.918L402.91,406.677C403.57,401.393 402.669,396.108 402.97,390.583C403.27,386.259 407.354,386.679 408.675,387.34C408.735,387.4 408.855,387.4 408.915,387.46C410.176,388.421 410.236,391.303 410.416,393.285C410.717,397.609 410.356,403.555 410.657,407.218C413.479,407.218 415.341,407.398 418.164,406.978C417.683,398.69 419.425,381.514 416.902,379.232C413.599,376.41 408.134,377.01 404.831,379.413C404.411,379.713 403.75,380.073 403.33,380.313Z" style="fill:black;fill-rule:nonzero;"/>
            <path d="M429.874,407.098L429.994,407.098L429.994,407.038L429.994,406.978C429.994,405.837 430.355,400.071 430.355,399.951C429.274,399.471 424.469,399.411 422.848,400.071C422.848,401.212 422.608,405.236 422.908,407.038L423.088,407.038L429.874,407.098Z" style="fill:black;fill-rule:nonzero;"/>
            <path d="M442.246,364.879C442.246,364.699 437.321,364.339 434.679,364.819L434.679,368.783C434.679,382.115 434.018,395.507 434.318,407.038C436.781,407.038 440.024,407.278 442.426,406.978C442.486,406.918 442.486,406.737 442.486,406.557C442.486,405.777 442.546,405.476 442.546,404.576C442.726,404.155 442.906,403.855 443.146,404.335C444.347,406.737 446.509,407.218 448.731,406.918C457.92,406.257 458.52,398.03 458.821,389.982C458.821,384.397 457.5,379.052 453.956,377.791C449.632,376.17 442.726,377.13 442.426,378.572C442.666,367.281 442.486,370.284 442.246,365.54L442.246,364.879ZM451.554,388.181C451.974,389.322 451.974,390.523 451.974,391.664C451.974,395.687 449.933,399.531 446.509,399.531C442.426,399.531 442.186,395.868 442.186,390.823C442.186,384.637 442.426,383.917 445.849,383.917C449.152,383.917 451.134,385.358 451.554,388.181Z" style="fill:black;fill-rule:nonzero;"/>
            <path d="M469.811,377.251C467.228,376.95 463.805,377.371 460.923,377.07C463.385,386.139 466.207,395.988 467.889,405.656C468.67,411.001 463.925,409.74 460.022,409.74C459.601,411.962 459.601,415.325 460.382,417.728C480.801,418.929 480.921,402.113 484.044,390.403C485.005,386.259 485.966,381.935 487.227,377.13C483.864,376.89 481.161,377.19 478.459,377.13C476.537,381.935 476.237,394.066 474.495,398.87C472.753,394.066 470.952,383.016 469.811,377.251Z" style="fill:black;fill-rule:nonzero;"/>
            <path d="M497.496,392.024C500.018,392.504 511.909,392.024 513.591,391.544C514.071,384.817 512.99,377.911 505.543,376.65C499.838,375.209 492.812,376.95 490.71,381.695C489.749,384.337 489.629,387.1 489.389,390.042C489.088,396.528 490.59,403.615 494.854,406.617C495.815,407.158 496.835,407.518 497.977,407.698C502.541,407.698 509.087,408.899 511.789,405.056C512.93,404.095 513.17,399.771 513.471,395.687C511.729,395.207 507.525,395.747 505.904,395.567C506.204,402.053 500.319,401.993 498.397,398.27C497.496,396.828 497.556,395.507 497.496,393.105L497.496,392.024ZM504.763,382.716C506.204,383.436 507.105,384.998 507.105,386.619C507.105,387.82 507.465,387.34 503.321,387.34C497.376,387.34 497.376,387.7 497.676,386.019C497.977,383.857 498.877,382.115 502.661,382.115C503.562,382.115 504.102,382.295 504.763,382.716Z" style="fill:black;fill-rule:nonzero;"/>
            <path d="M526.382,379.172C526.382,378.091 526.322,378.452 526.322,377.13C526.322,376.77 523.079,377.19 522.419,377.19C520.497,377.371 520.137,377.371 518.215,377.19C517.915,387.76 518.275,397.429 518.275,407.278C522.119,406.978 523.56,407.698 526.322,406.918L526.322,406.677C526.322,400.732 526.262,396.468 526.082,390.943C525.902,386.499 529.145,386.319 533.409,386.799C533.469,386.799 534.73,386.979 535.691,387.22C536.111,387.4 536.532,387.46 536.952,387.64L537.493,387.82C537.312,385.358 537.493,382.716 537.493,377.251C537.493,377.01 532.268,377.07 529.205,378.031C528.064,378.452 526.683,378.992 526.382,379.172Z" style="fill:black;fill-rule:nonzero;"/>
            <path d="M566.379,386.319C566.379,381.995 564.938,378.271 561.154,376.65C556.95,375.689 550.825,375.689 547.702,376.53C539.955,378.572 538.814,389.922 547.822,392.985C552.266,394.907 557.731,394.006 557.251,397.969C557.431,402.594 549.924,401.272 549.744,397.609C547.282,397.609 543.498,397.369 540.856,397.669L540.856,397.969C540.856,404.395 546.321,408.359 554.368,408.059C558.992,408.119 563.256,406.557 565.118,402.654C566.619,398.27 566.079,395.567 564.337,392.685C562.475,390.282 558.212,389.442 553.707,388.781C549.924,387.46 549.984,383.256 553.647,382.595C555.689,382.415 558.272,384.277 557.791,386.319C560.494,386.859 563.797,386.739 566.379,386.319Z" style="fill:black;fill-rule:nonzero;"/>
            <path d="M591.182,379.232C590.161,378.572 588.9,378.332 587.638,378.332C584.516,378.332 581.273,379.893 580.011,381.514C578.39,383.376 577.549,385.598 577.489,388.181C577.429,390.403 577.609,393.465 579.231,395.327C580.552,396.768 582.234,397.489 584.335,397.489C586.257,397.489 587.879,396.949 589.2,395.868C589.62,396.408 590.101,396.888 590.281,397.069C591.002,397.489 591.842,397.849 592.743,397.849C596.166,397.789 598.749,395.988 599.289,392.925C599.589,391.063 599.649,389.922 599.649,387.52L599.649,384.277C599.649,379.893 599.529,374.248 595.866,370.945C594.004,369.203 591.782,368.242 589.44,367.942C587.819,367.702 586.137,367.522 584.456,367.522C583.495,367.522 582.294,367.522 581.393,367.702C578.03,368.122 574.847,368.843 572.625,371.665C570.042,374.968 569.682,378.872 569.622,382.716L569.622,384.517C569.622,388.361 569.802,391.303 570.042,395.387C570.223,397.729 571.544,401.753 573.045,403.915C574.967,406.497 577.91,407.879 581.092,408.299C582.414,408.419 583.795,408.479 585.236,408.479C587.338,408.479 589.32,408.419 591.182,407.999C593.464,407.698 597.367,405.957 599.529,404.576L597.247,399.651C594.365,401.092 589.8,402.714 586.918,402.894L586.978,402.894C586.497,402.894 585.837,402.954 585.176,402.954C583.194,402.954 580.732,402.714 579.231,401.813C577.069,400.432 576.288,398.21 575.808,395.027C575.387,392.565 575.207,389.922 575.207,387.46C575.207,386.559 575.207,385.658 575.267,384.757C575.447,381.334 575.627,377.251 577.91,374.788C579.531,373.167 581.693,372.626 583.855,372.626C584.335,372.626 584.996,372.686 585.476,372.746C586.858,372.927 588.659,373.227 589.8,373.767L589.74,373.767C592.983,375.569 593.824,379.172 594.004,382.595L594.004,384.277C594.064,385.418 594.124,386.499 594.064,387.88C594.064,389.201 593.704,392.384 593.103,392.865C592.083,392.685 591.842,389.682 591.842,386.619C591.842,385.418 591.842,384.157 591.902,383.136C591.902,382.475 591.962,381.875 591.962,381.394C592.022,380.493 591.782,379.833 591.362,379.352L591.182,379.232ZM582.594,389.742C582.594,388.361 582.534,386.979 583.435,385.538C584.155,384.097 585.476,383.977 587.098,384.157C586.918,384.157 586.798,387.16 586.798,387.88C586.798,389.502 586.557,391.063 585.176,391.604C583.795,392.264 582.594,391.363 582.594,389.922L582.594,389.742Z" style="fill:black;fill-rule:nonzero;"/>
            <path d="M610.76,376.89C608.177,376.95 606.316,376.83 605.295,376.77C604.874,376.77 603.913,376.65 603.613,376.71L603.613,376.77C602.652,386.199 604.033,396.949 603.253,407.098C604.334,406.798 610.94,407.638 611.72,406.737C611.18,397.069 611.72,386.739 611.781,377.07L611.781,376.89L610.76,376.89ZM603.373,363.798C603.313,367.462 603.613,369.744 603.613,372.086C606.736,371.906 611,372.746 611.72,371.665C611.72,369.263 611.54,364.999 611.54,363.978L603.373,363.798Z" style="fill:black;fill-rule:nonzero;"/>
            <path d="M623.491,380.313C623.431,379.172 623.551,378.512 623.371,377.13C623.371,376.59 620.428,377.19 619.768,377.19C617.846,377.371 617.486,377.371 615.564,377.19C615.264,387.76 615.624,397.429 615.624,407.278C619.468,406.978 620.308,407.698 623.071,406.918L623.071,406.677C623.731,401.393 622.831,396.108 623.131,390.583C623.431,386.259 627.515,386.679 628.836,387.34C628.896,387.4 629.016,387.4 629.076,387.46C630.337,388.421 630.398,391.303 630.578,393.285C630.878,397.609 630.518,403.555 630.818,407.218C633.641,407.218 635.502,407.398 638.325,406.978C637.844,398.69 639.586,381.514 637.064,379.232C633.761,376.41 628.296,377.01 624.993,379.413C624.572,379.713 623.912,380.073 623.491,380.313Z" style="fill:black;fill-rule:nonzero;"/>
            <path d="M650.516,376.89C647.934,376.95 646.072,376.83 645.051,376.77C644.631,376.77 643.67,376.65 643.369,376.71L643.369,376.77C642.409,386.199 643.79,396.949 643.009,407.098C644.09,406.798 650.696,407.638 651.477,406.737C650.936,397.069 651.477,386.739 651.537,377.07L651.537,376.89L650.516,376.89ZM643.129,363.798C643.069,367.462 643.369,369.744 643.369,372.086C646.492,371.906 650.756,372.746 651.477,371.665C651.477,369.263 651.297,364.999 651.297,363.978L643.129,363.798Z" style="fill:black;fill-rule:nonzero;"/>
            <path d="M663.248,380.313C663.188,379.172 663.308,378.512 663.127,377.13C663.127,376.59 660.185,377.19 659.524,377.19C657.602,377.371 657.242,377.371 655.32,377.19C655.02,387.76 655.38,397.429 655.38,407.278C659.224,406.978 660.065,407.698 662.827,406.918L662.827,406.677C663.488,401.393 662.587,396.108 662.887,390.583C663.188,386.259 667.271,386.679 668.592,387.34C668.653,387.4 668.773,387.4 668.833,387.46C670.094,388.421 670.154,391.303 670.334,393.285C670.634,397.609 670.274,403.555 670.574,407.218C673.397,407.218 675.259,407.398 678.081,406.978C677.601,398.69 679.342,381.514 676.82,379.232C673.517,376.41 668.052,377.01 664.749,379.413C664.329,379.713 663.668,380.073 663.248,380.313Z" style="fill:black;fill-rule:nonzero;"/>
            <path d="M689.792,407.098L689.912,407.098L689.912,407.038L689.912,406.978C689.912,405.837 690.272,400.071 690.272,399.951C689.191,399.471 684.387,399.411 682.765,400.071C682.765,401.212 682.525,405.236 682.825,407.038L683.006,407.038L689.792,407.098Z" style="fill:black;fill-rule:nonzero;"/>
            <path d="M718.378,395.567C716.696,395.087 712.372,395.627 710.751,395.447C710.511,396.468 710.09,398.09 709.31,398.63C707.448,399.891 702.103,399.651 702.403,395.928C702.584,393.105 702.463,390.583 702.764,388.12C702.884,387.46 703.064,387.1 703.304,386.919C703.845,386.259 704.505,385.838 705.346,385.598C708.469,384.817 710.451,386.619 710.871,389.442C712.913,389.742 716.456,390.222 718.498,389.742C718.318,384.457 718.438,380.554 716.156,378.932C714.474,377.311 712.072,376.59 709.49,376.41C707.808,376.23 706.427,376.53 704.806,376.35C701.022,376.35 696.938,377.371 695.797,379.833C695.557,380.614 694.896,382.475 694.836,383.376C694.596,384.817 694.476,386.259 694.476,387.7C695.137,392.925 693.275,401.152 697.599,404.996C698.98,406.377 700.722,407.278 702.764,407.638C707.388,407.638 713.934,408.899 716.696,404.996C717.777,403.915 718.078,399.711 718.378,395.567Z" style="fill:black;fill-rule:nonzero;"/>
            <path d="M723.663,379.713C723.423,380.614 722.762,382.355 722.702,383.256C722.462,384.757 722.402,386.139 722.402,387.58C722.882,392.805 721.14,401.032 725.464,404.876C726.846,406.257 728.587,407.158 730.629,407.518C735.253,407.518 741.799,408.779 744.562,404.876C746.123,403.314 746.303,395.447 746.484,390.763C746.303,385.478 746.303,380.373 744.021,378.872C742.34,377.251 739.938,376.47 737.355,376.29C735.674,376.109 734.293,376.41 732.671,376.23C728.888,376.23 724.804,377.251 723.663,379.713ZM731.17,386.799C731.71,386.139 732.371,385.718 733.212,385.478C736.334,384.757 738.316,386.139 738.737,388.961C739.217,391.303 738.857,393.946 738.556,396.528C738.316,397.549 737.836,398.21 737.175,398.51C735.073,399.651 730.089,399.471 730.269,395.807C730.449,392.985 730.329,390.583 730.629,388C730.749,387.34 730.929,386.979 731.17,386.799Z" style="fill:black;fill-rule:nonzero;"/>
            <path d="M758.074,380.313C758.014,379.172 758.134,378.512 757.954,377.13C757.954,376.59 755.011,377.19 754.351,377.19C752.429,377.371 752.069,377.371 750.147,377.19C749.847,387.76 750.207,397.429 750.207,407.278C754.051,406.978 754.891,407.698 757.654,406.918L757.654,406.677C758.314,401.393 757.414,396.108 757.714,390.583C758.014,386.259 762.098,386.679 763.419,387.34C763.479,387.4 763.599,387.4 763.659,387.46C764.92,388.421 764.981,391.303 765.161,393.285C765.461,397.609 765.101,403.555 765.401,407.218C768.224,407.218 770.085,407.398 772.908,406.978C772.608,402.113 773.208,394.006 773.028,387.76C774.529,386.619 776.511,386.859 777.532,387.34C777.592,387.4 777.712,387.4 777.772,387.46C779.033,388.421 779.093,391.303 779.274,393.285C779.574,397.609 779.214,403.555 779.514,407.218C782.336,407.218 784.198,407.398 787.021,406.978C786.54,398.69 788.282,381.514 785.76,379.232C782.457,376.41 776.992,377.01 773.689,379.413C773.268,379.713 772.668,380.013 772.247,380.253C772.067,379.773 771.827,379.413 771.647,379.232C768.344,376.41 762.879,377.01 759.576,379.413C759.155,379.713 758.495,380.073 758.074,380.313Z" style="fill:black;fill-rule:nonzero;"/>
        </g>
    </g>
</svg>
