<?xml version="1.0" standalone="no"?><!DOCTYPE svg PUBLIC "-//W3C//DTD SVG 1.1//EN" "http://www.w3.org/Graphics/SVG/1.1/DTD/svg11.dtd"><svg width="100%" height="100%" viewBox="0 0 732 405" version="1.1" xmlns="http://www.w3.org/2000/svg" xmlns:xlink="http://www.w3.org/1999/xlink" xml:space="preserve" style="fill-rule:evenodd;clip-rule:evenodd;stroke-linejoin:round;stroke-miterlimit:1.41421;"><path d="M18.915,58.635c0.809,0.183 15.624,15.337 16.438,14.432l0.181,-0.201c1.81,-2.01 10.034,-8.982 11.792,-11.584c2.123,0.456 12.132,10.556 13.445,10.829c4.972,-4.441 8.16,-8.849 13.55,-14.187c-2.778,-3.41 -9.6,-8.823 -12.666,-12.129c0.564,-1.493 8.379,-9.742 11.003,-12.657c-2.098,-2.434 -14.523,-11.798 -15.25,-14.454c-0.741,0.606 -1.12,0.811 -1.952,1.518c-1.284,1.21 -3.037,2.725 -4.864,4.538c-2.64,2.717 -4.558,4.631 -5.915,6.138c-0.934,-0.477 -14.005,-10.423 -14.578,-11.302c-0.724,0.804 -8.656,11.132 -11.602,13.756c-0.091,0.1 -0.091,0.1 -0.074,0.298c0.642,1.669 9.54,10.405 11.047,11.762l0.215,0.194c0.017,0.197 -0.599,1.098 -1.594,2.204c-3.929,5.015 -5.842,5.841 -9.013,10.446c-0.271,0.302 -0.073,0.298 -0.163,0.399Z" style="fill:#fff;fill-rule:nonzero;"/><path d="M22.866,60.281c0.81,0.183 15.625,15.337 16.439,14.432l0.181,-0.201c1.809,-2.01 10.033,-8.981 11.791,-11.584c2.124,0.456 12.132,10.556 13.446,10.829c4.972,-4.441 8.16,-8.849 13.549,-14.187c-2.777,-3.41 -9.599,-8.823 -12.666,-12.128c0.565,-1.494 8.38,-9.743 11.003,-12.658c-2.097,-2.434 -14.522,-11.798 -15.25,-14.454c-0.741,0.607 -1.12,0.811 -1.951,1.518c-1.284,1.21 -3.037,2.725 -4.864,4.538c-2.641,2.717 -4.558,4.631 -5.915,6.139c-0.935,-0.478 -14.006,-10.424 -14.579,-11.303c-0.723,0.804 -8.655,11.132 -11.602,13.756c-0.09,0.101 -0.09,0.101 -0.073,0.298c0.642,1.669 9.539,10.405 11.047,11.762l0.215,0.194c0.017,0.197 -0.599,1.099 -1.594,2.204c-3.929,5.015 -5.842,5.841 -9.013,10.446c-0.271,0.302 -0.073,0.298 -0.164,0.399Z" style="fill:#cf3720;fill-rule:nonzero;"/><path d="M18.915,58.635c0.809,0.183 15.624,15.337 16.438,14.432l0.181,-0.201c1.81,-2.01 10.034,-8.982 11.792,-11.584c2.123,0.456 12.132,10.556 13.445,10.829c4.972,-4.441 8.16,-8.849 13.55,-14.187c-2.778,-3.41 -9.6,-8.823 -12.666,-12.129c0.564,-1.493 8.379,-9.742 11.003,-12.657c-2.098,-2.434 -14.523,-11.798 -15.25,-14.454c-0.741,0.606 -1.12,0.811 -1.952,1.518c-1.284,1.21 -3.037,2.725 -4.864,4.538c-2.64,2.717 -4.558,4.631 -5.915,6.138c-0.934,-0.477 -14.005,-10.423 -14.578,-11.302c-0.724,0.804 -8.656,11.132 -11.602,13.756c-0.091,0.1 -0.091,0.1 -0.074,0.298c0.642,1.669 9.54,10.405 11.047,11.762l0.215,0.194c0.017,0.197 -0.599,1.098 -1.594,2.204c-3.929,5.015 -5.842,5.841 -9.013,10.446c-0.271,0.302 -0.073,0.298 -0.163,0.399Z" style="fill:none;stroke-width:4.5px;stroke:#000;"/><path d="M22.922,257.804c0.797,0.232 14.655,16.266 15.523,15.413l0.193,-0.189c1.929,-1.896 10.565,-8.35 12.479,-10.84c2.092,0.585 11.462,11.281 12.757,11.633c5.234,-4.127 8.687,-8.331 14.393,-13.329c-2.563,-3.574 -9.04,-9.395 -11.898,-12.882c0.655,-1.456 8.961,-9.211 11.759,-11.959c-1.944,-2.558 -13.772,-12.666 -14.335,-15.362c-0.777,0.56 -1.168,0.741 -2.041,1.396c-1.356,1.128 -3.199,2.533 -5.133,4.23c-2.803,2.551 -4.834,4.343 -6.281,5.765c-0.903,-0.534 -13.34,-11.263 -13.858,-12.176c-0.771,0.759 -9.321,10.58 -12.423,13.019c-0.097,0.095 -0.097,0.095 -0.092,0.293c0.538,1.705 8.883,10.971 10.305,12.417l0.203,0.207c0.005,0.198 -0.666,1.06 -1.727,2.102c-4.229,4.765 -6.189,5.472 -9.636,9.874c-0.29,0.285 -0.092,0.293 -0.188,0.388Z" style="fill:#fff;fill-rule:nonzero;"/><path d="M19.146,255.963c0.797,0.232 14.655,16.266 15.523,15.413l0.193,-0.189c1.929,-1.896 10.565,-8.35 12.479,-10.84c2.092,0.585 11.462,11.28 12.757,11.633c5.234,-4.127 8.687,-8.332 14.393,-13.329c-2.563,-3.574 -9.04,-9.395 -11.898,-12.882c0.655,-1.456 8.961,-9.211 11.759,-11.959c-1.944,-2.558 -13.772,-12.667 -14.335,-15.363c-0.777,0.561 -1.168,0.742 -2.041,1.396c-1.356,1.129 -3.199,2.534 -5.133,4.231c-2.803,2.551 -4.834,4.343 -6.28,5.764c-0.904,-0.533 -13.341,-11.262 -13.859,-12.175c-0.771,0.758 -9.321,10.58 -12.423,13.019c-0.097,0.095 -0.097,0.095 -0.092,0.293c0.538,1.705 8.883,10.971 10.305,12.417l0.203,0.207c0.005,0.198 -0.666,1.06 -1.727,2.102c-4.229,4.765 -6.189,5.472 -9.636,9.874c-0.289,0.284 -0.091,0.293 -0.188,0.388Z" style="fill:#cf3720;fill-rule:nonzero;"/><path d="M22.922,257.804c0.797,0.232 14.655,16.266 15.523,15.413l0.193,-0.189c1.929,-1.896 10.565,-8.35 12.479,-10.84c2.092,0.585 11.462,11.281 12.757,11.633c5.234,-4.127 8.687,-8.331 14.393,-13.329c-2.563,-3.574 -9.04,-9.395 -11.898,-12.882c0.655,-1.456 8.961,-9.211 11.759,-11.959c-1.944,-2.558 -13.772,-12.666 -14.335,-15.362c-0.777,0.56 -1.168,0.741 -2.041,1.396c-1.356,1.128 -3.199,2.533 -5.133,4.23c-2.803,2.551 -4.834,4.343 -6.281,5.765c-0.903,-0.534 -13.34,-11.263 -13.858,-12.176c-0.771,0.759 -9.321,10.58 -12.423,13.019c-0.097,0.095 -0.097,0.095 -0.092,0.293c0.538,1.705 8.883,10.971 10.305,12.417l0.203,0.207c0.005,0.198 -0.666,1.06 -1.727,2.102c-4.229,4.765 -6.189,5.472 -9.636,9.874c-0.29,0.285 -0.092,0.293 -0.188,0.388Z" style="fill:none;stroke-width:4.5px;stroke:#000;"/><path d="M22.36,141.017c0.663,-0.679 1.382,-1.749 1.996,-2.685c0.294,-0.532 0.72,-1.071 1.092,-1.541c2.277,2.237 18.873,13.387 20.471,15.525l0.053,-0.068c8.912,-11.754 20.033,-24.385 28.843,-36.33c3.807,1.261 11.093,7.238 12.608,9.638c-15.252,18.656 -21.224,25.412 -36.241,46.33l-0.957,1.211c-25.32,-19.467 -28.342,-22.839 -30.681,-24.36c-2.178,-1.722 -2.677,-1.57 2.816,-7.72Z" style="fill:#fff;fill-rule:nonzero;"/><path d="M20.032,142.429c0.696,-0.644 1.47,-1.677 2.13,-2.58c0.321,-0.517 0.774,-1.032 1.169,-1.484c2.16,2.351 18.166,14.334 19.653,16.55l0.056,-0.065c9.5,-11.285 21.252,-23.332 30.659,-34.812c3.738,1.454 10.709,7.795 12.101,10.269c-16.184,17.854 -22.493,24.296 -38.558,44.421l-1.018,1.161c-24.293,-20.733 -27.14,-24.256 -29.398,-25.894c-2.088,-1.831 -2.594,-1.704 3.206,-7.566Z" style="fill:#258038;fill-rule:nonzero;"/><path d="M22.36,141.017c0.663,-0.679 1.382,-1.749 1.996,-2.685c0.294,-0.532 0.72,-1.071 1.092,-1.541c2.277,2.237 18.873,13.387 20.471,15.525l0.053,-0.068c8.912,-11.754 20.033,-24.385 28.843,-36.33c3.807,1.261 11.093,7.238 12.608,9.638c-15.252,18.656 -21.224,25.412 -36.241,46.33l-0.957,1.211c-25.32,-19.467 -28.342,-22.839 -30.681,-24.36c-2.178,-1.722 -2.677,-1.57 2.816,-7.72Z" style="fill:none;stroke-width:4.5px;stroke:#000;"/><path d="M25.457,375.424c0.826,0.086 17.318,13.395 18.021,12.401l0.156,-0.221c1.561,-2.209 8.909,-10.098 10.348,-12.89c2.163,0.204 13.289,9.058 14.625,9.175c4.416,-4.994 7.064,-9.747 11.789,-15.681c-3.159,-3.06 -10.57,-7.634 -14.003,-10.556c0.385,-1.549 7.176,-10.66 9.44,-13.863c-2.369,-2.17 -15.809,-10.01 -16.843,-12.562c-0.665,0.689 -1.017,0.937 -1.76,1.737c-1.132,1.352 -2.696,3.063 -4.297,5.078c-2.303,3.009 -3.982,5.134 -5.153,6.791c-0.984,-0.365 -15.133,-8.706 -15.805,-9.512c-0.624,0.884 -7.288,12.072 -9.906,15.024c-0.078,0.111 -0.078,0.111 -0.037,0.305c0.833,1.582 10.695,9.212 12.351,10.383l0.237,0.167c0.04,0.194 -0.466,1.161 -1.324,2.376c-3.313,5.442 -5.115,6.486 -7.723,11.433c-0.234,0.331 -0.038,0.304 -0.116,0.415Z" style="fill:#fff;fill-rule:nonzero;"/><path d="M28.917,372.972c0.826,0.087 17.319,13.395 18.021,12.401l0.156,-0.221c1.561,-2.208 8.909,-10.098 10.349,-12.889c2.162,0.203 13.288,9.058 14.625,9.174c4.415,-4.994 7.063,-9.746 11.788,-15.68c-3.159,-3.06 -10.57,-7.634 -14.003,-10.557c0.385,-1.549 7.177,-10.659 9.44,-13.862c-2.369,-2.171 -15.808,-10.01 -16.843,-12.563c-0.664,0.69 -1.017,0.938 -1.759,1.738c-1.133,1.352 -2.696,3.062 -4.297,5.077c-2.304,3.009 -3.983,5.134 -5.153,6.791c-0.985,-0.364 -15.134,-8.705 -15.806,-9.511c-0.624,0.883 -7.287,12.071 -9.905,15.024c-0.078,0.11 -0.078,0.11 -0.038,0.304c0.833,1.582 10.695,9.213 12.352,10.383l0.236,0.167c0.041,0.194 -0.465,1.161 -1.324,2.376c-3.313,5.442 -5.115,6.487 -7.723,11.433c-0.234,0.332 -0.038,0.305 -0.116,0.415Z" style="fill:#cf3720;fill-rule:nonzero;"/><path d="M25.457,375.424c0.826,0.086 17.318,13.395 18.021,12.401l0.156,-0.221c1.561,-2.209 8.909,-10.098 10.348,-12.89c2.163,0.204 13.289,9.058 14.625,9.175c4.416,-4.994 7.064,-9.747 11.789,-15.681c-3.159,-3.06 -10.57,-7.634 -14.003,-10.556c0.385,-1.549 7.176,-10.66 9.44,-13.863c-2.369,-2.17 -15.809,-10.01 -16.843,-12.562c-0.665,0.689 -1.017,0.937 -1.76,1.737c-1.132,1.352 -2.696,3.063 -4.297,5.078c-2.303,3.009 -3.982,5.134 -5.153,6.791c-0.984,-0.365 -15.133,-8.706 -15.805,-9.512c-0.624,0.884 -7.288,12.072 -9.906,15.024c-0.078,0.111 -0.078,0.111 -0.037,0.305c0.833,1.582 10.695,9.212 12.351,10.383l0.237,0.167c0.04,0.194 -0.466,1.161 -1.324,2.376c-3.313,5.442 -5.115,6.486 -7.723,11.433c-0.234,0.331 -0.038,0.304 -0.116,0.415Z" style="fill:none;stroke-width:4.5px;stroke:#000;"/><path d="M130.087,138.557c-2.46,0.057 -4.234,-0.057 -5.207,-0.115c-0.4,0 -1.316,-0.114 -1.602,-0.057l0,0.057c-0.915,8.983 0.401,19.225 -0.343,28.894c1.03,-0.286 7.324,0.515 8.067,-0.343c-0.515,-9.212 0,-19.053 0.058,-28.264l0,-0.172l-0.973,0ZM123.049,126.084c-0.057,3.49 0.229,5.664 0.229,7.896c2.975,-0.172 7.038,0.629 7.724,-0.401c0,-2.289 -0.171,-6.351 -0.171,-7.324l-7.782,-0.171Z" style="fill:#000;fill-rule:nonzero;"/><path d="M155.891,178.322c0.229,-4.52 0.401,-1.659 0.172,-12.416c0.286,1.373 6.866,2.289 10.985,0.744c3.376,-1.202 4.635,-6.294 4.635,-11.615c-0.286,-7.667 -0.858,-15.505 -9.612,-16.135c-2.117,-0.286 -4.177,0.172 -5.321,2.46c-0.229,0.458 -0.401,0.172 -0.573,-0.228c0,-0.859 -0.057,-1.145 -0.057,-1.889c0,-0.171 0,-0.343 -0.057,-0.4c-2.289,-0.286 -5.378,-0.057 -7.724,-0.057c-0.286,10.985 0.343,23.744 0.343,36.446l0,3.777c2.518,0.457 7.209,0.114 7.209,-0.058l0,-0.629ZM164.76,156.752c-0.401,2.689 -2.289,4.062 -5.436,4.062c-3.261,0 -3.49,-0.687 -3.49,-6.58c0,-4.806 0.229,-8.296 4.12,-8.296c3.261,0 5.206,3.662 5.206,7.495c0,1.087 0,2.231 -0.4,3.319Z" style="fill:#000;fill-rule:nonzero;"/><path d="M198.746,138.843c-2.46,-0.172 -4.291,-0.229 -5.607,-0.286c-0.458,0 -2.746,-0.115 -2.746,0.057c0,0.916 -0.287,1.717 -0.229,2.918c-1.087,-2.632 -3.09,-2.632 -5.836,-2.632c-5.379,0.172 -9.613,5.607 -9.613,13.217c0,6.122 2.518,15.334 8.411,15.334c2.689,0 5.722,-1.488 7.553,-3.319c0,0.744 -0.229,1.145 -0.229,2.003c0,0.629 0.171,1.087 0.686,1.259c0.859,0 1.602,-0.172 2.461,-0.172c1.201,0 2.517,0.172 3.719,0.172l0.686,0c0.916,-0.172 0.744,-1.373 0.744,-2.346c0.515,-8.182 -0.114,-16.021 0.114,-24.26l0,-0.572c0,-0.458 -0.057,-0.915 -0.114,-1.373ZM182.096,150.229c0.401,-1.888 2.174,-3.662 5.321,-3.662c3.147,0 2.976,0.629 2.976,5.951c0,4.291 0.228,6.923 -3.548,6.923c-3.204,0 -5.092,-2.747 -5.092,-6.18c0,-0.972 0.057,-2.059 0.343,-3.032Z" style="fill:#000;fill-rule:nonzero;"/><path d="M226.267,147.54c0,-4.12 -1.373,-7.667 -4.978,-9.212c-4.005,-0.915 -9.841,-0.915 -12.816,-0.114c-7.381,1.945 -8.468,12.759 0.114,15.677c4.234,1.831 9.441,0.972 8.983,4.749c0.172,4.405 -6.98,3.147 -7.152,-0.344c-2.346,0 -5.95,-0.228 -8.468,0.058l0,0.286c0,6.122 5.207,9.898 12.874,9.612c4.405,0.057 8.468,-1.43 10.241,-5.149c1.431,-4.177 0.916,-6.752 -0.743,-9.498c-1.774,-2.289 -5.836,-3.09 -10.128,-3.719c-3.604,-1.259 -3.547,-5.264 -0.057,-5.894c1.945,-0.171 4.406,1.602 3.948,3.548c2.575,0.515 5.722,0.4 8.182,0Z" style="fill:#000;fill-rule:nonzero;"/><path d="M253.673,147.54c0,-4.12 -1.373,-7.667 -4.977,-9.212c-4.006,-0.915 -9.842,-0.915 -12.817,-0.114c-7.381,1.945 -8.468,12.759 0.115,15.677c4.234,1.831 9.44,0.972 8.983,4.749c0.171,4.405 -6.981,3.147 -7.152,-0.344c-2.346,0 -5.951,-0.228 -8.468,0.058l0,0.286c0,6.122 5.206,9.898 12.873,9.612c4.406,0.057 8.468,-1.43 10.242,-5.149c1.43,-4.177 0.915,-6.752 -0.744,-9.498c-1.774,-2.289 -5.836,-3.09 -10.127,-3.719c-3.605,-1.259 -3.548,-5.264 -0.057,-5.894c1.945,-0.171 4.405,1.602 3.947,3.548c2.575,0.515 5.722,0.4 8.182,0Z" style="fill:#000;fill-rule:nonzero;"/><path d="M277.99,152.975c2.403,0.458 13.732,0 15.334,-0.457c0.458,-6.409 -0.572,-12.988 -7.667,-14.19c-5.435,-1.373 -12.13,0.286 -14.132,4.806c-0.916,2.518 -1.03,5.15 -1.259,7.953c-0.286,6.179 1.144,12.931 5.207,15.792c0.915,0.515 1.888,0.858 2.975,1.03c4.348,0 10.585,1.144 13.159,-2.518c1.088,-0.915 1.316,-5.035 1.603,-8.926c-1.66,-0.457 -5.665,0.058 -7.21,-0.114c0.286,6.179 -5.321,6.122 -7.152,2.575c-0.858,-1.373 -0.801,-2.632 -0.858,-4.921l0,-1.03ZM284.913,144.107c1.373,0.686 2.232,2.174 2.232,3.719c0,1.144 0.343,0.686 -3.605,0.686c-5.664,0 -5.664,0.344 -5.378,-1.258c0.286,-2.06 1.144,-3.719 4.749,-3.719c0.858,0 1.373,0.171 2.002,0.572Z" style="fill:#000;fill-rule:nonzero;"/><path d="M303.852,138.9c-2.461,-0.286 -5.207,0.115 -7.953,-0.171c2.46,8.982 4.405,19.224 5.95,28.779c2.918,0 7.781,0.343 10.757,-0.114c2.574,-9.613 3.948,-19.969 7.152,-28.608c-3.147,-0.172 -5.093,0.171 -7.667,0.171c-1.831,4.635 -2.804,14.991 -4.463,19.511c-1.659,-4.52 -2.689,-14.132 -3.776,-19.568Z" style="fill:#000;fill-rule:nonzero;"/><path d="M329.828,152.975c2.403,0.458 13.732,0 15.334,-0.457c0.457,-6.409 -0.573,-12.988 -7.667,-14.19c-5.436,-1.373 -12.13,0.286 -14.133,4.806c-0.915,2.518 -1.03,5.15 -1.258,7.953c-0.287,6.179 1.144,12.931 5.206,15.792c0.916,0.515 1.888,0.858 2.975,1.03c4.349,0 10.585,1.144 13.16,-2.518c1.087,-0.915 1.316,-5.035 1.602,-8.926c-1.659,-0.457 -5.664,0.058 -7.209,-0.114c0.286,6.179 -5.321,6.122 -7.152,2.575c-0.858,-1.373 -0.801,-2.632 -0.858,-4.921l0,-1.03ZM336.751,144.107c1.373,0.686 2.231,2.174 2.231,3.719c0,1.144 0.344,0.686 -3.604,0.686c-5.665,0 -5.665,0.344 -5.379,-1.258c0.286,-2.06 1.145,-3.719 4.749,-3.719c0.859,0 1.373,0.171 2.003,0.572Z" style="fill:#000;fill-rule:nonzero;"/><path d="M357.349,140.731c0,-1.03 -0.058,-0.687 -0.058,-1.945c0,-0.344 -3.089,0.057 -3.719,0.057c-1.831,0.172 -2.174,0.172 -4.005,0c-0.286,10.07 0.057,19.282 0.057,28.665c3.662,-0.286 5.035,0.401 7.667,-0.343l0,-0.229c0,-5.664 -0.057,-9.727 -0.229,-14.991c-0.171,-4.234 2.918,-4.405 6.981,-3.947c0.057,0 1.259,0.171 2.174,0.4c0.401,0.172 0.801,0.229 1.202,0.401l0.515,0.171c-0.172,-2.346 0,-4.863 0,-10.07c0,-0.229 -4.978,-0.171 -7.896,0.744c-1.087,0.4 -2.403,0.915 -2.689,1.087Z" style="fill:#000;fill-rule:nonzero;"/><path d="M379.377,138.9c-2.461,-0.286 -5.722,0.115 -8.468,-0.171c2.346,8.639 5.035,18.023 6.637,27.234c0.744,5.093 -3.776,3.891 -7.495,3.891c-0.401,2.117 -0.401,5.321 0.343,7.61c19.453,1.144 19.568,-14.876 22.543,-26.034c0.915,-3.947 1.831,-8.067 3.032,-12.644c-3.204,-0.229 -5.778,0.057 -8.353,0c-1.831,4.577 -2.117,16.135 -3.776,20.712c-1.66,-4.577 -3.376,-15.105 -4.463,-20.598Z" style="fill:#000;fill-rule:nonzero;"/><path d="M422.689,128.201c-2.517,0.286 -5.378,-0.458 -7.381,-0.172c-0.286,2.861 -0.057,7.667 -0.057,10.986c-1.201,0 -2.517,0 -4.062,-0.058l-0.172,6.981c1.602,0 2.918,0 4.12,-0.057c-0.058,5.549 -0.058,10.527 0.915,16.42c1.945,4.635 9.612,5.322 15.677,5.035c0.801,-2.345 0.286,-5.607 0,-7.724c-2.574,0.172 -7.323,-0.171 -8.811,-2.288c-0.057,-3.433 -0.057,-7.438 -0.057,-11.558l8.868,0c-0.286,-2.06 0.744,-5.95 -0.343,-7.152c-3.891,0.229 -6.294,0.401 -8.64,0.458c0,-1.144 -0.057,-2.232 -0.057,-3.204l0,-7.667Z" style="fill:#000;fill-rule:nonzero;"/><path d="M444.088,138.557c-2.46,0.057 -4.234,-0.057 -5.207,-0.115c-0.4,0 -1.316,-0.114 -1.602,-0.057l0,0.057c-0.915,8.983 0.401,19.225 -0.343,28.894c1.03,-0.286 7.324,0.515 8.067,-0.343c-0.515,-9.212 0,-19.053 0.058,-28.264l0,-0.172l-0.973,0ZM437.05,126.084c-0.057,3.49 0.229,5.664 0.229,7.896c2.975,-0.172 7.038,0.629 7.724,-0.401c0,-2.289 -0.171,-6.351 -0.171,-7.324l-7.782,-0.171Z" style="fill:#000;fill-rule:nonzero;"/><path d="M456.275,141.818c-0.057,-1.087 0.057,-1.716 -0.115,-3.032c0,-0.515 -2.803,0.057 -3.432,0.057c-1.831,0.172 -2.175,0.172 -4.006,0c-0.286,10.07 0.058,19.282 0.058,28.665c3.661,-0.286 4.462,0.401 7.094,-0.343l0,-0.229c0.63,-5.035 -0.228,-10.07 0.058,-15.334c0.286,-4.119 4.176,-3.719 5.435,-3.09c0.057,0.058 0.172,0.058 0.229,0.115c1.202,0.915 1.259,3.662 1.43,5.55c0.286,4.119 -0.057,9.784 0.229,13.274c2.689,0 4.463,0.172 7.152,-0.229c-0.286,-4.634 0.286,-12.359 0.115,-18.309c1.43,-1.087 3.318,-0.858 4.291,-0.401c0.057,0.058 0.171,0.058 0.229,0.115c1.201,0.915 1.258,3.662 1.43,5.55c0.286,4.119 -0.057,9.784 0.229,13.274c2.689,0 4.463,0.172 7.152,-0.229c-0.458,-7.896 1.201,-24.259 -1.202,-26.434c-3.146,-2.689 -8.353,-2.117 -11.5,0.172c-0.4,0.286 -0.973,0.572 -1.373,0.801c-0.172,-0.458 -0.401,-0.801 -0.572,-0.973c-3.147,-2.689 -8.354,-2.117 -11.501,0.172c-0.4,0.286 -1.03,0.629 -1.43,0.858Z" style="fill:#000;fill-rule:nonzero;"/><path d="M495.697,152.975c2.403,0.458 13.731,0 15.334,-0.457c0.457,-6.409 -0.573,-12.988 -7.667,-14.19c-5.436,-1.373 -12.13,0.286 -14.133,4.806c-0.915,2.518 -1.03,5.15 -1.258,7.953c-0.287,6.179 1.144,12.931 5.206,15.792c0.916,0.515 1.888,0.858 2.975,1.03c4.349,0 10.585,1.144 13.16,-2.518c1.087,-0.915 1.316,-5.035 1.602,-8.926c-1.659,-0.457 -5.664,0.058 -7.209,-0.114c0.286,6.179 -5.321,6.122 -7.152,2.575c-0.858,-1.373 -0.801,-2.632 -0.858,-4.921l0,-1.03ZM502.62,144.107c1.373,0.686 2.231,2.174 2.231,3.719c0,1.144 0.344,0.686 -3.604,0.686c-5.665,0 -5.665,0.344 -5.379,-1.258c0.286,-2.06 1.145,-3.719 4.749,-3.719c0.858,0 1.373,0.171 2.003,0.572Z" style="fill:#000;fill-rule:nonzero;"/><path d="M148.11,44.465c0,-4.12 -1.373,-7.667 -4.978,-9.212c-4.005,-0.915 -9.841,-0.915 -12.816,-0.114c-7.381,1.945 -8.468,12.759 0.114,15.677c4.234,1.831 9.441,0.972 8.983,4.749c0.172,4.405 -6.98,3.147 -7.152,-0.344c-2.346,0 -5.95,-0.228 -8.468,0.058l0,0.286c0,6.122 5.207,9.898 12.874,9.612c4.405,0.057 8.468,-1.43 10.241,-5.149c1.431,-4.177 0.916,-6.752 -0.743,-9.498c-1.774,-2.289 -5.836,-3.09 -10.128,-3.719c-3.604,-1.259 -3.547,-5.264 -0.057,-5.894c1.946,-0.171 4.406,1.602 3.948,3.548c2.575,0.515 5.722,0.4 8.182,0Z" style="fill:#000;fill-rule:nonzero;"/><path d="M153.202,38.171c-0.229,0.858 -0.858,2.518 -0.915,3.376c-0.229,1.43 -0.286,2.746 -0.286,4.119c0.457,4.978 -1.202,12.817 2.918,16.479c1.316,1.315 2.975,2.174 4.92,2.517c4.406,0 10.642,1.202 13.274,-2.517c1.488,-1.488 1.66,-8.983 1.831,-13.446c-0.171,-5.035 -0.171,-9.899 -2.346,-11.329c-1.602,-1.545 -3.89,-2.289 -6.351,-2.46c-1.602,-0.172 -2.918,0.114 -4.462,-0.057c-3.605,0 -7.496,0.972 -8.583,3.318ZM160.354,44.923c0.515,-0.63 1.144,-1.03 1.945,-1.259c2.976,-0.687 4.864,0.629 5.264,3.318c0.458,2.232 0.115,4.749 -0.171,7.209c-0.229,0.973 -0.687,1.603 -1.316,1.889c-2.003,1.087 -6.752,0.915 -6.58,-2.575c0.172,-2.689 0.057,-4.978 0.343,-7.438c0.115,-0.63 0.286,-0.973 0.515,-1.144Z" style="fill:#000;fill-rule:nonzero;"/><path d="M185.987,38.743c-0.057,-1.087 0.057,-1.716 -0.115,-3.032c0,-0.515 -2.803,0.057 -3.432,0.057c-1.831,0.172 -2.175,0.172 -4.006,0c-0.286,10.07 0.058,19.282 0.058,28.665c3.661,-0.286 4.462,0.401 7.094,-0.343l0,-0.229c0.63,-5.035 -0.228,-10.07 0.058,-15.334c0.286,-4.119 4.176,-3.719 5.435,-3.09c0.057,0.058 0.172,0.058 0.229,0.115c1.202,0.915 1.259,3.662 1.43,5.55c0.286,4.119 -0.057,9.784 0.229,13.274c2.689,0 4.463,0.172 7.152,-0.229c-0.286,-4.634 0.286,-12.359 0.115,-18.309c1.43,-1.087 3.318,-0.858 4.291,-0.401c0.057,0.058 0.171,0.058 0.229,0.115c1.201,0.915 1.258,3.662 1.43,5.55c0.286,4.119 -0.057,9.784 0.229,13.274c2.689,0 4.463,0.172 7.152,-0.229c-0.458,-7.896 1.201,-24.259 -1.202,-26.434c-3.146,-2.689 -8.353,-2.117 -11.5,0.172c-0.4,0.286 -0.973,0.572 -1.373,0.801c-0.172,-0.458 -0.401,-0.801 -0.572,-0.973c-3.147,-2.689 -8.354,-2.117 -11.501,0.172c-0.4,0.286 -1.03,0.629 -1.43,0.858Z" style="fill:#000;fill-rule:nonzero;"/><path d="M225.409,49.9c2.403,0.458 13.731,0 15.334,-0.457c0.457,-6.409 -0.573,-12.988 -7.667,-14.19c-5.436,-1.373 -12.13,0.286 -14.133,4.806c-0.915,2.518 -1.03,5.15 -1.258,7.953c-0.287,6.179 1.144,12.931 5.206,15.792c0.916,0.515 1.888,0.858 2.975,1.03c4.349,0 10.585,1.144 13.16,-2.518c1.087,-0.915 1.316,-5.035 1.602,-8.926c-1.659,-0.457 -5.664,0.058 -7.209,-0.114c0.286,6.179 -5.321,6.122 -7.152,2.575c-0.858,-1.373 -0.801,-2.632 -0.858,-4.921l0,-1.03ZM232.332,41.032c1.373,0.686 2.231,2.174 2.231,3.719c0,1.144 0.344,0.686 -3.604,0.686c-5.665,0 -5.665,0.344 -5.379,-1.258c0.286,-2.06 1.145,-3.719 4.749,-3.719c0.858,0 1.373,0.171 2.003,0.572Z" style="fill:#000;fill-rule:nonzero;"/><path d="M254.818,25.126c-2.518,0.286 -5.379,-0.458 -7.381,-0.172c-0.286,2.861 -0.057,7.667 -0.057,10.986c-1.202,0 -2.518,0 -4.063,-0.058l-0.171,6.981c1.602,0 2.918,0 4.119,-0.057c-0.057,5.549 -0.057,10.527 0.916,16.42c1.945,4.635 9.612,5.322 15.677,5.035c0.801,-2.345 0.286,-5.607 0,-7.724c-2.575,0.172 -7.324,-0.171 -8.811,-2.288c-0.058,-3.433 -0.058,-7.438 -0.058,-11.558l8.869,0c-0.286,-2.06 0.744,-5.95 -0.344,-7.152c-3.89,0.229 -6.293,0.401 -8.639,0.458c0,-1.144 -0.057,-2.232 -0.057,-3.204l0,-7.667Z" style="fill:#000;fill-rule:nonzero;"/><path d="M276.216,35.482c-2.46,0.057 -4.234,-0.057 -5.206,-0.115c-0.401,0 -1.316,-0.114 -1.602,-0.057l0,0.057c-0.916,8.983 0.4,19.225 -0.344,28.894c1.03,-0.286 7.324,0.515 8.068,-0.343c-0.515,-9.212 0,-19.053 0.057,-28.264l0,-0.172l-0.973,0ZM269.179,23.009c-0.057,3.49 0.229,5.664 0.229,7.896c2.975,-0.172 7.037,0.629 7.724,-0.401c0,-2.289 -0.172,-6.351 -0.172,-7.324l-7.781,-0.171Z" style="fill:#000;fill-rule:nonzero;"/><path d="M288.403,38.743c-0.057,-1.087 0.058,-1.716 -0.114,-3.032c0,-0.515 -2.804,0.057 -3.433,0.057c-1.831,0.172 -2.174,0.172 -4.005,0c-0.286,10.07 0.057,19.282 0.057,28.665c3.662,-0.286 4.463,0.401 7.095,-0.343l0,-0.229c0.629,-5.035 -0.229,-10.07 0.057,-15.334c0.286,-4.119 4.177,-3.719 5.436,-3.09c0.057,0.058 0.171,0.058 0.228,0.115c1.202,0.915 1.259,3.662 1.431,5.55c0.286,4.119 -0.057,9.784 0.229,13.274c2.689,0 4.463,0.172 7.152,-0.229c-0.286,-4.634 0.286,-12.359 0.114,-18.309c1.431,-1.087 3.319,-0.858 4.291,-0.401c0.058,0.058 0.172,0.058 0.229,0.115c1.202,0.915 1.259,3.662 1.431,5.55c0.286,4.119 -0.058,9.784 0.228,13.274c2.69,0 4.463,0.172 7.152,-0.229c-0.457,-7.896 1.202,-24.259 -1.201,-26.434c-3.147,-2.689 -8.354,-2.117 -11.5,0.172c-0.401,0.286 -0.973,0.572 -1.374,0.801c-0.171,-0.458 -0.4,-0.801 -0.572,-0.973c-3.147,-2.689 -8.353,-2.117 -11.5,0.172c-0.401,0.286 -1.03,0.629 -1.431,0.858Z" style="fill:#000;fill-rule:nonzero;"/><path d="M327.825,49.9c2.403,0.458 13.732,0 15.334,-0.457c0.458,-6.409 -0.572,-12.988 -7.667,-14.19c-5.435,-1.373 -12.13,0.286 -14.132,4.806c-0.916,2.518 -1.03,5.15 -1.259,7.953c-0.286,6.179 1.144,12.931 5.207,15.792c0.915,0.515 1.888,0.858 2.975,1.03c4.348,0 10.585,1.144 13.16,-2.518c1.087,-0.915 1.316,-5.035 1.602,-8.926c-1.66,-0.457 -5.665,0.058 -7.21,-0.114c0.286,6.179 -5.321,6.122 -7.152,2.575c-0.858,-1.373 -0.801,-2.632 -0.858,-4.921l0,-1.03ZM334.748,41.032c1.373,0.686 2.232,2.174 2.232,3.719c0,1.144 0.343,0.686 -3.605,0.686c-5.664,0 -5.664,0.344 -5.378,-1.258c0.286,-2.06 1.144,-3.719 4.749,-3.719c0.858,0 1.373,0.171 2.002,0.572Z" style="fill:#000;fill-rule:nonzero;"/><path d="M369.478,44.465c0,-4.12 -1.373,-7.667 -4.977,-9.212c-4.006,-0.915 -9.842,-0.915 -12.817,-0.114c-7.381,1.945 -8.468,12.759 0.115,15.677c4.234,1.831 9.44,0.972 8.983,4.749c0.171,4.405 -6.981,3.147 -7.152,-0.344c-2.346,0 -5.951,-0.228 -8.468,0.058l0,0.286c0,6.122 5.206,9.898 12.873,9.612c4.406,0.057 8.468,-1.43 10.242,-5.149c1.43,-4.177 0.915,-6.752 -0.744,-9.498c-1.774,-2.289 -5.836,-3.09 -10.127,-3.719c-3.605,-1.259 -3.548,-5.264 -0.057,-5.894c1.945,-0.171 4.405,1.602 3.947,3.548c2.575,0.515 5.722,0.4 8.182,0Z" style="fill:#000;fill-rule:nonzero;"/><path d="M395.855,24.039c-3.433,0.057 -4.921,-0.115 -6.294,-0.172c-0.515,0 -1.945,-0.172 -2.346,-0.114l0,0.114c-1.373,12.816 0.63,26.834 -0.457,40.623c1.602,-0.457 9.154,0.744 10.413,-0.515c-0.744,-12.988 0.057,-26.605 0.057,-39.707l0,-0.229l-1.373,0Z" style="fill:#000;fill-rule:nonzero;"/><path d="M424.978,56.366l0,-12.473c2.346,0.057 4.749,0.228 8.639,0.457c0.286,-2.975 0.286,-2.86 0.286,-4.52c0.058,-1.087 -0.114,-1.773 0.058,-2.632l-8.754,0c-0.401,-1.888 -0.115,-3.604 1.659,-3.89c2.174,-0.286 5.378,-0.859 7.152,-0.687c0.286,-2.117 0.801,-5.378 0,-7.724c-3.605,-0.172 -7.553,0 -10.757,1.087c-5.206,1.659 -6.179,7.324 -5.893,11.1c-1.201,-0.057 -2.517,-0.057 -4.119,-0.057l0.171,6.98c1.545,-0.057 2.861,-0.057 4.062,-0.057c0,3.318 -0.343,17.393 0.115,20.254c2.002,0.286 4.863,-0.457 7.381,-0.171l0,-7.667Z" style="fill:#000;fill-rule:nonzero;"/><path d="M459.193,35.768c-2.46,-0.172 -4.291,-0.229 -5.607,-0.286c-0.458,0 -2.747,-0.115 -2.747,0.057c0,0.916 -0.286,1.717 -0.228,2.918c-1.088,-2.632 -3.09,-2.632 -5.837,-2.632c-5.378,0.172 -9.612,5.607 -9.612,13.217c0,6.122 2.518,15.334 8.411,15.334c2.689,0 5.722,-1.488 7.552,-3.319c0,0.744 -0.228,1.145 -0.228,2.003c0,0.629 0.171,1.087 0.686,1.259c0.858,0 1.602,-0.172 2.46,-0.172c1.202,0 2.518,0.172 3.72,0.172l0.686,0c0.916,-0.172 0.744,-1.373 0.744,-2.346c0.515,-8.182 -0.115,-16.021 0.114,-24.26l0,-0.572c0,-0.458 -0.057,-0.915 -0.114,-1.373ZM442.543,47.154c0.401,-1.888 2.174,-3.662 5.321,-3.662c3.147,0 2.975,0.629 2.975,5.951c0,4.291 0.229,6.923 -3.547,6.923c-3.204,0 -5.092,-2.747 -5.092,-6.18c0,-0.972 0.057,-2.059 0.343,-3.032Z" style="fill:#000;fill-rule:nonzero;"/><path d="M470.522,35.482c-2.461,0.057 -4.234,-0.057 -5.207,-0.115c-0.401,0 -1.316,-0.114 -1.602,-0.057l0,0.057c-0.915,8.983 0.4,19.225 -0.343,28.894c1.03,-0.286 7.323,0.515 8.067,-0.343c-0.515,-9.212 0,-19.053 0.057,-28.264l0,-0.172l-0.972,0ZM463.484,23.009c-0.057,3.49 0.229,5.664 0.229,7.896c2.975,-0.172 7.038,0.629 7.724,-0.401c0,-2.289 -0.172,-6.351 -0.172,-7.324l-7.781,-0.171Z" style="fill:#000;fill-rule:nonzero;"/><path d="M475.614,22.666c-1.373,13.846 0.744,27.806 -0.343,41.595c1.029,-0.286 7.323,0.515 8.067,-0.343c-0.458,-9.212 0.057,-31.697 0.057,-41.081l-7.781,-0.171Z" style="fill:#000;fill-rule:nonzero;"/><path d="M130.087,237.721c-2.46,0.057 -4.234,-0.058 -5.207,-0.115c-0.4,0 -1.316,-0.114 -1.602,-0.057l0,0.057c-0.915,8.983 0.401,19.225 -0.343,28.894c1.03,-0.286 7.324,0.515 8.067,-0.343c-0.515,-9.212 0,-19.053 0.058,-28.265l0,-0.171l-0.973,0ZM123.049,225.248c-0.057,3.49 0.229,5.664 0.229,7.895c2.975,-0.171 7.038,0.63 7.724,-0.4c0,-2.289 -0.171,-6.351 -0.171,-7.324l-7.782,-0.171Z" style="fill:#000;fill-rule:nonzero;"/><path d="M155.891,277.486c0.229,-4.52 0.401,-1.66 0.172,-12.416c0.286,1.373 6.866,2.289 10.985,0.744c3.376,-1.202 4.635,-6.294 4.635,-11.615c-0.286,-7.667 -0.858,-15.506 -9.612,-16.135c-2.117,-0.286 -4.177,0.172 -5.321,2.46c-0.229,0.458 -0.401,0.172 -0.573,-0.229c0,-0.858 -0.057,-1.144 -0.057,-1.888c0,-0.171 0,-0.343 -0.057,-0.4c-2.289,-0.286 -5.378,-0.057 -7.724,-0.057c-0.286,10.985 0.343,23.744 0.343,36.446l0,3.776c2.518,0.458 7.209,0.115 7.209,-0.057l0,-0.629ZM164.76,255.915c-0.401,2.689 -2.289,4.063 -5.436,4.063c-3.261,0 -3.49,-0.687 -3.49,-6.58c0,-4.806 0.229,-8.296 4.12,-8.296c3.261,0 5.206,3.661 5.206,7.495c0,1.087 0,2.231 -0.4,3.318Z" style="fill:#000;fill-rule:nonzero;"/><path d="M198.746,238.007c-2.46,-0.172 -4.291,-0.229 -5.607,-0.286c-0.458,0 -2.746,-0.115 -2.746,0.057c0,0.915 -0.287,1.716 -0.229,2.918c-1.087,-2.632 -3.09,-2.632 -5.836,-2.632c-5.379,0.172 -9.613,5.607 -9.613,13.217c0,6.122 2.518,15.334 8.411,15.334c2.689,0 5.722,-1.488 7.553,-3.319c0,0.744 -0.229,1.145 -0.229,2.003c0,0.629 0.171,1.087 0.686,1.259c0.859,0 1.602,-0.172 2.461,-0.172c1.201,0 2.517,0.172 3.719,0.172l0.686,0c0.916,-0.172 0.744,-1.374 0.744,-2.346c0.515,-8.182 -0.114,-16.021 0.114,-24.26l0,-0.572c0,-0.458 -0.057,-0.916 -0.114,-1.373ZM182.096,249.393c0.401,-1.888 2.174,-3.662 5.321,-3.662c3.147,0 2.976,0.629 2.976,5.95c0,4.292 0.228,6.923 -3.548,6.923c-3.204,0 -5.092,-2.746 -5.092,-6.179c0,-0.973 0.057,-2.06 0.343,-3.032Z" style="fill:#000;fill-rule:nonzero;"/><path d="M226.267,246.704c0,-4.12 -1.373,-7.667 -4.978,-9.212c-4.005,-0.916 -9.841,-0.916 -12.816,-0.115c-7.381,1.946 -8.468,12.76 0.114,15.678c4.234,1.83 9.441,0.972 8.983,4.748c0.172,4.406 -6.98,3.147 -7.152,-0.343c-2.346,0 -5.95,-0.229 -8.468,0.057l0,0.286c0,6.123 5.207,9.899 12.874,9.613c4.405,0.057 8.468,-1.431 10.241,-5.15c1.431,-4.176 0.916,-6.751 -0.743,-9.498c-1.774,-2.288 -5.836,-3.089 -10.128,-3.719c-3.604,-1.258 -3.547,-5.263 -0.057,-5.893c1.945,-0.171 4.406,1.602 3.948,3.548c2.575,0.515 5.722,0.4 8.182,0Z" style="fill:#000;fill-rule:nonzero;"/><path d="M253.673,246.704c0,-4.12 -1.373,-7.667 -4.977,-9.212c-4.006,-0.916 -9.842,-0.916 -12.817,-0.115c-7.381,1.946 -8.468,12.76 0.115,15.678c4.234,1.83 9.44,0.972 8.983,4.748c0.171,4.406 -6.981,3.147 -7.152,-0.343c-2.346,0 -5.951,-0.229 -8.468,0.057l0,0.286c0,6.123 5.206,9.899 12.873,9.613c4.406,0.057 8.468,-1.431 10.242,-5.15c1.43,-4.176 0.915,-6.751 -0.744,-9.498c-1.774,-2.288 -5.836,-3.089 -10.127,-3.719c-3.605,-1.258 -3.548,-5.263 -0.057,-5.893c1.945,-0.171 4.405,1.602 3.947,3.548c2.575,0.515 5.722,0.4 8.182,0Z" style="fill:#000;fill-rule:nonzero;"/><path d="M274.786,238.064c-2.46,-0.286 -5.264,0.114 -8.01,-0.172c2.46,8.983 4.405,19.225 5.95,28.78c2.918,0 7.782,0.343 10.757,-0.114c1.087,-4.12 1.316,-8.983 2.231,-13.16c0.858,4.291 1.545,9.154 2.232,13.274c2.918,0 7.094,0.343 10.07,-0.114c2.574,-9.613 3.948,-19.969 7.152,-28.608c-3.033,-0.229 -4.978,0.171 -7.438,0.171c-1.374,3.49 -2.861,15.048 -4.692,19.511c-1.659,-4.577 -2.575,-14.19 -3.662,-19.682c-2.289,-0.458 -3.49,0.228 -6.351,-0.058c0,0 -0.687,4.005 -0.744,4.005c-1.831,8.354 -2.117,11.158 -3.776,15.735c-1.659,-4.577 -2.632,-14.133 -3.719,-19.568Z" style="fill:#000;fill-rule:nonzero;"/><path d="M315.867,240.982c0,-0.915 0.172,-14.762 -0.057,-15.906c0,-0.515 -2.804,0.057 -3.433,0.057c-1.831,0.172 -2.174,0.172 -4.005,0c-0.229,10.07 0,32.156 0,41.539c3.662,-0.286 4.463,0.4 7.095,-0.343l0,-0.229c0.629,-5.035 -0.229,-10.07 0.057,-15.334c0.286,-4.12 4.176,-3.719 5.435,-3.09c0.057,0.057 0.172,0.057 0.229,0.115c1.202,0.915 1.259,3.661 1.431,5.55c0.286,4.119 -0.058,9.784 0.228,13.274c2.69,0 4.463,0.171 7.152,-0.229c-0.457,-7.896 1.202,-24.26 -1.201,-26.434c-3.147,-2.689 -8.354,-2.117 -11.501,0.172c-0.4,0.286 -1.029,0.629 -1.43,0.858Z" style="fill:#000;fill-rule:nonzero;"/><path d="M340.985,252.139c2.403,0.458 13.732,0 15.334,-0.458c0.457,-6.408 -0.572,-12.988 -7.667,-14.189c-5.436,-1.373 -12.13,0.286 -14.133,4.806c-0.915,2.517 -1.029,5.149 -1.258,7.953c-0.286,6.179 1.144,12.931 5.206,15.792c0.916,0.515 1.888,0.858 2.976,1.029c4.348,0 10.584,1.145 13.159,-2.517c1.087,-0.916 1.316,-5.035 1.602,-8.926c-1.659,-0.457 -5.664,0.057 -7.209,-0.114c0.286,6.179 -5.321,6.122 -7.152,2.575c-0.858,-1.374 -0.801,-2.632 -0.858,-4.921l0,-1.03ZM347.908,243.271c1.373,0.686 2.231,2.174 2.231,3.719c0,1.144 0.344,0.686 -3.604,0.686c-5.665,0 -5.665,0.344 -5.379,-1.259c0.287,-2.059 1.145,-3.719 4.749,-3.719c0.859,0 1.374,0.172 2.003,0.573Z" style="fill:#000;fill-rule:nonzero;"/><path d="M367.419,240.982c-0.058,-1.087 0.057,-1.716 -0.115,-3.032c0,-0.515 -2.803,0.057 -3.433,0.057c-1.831,0.171 -2.174,0.171 -4.005,0c-0.286,10.07 0.057,19.282 0.057,28.665c3.662,-0.286 4.463,0.4 7.095,-0.343l0,-0.229c0.629,-5.035 -0.229,-10.07 0.057,-15.334c0.286,-4.12 4.177,-3.719 5.436,-3.09c0.057,0.057 0.171,0.057 0.229,0.115c1.201,0.915 1.258,3.661 1.43,5.55c0.286,4.119 -0.057,9.784 0.229,13.274c2.689,0 4.463,0.171 7.152,-0.229c-0.458,-7.896 1.201,-24.26 -1.202,-26.434c-3.147,-2.689 -8.353,-2.117 -11.5,0.172c-0.401,0.286 -1.03,0.629 -1.43,0.858Z" style="fill:#000;fill-rule:nonzero;"/><path d="M410.216,227.365c-2.517,0.286 -5.378,-0.458 -7.381,-0.172c-0.286,2.861 -0.057,7.667 -0.057,10.985c-1.202,0 -2.517,0 -4.062,-0.057l-0.172,6.981c1.602,0 2.918,0 4.12,-0.058c-0.058,5.55 -0.058,10.528 0.915,16.421c1.945,4.635 9.612,5.321 15.677,5.035c0.801,-2.346 0.286,-5.607 0,-7.724c-2.575,0.172 -7.323,-0.172 -8.811,-2.288c-0.057,-3.433 -0.057,-7.439 -0.057,-11.558l8.868,0c-0.286,-2.06 0.744,-5.951 -0.343,-7.152c-3.891,0.229 -6.294,0.4 -8.64,0.458c0,-1.145 -0.057,-2.232 -0.057,-3.204l0,-7.667Z" style="fill:#000;fill-rule:nonzero;"/><path d="M432.015,240.982c0,-0.915 0.172,-14.762 -0.057,-15.906c0,-0.515 -2.803,0.057 -3.433,0.057c-1.831,0.172 -2.174,0.172 -4.005,0c-0.229,10.07 0,32.156 0,41.539c3.662,-0.286 4.463,0.4 7.095,-0.343l0,-0.229c0.629,-5.035 -0.229,-10.07 0.057,-15.334c0.286,-4.12 4.177,-3.719 5.436,-3.09c0.057,0.057 0.171,0.057 0.228,0.115c1.202,0.915 1.259,3.661 1.431,5.55c0.286,4.119 -0.057,9.784 0.229,13.274c2.689,0 4.463,0.171 7.152,-0.229c-0.458,-7.896 1.201,-24.26 -1.202,-26.434c-3.147,-2.689 -8.353,-2.117 -11.5,0.172c-0.401,0.286 -1.03,0.629 -1.431,0.858Z" style="fill:#000;fill-rule:nonzero;"/><path d="M457.133,252.139c2.403,0.458 13.732,0 15.334,-0.458c0.458,-6.408 -0.572,-12.988 -7.667,-14.189c-5.435,-1.373 -12.13,0.286 -14.132,4.806c-0.916,2.517 -1.03,5.149 -1.259,7.953c-0.286,6.179 1.144,12.931 5.207,15.792c0.915,0.515 1.888,0.858 2.975,1.029c4.348,0 10.585,1.145 13.16,-2.517c1.087,-0.916 1.315,-5.035 1.602,-8.926c-1.66,-0.457 -5.665,0.057 -7.21,-0.114c0.286,6.179 -5.321,6.122 -7.152,2.575c-0.858,-1.374 -0.801,-2.632 -0.858,-4.921l0,-1.03ZM464.056,243.271c1.373,0.686 2.232,2.174 2.232,3.719c0,1.144 0.343,0.686 -3.605,0.686c-5.664,0 -5.664,0.344 -5.378,-1.259c0.286,-2.059 1.144,-3.719 4.749,-3.719c0.858,0 1.373,0.172 2.002,0.573Z" style="fill:#000;fill-rule:nonzero;"/><path d="M514.75,246.704c0,-4.12 -1.374,-7.667 -4.978,-9.212c-4.005,-0.916 -9.841,-0.916 -12.817,-0.115c-7.38,1.946 -8.468,12.76 0.115,15.678c4.234,1.83 9.44,0.972 8.983,4.748c0.171,4.406 -6.981,3.147 -7.152,-0.343c-2.346,0 -5.951,-0.229 -8.468,0.057l0,0.286c0,6.123 5.206,9.899 12.873,9.613c4.406,0.057 8.468,-1.431 10.242,-5.15c1.43,-4.176 0.915,-6.751 -0.744,-9.498c-1.773,-2.288 -5.836,-3.089 -10.127,-3.719c-3.605,-1.258 -3.547,-5.263 -0.057,-5.893c1.945,-0.171 4.405,1.602 3.948,3.548c2.574,0.515 5.721,0.4 8.182,0Z" style="fill:#000;fill-rule:nonzero;"/><path d="M528.767,227.365c-2.517,0.286 -5.378,-0.458 -7.38,-0.172c-0.286,2.861 -0.058,7.667 -0.058,10.985c-1.201,0 -2.517,0 -4.062,-0.057l-0.172,6.981c1.602,0 2.918,0 4.12,-0.058c-0.057,5.55 -0.057,10.528 0.915,16.421c1.946,4.635 9.613,5.321 15.678,5.035c0.801,-2.346 0.286,-5.607 0,-7.724c-2.575,0.172 -7.324,-0.172 -8.812,-2.288c-0.057,-3.433 -0.057,-7.439 -0.057,-11.558l8.869,0c-0.287,-2.06 0.743,-5.951 -0.344,-7.152c-3.89,0.229 -6.293,0.4 -8.639,0.458c0,-1.145 -0.058,-2.232 -0.058,-3.204l0,-7.667Z" style="fill:#000;fill-rule:nonzero;"/><path d="M565.042,238.007c-2.46,-0.172 -4.291,-0.229 -5.607,-0.286c-0.458,0 -2.746,-0.115 -2.746,0.057c0,0.915 -0.286,1.716 -0.229,2.918c-1.087,-2.632 -3.09,-2.632 -5.836,-2.632c-5.378,0.172 -9.612,5.607 -9.612,13.217c0,6.122 2.517,15.334 8.41,15.334c2.69,0 5.722,-1.488 7.553,-3.319c0,0.744 -0.229,1.145 -0.229,2.003c0,0.629 0.172,1.087 0.687,1.259c0.858,0 1.602,-0.172 2.46,-0.172c1.201,0 2.517,0.172 3.719,0.172l0.687,0c0.915,-0.172 0.743,-1.374 0.743,-2.346c0.515,-8.182 -0.114,-16.021 0.115,-24.26l0,-0.572c0,-0.458 -0.057,-0.916 -0.115,-1.373ZM548.393,249.393c0.4,-1.888 2.174,-3.662 5.321,-3.662c3.146,0 2.975,0.629 2.975,5.95c0,4.292 0.229,6.923 -3.548,6.923c-3.204,0 -5.092,-2.746 -5.092,-6.179c0,-0.973 0.057,-2.06 0.344,-3.032Z" style="fill:#000;fill-rule:nonzero;"/><path d="M577.058,239.895c0,-1.03 -0.058,-0.687 -0.058,-1.945c0,-0.344 -3.089,0.057 -3.719,0.057c-1.83,0.171 -2.174,0.171 -4.005,0c-0.286,10.07 0.058,19.282 0.058,28.665c3.661,-0.286 5.035,0.4 7.666,-0.343l0,-0.229c0,-5.665 -0.057,-9.727 -0.228,-14.991c-0.172,-4.234 2.918,-4.405 6.98,-3.948c0.057,0 1.259,0.172 2.174,0.401c0.401,0.171 0.801,0.229 1.202,0.4l0.515,0.172c-0.172,-2.346 0,-4.863 0,-10.07c0,-0.229 -4.978,-0.172 -7.896,0.744c-1.087,0.4 -2.403,0.915 -2.689,1.087Z" style="fill:#000;fill-rule:nonzero;"/><path d="M615.163,246.704c0,-4.12 -1.373,-7.667 -4.977,-9.212c-4.005,-0.916 -9.841,-0.916 -12.817,-0.115c-7.381,1.946 -8.468,12.76 0.115,15.678c4.234,1.83 9.44,0.972 8.983,4.748c0.171,4.406 -6.981,3.147 -7.152,-0.343c-2.346,0 -5.951,-0.229 -8.468,0.057l0,0.286c0,6.123 5.206,9.899 12.873,9.613c4.406,0.057 8.468,-1.431 10.242,-5.15c1.43,-4.176 0.915,-6.751 -0.744,-9.498c-1.774,-2.288 -5.836,-3.089 -10.127,-3.719c-3.605,-1.258 -3.547,-5.263 -0.057,-5.893c1.945,-0.171 4.405,1.602 3.948,3.548c2.574,0.515 5.721,0.4 8.181,0Z" style="fill:#000;fill-rule:nonzero;"/><path d="M652.068,238.007c-2.461,-0.172 -4.291,-0.229 -5.607,-0.286c-0.458,0 -2.747,-0.115 -2.747,0.057c0,0.915 -0.286,1.716 -0.229,2.918c-1.087,-2.632 -3.089,-2.632 -5.836,-2.632c-5.378,0.172 -9.612,5.607 -9.612,13.217c0,6.122 2.518,15.334 8.411,15.334c2.689,0 5.721,-1.488 7.552,-3.319c0,0.744 -0.229,1.145 -0.229,2.003c0,0.629 0.172,1.087 0.687,1.259c0.858,0 1.602,-0.172 2.46,-0.172c1.202,0 2.518,0.172 3.719,0.172l0.687,0c0.915,-0.172 0.744,-1.374 0.744,-2.346c0.515,-8.182 -0.115,-16.021 0.114,-24.26l0,-0.572c0,-0.458 -0.057,-0.916 -0.114,-1.373ZM635.418,249.393c0.4,-1.888 2.174,-3.662 5.321,-3.662c3.147,0 2.975,0.629 2.975,5.95c0,4.292 0.229,6.923 -3.547,6.923c-3.204,0 -5.092,-2.746 -5.092,-6.179c0,-0.973 0.057,-2.06 0.343,-3.032Z" style="fill:#000;fill-rule:nonzero;"/><path d="M656.817,224.904c-1.373,13.847 0.743,27.807 -0.344,41.596c1.03,-0.286 7.324,0.515 8.068,-0.343c-0.458,-9.212 0.057,-31.698 0.057,-41.081l-7.781,-0.172Z" style="fill:#000;fill-rule:nonzero;"/><path d="M675.297,237.721c-2.46,0.057 -4.234,-0.058 -5.206,-0.115c-0.401,0 -1.316,-0.114 -1.602,-0.057l0,0.057c-0.916,8.983 0.4,19.225 -0.344,28.894c1.03,-0.286 7.324,0.515 8.068,-0.343c-0.515,-9.212 0,-19.053 0.057,-28.265l0,-0.171l-0.973,0ZM668.26,225.248c-0.057,3.49 0.229,5.664 0.229,7.895c2.975,-0.171 7.037,0.63 7.724,-0.4c0,-2.289 -0.172,-6.351 -0.172,-7.324l-7.781,-0.171Z" style="fill:#000;fill-rule:nonzero;"/><path d="M685.94,252.94c0,-0.744 -0.058,-1.488 0.114,-2.231c0.286,-1.774 1.144,-3.319 2.289,-4.635c1.773,-1.487 5.206,-1.43 6.179,0.973c0.744,2.918 0.744,6.179 0.744,9.212c-0.172,1.373 -0.344,3.032 -1.659,3.49c-2.003,0.629 -4.578,0.343 -5.951,-1.316c-1.144,-1.373 -1.716,-3.033 -1.716,-4.978l0,-0.515ZM695.838,277.943c1.888,-0.171 4.234,-0.686 6.351,-4.005c0.744,-1.201 0.458,-3.147 0.515,-4.977c0.458,-10.986 0.343,-21.456 0.057,-31.011c-2.575,0 -5.207,-0.229 -7.724,0.057c-0.401,0.686 0.286,3.032 -0.343,2.746c-0.916,-2.117 -3.204,-2.861 -5.665,-2.689c-9.784,0.629 -9.555,11.1 -9.555,18.252c0.172,2.346 0.515,4.634 1.602,6.694c1.373,2.861 4.52,3.605 7.438,3.605c2.175,-0.172 5.035,0.171 6.523,-1.488c-0.057,0.687 -0.057,1.373 0,2.003c0.057,0.629 -0.057,1.487 -0.115,2.231c-0.915,4.291 -6.808,3.49 -6.808,-0.515c-1.774,-0.286 -5.779,-0.572 -7.324,0.057c-0.171,1.202 0.286,3.662 0.916,4.806c1.773,2.575 4.634,4.234 8.239,4.234c3.147,0 5.149,0.172 5.893,0Z" style="fill:#000;fill-rule:nonzero;"/><path d="M714.319,240.982c-0.058,-1.087 0.057,-1.716 -0.115,-3.032c0,-0.515 -2.803,0.057 -3.433,0.057c-1.831,0.171 -2.174,0.171 -4.005,0c-0.286,10.07 0.057,19.282 0.057,28.665c3.662,-0.286 4.463,0.4 7.095,-0.343l0,-0.229c0.63,-5.035 -0.229,-10.07 0.057,-15.334c0.286,-4.12 4.177,-3.719 5.436,-3.09c0.057,0.057 0.172,0.057 0.229,0.115c1.201,0.915 1.259,3.661 1.43,5.55c0.286,4.119 -0.057,9.784 0.229,13.274c2.689,0 4.463,0.171 7.152,-0.229c-0.458,-7.896 1.202,-24.26 -1.202,-26.434c-3.146,-2.689 -8.353,-2.117 -11.5,0.172c-0.4,0.286 -1.03,0.629 -1.43,0.858Z" style="fill:#000;fill-rule:nonzero;"/><path d="M137.525,339.428c-0.229,4.52 -0.401,1.659 -0.172,12.416c-0.286,-1.373 -6.866,-2.289 -10.985,-0.744c-3.376,1.202 -4.635,6.294 -4.635,11.615c0.172,7.667 0.973,15.506 9.613,16.135c2.117,0.286 4.176,-0.172 5.321,-2.46c0.229,-0.458 0.4,-0.172 0.572,0.229c0,0.858 0.057,1.144 0.057,1.888c0,0.171 0,0.343 0.057,0.4c2.289,0.286 5.379,0.057 7.725,0.057c0.286,-10.985 -0.344,-23.687 -0.344,-36.446l0,-3.776c-2.517,-0.458 -7.209,-0.115 -7.209,0.057l0,0.629ZM128.657,360.999c0.4,-2.69 2.288,-4.063 5.435,-4.063c3.261,0 3.49,0.687 3.49,6.58c0,4.806 -0.229,8.296 -4.119,8.296c-3.262,0 -5.207,-3.661 -5.207,-7.495c0,-1.087 0,-2.231 0.401,-3.318Z" style="fill:#000;fill-rule:nonzero;"/><path d="M156.292,364.66c2.403,0.458 13.732,0 15.334,-0.457c0.457,-6.408 -0.572,-12.988 -7.667,-14.19c-5.436,-1.373 -12.13,0.286 -14.133,4.806c-0.915,2.518 -1.029,5.15 -1.258,7.953c-0.286,6.18 1.144,12.931 5.206,15.792c0.916,0.515 1.888,0.858 2.976,1.03c4.348,0 10.585,1.144 13.159,-2.518c1.087,-0.915 1.316,-5.035 1.602,-8.925c-1.659,-0.458 -5.664,0.057 -7.209,-0.115c0.286,6.18 -5.321,6.122 -7.152,2.575c-0.858,-1.373 -0.801,-2.632 -0.858,-4.921l0,-1.03ZM163.215,355.792c1.373,0.687 2.231,2.174 2.231,3.719c0,1.144 0.344,0.687 -3.604,0.687c-5.665,0 -5.665,0.343 -5.379,-1.259c0.287,-2.06 1.145,-3.719 4.749,-3.719c0.859,0 1.374,0.171 2.003,0.572Z" style="fill:#000;fill-rule:nonzero;"/><path d="M182.153,350.585c-2.46,-0.286 -5.206,0.115 -7.953,-0.171c2.461,8.983 4.406,19.224 5.951,28.779c2.918,0 7.781,0.344 10.756,-0.114c2.575,-9.612 3.948,-19.968 7.152,-28.608c-3.146,-0.172 -5.092,0.172 -7.666,0.172c-1.831,4.634 -2.804,14.99 -4.463,19.51c-1.66,-4.52 -2.689,-14.132 -3.777,-19.568Z" style="fill:#000;fill-rule:nonzero;"/><path d="M222.433,359.225c0,-4.12 -1.373,-7.667 -4.977,-9.212c-4.005,-0.915 -9.841,-0.915 -12.817,-0.114c-7.381,1.945 -8.468,12.759 0.115,15.677c4.234,1.831 9.44,0.973 8.983,4.749c0.171,4.405 -6.981,3.147 -7.152,-0.343c-2.346,0 -5.951,-0.229 -8.468,0.057l0,0.286c0,6.122 5.206,9.898 12.873,9.612c4.406,0.057 8.468,-1.43 10.242,-5.149c1.43,-4.177 0.915,-6.752 -0.744,-9.498c-1.774,-2.289 -5.836,-3.09 -10.127,-3.719c-3.605,-1.259 -3.548,-5.264 -0.057,-5.893c1.945,-0.172 4.405,1.602 3.948,3.547c2.574,0.515 5.721,0.4 8.181,0Z" style="fill:#000;fill-rule:nonzero;"/><path d="M250.126,371.126l0,-12.473c2.346,0.057 4.749,0.229 8.64,0.458c0.286,-2.976 0.286,-2.861 0.286,-4.521c0.057,-1.087 -0.115,-1.773 0.057,-2.631l-8.754,0c-0.401,-1.889 -0.115,-3.605 1.659,-3.891c2.174,-0.286 5.378,-0.858 7.152,-0.687c0.286,-2.117 0.801,-5.378 0,-7.724c-3.605,-0.172 -7.552,0 -10.757,1.087c-5.206,1.659 -6.179,7.324 -5.893,11.1c-1.201,-0.057 -2.517,-0.057 -4.119,-0.057l0.171,6.98c1.545,-0.057 2.861,-0.057 4.063,-0.057c0,3.319 -0.344,17.394 0.114,20.254c2.003,0.287 4.863,-0.457 7.381,-0.171l0,-7.667Z" style="fill:#000;fill-rule:nonzero;"/><path d="M262.942,352.931c-0.229,0.858 -0.858,2.518 -0.915,3.376c-0.229,1.43 -0.286,2.746 -0.286,4.119c0.457,4.978 -1.202,12.817 2.918,16.479c1.316,1.316 2.975,2.174 4.92,2.517c4.406,0 10.643,1.202 13.274,-2.517c1.488,-1.488 1.66,-8.983 1.831,-13.446c-0.171,-5.035 -0.171,-9.898 -2.346,-11.329c-1.602,-1.545 -3.89,-2.288 -6.35,-2.46c-1.603,-0.172 -2.918,0.114 -4.463,-0.057c-3.605,0 -7.496,0.972 -8.583,3.318ZM270.094,359.683c0.515,-0.63 1.145,-1.03 1.946,-1.259c2.975,-0.687 4.863,0.629 5.263,3.318c0.458,2.232 0.115,4.749 -0.171,7.21c-0.229,0.972 -0.687,1.602 -1.316,1.888c-2.003,1.087 -6.752,0.915 -6.58,-2.575c0.172,-2.689 0.057,-4.978 0.343,-7.438c0.115,-0.629 0.286,-0.973 0.515,-1.144Z" style="fill:#000;fill-rule:nonzero;"/><path d="M297.672,352.416c0,-1.03 -0.057,-0.686 -0.057,-1.945c0,-0.343 -3.09,0.057 -3.719,0.057c-1.831,0.172 -2.174,0.172 -4.005,0c-0.286,10.07 0.057,19.282 0.057,28.665c3.662,-0.286 5.035,0.401 7.667,-0.343l0,-0.229c0,-5.664 -0.057,-9.727 -0.229,-14.99c-0.171,-4.234 2.918,-4.406 6.981,-3.948c0.057,0 1.258,0.171 2.174,0.4c0.4,0.172 0.801,0.229 1.201,0.401l0.515,0.171c-0.171,-2.346 0,-4.863 0,-10.07c0,-0.229 -4.977,-0.171 -7.895,0.744c-1.088,0.401 -2.404,0.916 -2.69,1.087Z" style="fill:#000;fill-rule:nonzero;"/><path d="M316.725,365.461c0,-0.743 -0.057,-1.487 0.115,-2.231c0.286,-1.774 1.144,-3.318 2.288,-4.634c1.774,-1.488 5.207,-1.431 6.18,0.972c0.743,2.918 0.743,6.18 0.743,9.212c-0.171,1.373 -0.343,3.032 -1.659,3.49c-2.002,0.63 -4.577,0.343 -5.95,-1.316c-1.145,-1.373 -1.717,-3.032 -1.717,-4.978l0,-0.515ZM326.624,390.465c1.888,-0.172 4.234,-0.687 6.351,-4.005c0.743,-1.202 0.457,-3.147 0.515,-4.978c0.457,-10.986 0.343,-21.456 0.057,-31.011c-2.575,0 -5.207,-0.229 -7.724,0.057c-0.401,0.687 0.286,3.033 -0.344,2.746c-0.915,-2.117 -3.204,-2.86 -5.664,-2.689c-9.784,0.63 -9.555,11.1 -9.555,18.252c0.172,2.346 0.515,4.635 1.602,6.694c1.373,2.861 4.52,3.605 7.438,3.605c2.174,-0.172 5.035,0.172 6.523,-1.488c-0.058,0.687 -0.058,1.374 0,2.003c0.057,0.629 -0.058,1.488 -0.115,2.231c-0.915,4.292 -6.809,3.491 -6.809,-0.515c-1.773,-0.286 -5.778,-0.572 -7.323,0.058c-0.172,1.201 0.286,3.662 0.915,4.806c1.774,2.575 4.635,4.234 8.239,4.234c3.147,0 5.15,0.171 5.894,0Z" style="fill:#000;fill-rule:nonzero;"/><path d="M339.154,352.931c-0.229,0.858 -0.858,2.518 -0.916,3.376c-0.228,1.43 -0.286,2.746 -0.286,4.119c0.458,4.978 -1.201,12.817 2.918,16.479c1.316,1.316 2.976,2.174 4.921,2.517c4.406,0 10.642,1.202 13.274,-2.517c1.488,-1.488 1.659,-8.983 1.831,-13.446c-0.172,-5.035 -0.172,-9.898 -2.346,-11.329c-1.602,-1.545 -3.891,-2.288 -6.351,-2.46c-1.602,-0.172 -2.918,0.114 -4.463,-0.057c-3.604,0 -7.495,0.972 -8.582,3.318ZM346.306,359.683c0.515,-0.63 1.144,-1.03 1.945,-1.259c2.975,-0.687 4.864,0.629 5.264,3.318c0.458,2.232 0.115,4.749 -0.172,7.21c-0.228,0.972 -0.686,1.602 -1.316,1.888c-2.002,1.087 -6.751,0.915 -6.579,-2.575c0.171,-2.689 0.057,-4.978 0.343,-7.438c0.114,-0.629 0.286,-0.973 0.515,-1.144Z" style="fill:#000;fill-rule:nonzero;"/><path d="M375.314,339.886c-2.517,0.286 -5.378,-0.458 -7.38,-0.172c-0.287,2.861 -0.058,7.667 -0.058,10.986c-1.201,0 -2.517,0 -4.062,-0.057l-0.172,6.98c1.602,0 2.918,0 4.12,-0.057c-0.057,5.55 -0.057,10.527 0.915,16.421c1.946,4.634 9.613,5.321 15.677,5.035c0.802,-2.346 0.287,-5.608 0,-7.725c-2.574,0.172 -7.323,-0.171 -8.811,-2.288c-0.057,-3.433 -0.057,-7.438 -0.057,-11.558l8.868,0c-0.286,-2.06 0.744,-5.95 -0.343,-7.152c-3.89,0.229 -6.294,0.401 -8.639,0.458c0,-1.144 -0.058,-2.231 -0.058,-3.204l0,-7.667Z" style="fill:#000;fill-rule:nonzero;"/><path d="M421.202,350.528c-2.461,-0.172 -4.292,-0.229 -5.608,-0.286c-0.457,0 -2.746,-0.114 -2.746,0.057c0,0.916 -0.286,1.717 -0.229,2.918c-1.087,-2.632 -3.09,-2.632 -5.836,-2.632c-5.378,0.172 -9.612,5.607 -9.612,13.217c0,6.122 2.517,15.334 8.411,15.334c2.689,0 5.721,-1.488 7.552,-3.318c0,0.743 -0.229,1.144 -0.229,2.002c0,0.629 0.172,1.087 0.687,1.259c0.858,0 1.602,-0.172 2.46,-0.172c1.202,0 2.518,0.172 3.719,0.172l0.687,0c0.915,-0.172 0.744,-1.373 0.744,-2.346c0.514,-8.182 -0.115,-16.02 0.114,-24.26l0,-0.572c0,-0.457 -0.057,-0.915 -0.114,-1.373ZM404.552,361.914c0.4,-1.888 2.174,-3.662 5.321,-3.662c3.147,0 2.975,0.63 2.975,5.951c0,4.291 0.229,6.923 -3.547,6.923c-3.204,0 -5.093,-2.747 -5.093,-6.179c0,-0.973 0.058,-2.06 0.344,-3.033Z" style="fill:#000;fill-rule:nonzero;"/><path d="M433.102,338.799c0,-0.172 -4.691,-0.515 -7.209,-0.057l0,3.776c0,12.702 -0.629,25.461 -0.343,36.446c2.346,0 5.435,0.229 7.724,-0.057c0.057,-0.057 0.057,-0.229 0.057,-0.4c0,-0.744 0.058,-1.03 0.058,-1.888c0.171,-0.401 0.343,-0.687 0.572,-0.229c1.144,2.288 3.204,2.746 5.321,2.46c8.754,-0.629 9.326,-8.468 9.612,-16.135c0,-5.321 -1.259,-10.413 -4.634,-11.615c-4.12,-1.545 -10.7,-0.629 -10.986,0.744c0.229,-10.757 0.057,-7.896 -0.172,-12.416l0,-0.629ZM441.971,360.999c0.4,1.087 0.4,2.231 0.4,3.318c0,3.834 -1.945,7.495 -5.206,7.495c-3.891,0 -4.12,-3.49 -4.12,-8.296c0,-5.893 0.229,-6.58 3.49,-6.58c3.147,0 5.035,1.373 5.436,4.063Z" style="fill:#000;fill-rule:nonzero;"/><path d="M453.128,352.931c-0.229,0.858 -0.858,2.518 -0.915,3.376c-0.229,1.43 -0.287,2.746 -0.287,4.119c0.458,4.978 -1.201,12.817 2.918,16.479c1.316,1.316 2.976,2.174 4.921,2.517c4.406,0 10.642,1.202 13.274,-2.517c1.488,-1.488 1.659,-8.983 1.831,-13.446c-0.172,-5.035 -0.172,-9.898 -2.346,-11.329c-1.602,-1.545 -3.89,-2.288 -6.351,-2.46c-1.602,-0.172 -2.918,0.114 -4.463,-0.057c-3.604,0 -7.495,0.972 -8.582,3.318ZM460.28,359.683c0.515,-0.63 1.144,-1.03 1.945,-1.259c2.976,-0.687 4.864,0.629 5.264,3.318c0.458,2.232 0.115,4.749 -0.171,7.21c-0.229,0.972 -0.687,1.602 -1.316,1.888c-2.003,1.087 -6.752,0.915 -6.58,-2.575c0.171,-2.689 0.057,-4.978 0.343,-7.438c0.114,-0.629 0.286,-0.973 0.515,-1.144Z" style="fill:#000;fill-rule:nonzero;"/><path d="M493.065,375.932c0.057,1.087 -0.057,1.716 0.114,3.032c0,0.515 2.804,-0.057 3.433,-0.057c1.831,-0.171 2.174,-0.171 4.005,0c0.286,-10.07 -0.057,-19.282 -0.057,-28.665c-3.662,0.286 -4.463,-0.4 -7.095,0.343l0,0.229c-0.744,4.978 0.229,10.127 -0.057,15.334c-0.286,4.12 -4.177,3.719 -5.435,3.09c-0.058,-0.057 -0.172,-0.057 -0.229,-0.115c-1.202,-0.915 -1.259,-3.662 -1.431,-5.55c-0.286,-4.119 0.057,-9.784 -0.229,-13.274c-2.689,0 -4.462,-0.171 -7.152,0.229c0.458,7.896 -1.201,24.26 1.202,26.434c3.147,2.689 8.353,2.117 11.5,-0.172c0.401,-0.286 1.03,-0.629 1.431,-0.858Z" style="fill:#000;fill-rule:nonzero;"/><path d="M515.093,339.886c-2.518,0.286 -5.378,-0.458 -7.381,-0.172c-0.286,2.861 -0.057,7.667 -0.057,10.986c-1.202,0 -2.518,0 -4.063,-0.057l-0.171,6.98c1.602,0 2.918,0 4.119,-0.057c-0.057,5.55 -0.057,10.527 0.916,16.421c1.945,4.634 9.612,5.321 15.677,5.035c0.801,-2.346 0.286,-5.608 0,-7.725c-2.575,0.172 -7.324,-0.171 -8.811,-2.288c-0.057,-3.433 -0.057,-7.438 -0.057,-11.558l8.868,0c-0.286,-2.06 0.744,-5.95 -0.343,-7.152c-3.891,0.229 -6.294,0.401 -8.64,0.458c0,-1.144 -0.057,-2.231 -0.057,-3.204l0,-7.667Z" style="fill:#000;fill-rule:nonzero;"/><path d="M548.793,353.503c-0.057,-1.087 0.057,-1.716 -0.114,-3.032c0,-0.515 -2.804,0.057 -3.433,0.057c-1.831,0.172 -2.175,0.172 -4.005,0c-0.287,10.07 0.057,19.282 0.057,28.665c3.662,-0.286 4.463,0.401 7.095,-0.343l0,-0.229c0.629,-5.035 -0.229,-10.07 0.057,-15.334c0.286,-4.119 4.176,-3.719 5.435,-3.089c0.057,0.057 0.172,0.057 0.229,0.114c1.202,0.915 1.259,3.662 1.431,5.55c0.286,4.12 -0.058,9.784 0.228,13.274c2.69,0 4.463,0.172 7.152,-0.229c-0.286,-4.634 0.286,-12.358 0.115,-18.309c1.43,-1.087 3.318,-0.858 4.291,-0.4c0.057,0.057 0.172,0.057 0.229,0.114c1.201,0.915 1.259,3.662 1.43,5.55c0.286,4.12 -0.057,9.784 0.229,13.274c2.689,0 4.463,0.172 7.152,-0.229c-0.458,-7.896 1.202,-24.259 -1.201,-26.434c-3.147,-2.689 -8.354,-2.117 -11.501,0.172c-0.4,0.286 -0.973,0.572 -1.373,0.801c-0.172,-0.458 -0.401,-0.801 -0.572,-0.973c-3.147,-2.689 -8.354,-2.117 -11.501,0.172c-0.4,0.286 -1.029,0.629 -1.43,0.858Z" style="fill:#000;fill-rule:nonzero;"/><path d="M588.215,364.66c2.403,0.458 13.732,0 15.334,-0.457c0.457,-6.408 -0.572,-12.988 -7.667,-14.19c-5.436,-1.373 -12.13,0.286 -14.133,4.806c-0.915,2.518 -1.029,5.15 -1.258,7.953c-0.286,6.18 1.144,12.931 5.206,15.792c0.916,0.515 1.888,0.858 2.976,1.03c4.348,0 10.584,1.144 13.159,-2.518c1.087,-0.915 1.316,-5.035 1.602,-8.925c-1.659,-0.458 -5.664,0.057 -7.209,-0.115c0.286,6.18 -5.321,6.122 -7.152,2.575c-0.858,-1.373 -0.801,-2.632 -0.858,-4.921l0,-1.03ZM595.138,355.792c1.373,0.687 2.231,2.174 2.231,3.719c0,1.144 0.344,0.687 -3.604,0.687c-5.665,0 -5.665,0.343 -5.379,-1.259c0.287,-2.06 1.145,-3.719 4.749,-3.719c0.859,0 1.374,0.171 2.003,0.572Z" style="fill:#000;fill-rule:nonzero;"/></svg>