<?xml version="1.0" standalone="no"?>
<!DOCTYPE svg PUBLIC "-//W3C//DTD SVG 1.1//EN" "http://www.w3.org/Graphics/SVG/1.1/DTD/svg11.dtd">
<svg width="100%" height="100%" viewBox="0 0 1027 1426" version="1.1" xmlns="http://www.w3.org/2000/svg" xmlns:xlink="http://www.w3.org/1999/xlink" xml:space="preserve" style="fill-rule:evenodd;clip-rule:evenodd;stroke-linecap:round;stroke-linejoin:round;stroke-miterlimit:1.41421;">
    <g id="Layer1">
        <path d="M63.432,768.836C63.432,768.836 19.187,741.708 17.339,813.884C15.438,888.163 3.645,902.07 45.619,949.633C70.397,977.712 67.92,1004.24 67.92,1004.24C67.92,1004.24 64.599,1062.53 110.846,1031.7" style="fill:rgb(254,207,168);stroke-width:18.75px;stroke:rgb(38,0,0);"/>
        <path d="M932.058,760.298C932.058,760.298 977.287,738.921 982.063,813.081C986.839,887.242 992.548,901.267 951.827,948.83C927.788,976.909 932.992,1003.44 932.992,1003.44C932.992,1003.44 929.55,1058.35 884.683,1027.53" style="fill:rgb(236,185,153);stroke-width:18.75px;stroke:rgb(38,0,0);"/>
        <path d="M87.512,915.125C87.512,915.125 49.108,867.67 62.728,723.902C63.055,720.455 63.599,717.034 63.641,713.608C64.942,608.093 50.937,463 50.937,463C50.937,463 77.444,350.28 111.969,338.45C138.095,329.498 86.763,306.593 86.763,306.593L126.116,293.499L122.105,196.643L169.017,247.113C169.017,247.113 324.275,50.959 604.6,50.197C612.327,50.175 620.148,50.303 628.064,50.587L628.075,50.916L598.434,88.55L597.993,89.023L689.322,92.045L673.661,120.8L728.667,122.315L712.025,147.06L797.828,162.195L781.712,182.394C781.712,182.394 934.355,298.683 954.028,428.831L955.452,430.008L1007.76,487.679L1008.44,488.622L980.67,499.219L997.312,523.963L955.4,532.201L929.212,745.13C929.212,745.13 937.306,879.823 908.551,914.631L887.643,957.086C887.643,957.086 916.281,888.762 913.315,835.789C910.348,782.816 884.121,741.916 887.095,737.378C890.069,732.841 894.703,640.451 884.301,569.32C873.899,498.19 853.8,431.955 853.8,431.955C853.8,431.955 701.013,305.156 500.484,300.611C296.175,305.157 146.989,436.812 146.989,436.812C146.989,436.812 120.032,498.19 109.435,569.32C98.837,640.451 103.558,732.84 106.588,737.378C109.618,741.916 82.896,782.816 79.874,835.789C76.852,888.762 106.03,957.086 106.03,957.086" style="fill:rgb(148,93,64);"/>
        <path d="M853.8,431.956C853.8,431.956 873.899,498.19 884.301,569.321C894.703,640.451 890.069,732.841 887.095,737.379C884.121,741.916 910.348,782.816 913.315,835.789C916.281,888.762 887.643,957.086 887.643,957.086L908.551,914.631C937.306,879.824 929.212,745.13 929.212,745.13L955.399,532.201L997.312,523.964L980.67,499.22L1008.44,488.622L1007.76,487.679L955.452,430.008L954.028,428.831C934.355,298.683 781.712,182.394 781.712,182.394L788.31,173.401L781.043,172.7C781.043,172.7 691.209,233.095 684.479,255.661C675.402,286.098 682.555,335.339 682.555,335.339" style="fill:rgb(131,83,58);"/>
        <path d="M496.632,1409.35C496.632,1409.35 418.389,1410.86 389.633,1391.18C360.878,1371.51 131.227,1185.61 119.122,1123.56C107.017,1061.51 106.028,957.09 106.028,957.09C106.028,957.09 76.851,888.766 79.873,835.793C82.895,782.82 109.617,741.92 106.587,737.382C103.556,732.845 98.836,640.455 109.433,569.324C120.031,498.194 146.988,436.816 146.988,436.816C146.988,436.816 296.175,305.16 500.483,300.615C701.013,305.161 853.799,431.959 853.799,431.959C853.799,431.959 873.898,498.193 884.3,569.324C894.701,640.455 890.068,732.844 887.094,737.382C884.12,741.92 910.347,782.82 913.313,835.793C916.28,888.766 887.642,957.09 887.642,957.09C887.642,957.09 886.671,1061.51 874.79,1123.56C862.909,1185.61 637.506,1371.51 609.282,1391.18C581.059,1410.86 504.262,1409.35 504.262,1409.35" style="fill:rgb(255,215,181);"/>
        <path d="M597.756,1391.4C597.756,1391.4 719.092,1137.41 722.173,1017.99C727.12,826.203 678.043,342.575 678.043,342.575C678.043,342.575 681.598,314.096 764.007,371.876C788.743,389.22 814.306,403.759 853.8,431.954C883.547,453.189 873.899,498.188 884.301,569.319C894.703,640.449 890.07,732.839 887.095,737.377C884.121,741.914 910.349,782.814 913.315,835.787C916.281,888.76 887.643,957.084 887.643,957.084C887.643,957.084 886.673,1061.51 874.792,1123.56C862.911,1185.6 637.508,1371.51 609.284,1391.18" style="fill:rgb(215,152,120);fill-opacity:0.47451;"/>
        <path d="M87.512,915.125C87.512,915.125 49.108,867.67 62.728,723.902C63.055,720.455 63.599,717.034 63.641,713.608C64.942,608.093 50.937,463 50.937,463C50.937,463 77.444,350.28 111.969,338.45C138.095,329.498 86.763,306.593 86.763,306.593L126.116,293.499L122.105,196.643L169.017,247.113C169.017,247.113 324.275,50.959 604.6,50.197C612.327,50.175 620.148,50.303 628.064,50.587L628.075,50.916L598.434,88.55L597.993,89.023L689.322,92.045L673.661,120.8L728.667,122.315L712.025,147.06L797.828,162.195L781.712,182.394C781.712,182.394 934.355,298.683 954.028,428.831L955.452,430.008L1007.76,487.679L1008.44,488.622L980.67,499.219L997.312,523.963L955.4,532.201L929.212,745.13C929.212,745.13 937.306,879.823 908.551,914.631" style="fill:none;stroke-width:18.75px;stroke:rgb(38,0,0);"/>
        <path d="M499.411,1409.35C499.411,1409.35 418.389,1410.86 389.634,1391.18C360.879,1371.51 131.228,1185.61 119.123,1123.56C107.018,1061.51 106.029,957.09 106.029,957.09C106.029,957.09 76.851,888.766 79.874,835.793C82.896,782.82 109.618,741.92 106.587,737.382C103.557,732.845 98.837,640.455 109.434,569.324C120.032,498.194 146.989,436.816 146.989,436.816C146.989,436.816 296.176,305.16 500.484,300.615C701.014,305.161 853.8,431.959 853.8,431.959C853.8,431.959 873.899,498.193 884.301,569.324C894.702,640.455 890.069,732.844 887.095,737.382C884.121,741.92 910.348,782.82 913.314,835.793C916.281,888.766 887.643,957.09 887.643,957.09C887.643,957.09 886.672,1061.51 874.791,1123.56C862.91,1185.61 637.507,1371.51 609.283,1391.18C581.06,1410.86 499.41,1409.35 499.41,1409.35L499.411,1409.35Z" style="fill:none;stroke-width:18.75px;stroke:rgb(38,0,0);"/>
    </g>
</svg>
