<?xml version="1.0" standalone="no"?>
<!DOCTYPE svg PUBLIC "-//W3C//DTD SVG 1.1//EN" "http://www.w3.org/Graphics/SVG/1.1/DTD/svg11.dtd">
<svg width="100%" height="100%" viewBox="0 0 770 1044" version="1.1" xmlns="http://www.w3.org/2000/svg" xmlns:xlink="http://www.w3.org/1999/xlink" xml:space="preserve" style="fill-rule:evenodd;clip-rule:evenodd;stroke-linecap:round;stroke-linejoin:round;stroke-miterlimit:1.41421;">
    <g transform="matrix(0.75,0,0,0.75,-0,-0)">
        <g id="Layer1" transform="matrix(1,0,0,1,1.86083,-33.9563)">
            <g transform="matrix(1,0,0,1,66.1817,-78.9049)">
                <path d="M58.345,764.593C58.345,764.593 19.187,741.708 17.339,813.884C15.438,888.163 67.92,1004.24 67.92,1004.24C67.92,1004.24 90.899,1052.35 93.027,1009.65" style="fill:rgb(242,187,166);stroke-width:18.75px;stroke:rgb(38,0,0);"/>
            </g>
            <g transform="matrix(1,0,0,1,-44.9646,-63.6335)">
                <path d="M937.995,763.691C937.995,763.691 977.287,738.921 982.063,813.081C986.839,887.242 932.992,1003.44 932.992,1003.44C932.992,1003.44 910.885,1029.5 911.832,996.98" style="fill:rgb(242,187,166);stroke-width:18.75px;stroke:rgb(38,0,0);"/>
            </g>
            <path d="M155.388,872.704C155.388,872.704 124.684,698.37 124.727,694.943C126.027,589.428 117.959,554.632 117.959,554.632C110.328,480.975 112.118,383.575 128.659,325.74L145.542,287.283L174.898,255.402C174.898,255.402 243.899,154.783 381.298,109.584C414.297,98.729 449.645,92.782 490.769,96.054C501.86,96.936 592.632,100.579 635.067,111.461C680.506,123.114 728.995,147.909 728.995,147.909L781.712,182.394C781.712,182.394 894.478,244.379 906.515,374.527L912.186,432.551L912.129,536.443L886.791,740.887C890.679,733.329 888.646,793.373 868.674,869.662" style="fill:rgb(85,63,62);stroke-width:18.75px;stroke:rgb(38,0,0);"/>
            <g transform="matrix(0.916564,0,0,1,56.707,7.10543e-15)">
                <path d="M499.411,1409.35C499.411,1409.35 418.389,1410.86 389.634,1391.18C360.879,1371.51 197.619,1189.16 173.741,1130.05C148.677,1068 116.213,957.09 116.213,957.09C116.213,957.09 102.77,894.703 105.793,841.729C108.815,788.756 110.54,749.555 107.509,745.018C104.479,740.481 98.837,640.455 109.434,569.324C116.066,524.816 133.814,455.888 146.17,410.528C153.56,383.397 183.087,308.7 183.087,308.7C183.087,308.7 195.069,349.05 257.732,333.186C270.471,329.961 236.547,402.84 248.263,393.184C269.79,375.442 351.197,297.767 384.312,303.602C393.1,305.15 376.305,309.031 385.57,308.063C392.441,307.345 363.32,372.857 370.41,372.252C382.765,371.196 455.617,302.445 468.609,301.783C479.039,301.251 489.667,300.856 500.484,300.615C701.014,305.161 744.568,305.537 744.568,305.537C766.563,212.378 870.692,453.322 869.497,573.567C868.783,645.45 890.069,732.844 887.095,737.382C884.121,741.92 884.429,784.514 887.396,837.487C890.362,890.46 879.312,958.788 879.312,958.788C879.312,958.788 853.344,1063.22 831.284,1121.87C808.883,1181.42 637.507,1371.51 609.283,1391.18C581.06,1410.86 499.41,1409.35 499.41,1409.35L499.411,1409.35Z" style="fill:rgb(242,187,166);stroke-width:18.75px;stroke:rgb(38,0,0);"/>
            </g>
            <g transform="matrix(0.877169,0,0,1,70.6748,-2.54373)">
                <path d="M596.057,1407.52C596.057,1407.52 719.092,1137.41 722.173,1017.99C727.12,826.203 720.599,365.482 720.599,365.482C720.599,365.482 696.484,295.689 672.822,302.254C659.002,306.088 695.9,302.316 720.737,310.787C759.871,324.134 766.9,290.17 783.667,290.269C820.215,290.485 885.778,492.251 896.179,563.382C906.581,634.512 912.977,717.567 910.002,722.105C907.028,726.643 910.349,782.814 913.315,835.787C916.281,888.76 905.458,957.933 905.458,957.933C905.458,957.933 890.26,1060.73 869.7,1121.01C849.114,1181.37 668.438,1357.09 640.214,1376.76" style="fill:rgb(195,150,133);fill-opacity:0.47451;"/>
            </g>
            <g transform="matrix(0.916564,0,0,1,56.707,7.10543e-15)">
                <path d="M499.411,1409.35C499.411,1409.35 418.389,1410.86 389.634,1391.18C360.879,1371.51 197.619,1189.16 173.741,1130.05C148.677,1068 116.213,957.09 116.213,957.09C116.213,957.09 102.77,894.703 105.793,841.729C108.815,788.756 110.54,749.555 107.509,745.018C104.479,740.481 98.837,640.455 109.434,569.324C116.066,524.816 133.814,455.888 146.17,410.528C153.56,383.397 183.087,308.7 183.087,308.7C183.087,308.7 195.069,349.05 257.732,333.186C270.471,329.961 236.547,402.84 248.263,393.184C269.79,375.442 351.197,297.767 384.312,303.602C393.1,305.15 376.305,309.031 385.57,308.063C392.441,307.345 363.32,372.857 370.41,372.252C382.765,371.196 455.617,302.445 468.609,301.783C479.039,301.251 489.667,300.856 500.484,300.615C701.014,305.161 744.568,305.537 744.568,305.537C766.563,212.378 870.692,453.322 869.497,573.567C868.783,645.45 882.66,698.904 883.388,711.078C883.704,716.363 884.429,784.514 887.396,837.487C890.362,890.46 879.312,958.788 879.312,958.788C879.312,958.788 853.344,1063.22 831.284,1121.87C808.883,1181.42 637.507,1371.51 609.283,1391.18C581.06,1410.86 499.41,1409.35 499.41,1409.35L499.411,1409.35Z" style="fill:none;stroke-width:18.75px;stroke:rgb(38,0,0);"/>
            </g>
            <g transform="matrix(1,0,0,1,-1.86083,33.9563)">
                <path d="M876.445,736.213C876.445,736.213 826.448,1026.42 740.143,1053.53C668.32,1076.08 592.047,967.613 584.747,976.044L517.421,1002.64L446.697,974.644C438.35,991.042 391.868,1024.99 286.053,1079C249.366,1097.72 152.849,800.414 153.698,693.511C154.548,586.607 152.889,814.523 152.889,814.523C158.035,909.978 178.057,1004.32 215.673,1097.35C269.168,1189.13 338.113,1276.77 419.592,1359.52C481.91,1377.15 547.294,1377.92 616.47,1357.82C691.328,1280.54 757.75,1198.71 812.579,1110.63C837.561,1032.39 857.708,946.334 871.12,870.776C867.986,795.035 868.859,762.131 887.368,695.448L876.445,736.213Z" style="fill:rgb(85,63,62);stroke-width:17.99px;stroke:rgb(38,0,0);"/>
            </g>
            <g transform="matrix(1,0,0,0.990704,21.8956,48.0636)">
                <path d="M350.603,1104.39C366.326,1118.29 385.278,1132.37 423.651,1147.48C443.772,1155.4 467,1141.41 489.73,1147.78C509.863,1142.49 537.361,1158.97 556.283,1149.77C590.884,1132.94 617.25,1109.86 637.182,1081.9L561.889,1061.24L493.043,1067.77L450.613,1065.74C409.898,1059.27 370.849,1069.89 350.603,1104.39Z" style="fill:rgb(242,187,166);stroke-width:18.07px;stroke:rgb(38,0,0);"/>
            </g>
        </g>
    </g>
</svg>
