<?xml version="1.0" standalone="no"?>
<!DOCTYPE svg PUBLIC "-//W3C//DTD SVG 1.1//EN" "http://www.w3.org/Graphics/SVG/1.1/DTD/svg11.dtd">
<svg width="100%" height="100%" viewBox="0 0 370 496" version="1.1" xmlns="http://www.w3.org/2000/svg" xmlns:xlink="http://www.w3.org/1999/xlink" xml:space="preserve" style="fill-rule:evenodd;clip-rule:evenodd;stroke-linecap:round;stroke-linejoin:round;stroke-miterlimit:1.41421;">
    <g transform="matrix(0.75,0,0,0.75,-0,-0)">
        <g transform="matrix(1,0,0,1,-52.9849,-17.0163)">
            <path d="M151.24,333.346C151.24,333.346 57.745,286.667 58.183,211.604C58.62,136.54 245.209,-63.723 383.919,63.573C522.629,190.868 606.907,227.586 473.466,333.376" style="fill:white;"/>
        </g>
        <g transform="matrix(1,0,0,1,-57.4123,-13.7954)">
            <path d="M151.24,333.346C151.24,333.346 57.745,286.667 58.183,211.604C58.62,136.54 245.209,-63.723 383.919,63.573C522.629,190.868 606.907,227.586 473.466,333.376" style="fill:rgb(49,168,184);"/>
        </g>
        <g transform="matrix(1,0,0,1,-52.9849,-17.0163)">
            <path d="M151.24,333.346C151.24,333.346 57.745,286.667 58.183,211.604C58.62,136.54 245.209,-63.723 383.919,63.573C522.629,190.868 606.907,227.586 473.466,333.376" style="fill:none;stroke-width:6px;stroke:black;"/>
        </g>
        <g transform="matrix(-0.458428,1.92461e-16,-1.47442e-16,-0.598403,599.627,707.516)">
            <path d="M749.822,89.41L1119.86,652.593L379.781,652.593L749.822,89.41Z" style="fill:white;"/>
        </g>
        <g transform="matrix(-0.45839,-0.00584483,0.00762948,-0.598354,589.523,713.49)">
            <path d="M749.822,89.41L1119.86,652.593L379.781,652.593L749.822,89.41Z" style="fill:rgb(244,189,64);"/>
        </g>
        <g transform="matrix(-0.458428,1.92461e-16,-1.47442e-16,-0.598403,599.627,707.516)">
            <path d="M749.822,89.41L1119.86,652.593L379.781,652.593L749.822,89.41Z" style="fill:none;stroke-width:13.13px;stroke:black;"/>
        </g>
        <g transform="matrix(-0.458428,1.92461e-16,-1.47442e-16,-0.598403,545.095,704.101)">
            <path d="M532.14,234.358L728.353,234.358" style="fill:none;stroke-width:13.13px;stroke:black;"/>
        </g>
        <g transform="matrix(-1.03172,4.33145e-16,-1.47442e-16,-0.598403,905.907,592.465)">
            <path d="M532.14,234.358L728.353,234.358" style="fill:none;stroke-width:8.3px;stroke:black;"/>
        </g>
        <g transform="matrix(2.30941,0,0,3.01157,-1154.42,-159.232)">
            <path d="M589.166,182.396C589.67,182.492 592.046,182.396 592.382,182.3C592.478,180.956 592.262,179.576 590.774,179.324C589.634,179.036 588.23,179.384 587.81,180.332C587.618,180.86 587.594,181.412 587.546,182C587.486,183.296 587.786,184.712 588.638,185.312C588.83,185.42 589.034,185.492 589.262,185.528C590.174,185.528 591.482,185.768 592.022,185C592.25,184.808 592.298,183.944 592.358,183.128C592.01,183.032 591.17,183.14 590.846,183.104C590.906,184.4 589.73,184.388 589.346,183.644C589.166,183.356 589.178,183.092 589.166,182.612L589.166,182.396ZM590.618,180.536C590.906,180.68 591.086,180.992 591.086,181.316C591.086,181.556 591.158,181.46 590.33,181.46C589.142,181.46 589.142,181.532 589.202,181.196C589.262,180.764 589.442,180.416 590.198,180.416C590.378,180.416 590.486,180.452 590.618,180.536Z" style="fill:black;fill-rule:nonzero;"/>
            <path d="M598.214,185.36C598.25,185.36 598.262,185.36 598.262,185.348C598.214,185.168 598.238,185 598.238,184.82C598.25,184.424 598.286,183.992 598.154,183.668C597.11,183.668 596.258,183.728 595.19,183.692C595.058,183.632 595.262,183.152 595.322,182.996C596.186,181.94 598.274,181.952 598.418,180.176C598.43,179.852 598.406,179.432 598.394,179.096C598.31,178.232 597.938,177.464 597.218,177.092C596.354,176.744 594.422,176.768 593.786,177.596C593.198,178.256 592.994,179.264 593.186,180.368L593.186,180.392L593.198,180.392C593.738,180.452 594.254,180.416 594.974,180.332L594.986,180.332L594.986,180.308C595.022,179.732 595.094,178.856 595.874,178.856C596.618,178.952 596.726,180.152 596.078,180.572C595.25,181.244 594.29,181.544 593.522,182.408C593.006,183.248 593.198,184.304 593.102,185.384C593.102,185.396 593.102,185.408 593.114,185.42L593.654,185.42L598.214,185.36Z" style="fill:black;fill-rule:nonzero;"/>
            <path d="M600.65,182.396C601.154,182.492 603.53,182.396 603.866,182.3C603.962,180.956 603.746,179.576 602.258,179.324C601.118,179.036 599.714,179.384 599.294,180.332C599.102,180.86 599.078,181.412 599.03,182C598.97,183.296 599.27,184.712 600.122,185.312C600.314,185.42 600.518,185.492 600.746,185.528C601.658,185.528 602.966,185.768 603.506,185C603.734,184.808 603.782,183.944 603.842,183.128C603.494,183.032 602.654,183.14 602.33,183.104C602.39,184.4 601.214,184.388 600.83,183.644C600.65,183.356 600.662,183.092 600.65,182.612L600.65,182.396ZM602.102,180.536C602.39,180.68 602.57,180.992 602.57,181.316C602.57,181.556 602.642,181.46 601.814,181.46C600.626,181.46 600.626,181.532 600.686,181.196C600.746,180.764 600.926,180.416 601.682,180.416C601.862,180.416 601.97,180.452 602.102,180.536Z" style="fill:black;fill-rule:nonzero;"/>
            <path d="M609.674,177.2C609.146,177.26 608.546,177.104 608.126,177.164C608.066,177.764 608.114,178.772 608.114,179.468C607.862,179.468 607.586,179.468 607.262,179.456L607.226,180.92C607.562,180.92 607.838,180.92 608.09,180.908C608.078,182.072 608.078,183.116 608.282,184.352C608.69,185.324 610.298,185.468 611.57,185.408C611.738,184.916 611.63,184.232 611.57,183.788C611.03,183.824 610.034,183.752 609.722,183.308C609.71,182.588 609.71,181.748 609.71,180.884L611.57,180.884C611.51,180.452 611.726,179.636 611.498,179.384C610.682,179.432 610.178,179.468 609.686,179.48C609.686,179.24 609.674,179.012 609.674,178.808L609.674,177.2Z" style="fill:black;fill-rule:nonzero;"/>
            <path d="M613.802,182.396C614.306,182.492 616.682,182.396 617.018,182.3C617.114,180.956 616.898,179.576 615.41,179.324C614.27,179.036 612.866,179.384 612.446,180.332C612.254,180.86 612.23,181.412 612.182,182C612.122,183.296 612.422,184.712 613.274,185.312C613.466,185.42 613.67,185.492 613.898,185.528C614.81,185.528 616.118,185.768 616.658,185C616.886,184.808 616.934,183.944 616.994,183.128C616.646,183.032 615.806,183.14 615.482,183.104C615.542,184.4 614.366,184.388 613.982,183.644C613.802,183.356 613.814,183.092 613.802,182.612L613.802,182.396ZM615.254,180.536C615.542,180.68 615.722,180.992 615.722,181.316C615.722,181.556 615.794,181.46 614.966,181.46C613.778,181.46 613.778,181.532 613.838,181.196C613.898,180.764 614.078,180.416 614.834,180.416C615.014,180.416 615.122,180.452 615.254,180.536Z" style="fill:black;fill-rule:nonzero;"/>
            <path d="M622.538,181.256C622.538,180.392 622.25,179.648 621.494,179.324C620.654,179.132 619.43,179.132 618.806,179.3C617.258,179.708 617.03,181.976 618.83,182.588C619.718,182.972 620.81,182.792 620.714,183.584C620.75,184.508 619.25,184.244 619.214,183.512C618.722,183.512 617.966,183.464 617.438,183.524L617.438,183.584C617.438,184.868 618.53,185.66 620.138,185.6C621.062,185.612 621.914,185.3 622.286,184.52C622.586,183.644 622.478,183.104 622.13,182.528C621.758,182.048 620.906,181.88 620.006,181.748C619.25,181.484 619.262,180.644 619.994,180.512C620.402,180.476 620.918,180.848 620.822,181.256C621.362,181.364 622.022,181.34 622.538,181.256Z" style="fill:black;fill-rule:nonzero;"/>
            <path d="M625.478,177.2C624.95,177.26 624.35,177.104 623.93,177.164C623.87,177.764 623.918,178.772 623.918,179.468C623.666,179.468 623.39,179.468 623.066,179.456L623.03,180.92C623.366,180.92 623.642,180.92 623.894,180.908C623.882,182.072 623.882,183.116 624.086,184.352C624.494,185.324 626.102,185.468 627.374,185.408C627.542,184.916 627.434,184.232 627.374,183.788C626.834,183.824 625.838,183.752 625.526,183.308C625.514,182.588 625.514,181.748 625.514,180.884L627.374,180.884C627.314,180.452 627.53,179.636 627.302,179.384C626.486,179.432 625.982,179.468 625.49,179.48C625.49,179.24 625.478,179.012 625.478,178.808L625.478,177.2Z" style="fill:black;fill-rule:nonzero;"/>
            <path d="M633.17,181.256C633.17,180.392 632.882,179.648 632.126,179.324C631.286,179.132 630.062,179.132 629.438,179.3C627.89,179.708 627.662,181.976 629.462,182.588C630.35,182.972 631.442,182.792 631.346,183.584C631.382,184.508 629.882,184.244 629.846,183.512C629.354,183.512 628.598,183.464 628.07,183.524L628.07,183.584C628.07,184.868 629.162,185.66 630.77,185.6C631.694,185.612 632.546,185.3 632.918,184.52C633.218,183.644 633.11,183.104 632.762,182.528C632.39,182.048 631.538,181.88 630.638,181.748C629.882,181.484 629.894,180.644 630.626,180.512C631.034,180.476 631.55,180.848 631.454,181.256C631.994,181.364 632.654,181.34 633.17,181.256Z" style="fill:black;fill-rule:nonzero;"/>
        </g>
        <g transform="matrix(2.30941,0,0,3.01157,-1154.42,-44.7912)">
            <path d="M586.196,179.372C585.68,179.384 585.308,179.36 585.104,179.348C585.02,179.348 584.828,179.324 584.768,179.336L584.768,179.348C584.576,181.232 584.852,183.38 584.696,185.408C584.912,185.348 586.232,185.516 586.388,185.336C586.28,183.404 586.388,181.34 586.4,179.408L586.4,179.372L586.196,179.372ZM584.72,176.756C584.708,177.488 584.768,177.944 584.768,178.412C585.392,178.376 586.244,178.544 586.388,178.328C586.388,177.848 586.352,176.996 586.352,176.792L584.72,176.756Z" style="fill:black;fill-rule:nonzero;"/>
            <path d="M588.74,180.056C588.728,179.828 588.752,179.696 588.716,179.42C588.716,179.312 588.128,179.432 587.996,179.432C587.612,179.468 587.54,179.468 587.156,179.432C587.096,181.544 587.168,183.476 587.168,185.444C587.936,185.384 588.104,185.528 588.656,185.372L588.656,185.324C588.788,184.268 588.608,183.212 588.668,182.108C588.728,181.244 589.544,181.328 589.808,181.46C589.82,181.472 589.844,181.472 589.856,181.484C590.108,181.676 590.12,182.252 590.156,182.648C590.216,183.512 590.144,184.7 590.204,185.432C590.768,185.432 591.14,185.468 591.704,185.384C591.608,183.728 591.956,180.296 591.452,179.84C590.792,179.276 589.7,179.396 589.04,179.876C588.956,179.936 588.824,180.008 588.74,180.056Z" style="fill:black;fill-rule:nonzero;"/>
            <path d="M594.86,177.2C594.332,177.26 593.732,177.104 593.312,177.164C593.252,177.764 593.3,178.772 593.3,179.468C593.048,179.468 592.772,179.468 592.448,179.456L592.412,180.92C592.748,180.92 593.024,180.92 593.276,180.908C593.264,182.072 593.264,183.116 593.468,184.352C593.876,185.324 595.484,185.468 596.756,185.408C596.924,184.916 596.816,184.232 596.756,183.788C596.216,183.824 595.22,183.752 594.908,183.308C594.896,182.588 594.896,181.748 594.896,180.884L596.756,180.884C596.696,180.452 596.912,179.636 596.684,179.384C595.868,179.432 595.364,179.468 594.872,179.48C594.872,179.24 594.86,179.012 594.86,178.808L594.86,177.2Z" style="fill:black;fill-rule:nonzero;"/>
            <path d="M598.988,182.396C599.492,182.492 601.868,182.396 602.204,182.3C602.3,180.956 602.084,179.576 600.596,179.324C599.456,179.036 598.052,179.384 597.632,180.332C597.44,180.86 597.416,181.412 597.368,182C597.308,183.296 597.608,184.712 598.46,185.312C598.652,185.42 598.856,185.492 599.084,185.528C599.996,185.528 601.304,185.768 601.844,185C602.072,184.808 602.12,183.944 602.18,183.128C601.832,183.032 600.992,183.14 600.668,183.104C600.728,184.4 599.552,184.388 599.168,183.644C598.988,183.356 599,183.092 598.988,182.612L598.988,182.396ZM600.44,180.536C600.728,180.68 600.908,180.992 600.908,181.316C600.908,181.556 600.98,181.46 600.152,181.46C598.964,181.46 598.964,181.532 599.024,181.196C599.084,180.764 599.264,180.416 600.02,180.416C600.2,180.416 600.308,180.452 600.44,180.536Z" style="fill:black;fill-rule:nonzero;"/>
            <path d="M604.22,182.564C604.22,182.408 604.208,182.252 604.244,182.096C604.304,181.724 604.484,181.4 604.724,181.124C605.096,180.812 605.816,180.824 606.02,181.328C606.176,181.94 606.176,182.624 606.176,183.26C606.14,183.548 606.104,183.896 605.828,183.992C605.408,184.124 604.868,184.064 604.58,183.716C604.34,183.428 604.22,183.08 604.22,182.672L604.22,182.564ZM606.296,187.808C606.692,187.772 607.184,187.664 607.628,186.968C607.784,186.716 607.724,186.308 607.736,185.924C607.832,183.62 607.808,181.424 607.748,179.42C607.208,179.42 606.656,179.372 606.128,179.432C606.044,179.576 606.188,180.068 606.056,180.008C605.864,179.564 605.384,179.408 604.868,179.444C602.816,179.576 602.864,181.772 602.864,183.272C602.9,183.764 602.972,184.244 603.2,184.676C603.488,185.276 604.148,185.432 604.76,185.432C605.216,185.396 605.816,185.468 606.128,185.12C606.116,185.264 606.116,185.408 606.128,185.54C606.14,185.672 606.116,185.852 606.104,186.008C605.912,186.908 604.676,186.74 604.676,185.9C604.304,185.84 603.464,185.78 603.14,185.912C603.104,186.164 603.2,186.68 603.332,186.92C603.704,187.46 604.304,187.808 605.06,187.808C605.72,187.808 606.14,187.844 606.296,187.808Z" style="fill:black;fill-rule:nonzero;"/>
            <path d="M610.22,179.828C610.22,179.612 610.208,179.684 610.208,179.42C610.208,179.348 609.56,179.432 609.428,179.432C609.044,179.468 608.972,179.468 608.588,179.432C608.528,181.544 608.6,183.476 608.6,185.444C609.368,185.384 609.656,185.528 610.208,185.372L610.208,185.324C610.208,184.136 610.196,183.284 610.16,182.18C610.124,181.292 610.772,181.256 611.624,181.352C611.636,181.352 611.888,181.388 612.08,181.436C612.164,181.472 612.248,181.484 612.332,181.52L612.44,181.556C612.404,181.064 612.44,180.536 612.44,179.444C612.44,179.396 611.396,179.408 610.784,179.6C610.556,179.684 610.28,179.792 610.22,179.828Z" style="fill:black;fill-rule:nonzero;"/>
            <path d="M617.864,179.432C617.348,179.396 616.964,179.384 616.688,179.372C616.592,179.372 616.112,179.348 616.112,179.384C616.112,179.576 616.052,179.744 616.064,179.996C615.836,179.444 615.416,179.444 614.84,179.444C613.712,179.48 612.824,180.62 612.824,182.216C612.824,183.5 613.352,185.432 614.588,185.432C615.152,185.432 615.788,185.12 616.172,184.736C616.172,184.892 616.124,184.976 616.124,185.156C616.124,185.288 616.16,185.384 616.268,185.42C616.448,185.42 616.604,185.384 616.784,185.384C617.036,185.384 617.312,185.42 617.564,185.42L617.708,185.42C617.9,185.384 617.864,185.132 617.864,184.928C617.972,183.212 617.84,181.568 617.888,179.84L617.888,179.72C617.888,179.624 617.876,179.528 617.864,179.432ZM614.372,181.82C614.456,181.424 614.828,181.052 615.488,181.052C616.148,181.052 616.112,181.184 616.112,182.3C616.112,183.2 616.16,183.752 615.368,183.752C614.696,183.752 614.3,183.176 614.3,182.456C614.3,182.252 614.312,182.024 614.372,181.82Z" style="fill:black;fill-rule:nonzero;"/>
            <path d="M621.104,177.2C620.576,177.26 619.976,177.104 619.556,177.164C619.496,177.764 619.544,178.772 619.544,179.468C619.292,179.468 619.016,179.468 618.692,179.456L618.656,180.92C618.992,180.92 619.268,180.92 619.52,180.908C619.508,182.072 619.508,183.116 619.712,184.352C620.12,185.324 621.728,185.468 623,185.408C623.168,184.916 623.06,184.232 623,183.788C622.46,183.824 621.464,183.752 621.152,183.308C621.14,182.588 621.14,181.748 621.14,180.884L623,180.884C622.94,180.452 623.156,179.636 622.928,179.384C622.112,179.432 621.608,179.468 621.116,179.48C621.116,179.24 621.104,179.012 621.104,178.808L621.104,177.2Z" style="fill:black;fill-rule:nonzero;"/>
            <path d="M625.592,179.372C625.076,179.384 624.704,179.36 624.5,179.348C624.416,179.348 624.224,179.324 624.164,179.336L624.164,179.348C623.972,181.232 624.248,183.38 624.092,185.408C624.308,185.348 625.628,185.516 625.784,185.336C625.676,183.404 625.784,181.34 625.796,179.408L625.796,179.372L625.592,179.372ZM624.116,176.756C624.104,177.488 624.164,177.944 624.164,178.412C624.788,178.376 625.64,178.544 625.784,178.328C625.784,177.848 625.748,176.996 625.748,176.792L624.116,176.756Z" style="fill:black;fill-rule:nonzero;"/>
            <path d="M626.888,179.936C626.84,180.116 626.708,180.464 626.696,180.644C626.648,180.944 626.636,181.22 626.636,181.508C626.732,182.552 626.384,184.196 627.248,184.964C627.524,185.24 627.872,185.42 628.28,185.492C629.204,185.492 630.512,185.744 631.064,184.964C631.376,184.652 631.412,183.08 631.448,182.144C631.412,181.088 631.412,180.068 630.956,179.768C630.62,179.444 630.14,179.288 629.624,179.252C629.288,179.216 629.012,179.276 628.688,179.24C627.932,179.24 627.116,179.444 626.888,179.936ZM628.388,181.352C628.496,181.22 628.628,181.136 628.796,181.088C629.42,180.944 629.816,181.22 629.9,181.784C629.996,182.252 629.924,182.78 629.864,183.296C629.816,183.5 629.72,183.632 629.588,183.692C629.168,183.92 628.172,183.884 628.208,183.152C628.244,182.588 628.22,182.108 628.28,181.592C628.304,181.46 628.34,181.388 628.388,181.352Z" style="fill:black;fill-rule:nonzero;"/>
            <path d="M633.752,180.056C633.74,179.828 633.764,179.696 633.728,179.42C633.728,179.312 633.14,179.432 633.008,179.432C632.624,179.468 632.552,179.468 632.168,179.432C632.108,181.544 632.18,183.476 632.18,185.444C632.948,185.384 633.116,185.528 633.668,185.372L633.668,185.324C633.8,184.268 633.62,183.212 633.68,182.108C633.74,181.244 634.556,181.328 634.82,181.46C634.832,181.472 634.856,181.472 634.868,181.484C635.12,181.676 635.132,182.252 635.168,182.648C635.228,183.512 635.156,184.7 635.216,185.432C635.78,185.432 636.152,185.468 636.716,185.384C636.62,183.728 636.968,180.296 636.464,179.84C635.804,179.276 634.712,179.396 634.052,179.876C633.968,179.936 633.836,180.008 633.752,180.056Z" style="fill:black;fill-rule:nonzero;"/>
        </g>
        <g transform="matrix(2.30941,0,0,3.01157,-1154.42,45.227)">
            <path d="M605.144,184.76C605.156,184.988 605.132,185.12 605.168,185.396C605.168,185.504 605.756,185.384 605.888,185.384C606.272,185.348 606.344,185.348 606.728,185.384C606.788,183.272 606.716,181.34 606.716,179.372C605.948,179.432 605.78,179.288 605.228,179.444L605.228,179.492C605.072,180.536 605.276,181.616 605.216,182.708C605.156,183.572 604.34,183.488 604.076,183.356C604.064,183.344 604.04,183.344 604.028,183.332C603.776,183.14 603.764,182.564 603.728,182.168C603.668,181.304 603.74,180.116 603.68,179.384C603.116,179.384 602.744,179.348 602.18,179.432C602.276,181.088 601.928,184.52 602.432,184.976C603.092,185.54 604.184,185.42 604.844,184.94C604.928,184.88 605.06,184.808 605.144,184.76Z" style="fill:black;fill-rule:nonzero;"/>
            <path d="M609.14,180.056C609.128,179.828 609.152,179.696 609.116,179.42C609.116,179.312 608.528,179.432 608.396,179.432C608.012,179.468 607.94,179.468 607.556,179.432C607.496,181.544 607.568,183.476 607.568,185.444C608.336,185.384 608.504,185.528 609.056,185.372L609.056,185.324C609.188,184.268 609.008,183.212 609.068,182.108C609.128,181.244 609.944,181.328 610.208,181.46C610.22,181.472 610.244,181.472 610.256,181.484C610.508,181.676 610.52,182.252 610.556,182.648C610.616,183.512 610.544,184.7 610.604,185.432C611.168,185.432 611.54,185.468 612.104,185.384C612.008,183.728 612.356,180.296 611.852,179.84C611.192,179.276 610.1,179.396 609.44,179.876C609.356,179.936 609.224,180.008 609.14,180.056Z" style="fill:black;fill-rule:nonzero;"/>
            <path d="M614.54,179.372C614.024,179.384 613.652,179.36 613.448,179.348C613.364,179.348 613.172,179.324 613.112,179.336L613.112,179.348C612.92,181.232 613.196,183.38 613.04,185.408C613.256,185.348 614.576,185.516 614.732,185.336C614.624,183.404 614.732,181.34 614.744,179.408L614.744,179.372L614.54,179.372ZM613.064,176.756C613.052,177.488 613.112,177.944 613.112,178.412C613.736,178.376 614.588,178.544 614.732,178.328C614.732,177.848 614.696,176.996 614.696,176.792L613.064,176.756Z" style="fill:black;fill-rule:nonzero;"/>
            <path d="M617.708,177.2C617.18,177.26 616.58,177.104 616.16,177.164C616.1,177.764 616.148,178.772 616.148,179.468C615.896,179.468 615.62,179.468 615.296,179.456L615.26,180.92C615.596,180.92 615.872,180.92 616.124,180.908C616.112,182.072 616.112,183.116 616.316,184.352C616.724,185.324 618.332,185.468 619.604,185.408C619.772,184.916 619.664,184.232 619.604,183.788C619.064,183.824 618.068,183.752 617.756,183.308C617.744,182.588 617.744,181.748 617.744,180.884L619.604,180.884C619.544,180.452 619.76,179.636 619.532,179.384C618.716,179.432 618.212,179.468 617.72,179.48C617.72,179.24 617.708,179.012 617.708,178.808L617.708,177.2Z" style="fill:black;fill-rule:nonzero;"/>
        </g>
        <g transform="matrix(1,0,0,1,-52.9849,-17.0163)">
            <path d="M422.54,154.794C422.54,154.794 312.055,155.231 316.445,221.954" style="fill:none;stroke-width:6px;stroke:black;"/>
        </g>
        <g transform="matrix(1,0,0,1,-52.9849,-17.0163)">
            <path d="M297.254,176.08C297.254,176.08 280.268,85.592 208.279,94.811" style="fill:none;stroke-width:6px;stroke:black;"/>
        </g>
        <g transform="matrix(0.991644,0.129008,-0.129008,0.991644,-6.32462,-56.943)">
            <path d="M382.389,323.038C382.389,323.038 400.202,339.922 394.935,380.745C389.669,421.567 430.934,433.571 427.42,402.844C423.907,372.117 393.301,329.027 409.98,320.25" style="fill:white;"/>
        </g>
        <g transform="matrix(0.991644,0.129008,-0.129008,0.991644,-11.5557,-57.3459)">
            <path d="M385.13,322.277C385.13,322.277 400.202,339.922 394.935,380.745C389.669,421.567 430.934,433.571 427.42,402.844C423.907,372.117 393.301,329.027 409.98,320.25" style="fill:rgb(49,168,184);"/>
        </g>
        <g transform="matrix(0.991644,0.129008,-0.129008,0.991644,-6.32462,-56.943)">
            <path d="M382.389,323.038C382.389,323.038 400.202,339.922 394.935,380.745C389.669,421.567 430.934,433.571 427.42,402.844C423.907,372.117 393.301,329.027 409.98,320.25" style="fill:none;stroke-width:6px;stroke:black;"/>
        </g>
    </g>
</svg>
