<?xml version="1.0" standalone="no"?><!DOCTYPE svg PUBLIC "-//W3C//DTD SVG 1.1//EN" "http://www.w3.org/Graphics/SVG/1.1/DTD/svg11.dtd"><svg width="100%" height="100%" viewBox="0 0 822 663" version="1.1" xmlns="http://www.w3.org/2000/svg" xmlns:xlink="http://www.w3.org/1999/xlink" xml:space="preserve" style="fill-rule:evenodd;clip-rule:evenodd;stroke-linejoin:round;stroke-miterlimit:1.41421;"><path d="M309.501,7.332c-1.188,0.17 -4.755,0.765 -8.066,1.274c-10.953,1.783 -24.112,7.726 -33.792,15.283c-5.434,4.329 -12.82,12.565 -17.151,19.443c-24.622,38.716 -9.339,91.272 32.264,110.8c14.179,6.707 28.782,9.085 42.877,6.877c10.358,-1.528 18.679,-3.99 22.924,-6.623c1.613,-1.018 16.981,-10.273 24.028,-17.574c6.537,-6.878 8.575,-9.68 11.802,-16.302c4.924,-10.104 7.047,-16.896 8.32,-27.084c1.274,-9.68 -0.594,-24.029 -2.547,-31.076c-5.604,-20.461 -21.99,-39.226 -41.857,-48.226c-6.708,-3.056 -16.557,-6.027 -17.321,-5.263c-0.34,0.254 -0.934,0.085 -1.528,-0.34c-1.02,-0.849 -16.387,-1.783 -19.953,-1.189l0,0Z" style="fill:#e6e6e6;fill-rule:nonzero;"/><path d="M315.954,1.526c-1.189,0.169 -4.755,0.764 -8.067,1.273c-10.952,1.783 -24.112,7.727 -33.792,15.283c-5.433,4.33 -12.82,12.566 -17.15,19.443c-24.622,38.717 -9.34,91.272 32.264,110.801c14.178,6.707 28.782,9.084 42.876,6.876c10.359,-1.527 18.679,-3.99 22.924,-6.622c1.613,-1.019 16.982,-10.274 24.029,-17.575c6.537,-6.877 8.575,-9.679 11.801,-16.302c4.924,-10.103 7.047,-16.896 8.321,-27.085c1.274,-9.678 -0.595,-24.027 -2.548,-31.074c-5.603,-20.462 -21.99,-39.226 -41.857,-48.226c-6.707,-3.056 -16.556,-6.028 -17.321,-5.264c-0.339,0.255 -0.933,0.085 -1.528,-0.339c-1.019,-0.849 -16.387,-1.784 -19.952,-1.189l0,0Z" style="fill:#31a8b8;fill-rule:nonzero;"/><path d="M309.501,7.332c-1.188,0.17 -4.755,0.765 -8.066,1.274c-10.953,1.783 -24.112,7.726 -33.792,15.283c-5.434,4.329 -12.82,12.565 -17.151,19.443c-24.622,38.716 -9.339,91.272 32.264,110.8c14.179,6.707 28.782,9.085 42.877,6.877c10.358,-1.528 18.679,-3.99 22.924,-6.623c1.613,-1.018 16.981,-10.273 24.028,-17.574c6.537,-6.878 8.575,-9.68 11.802,-16.302c4.924,-10.104 7.047,-16.896 8.32,-27.084c1.274,-9.68 -0.594,-24.029 -2.547,-31.076c-5.604,-20.461 -21.99,-39.226 -41.857,-48.226c-6.708,-3.056 -16.557,-6.027 -17.321,-5.263c-0.34,0.254 -0.934,0.085 -1.528,-0.34c-1.02,-0.849 -16.387,-1.783 -19.953,-1.189l0,0Z" style="fill:none;stroke-width:8.25px;stroke:#000;"/><path d="M434.76,89.463c-1.953,0.678 -3.822,1.273 -3.991,1.273c-0.17,0 -1.953,0.679 -4.076,1.613c-5.009,2.123 -10.528,5.943 -14.009,9.594c-4.33,4.67 -16.047,23.859 -17.236,25.047c-1.188,1.274 -7.386,10.104 -13.754,19.698c-8.745,13.075 -14.349,22.754 -22.5,38.631c-9.424,18.594 -37.528,72.678 -48.055,92.716c-2.038,3.905 -9.17,17.83 -15.878,30.99c-13.585,26.66 -15.638,46.573 -8.811,53.669c0.252,0.168 8.507,8.324 10.859,9.492c6.235,3.099 23.8,7.704 39.471,0.567c8.575,-3.906 8.575,-7.182 11.716,-12.701c1.699,-3.056 4.755,-8.235 4.755,-8.575c0,-0.339 2.632,-5.604 5.774,-11.632c5.264,-10.103 9.084,-17.32 26.745,-51.367c3.226,-6.283 7.896,-15.283 10.358,-19.952c2.462,-4.67 6.283,-12.057 8.49,-16.302c2.123,-4.33 4.246,-8.066 4.67,-8.321c0.594,-0.339 47.631,30.311 53.999,35.235c1.783,1.274 0.849,1.529 -18.679,5.01c-22.33,4.075 -26.49,5.094 -33.282,8.321c-9,4.245 -18.849,15.537 -21.651,25.046c-2.123,7.047 -3.905,21.566 -3.311,26.576c1.528,12.225 2.632,14.433 22.075,42.366c6.792,9.765 12.736,18.34 13.16,19.02c0.765,1.273 25.386,37.357 33.792,49.584c1.868,2.716 3.736,4.924 4.075,4.924c0.425,0 0.68,0.509 0.51,1.019c-0.085,0.594 0.34,1.019 0.934,0.849c0.679,-0.085 0.934,0.17 0.594,0.679c-0.254,0.425 2.717,5.519 6.622,11.292c3.906,5.689 8.406,12.227 10.02,14.604c9.509,14.264 23.433,21.99 39.48,21.905c31.584,-0.255 51.452,-34.301 36.849,-63.168c-1.698,-3.312 -7.896,-12.567 -32.094,-47.632c-15.368,-22.245 -24.877,-36.509 -24.623,-36.764c0.17,-0.084 3.736,-0.849 7.896,-1.613c39.99,-7.302 54.934,-9.934 55.188,-9.679c0.17,0.17 0.68,9 1.189,19.783c0.595,10.698 1.528,30.566 2.207,44.15c0.68,13.5 1.444,29.971 1.699,36.509c0.679,14.858 1.783,19.443 7.81,31.585c5.52,11.292 11.293,17.829 19.869,22.584c11.292,6.283 5.943,5.943 97.979,5.434c90.423,-0.51 85.838,-0.255 97.216,-5.773c10.527,-5.18 19.698,-17.067 22.074,-28.528c1.444,-6.538 0.68,-18.255 -1.443,-24.198c-4.839,-13.245 -17.405,-24.028 -32.178,-27.509c-5.265,-1.189 -12.142,-1.274 -65.886,-0.765l-60.113,0.51l0,-1.953c0.086,-10.613 -3.396,-81.678 -3.736,-85.329c-0.509,-5.349 -1.527,-24.537 -3.48,-68.602c-0.68,-15.453 -1.444,-30.905 -1.783,-34.387c-0.935,-12.565 -4.5,-21.82 -11.462,-29.886c-3.396,-3.991 -9.765,-8.32 -130.668,-88.555c-18.849,-12.566 -36.594,-23.773 -39.481,-24.962c-4.245,-1.783 -6.707,-2.208 -14.858,-2.377c-5.349,-0.085 -10.359,0 -11.037,0.255l0,0Z" style="fill:#e6e6e6;fill-rule:nonzero;"/><path d="M444.21,88.713c-1.953,0.678 -3.82,1.273 -3.99,1.273c-0.17,0 -1.953,0.679 -4.076,1.613c-5.009,2.123 -10.528,5.943 -14.009,9.594c-4.33,4.67 -16.047,23.859 -17.235,25.047c-1.189,1.274 -7.387,10.104 -13.755,19.698c-8.745,13.075 -14.349,22.754 -22.499,38.631c-9.425,18.594 -37.528,72.678 -48.057,92.716c-2.037,3.905 -9.169,17.83 -15.876,30.99c-13.585,26.66 -15.639,46.573 -8.812,53.669c0.252,0.168 8.507,8.324 10.859,9.492c6.236,3.099 23.801,7.704 39.47,0.567c8.576,-3.906 8.576,-7.182 11.718,-12.701c1.698,-3.056 4.754,-8.235 4.754,-8.575c0,-0.339 2.632,-5.604 5.773,-11.632c5.265,-10.103 9.085,-17.32 26.745,-51.367c3.227,-6.283 7.896,-15.283 10.359,-19.952c2.462,-4.67 6.282,-12.057 8.49,-16.302c2.123,-4.33 4.245,-8.066 4.67,-8.321c0.595,-0.339 47.632,30.311 53.999,35.235c1.783,1.274 0.849,1.529 -18.679,5.01c-22.329,4.075 -26.49,5.094 -33.282,8.321c-9,4.245 -18.849,15.537 -21.651,25.046c-2.123,7.047 -3.906,21.566 -3.312,26.576c1.529,12.225 2.633,14.433 22.076,42.366c6.792,9.765 12.736,18.34 13.16,19.02c0.764,1.273 25.386,37.357 33.792,49.584c1.868,2.716 3.736,4.924 4.076,4.924c0.424,0 0.678,0.509 0.509,1.019c-0.085,0.594 0.34,1.019 0.934,0.849c0.679,-0.085 0.933,0.17 0.594,0.679c-0.255,0.425 2.717,5.519 6.623,11.292c3.905,5.689 8.405,12.227 10.018,14.604c9.51,14.264 23.434,21.99 39.481,21.905c31.584,-0.255 51.452,-34.301 36.848,-63.168c-1.698,-3.312 -7.896,-12.567 -32.094,-47.632c-15.367,-22.245 -24.876,-36.509 -24.621,-36.764c0.169,-0.084 3.735,-0.849 7.896,-1.613c39.99,-7.302 54.933,-9.934 55.187,-9.679c0.17,0.17 0.679,9 1.189,19.783c0.594,10.698 1.528,30.566 2.208,44.15c0.678,13.5 1.443,29.971 1.698,36.509c0.678,14.858 1.782,19.443 7.811,31.585c5.518,11.292 11.292,17.829 19.867,22.584c11.292,6.283 5.943,5.943 97.98,5.434c90.423,-0.51 85.839,-0.255 97.215,-5.773c10.529,-5.18 19.698,-17.067 22.076,-28.528c1.443,-6.538 0.679,-18.255 -1.444,-24.198c-4.84,-13.245 -17.405,-24.028 -32.179,-27.509c-5.264,-1.189 -12.141,-1.274 -65.886,-0.765l-60.111,0.51l0,-1.953c0.084,-10.613 -3.397,-81.678 -3.736,-85.329c-0.51,-5.349 -1.529,-24.537 -3.482,-68.602c-0.678,-15.453 -1.443,-30.905 -1.782,-34.387c-0.934,-12.565 -4.5,-21.82 -11.463,-29.886c-3.396,-3.991 -9.764,-8.32 -130.668,-88.555c-18.848,-12.566 -36.593,-23.773 -39.48,-24.962c-4.245,-1.783 -6.708,-2.208 -14.858,-2.377c-5.349,-0.085 -10.359,0 -11.038,0.255l0,0Z" style="fill:#31a8b8;fill-rule:nonzero;"/><path d="M434.76,89.463c-1.953,0.678 -3.822,1.273 -3.991,1.273c-0.17,0 -1.953,0.679 -4.076,1.613c-5.009,2.123 -10.528,5.943 -14.009,9.594c-4.33,4.67 -16.047,23.859 -17.236,25.047c-1.188,1.274 -7.386,10.104 -13.754,19.698c-8.745,13.075 -14.349,22.754 -22.5,38.631c-9.424,18.594 -37.528,72.678 -48.055,92.716c-2.038,3.905 -9.17,17.83 -15.878,30.99c-13.585,26.66 -15.638,46.573 -8.811,53.669c0.252,0.168 8.507,8.324 10.859,9.492c6.235,3.099 23.8,7.704 39.471,0.567c8.575,-3.906 8.575,-7.182 11.716,-12.701c1.699,-3.056 4.755,-8.235 4.755,-8.575c0,-0.339 2.632,-5.604 5.774,-11.632c5.264,-10.103 9.084,-17.32 26.745,-51.367c3.226,-6.283 7.896,-15.283 10.358,-19.952c2.462,-4.67 6.283,-12.057 8.49,-16.302c2.123,-4.33 4.246,-8.066 4.67,-8.321c0.594,-0.339 47.631,30.311 53.999,35.235c1.783,1.274 0.849,1.529 -18.679,5.01c-22.33,4.075 -26.49,5.094 -33.282,8.321c-9,4.245 -18.849,15.537 -21.651,25.046c-2.123,7.047 -3.905,21.566 -3.311,26.576c1.528,12.225 2.632,14.433 22.075,42.366c6.792,9.765 12.736,18.34 13.16,19.02c0.765,1.273 25.386,37.357 33.792,49.584c1.868,2.716 3.736,4.924 4.075,4.924c0.425,0 0.68,0.509 0.51,1.019c-0.085,0.594 0.34,1.019 0.934,0.849c0.679,-0.085 0.934,0.17 0.594,0.679c-0.254,0.425 2.717,5.519 6.622,11.292c3.906,5.689 8.406,12.227 10.02,14.604c9.509,14.264 23.433,21.99 39.48,21.905c31.584,-0.255 51.452,-34.301 36.849,-63.168c-1.698,-3.312 -7.896,-12.567 -32.094,-47.632c-15.368,-22.245 -24.877,-36.509 -24.623,-36.764c0.17,-0.084 3.736,-0.849 7.896,-1.613c39.99,-7.302 54.934,-9.934 55.188,-9.679c0.17,0.17 0.68,9 1.189,19.783c0.595,10.698 1.528,30.566 2.207,44.15c0.68,13.5 1.444,29.971 1.699,36.509c0.679,14.858 1.783,19.443 7.81,31.585c5.52,11.292 11.293,17.829 19.869,22.584c11.292,6.283 5.943,5.943 97.979,5.434c90.423,-0.51 85.838,-0.255 97.216,-5.773c10.527,-5.18 19.698,-17.067 22.074,-28.528c1.444,-6.538 0.68,-18.255 -1.443,-24.198c-4.839,-13.245 -17.405,-24.028 -32.178,-27.509c-5.265,-1.189 -12.142,-1.274 -65.886,-0.765l-60.113,0.51l0,-1.953c0.086,-10.613 -3.396,-81.678 -3.736,-85.329c-0.509,-5.349 -1.527,-24.537 -3.48,-68.602c-0.68,-15.453 -1.444,-30.905 -1.783,-34.387c-0.935,-12.565 -4.5,-21.82 -11.462,-29.886c-3.396,-3.991 -9.765,-8.32 -130.668,-88.555c-18.849,-12.566 -36.594,-23.773 -39.481,-24.962c-4.245,-1.783 -6.707,-2.208 -14.858,-2.377c-5.349,-0.085 -10.359,0 -11.037,0.255l0,0Z" style="fill:none;stroke-width:8.25px;stroke:#000;"/><path d="M88.738,558.042l95.216,78.048c0,0 20.138,19.958 62.912,14.027c337.149,-46.745 439.005,-74.053 439.005,-74.053c0,0 6.985,-48.044 5.867,-60.926c-1.119,-12.881 -171.022,-100.058 -171.022,-100.058" style="fill:#fff;"/><path d="M82.172,552.206l95.215,78.049c0,0 20.139,19.957 62.913,14.027c337.149,-46.746 439.005,-74.054 439.005,-74.054c0,0 6.985,-48.044 5.867,-60.926c-1.118,-12.881 -171.022,-100.058 -171.022,-100.058" style="fill:#e6e6e6;"/><path d="M88.738,558.042l95.216,78.048c0,0 20.138,19.958 62.912,14.027c337.149,-46.745 439.005,-74.053 439.005,-74.053c0,0 6.985,-48.044 5.867,-60.926c-1.119,-12.881 -171.022,-100.058 -171.022,-100.058" style="fill:none;stroke-width:8.25px;stroke-linecap:round;stroke:#000;"/><path d="M158.184,558.39l31.365,19.239c0,0 24.657,11.839 65.541,6.799c40.886,-5.041 459.631,-53.767 433.307,-70.01" style="fill:none;stroke-width:8.25px;stroke-linecap:round;stroke:#000;"/><path d="M570.16,457.234l-1.119,60.684c0,0 -4.674,10.078 -23.718,14.561c-19.044,4.483 -241.359,15.682 -241.359,15.682c0,0 -239.557,15.869 -271.637,2.438c-23.801,-9.964 -24.031,-9.692 -25.153,-36.015c-1.121,-26.325 30.198,-243.052 30.198,-243.052c0,0 245.621,-16.595 278.666,-10.994c33.043,5.601 254.122,196.696 254.122,196.696l0,0Z" style="fill:#e6e6e6;"/><path d="M577.025,450.701l-1.118,60.684c0,0 -4.675,10.078 -23.718,14.561c-19.044,4.483 -241.359,15.682 -241.359,15.682c0,0 -239.557,15.868 -271.638,2.438c-23.8,-9.964 -24.031,-9.691 -25.152,-36.016c-1.122,-26.324 30.198,-243.051 30.198,-243.051c0,0 245.621,-16.596 278.665,-10.995c33.044,5.601 254.122,196.697 254.122,196.697l0,0Z" style="fill:#404040;"/><path d="M570.16,457.234l-1.119,60.684c0,0 -4.674,10.078 -23.718,14.561c-19.044,4.483 -241.359,15.682 -241.359,15.682c0,0 -239.557,15.869 -271.637,2.438c-23.801,-9.964 -24.031,-9.692 -25.153,-36.015c-1.121,-26.325 30.198,-243.052 30.198,-243.052c0,0 245.621,-16.595 278.666,-10.994c33.043,5.601 254.122,196.696 254.122,196.696l0,0Z" style="fill:none;stroke-width:8.25px;stroke-linecap:round;stroke:#000;"/><ellipse cx="287.515" cy="456.906" rx="43.686" ry="14.464" style="fill:none;stroke-width:8.25px;stroke-linecap:round;stroke:#000;"/><path d="M36.047,436.308l459.089,-18.483l-182.026,-145.987l-258.641,13.654l-18.422,150.816l0,0Z" style="fill:#000;stroke-width:8.25px;stroke-linecap:round;stroke:#000;"/><path d="M570.381,485.281l41.083,-7.28l-54.522,-32.852" style="fill:#000;stroke-width:8.25px;stroke-linecap:round;stroke:#000;"/><path d="M11.088,470.986c0,0 -5.2,22.742 50.077,23.669c55.278,0.926 463.382,-18.678 463.382,-18.678c0,0 40.519,0.003 45.002,-19.602" style="fill:none;stroke-width:8.25px;stroke-linecap:round;stroke:#000;"/><path d="M490.497,496.921c-4.136,0.627 -5.702,7.143 -2.507,9.962c1.817,1.504 4.637,1.88 6.704,0.815c1.441,-0.815 3.07,-3.822 3.07,-5.765c-0.063,-3.069 -3.759,-5.575 -7.267,-5.012l0,0Z" style="fill:#000;fill-rule:nonzero;"/><path d="M473.768,498.363c-1.316,0.751 -2.945,3.822 -2.945,5.576c0,2.067 3.321,5.012 5.576,5.012c2.82,0 5.827,-3.007 5.89,-5.89c0.063,-3.069 -2.13,-5.388 -5.138,-5.388c-1.253,0 -2.757,0.314 -3.383,0.69l0,0Z" style="fill:#000;fill-rule:nonzero;"/><path d="M457.728,499.929c-1.503,1.253 -1.942,2.13 -1.942,3.885c0,2.631 0.313,3.258 2.506,4.698c2.319,1.566 4.762,1.316 6.892,-0.751c5.513,-5.264 -1.629,-12.782 -7.456,-7.832l0,0Z" style="fill:#000;fill-rule:nonzero;"/><path d="M443.13,499.866c-2.067,1.128 -3.258,4.511 -2.443,6.767c2.192,5.638 10.337,4.323 11.152,-1.88c0.313,-2.256 0.125,-2.82 -1.378,-4.197c-2.006,-1.818 -4.7,-2.068 -7.331,-0.69l0,0Z" style="fill:#000;fill-rule:nonzero;"/><path d="M428.031,500.556c-1.818,1.002 -2.945,3.069 -2.945,5.513c0,2.193 3.132,4.762 5.827,4.762c5.012,0 7.581,-6.579 3.821,-9.9c-1.816,-1.566 -4.198,-1.754 -6.703,-0.375l0,0Z" style="fill:#000;fill-rule:nonzero;"/><path d="M412.555,501.245c-2.193,1.503 -2.506,2.067 -2.506,5.012c0,2.067 0.313,2.882 1.629,3.884c3.885,3.008 9.648,0.251 9.648,-4.636c0,-4.448 -4.949,-6.892 -8.771,-4.26Z" style="fill:#000;fill-rule:nonzero;"/><path d="M314.126,501.057c-0.125,0.125 -7.017,0.438 -15.287,0.626c-15.601,0.439 -28.947,1.316 -31.641,2.005c-2.568,0.689 -7.706,4.449 -9.21,6.642c-1.629,2.568 -3.321,7.455 -3.321,9.836c0,3.759 1.88,8.208 4.637,10.902c4.198,4.135 6.641,6.014 7.456,5.764c0.438,-0.126 6.954,-0.376 14.535,-0.564c7.581,-0.251 14.787,-0.501 15.977,-0.627c1.191,-0.125 6.829,-0.438 12.531,-0.689c20.425,-0.751 21.991,-0.94 25.625,-2.694c6.266,-3.007 9.962,-8.145 10.526,-14.598c0.627,-6.516 -3.947,-13.534 -10.275,-15.789c-2.319,-0.814 -5.075,-1.065 -12.155,-1.065c-5.012,0 -9.273,0.125 -9.398,0.251ZM334.989,504.565c5.514,2.507 8.02,6.203 7.958,11.779c-0.063,4.386 -1.003,7.08 -3.321,9.523c-4.385,4.699 -7.581,5.263 -33.896,6.391c-27.881,1.19 -38.343,1.128 -40.85,-0.313c-6.892,-3.759 -9.398,-10.902 -6.202,-17.668c1.754,-3.76 3.508,-5.451 7.455,-7.205c2.631,-1.191 5.263,-1.442 21.303,-2.193c36.965,-1.818 44.108,-1.88 47.553,-0.314l0,0Z" style="fill:#000;fill-rule:nonzero;"/><path d="M305.417,507.761c-32.392,1.441 -35.024,1.691 -38.156,3.195c-5.325,2.632 -7.205,9.711 -3.571,13.282c0.751,0.753 1.754,2.068 2.193,3.008c1.19,2.38 3.195,2.632 15.663,2.13c5.701,-0.188 15.35,-0.564 21.365,-0.752c28.82,-0.939 32.642,-1.566 33.081,-5.451c0.125,-1.002 0.564,-1.692 1.19,-1.692c0.753,0 0.878,-0.438 0.564,-2.192c-0.25,-1.253 -0.125,-2.632 0.314,-3.383c1.378,-2.131 -0.501,-5.765 -3.822,-7.457c-3.133,-1.566 -6.767,-1.629 -28.821,-0.688l0,0Z" style="fill:#000;fill-rule:nonzero;"/><path d="M397.08,501.996c-4.386,2.757 -2.82,9.586 2.318,10.15c2.757,0.251 3.822,-0.187 5.326,-2.38c1.941,-2.883 2.004,-4.637 0.187,-6.767c-1.942,-2.193 -5.2,-2.632 -7.831,-1.003Z" style="fill:#000;fill-rule:nonzero;"/><path d="M381.291,503.25c-3.948,3.696 -1.692,9.46 3.696,9.46c3.447,0 5.639,-2.255 5.639,-5.764c0,-5.075 -5.513,-7.268 -9.335,-3.696l0,0Z" style="fill:#000;fill-rule:nonzero;"/><path d="M107.431,502.748c-7.267,1.378 -13.094,6.078 -16.979,13.784c-1.88,3.634 -2.067,4.511 -2.13,9.649c0,4.887 0.25,6.077 1.692,9.147c2.192,4.386 7.768,10.15 11.528,11.779c5.263,2.319 9.649,2.882 15.788,2.005c4.637,-0.627 6.078,-1.128 9.462,-3.321c7.392,-4.887 11.653,-12.969 11.089,-21.427c-0.25,-4.824 -0.877,-6.579 -3.884,-11.34c-2.318,-3.634 -4.574,-5.765 -8.083,-7.644c-5.764,-3.008 -11.904,-3.885 -18.483,-2.632ZM123.345,507.009c4.323,1.942 8.145,5.826 10.464,10.588c1.19,2.381 1.503,3.947 1.503,8.27c0,4.574 -0.25,5.827 -1.754,8.898c-3.822,7.768 -11.716,12.405 -20.989,12.405c-13.032,0 -22.994,-10.902 -21.428,-23.433c1.128,-9.335 8.27,-16.917 17.355,-18.546c4.762,-0.876 10.526,-0.187 14.849,1.818Z" style="fill:#000;fill-rule:nonzero;"/><path d="M109.812,507.698c-7.143,1.253 -13.533,7.017 -15.036,13.658c-1.442,6.454 1.566,14.536 7.079,19.235c3.196,2.631 8.521,4.26 12.781,3.822c4.198,-0.438 10.088,-3.07 11.216,-5.075c0.376,-0.627 1.315,-1.754 2.13,-2.381c2.318,-1.88 3.195,-4.385 3.571,-9.774c0.438,-6.453 -0.376,-9.335 -3.885,-13.283c-4.573,-5.012 -11.214,-7.33 -17.856,-6.202l0,0Z" style="fill:#000;fill-rule:nonzero;"/><path d="M212.376,509.264c-2.568,1.316 -3.446,2.695 -3.446,5.075c0,3.133 2.632,5.89 5.639,5.89c3.697,0 5.952,-2.193 5.952,-5.89c0,-4.699 -4.072,-7.205 -8.145,-5.075l0,0Z" style="fill:#000;fill-rule:nonzero;"/><path d="M196.587,509.64c-1.566,0.815 -3.32,4.135 -3.32,6.203c0,2.255 3.258,5.012 5.952,5.012c5.012,0 8.02,-6.641 4.448,-9.962c-1.691,-1.629 -5.137,-2.192 -7.08,-1.253l0,0Z" style="fill:#000;fill-rule:nonzero;"/><path d="M180.924,510.831c-2.631,1.566 -3.508,3.383 -3.07,6.015c1.316,6.766 11.653,5.638 11.653,-1.317c0,-1.691 -0.501,-2.756 -1.816,-4.134c-2.13,-2.131 -4.01,-2.319 -6.767,-0.564Z" style="fill:#000;fill-rule:nonzero;"/><path d="M165.699,511.019c-2.13,1.065 -4.01,4.448 -3.508,6.453c1.441,5.513 8.584,6.14 11.278,1.003c2.38,-4.637 -3.008,-9.837 -7.77,-7.456Z" style="fill:#000;fill-rule:nonzero;"/><path d="M149.91,511.833c-5.325,2.82 -3.383,10.902 2.632,10.902c3.133,0 5.764,-2.694 5.764,-5.889c0,-2.569 -0.815,-3.822 -3.32,-5.139c-2.193,-1.065 -2.945,-1.065 -5.076,0.126Z" style="fill:#000;fill-rule:nonzero;"/><path d="M489.18,512.084c-3.195,1.315 -4.197,7.267 -1.566,9.586c3.948,3.508 9.837,0.438 9.711,-5.076c-0.125,-3.946 -4.072,-6.139 -8.145,-4.51l0,0Z" style="fill:#000;fill-rule:nonzero;"/><path d="M473.643,513.336c-3.071,2.006 -3.697,5.577 -1.504,8.397c1.879,2.38 6.14,2.318 8.395,-0.063c2.757,-3.07 1.943,-7.644 -1.629,-8.897c-2.694,-0.94 -3.069,-0.877 -5.262,0.563l0,0Z" style="fill:#000;fill-rule:nonzero;"/><path d="M460.047,513.149c-3.509,0.501 -5.577,6.202 -3.384,9.085c2.256,3.007 7.77,2.568 9.461,-0.753c2.506,-4.887 -0.626,-9.147 -6.077,-8.332l0,0Z" style="fill:#000;fill-rule:nonzero;"/><path d="M428.532,514.903c-2.569,1.316 -3.446,2.694 -3.446,5.201c0,1.503 0.501,2.631 1.817,3.947c2.318,2.317 4.95,2.38 7.518,0.187c1.629,-1.315 1.942,-2.067 1.942,-4.197c-0.062,-3.008 -0.94,-4.512 -3.383,-5.451c-2.192,-0.815 -2.192,-0.815 -4.448,0.313Z" style="fill:#000;fill-rule:nonzero;"/><path d="M442.316,515.467c-2.006,2.005 -2.507,4.26 -1.442,6.453c2.005,4.198 8.459,4.136 10.275,-0.125c1.254,-3.07 1.128,-4.511 -0.688,-6.266c-2.068,-2.13 -6.015,-2.193 -8.145,-0.062Z" style="fill:#000;fill-rule:nonzero;"/><path d="M413.808,515.279c-2.82,1.19 -3.759,2.443 -3.759,5.388c0,5.514 5.451,7.832 9.398,4.01c4.573,-4.323 0.125,-11.779 -5.639,-9.398l0,0Z" style="fill:#000;fill-rule:nonzero;"/><path d="M397.831,516.219c-2.506,1.316 -3.445,2.631 -3.445,4.824c0,3.696 2.193,6.015 5.826,6.078c1.817,0 2.757,-0.439 3.948,-1.692c2.944,-3.195 2.756,-6.954 -0.564,-8.96c-2.382,-1.504 -3.258,-1.504 -5.765,-0.25Z" style="fill:#000;fill-rule:nonzero;"/><path d="M382.607,516.783c-2.882,1.253 -4.261,4.511 -3.071,7.33c1.191,2.819 2.569,3.822 5.388,3.822c3.133,0 3.572,-0.313 5.139,-3.822c1.315,-2.819 1.315,-2.944 0.25,-4.949c-1.003,-1.817 -1.692,-2.256 -4.699,-3.008c-0.501,-0.125 -1.88,0.126 -3.007,0.627l0,0Z" style="fill:#000;fill-rule:nonzero;"/><path d="M561.984,517.722c-0.188,0.314 -0.063,0.627 0.251,0.627c0.376,0 0.689,-0.313 0.689,-0.627c0,-0.375 -0.125,-0.626 -0.25,-0.626c-0.189,0 -0.502,0.251 -0.69,0.626Z" style="fill:#000;fill-rule:nonzero;"/><path d="M197.151,524.364c-4.072,1.754 -4.761,8.082 -1.19,10.588c2.005,1.379 6.453,1.19 7.957,-0.313c3.508,-3.509 1.567,-9.648 -3.446,-10.839c-0.689,-0.188 -2.193,0.063 -3.321,0.564Z" style="fill:#000;fill-rule:nonzero;"/><path d="M210.747,525.178c-3.069,3.071 -2.193,7.644 1.88,9.774c3.697,1.88 8.834,-1.629 8.834,-6.077c0,-0.878 -0.751,-2.507 -1.629,-3.572c-1.378,-1.629 -2.068,-1.941 -4.448,-1.941c-2.256,0 -3.133,0.375 -4.637,1.816l0,0Z" style="fill:#000;fill-rule:nonzero;"/><path d="M181.989,525.053c-6.077,2.193 -4.26,11.466 2.193,11.466c1.692,0 2.757,-0.502 4.135,-1.817c4.7,-4.699 -0.062,-11.967 -6.328,-9.649l0,0Z" style="fill:#000;fill-rule:nonzero;"/><path d="M165.574,526.243c-3.571,1.88 -4.072,6.14 -1.19,9.085c2.819,2.757 6.766,2.318 8.834,-1.002c1.754,-2.882 1.629,-5.075 -0.564,-7.268c-2.068,-2.067 -4.386,-2.319 -7.08,-0.815Z" style="fill:#000;fill-rule:nonzero;"/><path d="M150.663,526.306c-4.762,1.754 -4.762,9.085 0.062,10.776c2.819,1.003 3.947,0.878 5.764,-0.563c3.133,-2.507 2.757,-8.396 -0.564,-9.962c-1.629,-0.752 -3.696,-0.815 -5.262,-0.251l0,0Z" style="fill:#000;fill-rule:nonzero;"/><path d="M525.645,548.423c0.188,0.313 0.501,0.626 0.689,0.626c0.126,0 0.251,-0.313 0.251,-0.626c0,-0.376 -0.313,-0.626 -0.689,-0.626c-0.314,0 -0.439,0.25 -0.251,0.626l0,0Z" style="fill:#000;fill-rule:nonzero;"/><path d="M642.745,551.242c-3.133,2.193 -3.196,7.268 -0.125,8.396c3.07,1.128 5.513,-1.379 5.513,-5.702c0,-3.32 -2.632,-4.636 -5.388,-2.694Z" style="fill:#000;fill-rule:nonzero;"/><path d="M628.836,554.25c-1.504,1.566 -1.755,4.135 -0.752,6.14c0.438,0.814 1.316,1.19 2.819,1.19c3.885,0 5.889,-4.824 3.321,-8.02c-1.065,-1.253 -3.948,-0.876 -5.388,0.69l0,0Z" style="fill:#000;fill-rule:nonzero;"/><path d="M615.553,555.942c-1.817,1.816 -2.193,4.134 -1.003,5.889c2.382,3.696 6.83,2.067 7.143,-2.694c0.126,-1.441 -0.125,-3.07 -0.564,-3.572c-1.065,-1.252 -4.135,-1.065 -5.576,0.377l0,0Z" style="fill:#000;fill-rule:nonzero;"/><path d="M602.082,558.134c-1.941,1.88 -2.067,4.825 -0.312,6.579c2.505,2.506 6.014,0.751 6.703,-3.321c0.689,-4.385 -3.258,-6.453 -6.391,-3.258Z" style="fill:#000;fill-rule:nonzero;"/><path d="M443.004,558.322c-0.187,0.314 0.063,0.564 0.564,0.564c0.502,0 0.753,-0.25 0.564,-0.564c-0.187,-0.25 -0.438,-0.501 -0.564,-0.501c-0.125,0 -0.375,0.251 -0.564,0.501Z" style="fill:#000;fill-rule:nonzero;"/><path d="M588.8,559.826c-1.817,2.005 -2.255,3.947 -1.379,5.638c1.442,2.694 3.822,3.196 6.266,1.254c1.128,-0.94 1.378,-1.755 1.315,-3.885c-0.062,-1.503 -0.438,-3.07 -0.814,-3.508c-1.127,-1.316 -3.947,-1.066 -5.388,0.501l0,0Z" style="fill:#000;fill-rule:nonzero;"/><path d="M575.142,561.894c-2.946,2.881 -1.504,7.831 2.255,7.831c2.443,0 3.759,-1.378 4.135,-4.261c0.627,-4.698 -3.195,-6.828 -6.39,-3.57Z" style="fill:#000;fill-rule:nonzero;"/><path d="M561.609,564.024c-3.133,3.132 -1.818,7.581 2.192,7.581c2.757,0 4.135,-1.629 4.135,-4.887c0,-4.574 -3.069,-5.889 -6.327,-2.694Z" style="fill:#000;fill-rule:nonzero;"/><path d="M549.14,564.9c-3.383,1.692 -3.947,6.391 -0.94,8.334c1.316,0.877 1.88,0.877 3.509,0.25c2.569,-1.065 3.07,-2.443 2.506,-7.017c-0.125,-0.752 -2.005,-2.381 -2.757,-2.381c-0.438,0 -1.441,0.376 -2.318,0.814l0,0Z" style="fill:#000;fill-rule:nonzero;"/><path d="M641.554,566.279c-2.944,2.945 -1.504,7.832 2.318,7.832c2.006,0 3.572,-1.754 4.073,-4.511c0.689,-4.637 -3.133,-6.641 -6.391,-3.321Z" style="fill:#000;fill-rule:nonzero;"/><path d="M629.964,567.407c-4.073,2.068 -3.697,8.584 0.564,8.584c2.944,0 4.448,-1.629 4.448,-4.7c0,-2.13 -0.314,-2.944 -1.379,-3.696c-1.692,-1.191 -1.629,-1.191 -3.633,-0.188l0,0Z" style="fill:#000;fill-rule:nonzero;"/><path d="M485.547,570.289c-6.203,1.002 -16.353,2.506 -22.556,3.446c-14.285,2.13 -16.352,2.631 -19.548,4.449c-13.533,7.956 -11.026,28.507 3.509,28.507c2.82,0 11.967,-1.253 43.293,-5.953c12.03,-1.816 15.852,-3.132 19.361,-6.641c6.954,-7.017 6.892,-18.859 -0.125,-23.871c-2.946,-2.13 -9.9,-2.13 -23.934,0.063ZM506.912,571.542c8.145,3.696 8.646,15.538 0.877,22.117c-3.572,3.132 -4.887,3.383 -31.641,7.393c-30.073,4.448 -31.89,4.573 -35.587,1.692c-4.636,-3.509 -5.764,-10.526 -2.694,-16.604c2.882,-5.638 7.957,-8.27 18.546,-9.46c3.258,-0.377 14.284,-1.943 24.435,-3.446c21.239,-3.195 22.618,-3.258 26.064,-1.692l0,0Z" style="fill:#000;fill-rule:nonzero;"/><path d="M483.354,575.991c-8.772,1.315 -20.175,3.007 -25.375,3.759c-7.08,1.065 -10.15,1.754 -12.405,3.007c-5.264,2.819 -7.958,9.461 -5.639,13.909c0.626,1.191 1.692,2.318 2.381,2.443c0.688,0.126 1.629,0.753 2.067,1.379c1.065,1.567 4.511,1.567 15.601,-0.125c4.761,-0.69 16.164,-2.381 25.312,-3.697c19.423,-2.756 21.302,-3.509 24.059,-9.022c1.253,-2.506 1.191,-2.694 -0.94,-3.133c-1.754,-0.313 -1.88,-0.501 -1.88,-3.383c0,-2.255 -0.312,-3.383 -1.252,-4.198c-0.689,-0.627 -1.253,-1.503 -1.253,-1.879c0,-0.94 -1.442,-1.567 -3.321,-1.504c-0.752,0 -8.583,1.127 -17.355,2.444ZM499.644,576.617c0,0.376 -0.314,1.19 -0.752,1.817c-0.94,1.504 -3.007,0.689 -3.007,-1.19c0,-1.003 0.438,-1.253 1.879,-1.253c1.065,0 1.88,0.312 1.88,0.626Z" style="fill:#000;fill-rule:nonzero;"/><path d="M616.994,569.161c-4.574,1.692 -4.323,8.96 0.376,8.834c2.631,-0.063 3.696,-1.002 4.198,-3.696c0.752,-3.885 -1.441,-6.328 -4.574,-5.138l0,0Z" style="fill:#000;fill-rule:nonzero;"/><path d="M602.897,571.416c-1.88,1.191 -3.195,4.011 -2.569,5.702c0.689,1.88 2.193,3.258 3.634,3.258c2.506,0 4.135,-1.88 4.261,-4.949c0.063,-2.193 -0.189,-2.945 -1.379,-3.885c-1.754,-1.441 -1.816,-1.441 -3.947,-0.126l0,0Z" style="fill:#000;fill-rule:nonzero;"/><path d="M588.299,574.424c-4.073,4.01 0.564,10.087 5.2,6.829c1.065,-0.751 1.378,-1.566 1.378,-3.947c0,-1.629 -0.313,-3.258 -0.751,-3.697c-1.254,-1.252 -4.198,-0.876 -5.827,0.815Z" style="fill:#000;fill-rule:nonzero;"/><path d="M575.079,576.241c-3.384,2.882 -1.942,7.957 2.193,7.895c2.381,-0.063 3.633,-1.317 4.072,-4.011c0.752,-4.824 -2.757,-6.954 -6.265,-3.884l0,0Z" style="fill:#000;fill-rule:nonzero;"/><path d="M561.357,578.184c-1.816,1.754 -2.13,5.325 -0.563,6.828c1.316,1.317 4.824,1.254 6.014,-0.125c0.501,-0.564 1.003,-2.13 1.065,-3.445c0.314,-4.449 -3.445,-6.391 -6.516,-3.258l0,0Z" style="fill:#000;fill-rule:nonzero;"/><path d="M547.824,580.376c-2.443,2.381 -2.318,5.2 0.189,7.08c1.691,1.253 1.816,1.253 3.947,0.25c2.192,-1.065 2.38,-1.503 2.192,-5.45c-0.187,-4.01 -3.32,-4.95 -6.328,-1.88Z" style="fill:#000;fill-rule:nonzero;"/><path d="M671.942,585.389c0,0.313 0.313,0.626 0.627,0.626c0.376,0 0.626,-0.313 0.626,-0.626c0,-0.377 -0.25,-0.627 -0.626,-0.627c-0.314,0 -0.627,0.25 -0.627,0.627Z" style="fill:#000;fill-rule:nonzero;"/><path d="M394.95,588.459c-1.003,1.002 -1.818,2.38 -1.818,3.007c0,2.068 1.818,3.947 3.759,3.947c2.569,0 3.76,-1.503 3.76,-4.761c0,-2.444 -0.188,-2.883 -1.629,-3.384c-2.131,-0.814 -2.005,-0.877 -4.072,1.191Z" style="fill:#000;fill-rule:nonzero;"/><path d="M380.727,590.401c-1.629,1.504 -1.88,5.075 -0.438,6.265c2.568,2.131 6.578,-0.188 6.578,-3.759c0,-3.509 -3.509,-4.949 -6.14,-2.506Z" style="fill:#000;fill-rule:nonzero;"/><path d="M302.284,591.09c-4.699,0.752 -8.646,2.882 -12.593,6.829c-4.01,4.01 -6.453,8.396 -7.581,13.91c-0.877,4.197 0.376,10.086 3.321,15.162c5.012,9.021 17.417,11.277 26.878,5.012c1.378,-0.94 2.506,-2.005 2.506,-2.381c0,-0.438 0.752,-1.378 1.754,-2.067c0.94,-0.69 2.256,-2.382 2.945,-3.697c0.627,-1.379 1.504,-2.882 1.942,-3.383c1.442,-1.88 2.694,-7.707 2.507,-12.03c-0.251,-5.764 -3.071,-11.654 -6.83,-14.16c-4.95,-3.321 -8.709,-4.135 -14.849,-3.195l0,0ZM311.871,593.596c1.253,0.314 2.318,0.878 2.318,1.19c0,0.376 0.376,0.627 0.814,0.627c1.316,0 5.263,4.26 6.767,7.331c2.193,4.573 2.005,11.904 -0.314,13.47c-1.128,0.752 -1.44,0.564 -2.255,-1.378c-0.752,-1.88 -0.877,-3.697 -0.564,-8.584c0.251,-4.01 -1.003,-6.14 -5.2,-8.959c-3.885,-2.569 -6.767,-3.446 -9.9,-3.008c-1.879,0.314 -2.568,-0.375 -1.065,-0.939c1.379,-0.564 6.955,-0.439 9.399,0.25l0,0ZM320.454,618.28c0,0.501 -0.251,0.94 -0.627,0.94c-0.313,0 -0.626,-0.439 -0.626,-0.94c0,-0.501 0.313,-0.94 0.626,-0.94c0.376,0 0.627,0.439 0.627,0.94ZM319.201,620.725c0,0.501 -0.439,1.003 -0.94,1.253c-0.939,0.314 -1.316,-0.877 -0.501,-1.692c0.689,-0.751 1.441,-0.501 1.441,0.439l0,0ZM293.325,628.998c1.191,0.188 1.755,0.752 1.253,1.253c-0.564,0.564 -3.759,-1.19 -4.073,-2.255c-0.312,-0.815 -0.187,-0.815 0.753,0c0.626,0.501 1.566,0.939 2.067,1.002Z" style="fill:#000;fill-rule:nonzero;"/><path d="M366.504,592.593c-2.004,1.943 -2.067,4.887 -0.187,6.204c1.942,1.378 2.819,1.252 4.573,-0.564c2.694,-2.632 1.629,-7.206 -1.629,-7.206c-0.689,0 -1.942,0.69 -2.757,1.566l0,0Z" style="fill:#000;fill-rule:nonzero;"/><path d="M351.843,595.162c-1.629,2.068 -1.691,3.446 -0.187,5.264c0.94,1.127 1.504,1.315 3.195,0.939c2.569,-0.564 3.634,-2.631 2.819,-5.451c-0.501,-1.692 -0.94,-2.13 -2.569,-2.255c-1.503,-0.125 -2.255,0.188 -3.258,1.503l0,0Z" style="fill:#000;fill-rule:nonzero;"/><path d="M337.684,596.979c-1.88,1.818 -2.005,4.073 -0.439,5.514c3.446,3.132 8.02,-1.629 5.764,-5.889c-0.94,-1.692 -3.508,-1.504 -5.325,0.375l0,0Z" style="fill:#000;fill-rule:nonzero;"/><path d="M394.698,603.245c-2.881,2.819 -1.44,7.205 2.382,7.205c2.318,0 4.197,-2.256 4.197,-5.012c0,-1.253 -0.313,-2.569 -0.751,-3.008c-1.253,-1.253 -4.199,-0.877 -5.828,0.815Z" style="fill:#000;fill-rule:nonzero;"/><path d="M380.915,604.936c-1.817,1.629 -2.318,4.825 -0.94,6.454c1.065,1.315 4.574,1.19 5.827,-0.188c1.315,-1.441 1.378,-5.388 0.063,-6.642c-1.379,-1.378 -3.008,-1.253 -4.95,0.376l0,0Z" style="fill:#000;fill-rule:nonzero;"/><path d="M366.129,607.383c-1.88,1.88 -1.441,5.514 0.814,6.767c1.566,0.877 1.817,0.877 3.446,-0.314c1.942,-1.44 2.757,-5.262 1.378,-6.891c-1.065,-1.317 -4.135,-1.065 -5.638,0.438Z" style="fill:#000;fill-rule:nonzero;"/><path d="M352.094,609.513c-1.88,1.816 -2.005,4.26 -0.313,5.952c2.631,2.631 6.266,0.564 6.266,-3.634c0,-1.316 -0.314,-2.694 -0.753,-3.133c-1.19,-1.19 -3.571,-0.877 -5.2,0.815Z" style="fill:#000;fill-rule:nonzero;"/><path d="M337.433,612.078c-1.566,2.004 -1.629,3.258 -0.313,5.137c1.942,2.819 6.516,1.003 6.516,-2.694c0,-3.321 -0.564,-4.072 -2.82,-4.072c-1.503,0 -2.443,0.438 -3.383,1.629l0,0Z" style="fill:#000;fill-rule:nonzero;"/><path d="M324.103,249.432c0,0 -39.986,76.216 -42.421,87.831c-1.55,7.398 -3.598,19.413 9.872,27.92c13.469,8.506 27.022,8.271 37.42,3.781c12.409,-5.358 55.714,-76.405 55.714,-76.405" style="fill:#e6e6e6;"/><path d="M333.736,251.262c0,0 -41.979,77.924 -44.413,89.54c-1.551,7.397 -3.599,19.412 9.871,27.919c13.469,8.507 27.022,8.271 37.42,3.782c12.409,-5.359 55.146,-78.683 55.146,-78.683" style="fill:#31a8b8;"/><path d="M324.956,251.424c0,0 -40.839,74.224 -43.274,85.839c-1.55,7.398 -3.598,19.413 9.872,27.92c13.469,8.506 27.022,8.271 37.42,3.781c12.409,-5.358 58.561,-83.807 58.561,-83.807" style="fill:none;stroke-width:8.25px;stroke-linecap:round;stroke:#000;"/><path d="M263.692,526.911c0,0 -24.499,32.022 -8.863,53.449c15.637,21.428 28.222,25.5 39.846,6.266c11.622,-19.235 -14.403,-47.472 1.385,-60.456c15.787,-12.983 -36.77,-8.827 -32.368,0.741l0,0Z" style="fill:#fff;"/><path d="M267.248,528.174c0,0 -21.374,34.186 -3.789,54.046c17.585,19.86 30.499,22.728 40.258,2.485c9.759,-20.244 -18.81,-45.905 -4.315,-60.317c14.494,-14.413 -37.437,-5.325 -32.154,3.786l0,0Z" style="fill:#cf3720;"/><path d="M263.692,526.911c0,0 -24.499,32.022 -8.863,53.449c15.637,21.428 28.222,25.5 39.846,6.266c11.622,-19.235 -14.637,-47.763 1.385,-60.456c16.438,-13.023 -27.021,-9.422 -32.368,0.741l0,0Z" style="fill:none;stroke-width:8.25px;stroke:#000;"/><path d="M284.538,517.875c0,0 -22.869,38.669 -10.467,51.071" style="fill:none;stroke-width:1.88px;stroke:#000;"/><path d="M491.679,592.308c0,0 30.351,20.28 19.594,41.651c-10.757,21.37 -22.126,27.772 -37.357,14.836c-15.231,-12.934 4.2,-42.416 -13.783,-49.213c-17.984,-6.797 33.847,-16.188 31.546,-7.274l0,0Z" style="fill:#fff;"/><path d="M493.218,591.591c0,0 33.533,16.404 26.055,38.592c-7.479,22.19 -17.88,29.772 -35.133,18.836c-17.254,-10.936 -2.338,-42.074 -21.402,-46.676c-19.065,-4.601 31.408,-19.757 30.48,-10.752Z" style="fill:#cf3720;"/><path d="M491.679,592.308c0,0 30.351,20.28 19.594,41.651c-10.757,21.37 -22.126,27.772 -37.357,14.836c-15.231,-12.934 4.2,-42.416 -13.783,-49.213c-17.984,-6.797 33.847,-16.188 31.546,-7.274l0,0Z" style="fill:none;stroke-width:8.25px;stroke:#000;"/><path d="M469.601,589.977c0,0 30.138,26.127 20.662,39.311" style="fill:none;stroke-width:1.88px;stroke:#000;"/></svg>