<?xml version="1.0" standalone="no"?>
<!DOCTYPE svg PUBLIC "-//W3C//DTD SVG 1.1//EN" "http://www.w3.org/Graphics/SVG/1.1/DTD/svg11.dtd">
<svg width="100%" height="100%" viewBox="0 0 886 335" version="1.1" xmlns="http://www.w3.org/2000/svg" xmlns:xlink="http://www.w3.org/1999/xlink" xml:space="preserve" style="fill-rule:evenodd;clip-rule:evenodd;stroke-linejoin:round;stroke-miterlimit:1.41421;">
    <g transform="matrix(0.75,0,0,0.75,-0,-0)">
        <g transform="matrix(0.1,0,0,-0.1,-60.2661,869.898)">
            <path d="M9634,8651C9595,8641 9543,8623 9519,8611C9495,8598 9459,8579 9440,8569C9407,8552 9400,8551 9305,8566C9167,8588 9079,8580 8995,8540C8921,8505 8822,8414 8775,8340C8714,8244 8648,8052 8610,7858L8599,7800L8499,7800C8387,7800 8369,7794 8293,7729C8209,7658 8079,7526 8065,7499C8057,7485 8048,7449 8045,7419C8035,7336 8023,7307 7971,7236C7853,7077 7812,6844 7872,6682C7883,6653 7889,6623 7887,6616C7884,6608 7851,6597 7808,6590C7582,6552 7425,6503 7235,6410C7074,6332 6965,6252 6828,6112C6700,5981 6640,5904 6490,5681C6347,5468 6342,5467 6095,5530C5855,5591 5711,5673 5297,5983C5136,6104 4967,6228 4920,6260C4681,6421 4458,6505 4235,6517C3991,6530 3820,6472 3415,6240C3125,6074 3136,6078 3003,6079C2717,6081 2147,6166 2034,6223C2007,6236 1879,6294 1750,6350C1471,6472 1358,6527 1269,6586C1210,6625 1200,6636 1176,6694C1143,6770 1124,6790 1045,6826C925,6881 864,6857 754,6711C632,6549 602,6457 635,6344C683,6175 946,5775 1068,5685C1166,5613 1578,5507 2175,5401C2722,5304 2860,5294 3010,5344C3129,5383 3245,5434 3460,5538C3773,5690 3818,5700 4154,5700C4396,5699 4481,5689 4594,5646C4914,5524 5070,5412 5465,5015C5608,4871 5745,4742 5770,4727C5855,4678 5959,4656 6115,4656C6277,4655 6330,4665 6445,4720C6590,4790 6689,4881 7041,5270C7471,5745 7672,5869 8041,5887L8167,5893L8184,5799C8227,5565 8265,5457 8354,5321L8415,5226L8419,5132C8421,5064 8417,5019 8405,4973C8388,4912 8388,4907 8405,4862C8433,4788 8496,4686 8534,4652C8554,4635 8584,4619 8602,4615C8620,4612 8667,4605 8705,4599C8744,4594 8838,4571 8915,4550C9087,4502 9138,4493 9315,4480C9500,4466 9628,4446 9845,4400C10093,4347 10227,4327 10347,4326L10448,4325L10592,4397C10774,4489 10813,4498 10909,4476C10965,4464 10987,4463 11003,4471C11014,4478 11072,4528 11130,4584C11255,4704 11316,4746 11373,4755C11460,4768 11471,4773 11514,4815C11543,4842 11563,4873 11570,4899C11582,4946 11610,4969 11725,5028C11769,5051 11821,5083 11841,5099C11903,5150 11980,5323 11995,5447C12003,5506 12013,5521 12128,5638C12182,5693 12220,5742 12240,5784C12270,5845 12271,5850 12261,5906C12245,5991 12263,6107 12317,6274C12356,6394 12363,6428 12364,6500C12365,6576 12362,6592 12334,6650C12317,6686 12262,6768 12211,6834C12161,6900 12120,6962 12120,6974C12120,6988 12145,7020 12186,7060L12252,7125L12247,7190C12239,7297 12114,7630 12068,7668C12059,7675 12013,7690 11966,7702C11917,7714 11880,7728 11880,7735C11880,7742 11899,7790 11922,7841C11975,7962 11985,8053 11951,8124C11923,8180 11835,8262 11761,8299C11671,8345 11604,8360 11447,8370C11281,8381 11275,8383 11211,8462C11135,8556 11076,8585 10927,8600C10831,8609 10743,8600 10672,8571C10607,8545 10594,8545 10538,8570C10463,8603 10368,8606 10250,8579L10148,8556L10071,8598C10029,8621 9967,8646 9935,8655C9858,8675 9723,8673 9634,8651Z" style="fill:white;fill-rule:nonzero;"/>
        </g>
        <g transform="matrix(0.1,0,0,-0.1,-46.8572,886.794)">
            <path d="M9710,8583C9648,8574 9589,8554 9515,8517L9435,8477L9330,8486C9096,8505 9036,8491 8923,8387C8827,8298 8752,8131 8700,7890C8673,7765 8672,7763 8647,7740C8629,7723 8612,7720 8529,7720C8475,7720 8421,7716 8408,7711C8379,7700 8204,7541 8162,7487C8145,7466 8129,7431 8125,7407C8114,7335 8090,7274 8049,7210C7932,7028 7902,6873 7950,6696C7986,6567 7964,6542 7783,6504C7541,6453 7438,6419 7266,6333C7132,6267 7067,6223 6968,6133C6822,6000 6731,5891 6545,5622C6390,5398 6346,5383 6065,5457C5810,5524 5711,5581 5157,5987C4829,6226 4704,6305 4566,6360C4401,6425 4219,6451 4073,6431C3899,6406 3816.7,6442.2 3328.7,6169.2C3268.7,6136.2 3101.57,6039.8 3073.57,6032.8C2962.57,6006.8 2801.74,5864.43 2472.74,5930.43C2333.91,5958.29 1944.57,6068.55 1594.41,6225.37C1268.41,6371.37 1317,6461 1240,6511C1165,6560 1138,6588 1110,6648C1081,6710 1063,6729 1015,6751C948,6782 811.041,6848.33 759.041,6792.33C693.041,6722.33 723,6523 710,6468C700,6430 701,6412 715,6365C745,6261 866,6053 990,5891C1100,5747 1130,5727 1322,5670C1586,5593 2223,5465 2604,5414C2724,5398 2887,5394 2935,5406C2993,5420 3187,5499 3350,5575C3757,5765 3771,5769 4060,5777C4319,5784 4471,5770 4595,5729C4715,5689 4871,5614 4976,5545C5136,5441 5197,5387 5600,4995C5788,4812 5816,4790 5885,4765C5952,4742 6229,4732 6298,4750C6355,4766 6472,4822 6520,4858C6584,4905 6710,5032 6965,5305C7391,5762 7564,5887 7850,5944C7938,5962 8156,5976 8193,5966C8227,5958 8244,5923 8259,5835C8276,5733 8317,5576 8342,5517C8354,5488 8393,5416 8429,5355L8495,5246L8495,5130C8495,5067 8491,4988 8486,4954C8478,4895 8479,4890 8515,4821C8568,4720 8599,4696 8696,4681C8739,4674 8853,4648 8949,4624C9086,4589 9166,4575 9324,4560C9552,4537 9551,4537 9910,4468C10112,4430 10206,4416 10305,4413L10435,4408L10555,4467C10740,4559 10796,4573 10918,4556L10971,4548L11056,4627C11228,4784 11269,4811 11371,4834C11444,4852 11463,4867 11501,4942C11533,5006 11558,5027 11685,5098C11735,5126 11785,5159 11797,5172C11835,5213 11881,5318 11906,5422C11935,5540 11951,5568 12054,5678C12177,5809 12179,5816 12183,5977C12187,6106 12190,6125 12233,6275C12270,6401 12280,6451 12280,6509C12280,6595 12271,6613 12155,6775C12079,6879 12040,6948 12040,6975C12040,7004 12072,7054 12123,7108L12175,7160L12153,7244C12129,7337 12059,7527 12033,7572C12018,7597 11999,7608 11931,7630C11844,7658 11800,7692 11800,7730C11800,7740 11818,7794 11839,7850C11882,7959 11896,8025 11886,8066C11876,8103 11796,8185 11735,8220C11668,8258 11593,8277 11446,8290C11258,8307 11247,8311 11155,8404C11062,8498 11039,8508 10897,8517C10808,8522 10788,8520 10699,8495L10599,8466L10527,8490C10442,8518 10349,8520 10247,8496C10149,8473 10132,8475 10036,8524C9919,8584 9825,8601 9710,8583Z" style="fill:rgb(49,168,184);fill-rule:nonzero;"/>
        </g>
        <g transform="matrix(-0.235032,0,0,-0.222327,2187.75,1686.67)">
            <path d="M5325,7568C5309,7562 5284,7550 5271,7540C5250,7525 5243,7525 5206,7537C5163,7552 5096,7548 5073,7528C5063,7520 5049,7522 5020,7535C4992,7548 4965,7551 4920,7548C4854,7543 4819,7524 4786,7474C4767,7447 4762,7445 4696,7444C4612,7443 4546,7416 4500,7364C4462,7320 4460,7268 4495,7199C4510,7168 4515,7150 4507,7150C4500,7150 4479,7145 4459,7140C4426,7131 4421,7124 4391,7048C4374,7003 4357,6947 4353,6924C4348,6885 4350,6879 4379,6855C4396,6840 4410,6822 4410,6815C4410,6808 4393,6781 4371,6754C4292,6653 4285,6617 4325,6499C4351,6424 4358,6361 4346,6322C4338,6297 4380,6228 4430,6187C4448,6171 4460,6152 4460,6137C4460,6099 4486,6024 4510,5989C4523,5971 4556,5947 4587,5933C4622,5917 4640,5903 4640,5891C4640,5861 4679,5820 4706,5820C4744,5820 4770,5803 4831,5738C4884,5682 4888,5680 4916,5690C4955,5705 4996,5696 5049,5660C5073,5644 5108,5628 5127,5624C5168,5616 5279,5632 5410,5665C5462,5678 5548,5691 5600,5693C5668,5696 5716,5705 5769,5724C5810,5738 5860,5750 5880,5750C5924,5750 5950,5774 5980,5843C5996,5878 5998,5894 5990,5909C5985,5920 5980,5952 5980,5980C5980,6021 5986,6038 6009,6068C6040,6108 6063,6171 6079,6264C6085,6297 6090,6326 6090,6328C6090,6331 6120,6330 6158,6327C6308,6315 6402,6250 6577,6040C6709,5881 6767,5825 6835,5794C6895,5765 6990,5762 7068,5785C7114,5799 7130,5813 7229,5923C7386,6097 7473,6165 7608,6217C7666,6240 7691,6243 7795,6244C7934,6245 7979,6233 8099,6166C8193,6113 8290,6074 8351,6065C8398,6058 9026.6,6168.82 9106.6,6230.82C9147.6,6261.82 9230.6,6382.82 9270.6,6468.82C9312.6,6557.82 9311.6,6595.82 9263.6,6668.82C9209.6,6753.82 9178.95,6770.16 9144.95,6759.16C9123.95,6753.16 9070.6,6737.82 9059.6,6674.82C9049.6,6623.82 8731.72,6499.77 8695.72,6474.77C8655.72,6446.77 8278,6397 8235,6414C8216,6422 8151,6460 8092,6497C7914,6609 7807,6634 7673,6595C7558,6561 7495,6521 7285,6348C7157,6243 7066,6189 6974,6165C6862,6136 6859,6137 6797,6243C6718,6376 6627,6478 6536,6535C6460,6582 6356,6623 6283,6635C6194,6649 6199,6646 6217,6687C6245,6756 6217,6893 6162,6948C6152,6958 6144,6984 6143,7010C6141,7052 6135,7060 6070,7123C6001,7190 5997,7191 5953,7188L5907,7185L5893,7253C5871,7360 5842,7428 5796,7475C5742,7532 5689,7548 5612,7532C5564,7522 5554,7523 5539,7536C5496,7575 5390,7591 5325,7568ZM5459,7465C5493,7448 5530,7378 5530,7332C5530,7274 5484,7292 5398,7384C5323,7463 5322,7480 5392,7480C5414,7480 5444,7473 5459,7465ZM4990,7445C4996,7441 4998,7434 4995,7429C4991,7424 4985,7354 4980,7273C4961,6966 4942,6783 4931,6796C4918,6810 4882,6957 4869,7048C4857,7132 4861,7420 4874,7451C4880,7464 4890,7465 4930,7459C4958,7455 4985,7448 4990,7445ZM5183,7439C5215,7431 5220,7425 5220,7400C5220,7350 5184,7254 5135,7173C5109,7130 5073,7071 5056,7042L5025,6988L5022,7077C5019,7164 5044,7379 5061,7412C5069,7426 5105,7443 5140,7449C5143,7450 5162,7445 5183,7439ZM5715,7430C5747,7418 5770,7367 5806,7223C5821,7164 5837,7105 5843,7092C5850,7076 5850,7066 5843,7059C5829,7045 5802,7060 5725,7123C5668,7171 5665,7176 5664,7219C5664,7244 5660,7302 5655,7346C5648,7422 5649,7428 5666,7433C5676,7436 5686,7438 5687,7439C5688,7439 5700,7436 5715,7430ZM4739,7278C4809,7093 4860,6868 4900,6570C4917,6444 4927,6400 4941,6384C4952,6373 4960,6358 4960,6352C4960,6336 4916,6316 4898,6323C4875,6331 4832,6422 4804,6521C4790,6573 4743,6723 4700,6855C4657,6987 4612,7141 4599,7197C4574,7310 4576,7321 4635,7346C4696,7373 4704,7367 4739,7278ZM5371,7313C5380,7303 5394,7282 5403,7265C5418,7236 5417,7233 5368,7140C5265,6948 5175,6827 5084,6759C5031,6719 5029,6718 5010,6735C4981,6762 4985,6790 5029,6842C5056,6876 5069,6902 5074,6936C5081,6992 5102,7030 5227,7213C5327,7358 5330,7361 5371,7313ZM5527,7198C5560,7167 5557,7127 5505,6973C5480,6900 5460,6835 5460,6829C5460,6823 5448,6804 5434,6785C5420,6766 5389,6707 5365,6653C5341,6599 5310,6532 5297,6505C5271,6453 5082,6166 5039,6115C4938,5993 4881,5949 4803,5932C4768,5924 4760,5925 4760,5937C4760,5965 4794,6017 4864,6091C4924,6155 4940,6181 4969,6256C5020,6386 5129,6592 5152,6598C5162,6600 5170,6607 5170,6612C5170,6647 5476,7219 5494,7220C5500,7220 5514,7210 5527,7198ZM5701,7063C5739,7027 5770,6991 5770,6984C5770,6977 5758,6962 5744,6951C5718,6931 5718,6931 5680,6950C5629,6976 5580,7018 5585,7033C5587,7040 5594,7064 5600,7088C5606,7111 5616,7130 5621,7130C5627,7130 5663,7100 5701,7063ZM5996,7034C6008,7017 5995,7000 5868,6860C5791,6775 5681,6651 5624,6585C5553,6502 5510,6461 5488,6453C5437,6435 5310,6426 5310,6439C5310,6461 5343,6501 5373,6517C5389,6525 5449,6576 5506,6630C5563,6684 5618,6731 5627,6734C5637,6737 5656,6759 5669,6782C5682,6806 5750,6882 5819,6951C5931,7062 5947,7075 5964,7065C5975,7059 5989,7045 5996,7034ZM4577,7044C4595,7039 4607,7014 4644,6896C4715,6673 4718,6682 4607,6784C4549,6837 4502,6890 4490,6915C4471,6955 4463,7030 4477,7043C4485,7052 4547,7052 4577,7044ZM5624,6909L5665,6868L5626,6834C5586,6800 5529,6788 5515,6810C5507,6823 5560,6950 5573,6950C5578,6950 5601,6931 5624,6909ZM6101,6843C6106,6828 6110,6800 6108,6781C6105,6751 6100,6744 6073,6736C6035,6726 5920,6746 5920,6764C5921,6781 5965,6827 6002,6850C6050,6879 6088,6877 6101,6843ZM4573,6730C4588,6714 4604,6700 4609,6700C4614,6700 4620,6687 4623,6672C4627,6653 4643,6634 4671,6616C4711,6589 4712,6587 4706,6548C4702,6525 4697,6503 4694,6498C4684,6482 4631,6540 4588,6613C4565,6651 4537,6689 4525,6698C4506,6712 4504,6719 4513,6737C4527,6768 4541,6766 4573,6730ZM5153,6708C5143,6690 5126,6673 5116,6672C5101,6669 5105,6677 5130,6709C5169,6756 5181,6756 5153,6708ZM5518,6742C5527,6736 5515,6717 5474,6674C5442,6642 5415,6620 5413,6627C5411,6633 5423,6663 5440,6694C5471,6748 5489,6760 5518,6742ZM5920,6680C6004,6659 6000,6662 5988,6630C5967,6569 5887,6527 5732,6495C5687,6486 5644,6480 5637,6483C5630,6485 5656,6516 5694,6551C5733,6586 5782,6634 5804,6657C5827,6680 5852,6697 5860,6695C5868,6693 5895,6686 5920,6680ZM4522,6608C4552,6573 4614,6493 4660,6430C4705,6367 4768,6286 4800,6250C4857,6185 4857,6185 4840,6158L4823,6130L4773,6193C4746,6227 4676,6307 4619,6370C4480,6522 4400,6620 4400,6639C4400,6647 4407,6662 4416,6671C4438,6696 4455,6685 4522,6608ZM5026,6645L5090,6609L5076,6577C5051,6518 5005,6431 4999,6431C4987,6429 4969,6485 4954,6573C4945,6624 4936,6668 4933,6673C4922,6691 4968,6677 5026,6645ZM6336,6516C6472,6473 6548,6408 6655,6245C6766,6074 6826,6032 6939,6043C7034,6052 7172,6135 7397,6318C7594,6479 7646,6504 7781,6505C7858,6505 7870,6502 7901,6479C7920,6465 8012,6414 8106,6367C8247,6295 8284,6280 8323,6280C8383,6280 9025.6,6412.82 9077.6,6508.82C9116.6,6579.82 9158.6,6628.82 9169.6,6616.82C9173.6,6613.82 9178.6,6590.82 9180.6,6565.82C9187.6,6504.82 9158.6,6447.82 9074.6,6357.82L8619.83,6211.96L8346.22,6166.92C8261.22,6178.92 8203,6225 8030,6305C7896,6367 7848,6380 7748,6380C7569,6380 7448,6316 7297,6140C7185,6010 7062,5893 7022,5879C6917,5844 6800,5927 6615,6170C6559,6244 6497,6321 6478,6340C6406,6413 6273,6455 6130,6448L6055,6445L6052,6499L6049,6553L6152,6547C6221,6543 6282,6533 6336,6516ZM6000,6479C6000,6458 5936,6308 5926,6305C5920,6303 5868,6287 5810,6269C5752,6252 5679,6236 5648,6234C5616,6233 5566,6222 5536,6211C5448,6178 5150,6150 5150,6174C5150,6181 5166,6209 5186,6236C5205,6263 5227,6299 5235,6317C5256,6366 5335,6386 5780,6460C5979,6492 6000,6494 6000,6479ZM4799,6402C4804,6376 4812,6346 4816,6336C4828,6305 4804,6326 4769,6376C4741,6417 4739,6425 4750,6446C4768,6478 4786,6462 4799,6402ZM4625,6288L4642,6260L4607,6260C4562,6260 4522,6275 4491,6303C4457,6335 4448,6366 4460,6410L4470,6449L4539,6382C4576,6345 4615,6303 4625,6288ZM5921,6209C5945,6197 5939,6168 5907,6133C5883,6107 5845,6104 5797,6124C5767,6137 5722,6177 5731,6183C5734,6186 5871,6216 5893,6219C5898,6220 5910,6215 5921,6209ZM4719,6174C4736,6160 4755,6130 4762,6108C4773,6072 4772,6066 4755,6054C4702,6015 4596,6031 4572,6083C4530,6170 4642,6239 4719,6174ZM5645,6139C5703,6128 5789,6091 5821,6064C5831,6055 5835,6040 5832,6025C5830,6011 5836,5987 5849,5967C5869,5935 5869,5933 5851,5904C5819,5852 5806,5846 5752,5860C5726,5867 5653,5896 5590,5925C5527,5954 5459,5983 5438,5989C5413,5997 5400,6008 5396,6026C5391,6043 5376,6057 5349,6069C5303,6090 5304,6090 5379,6115C5478,6147 5560,6155 5645,6139ZM5241,6034C5271,6016 5305,5991 5315,5980C5334,5958 5334,5958 5315,5944C5290,5925 5223,5926 5123,5947C5056,5961 5040,5968 5040,5982C5040,5992 5036,6000 5030,6000C5010,6000 5046,6053 5075,6066C5118,6084 5175,6073 5241,6034ZM5435,5925C5453,5907 5460,5890 5460,5860C5460,5838 5460,5817 5460,5813C5460,5798 5438,5805 5404,5830C5369,5856 5363,5880 5380,5924C5392,5956 5404,5957 5435,5925ZM5001,5909C5015,5895 5020,5881 5016,5867C5013,5855 5010,5839 5010,5833C5010,5811 4942,5817 4930,5839C4895,5905 4950,5960 5001,5909ZM5593,5863C5641,5837 5643,5835 5618,5832C5583,5828 5536,5850 5532,5873C5527,5895 5531,5895 5593,5863ZM5311,5861C5315,5858 5321,5841 5324,5824C5331,5795 5329,5792 5288,5777C5264,5767 5227,5760 5207,5760C5172,5760 5167,5763 5150,5803C5115,5880 5117,5883 5218,5875C5266,5871 5308,5865 5311,5861Z" style="fill:black;fill-rule:nonzero;stroke-width:8.74px;stroke:black;"/>
        </g>
        <g transform="matrix(3.34988,1.55619,-1.55619,3.34988,367.799,-1454.82)">
            <path d="M120.373,431.761C118.729,431.581 116.941,431.641 115.309,431.653C115.309,431.665 115.321,431.665 115.321,431.677C115.261,432.433 115.309,433.441 115.369,433.561C115.561,433.621 116.437,433.513 116.809,433.705L116.821,433.717C117.013,438.193 116.869,439.969 116.905,440.113C117.481,440.017 118.285,440.125 118.873,440.029L118.873,440.017L118.873,440.005C118.777,434.761 118.765,433.885 118.813,433.657C118.813,433.645 118.825,433.633 118.825,433.621L118.861,433.621C119.617,433.585 120.025,433.561 120.325,433.621C120.409,433.045 120.409,432.289 120.373,431.761Z" style="fill:black;fill-rule:nonzero;"/>
            <path d="M121.501,437.089C122.005,437.185 124.381,437.089 124.717,436.993C124.813,435.649 124.597,434.269 123.109,434.017C121.969,433.729 120.565,434.077 120.145,435.025C119.953,435.553 119.929,436.105 119.881,436.693C119.821,437.989 120.121,439.405 120.973,440.005C121.165,440.113 121.369,440.185 121.597,440.221C122.509,440.221 123.817,440.461 124.357,439.693C124.585,439.501 124.633,438.637 124.693,437.821C124.345,437.725 123.505,437.833 123.181,437.797C123.241,439.093 122.065,439.081 121.681,438.337C121.501,438.049 121.513,437.785 121.501,437.305L121.501,437.089ZM122.953,435.229C123.241,435.373 123.421,435.685 123.421,436.009C123.421,436.249 123.493,436.153 122.665,436.153C121.477,436.153 121.477,436.225 121.537,435.889C121.597,435.457 121.777,435.109 122.533,435.109C122.713,435.109 122.821,435.145 122.953,435.229Z" style="fill:black;fill-rule:nonzero;"/>
            <path d="M130.237,435.949C130.237,435.085 129.949,434.341 129.193,434.017C128.353,433.825 127.129,433.825 126.505,433.993C124.957,434.401 124.729,436.669 126.529,437.281C127.417,437.665 128.509,437.485 128.413,438.277C128.449,439.201 126.949,438.937 126.913,438.205C126.421,438.205 125.665,438.157 125.137,438.217L125.137,438.277C125.137,439.561 126.229,440.353 127.837,440.293C128.761,440.305 129.613,439.993 129.985,439.213C130.285,438.337 130.177,437.797 129.829,437.221C129.457,436.741 128.605,436.573 127.705,436.441C126.949,436.177 126.961,435.337 127.693,435.205C128.101,435.169 128.617,435.541 128.521,435.949C129.061,436.057 129.721,436.033 130.237,435.949Z" style="fill:black;fill-rule:nonzero;"/>
            <path d="M133.177,431.893C132.649,431.953 132.049,431.797 131.629,431.857C131.569,432.457 131.617,433.465 131.617,434.161C131.365,434.161 131.089,434.161 130.765,434.149L130.729,435.613C131.065,435.613 131.341,435.613 131.593,435.601C131.581,436.765 131.581,437.809 131.785,439.045C132.193,440.017 133.801,440.161 135.073,440.101C135.241,439.609 135.133,438.925 135.073,438.481C134.533,438.517 133.537,438.445 133.225,438.001C133.213,437.281 133.213,436.441 133.213,435.577L135.073,435.577C135.013,435.145 135.229,434.329 135.001,434.077C134.185,434.125 133.681,434.161 133.189,434.173C133.189,433.933 133.177,433.705 133.177,433.501L133.177,431.893Z" style="fill:black;fill-rule:nonzero;"/>
            <path d="M142.057,439.885C142.045,439.609 142.045,439.321 142.045,439.045C142.045,437.209 142.177,435.433 142.177,433.597C142.177,432.925 142.165,432.265 142.117,431.581C141.685,431.545 141.277,431.533 140.857,431.533C140.485,431.533 140.137,431.545 139.765,431.557C139.669,431.653 138.361,433.693 138.313,434.233C138.313,434.377 139.621,434.677 139.765,434.677C140.029,434.677 140.125,433.981 140.281,434.017C140.293,434.101 140.293,434.149 140.293,434.233C140.293,435.781 140.149,437.293 140.149,438.841L140.149,440.017C140.473,440.053 140.929,440.101 141.325,440.101C141.625,440.101 142.057,440.077 142.057,439.885Z" style="fill:black;fill-rule:nonzero;"/>
        </g>
        <g transform="matrix(2.93337,2.24472,-2.24472,2.93337,1086.16,-1315.91)">
            <path d="M120.373,431.761C118.729,431.581 116.941,431.641 115.309,431.653C115.309,431.665 115.321,431.665 115.321,431.677C115.261,432.433 115.309,433.441 115.369,433.561C115.561,433.621 116.437,433.513 116.809,433.705L116.821,433.717C117.013,438.193 116.869,439.969 116.905,440.113C117.481,440.017 118.285,440.125 118.873,440.029L118.873,440.017L118.873,440.005C118.777,434.761 118.765,433.885 118.813,433.657C118.813,433.645 118.825,433.633 118.825,433.621L118.861,433.621C119.617,433.585 120.025,433.561 120.325,433.621C120.409,433.045 120.409,432.289 120.373,431.761Z" style="fill:black;fill-rule:nonzero;"/>
            <path d="M121.501,437.089C122.005,437.185 124.381,437.089 124.717,436.993C124.813,435.649 124.597,434.269 123.109,434.017C121.969,433.729 120.565,434.077 120.145,435.025C119.953,435.553 119.929,436.105 119.881,436.693C119.821,437.989 120.121,439.405 120.973,440.005C121.165,440.113 121.369,440.185 121.597,440.221C122.509,440.221 123.817,440.461 124.357,439.693C124.585,439.501 124.633,438.637 124.693,437.821C124.345,437.725 123.505,437.833 123.181,437.797C123.241,439.093 122.065,439.081 121.681,438.337C121.501,438.049 121.513,437.785 121.501,437.305L121.501,437.089ZM122.953,435.229C123.241,435.373 123.421,435.685 123.421,436.009C123.421,436.249 123.493,436.153 122.665,436.153C121.477,436.153 121.477,436.225 121.537,435.889C121.597,435.457 121.777,435.109 122.533,435.109C122.713,435.109 122.821,435.145 122.953,435.229Z" style="fill:black;fill-rule:nonzero;"/>
            <path d="M130.237,435.949C130.237,435.085 129.949,434.341 129.193,434.017C128.353,433.825 127.129,433.825 126.505,433.993C124.957,434.401 124.729,436.669 126.529,437.281C127.417,437.665 128.509,437.485 128.413,438.277C128.449,439.201 126.949,438.937 126.913,438.205C126.421,438.205 125.665,438.157 125.137,438.217L125.137,438.277C125.137,439.561 126.229,440.353 127.837,440.293C128.761,440.305 129.613,439.993 129.985,439.213C130.285,438.337 130.177,437.797 129.829,437.221C129.457,436.741 128.605,436.573 127.705,436.441C126.949,436.177 126.961,435.337 127.693,435.205C128.101,435.169 128.617,435.541 128.521,435.949C129.061,436.057 129.721,436.033 130.237,435.949Z" style="fill:black;fill-rule:nonzero;"/>
            <path d="M133.177,431.893C132.649,431.953 132.049,431.797 131.629,431.857C131.569,432.457 131.617,433.465 131.617,434.161C131.365,434.161 131.089,434.161 130.765,434.149L130.729,435.613C131.065,435.613 131.341,435.613 131.593,435.601C131.581,436.765 131.581,437.809 131.785,439.045C132.193,440.017 133.801,440.161 135.073,440.101C135.241,439.609 135.133,438.925 135.073,438.481C134.533,438.517 133.537,438.445 133.225,438.001C133.213,437.281 133.213,436.441 133.213,435.577L135.073,435.577C135.013,435.145 135.229,434.329 135.001,434.077C134.185,434.125 133.681,434.161 133.189,434.173C133.189,433.933 133.177,433.705 133.177,433.501L133.177,431.893Z" style="fill:black;fill-rule:nonzero;"/>
            <path d="M139.009,439.573C139.045,439.609 139.237,439.789 139.573,439.885C139.801,439.945 140.005,440.017 140.233,440.053C140.845,440.137 141.601,440.149 142.189,439.969C142.777,439.777 143.161,439.381 143.389,438.853C143.593,438.421 143.557,437.929 143.593,437.461C143.641,436.165 143.653,434.845 143.617,433.489C143.629,433.189 143.605,432.877 143.449,432.625C142.633,431.173 139.129,431.185 138.553,433.117C138.421,433.465 138.505,433.909 138.505,434.233L138.505,434.257C138.553,434.257 139.837,434.269 140.089,434.233C140.341,433.561 141.781,433.081 141.817,434.161C141.877,435.169 140.689,434.773 140.149,434.965L140.149,434.977C140.209,435.433 140.017,436.213 140.209,436.633C140.605,436.549 141.181,436.537 141.529,436.789C141.865,437.041 141.913,437.509 141.721,437.833C141.241,438.493 140.305,437.953 140.113,437.377L140.101,437.365L140.089,437.365C139.501,437.329 139.009,437.509 138.529,437.473L138.517,437.473C138.505,437.473 138.505,437.473 138.505,437.485C138.565,437.977 138.553,438.349 138.613,438.721C138.649,439.045 138.781,439.345 139.009,439.573Z" style="fill:black;fill-rule:nonzero;"/>
        </g>
        <g transform="matrix(3.337,-1.58363,1.58363,3.337,-841.001,-1031.09)">
            <path d="M120.373,431.761C118.729,431.581 116.941,431.641 115.309,431.653C115.309,431.665 115.321,431.665 115.321,431.677C115.261,432.433 115.309,433.441 115.369,433.561C115.561,433.621 116.437,433.513 116.809,433.705L116.821,433.717C117.013,438.193 116.869,439.969 116.905,440.113C117.481,440.017 118.285,440.125 118.873,440.029L118.873,440.017L118.873,440.005C118.777,434.761 118.765,433.885 118.813,433.657C118.813,433.645 118.825,433.633 118.825,433.621L118.861,433.621C119.617,433.585 120.025,433.561 120.325,433.621C120.409,433.045 120.409,432.289 120.373,431.761Z" style="fill:black;fill-rule:nonzero;"/>
            <path d="M121.501,437.089C122.005,437.185 124.381,437.089 124.717,436.993C124.813,435.649 124.597,434.269 123.109,434.017C121.969,433.729 120.565,434.077 120.145,435.025C119.953,435.553 119.929,436.105 119.881,436.693C119.821,437.989 120.121,439.405 120.973,440.005C121.165,440.113 121.369,440.185 121.597,440.221C122.509,440.221 123.817,440.461 124.357,439.693C124.585,439.501 124.633,438.637 124.693,437.821C124.345,437.725 123.505,437.833 123.181,437.797C123.241,439.093 122.065,439.081 121.681,438.337C121.501,438.049 121.513,437.785 121.501,437.305L121.501,437.089ZM122.953,435.229C123.241,435.373 123.421,435.685 123.421,436.009C123.421,436.249 123.493,436.153 122.665,436.153C121.477,436.153 121.477,436.225 121.537,435.889C121.597,435.457 121.777,435.109 122.533,435.109C122.713,435.109 122.821,435.145 122.953,435.229Z" style="fill:black;fill-rule:nonzero;"/>
            <path d="M130.237,435.949C130.237,435.085 129.949,434.341 129.193,434.017C128.353,433.825 127.129,433.825 126.505,433.993C124.957,434.401 124.729,436.669 126.529,437.281C127.417,437.665 128.509,437.485 128.413,438.277C128.449,439.201 126.949,438.937 126.913,438.205C126.421,438.205 125.665,438.157 125.137,438.217L125.137,438.277C125.137,439.561 126.229,440.353 127.837,440.293C128.761,440.305 129.613,439.993 129.985,439.213C130.285,438.337 130.177,437.797 129.829,437.221C129.457,436.741 128.605,436.573 127.705,436.441C126.949,436.177 126.961,435.337 127.693,435.205C128.101,435.169 128.617,435.541 128.521,435.949C129.061,436.057 129.721,436.033 130.237,435.949Z" style="fill:black;fill-rule:nonzero;"/>
            <path d="M133.177,431.893C132.649,431.953 132.049,431.797 131.629,431.857C131.569,432.457 131.617,433.465 131.617,434.161C131.365,434.161 131.089,434.161 130.765,434.149L130.729,435.613C131.065,435.613 131.341,435.613 131.593,435.601C131.581,436.765 131.581,437.809 131.785,439.045C132.193,440.017 133.801,440.161 135.073,440.101C135.241,439.609 135.133,438.925 135.073,438.481C134.533,438.517 133.537,438.445 133.225,438.001C133.213,437.281 133.213,436.441 133.213,435.577L135.073,435.577C135.013,435.145 135.229,434.329 135.001,434.077C134.185,434.125 133.681,434.161 133.189,434.173C133.189,433.933 133.177,433.705 133.177,433.501L133.177,431.893Z" style="fill:black;fill-rule:nonzero;"/>
            <path d="M143.737,440.053C143.773,440.053 143.785,440.053 143.785,440.041C143.737,439.861 143.761,439.693 143.761,439.513C143.773,439.117 143.809,438.685 143.677,438.361C142.633,438.361 141.781,438.421 140.713,438.385C140.581,438.325 140.785,437.845 140.845,437.689C141.709,436.633 143.797,436.645 143.941,434.869C143.953,434.545 143.929,434.125 143.917,433.789C143.833,432.925 143.461,432.157 142.741,431.785C141.877,431.437 139.945,431.461 139.309,432.289C138.721,432.949 138.517,433.957 138.709,435.061L138.709,435.085L138.721,435.085C139.261,435.145 139.777,435.109 140.497,435.025L140.509,435.025L140.509,435.001C140.545,434.425 140.617,433.549 141.397,433.549C142.141,433.645 142.249,434.845 141.601,435.265C140.773,435.937 139.813,436.237 139.045,437.101C138.529,437.941 138.721,438.997 138.625,440.077C138.625,440.089 138.625,440.101 138.637,440.113L139.177,440.113L143.737,440.053Z" style="fill:black;fill-rule:nonzero;"/>
        </g>
    </g>
</svg>
