<?xml version="1.0" standalone="no"?><!DOCTYPE svg PUBLIC "-//W3C//DTD SVG 1.1//EN" "http://www.w3.org/Graphics/SVG/1.1/DTD/svg11.dtd"><svg width="100%" height="100%" viewBox="0 0 1280 720" version="1.1" xmlns="http://www.w3.org/2000/svg" xmlns:xlink="http://www.w3.org/1999/xlink" xml:space="preserve" style="fill-rule:evenodd;clip-rule:evenodd;stroke-linejoin:round;stroke-miterlimit:1.41421;"><path id="robot-head-front" d="M315.296,75.091c0.876,1.026 4.093,2.716 7.275,3.867c5.683,2.21 5.683,2.21 5.258,8.322c-0.183,3.527 -0.295,12.458 -0.358,20.033l-0.067,13.931l-7.542,0.476c-4.175,0.264 -18.223,0.475 -31.194,0.617c-39.326,0.32 -55.209,1.457 -61.638,4.567c-7.607,3.726 -13.822,12.366 -15.163,21.104c-0.771,4.916 1.671,47.894 7.9,142.282l8.948,135.321l6.12,0.56c6.389,0.543 220.925,-8.673 260.645,-11.316l22.491,-1.42l-5.339,-84.574c-3.843,-60.872 -5.583,-96.999 -6.024,-129.691c-0.218,-24.865 -1.175,-48.602 -1.969,-52.608c-2.204,-11.353 -8.716,-20.272 -17.473,-24.046c-7.232,-3.194 -7.367,-3.185 -76.254,-2.082c-37.819,0.63 -69.569,1.012 -70.402,0.659c-0.825,-0.218 -2.277,-6.076 -3.334,-14.257c-1.015,-7.508 -2.266,-16.623 -2.883,-19.964l-1.199,-6.144l5.067,-1.131c2.928,-0.726 6.984,-2.875 9.02,-4.896l3.836,-3.488l-18.728,1.047c-15.487,0.978 -18.433,1.434 -16.993,2.831Z" style="fill:#fff;fill-rule:nonzero;"/><path id="robot-head-front1" d="M327.579,80.352c0.876,1.027 4.092,2.716 7.275,3.868c5.683,2.21 5.683,2.21 5.257,8.321c-0.183,3.527 -0.295,12.458 -0.358,20.034l-0.067,13.93l-7.541,0.477c-4.175,0.263 -18.224,0.474 -31.195,0.617c-39.325,0.319 -55.208,1.457 -61.637,4.567c-7.607,3.725 -13.822,12.365 -15.164,21.103c-0.771,4.916 1.672,47.894 7.901,142.282l8.948,135.321l6.12,0.56c6.389,0.543 220.925,-8.673 260.645,-11.316l22.49,-1.419l-5.339,-84.575c-3.842,-60.872 -5.582,-96.998 -6.024,-129.691c-0.217,-24.865 -1.175,-48.601 -1.968,-52.607c-2.204,-11.354 -8.717,-20.272 -17.473,-24.046c-7.233,-3.194 -7.367,-3.186 -76.254,-2.082c-37.819,0.629 -69.569,1.011 -70.403,0.658c-0.825,-0.218 -2.276,-6.076 -3.334,-14.257c-1.014,-7.507 -2.266,-16.623 -2.882,-19.964l-1.199,-6.144l5.066,-1.131c2.929,-0.726 6.985,-2.875 9.02,-4.896l3.837,-3.487l-18.728,1.047c-15.488,0.977 -18.434,1.434 -16.993,2.83Z" style="fill:#f4bd40;fill-rule:nonzero;"/><path id="robot-head-front2" d="M318.939,73.242c0.876,1.026 4.093,2.716 7.275,3.867c5.683,2.21 5.683,2.21 5.258,8.321c-0.183,3.527 -0.295,12.458 -0.358,20.034l-0.067,13.931l-7.542,0.476c-4.174,0.263 -18.223,0.474 -31.194,0.617c-39.326,0.319 -55.209,1.457 -61.638,4.567c-7.607,3.725 -13.822,12.365 -15.163,21.103c-0.771,4.917 1.671,47.894 7.9,142.283l8.948,135.32l6.12,0.56c6.389,0.544 220.925,-8.673 260.645,-11.315l22.491,-1.42l-5.339,-84.575c-3.843,-60.872 -5.583,-96.998 -6.024,-129.691c-0.217,-24.864 -1.175,-48.601 -1.969,-52.607c-2.204,-11.354 -8.716,-20.272 -17.472,-24.046c-7.233,-3.194 -7.368,-3.186 -76.255,-2.082c-37.819,0.63 -69.569,1.012 -70.402,0.659c-0.825,-0.219 -2.277,-6.076 -3.334,-14.257c-1.015,-7.508 -2.266,-16.623 -2.883,-19.965l-1.199,-6.144l5.067,-1.131c2.928,-0.725 6.984,-2.874 9.02,-4.896l3.836,-3.487l-18.728,1.047c-15.487,0.978 -18.433,1.434 -16.993,2.831Z" style="fill:none;stroke-width:9px;stroke:#000;"/><path id="robot-head-side" d="M182.962,148.889c-18.149,12.368 -30.078,22.586 -33.223,28.463c-2.051,3.916 -2.116,7.165 -0.459,33.426l1.828,28.955l4.297,5.948c17.624,24.307 21.453,76.391 7.946,108.747l-4.933,11.805l1.908,36.656c1.066,21.161 2.321,36.766 2.995,36.723c2.424,-0.153 52.861,-12.937 53.896,-13.678c1.296,-0.893 -16.661,-287.485 -18.008,-287.4c-0.673,0.043 -7.951,4.694 -16.247,10.355Z" style="fill:#fff;fill-rule:nonzero;"/><path id="robot-head-side1" d="M190.566,154.739c-18.149,12.368 -30.078,22.586 -33.223,28.463c-2.051,3.916 -2.117,7.165 -0.459,33.426l1.828,28.955l4.297,5.948c17.624,24.307 21.453,76.391 7.946,108.747l-4.933,11.805l1.908,36.656c1.065,21.161 2.321,36.766 2.994,36.723c2.424,-0.153 52.862,-12.937 53.897,-13.678c1.295,-0.893 -16.661,-287.485 -18.008,-287.4c-0.673,0.043 -7.951,4.694 -16.247,10.355Z" style="fill:#ae862a;fill-rule:nonzero;"/><path id="robot-head-side2" d="M182.962,148.889c-18.149,12.368 -30.078,22.586 -33.223,28.463c-2.051,3.916 -2.116,7.165 -0.459,33.426l1.828,28.955l4.297,5.948c17.624,24.307 21.453,76.391 7.946,108.747l-4.933,11.805l1.908,36.656c1.066,21.161 2.321,36.766 2.995,36.723c2.424,-0.153 52.861,-12.937 53.896,-13.678c1.296,-0.893 -16.661,-287.485 -18.008,-287.4c-0.673,0.043 -7.951,4.694 -16.247,10.355Z" style="fill:none;stroke-width:9px;stroke:#000;"/><path id="robot-ear" d="M129.816,253.653c-5.099,2.755 -8.871,13.675 -10.889,30.974c-2.076,18.52 -1.365,25.506 4.894,45.392c5.769,18.565 11.824,24.538 20.306,19.675c7.825,-4.55 12.921,-26.64 11.542,-50.62c-0.894,-16.304 -3.088,-25.36 -8.945,-36.753c-5.073,-9.686 -10.386,-12.46 -16.908,-8.668Z" style="fill:#fff;fill-rule:nonzero;"/><path id="robot-ear1" d="M138.592,263.013c-5.1,2.756 -8.872,13.676 -10.89,30.975c-2.076,18.519 -1.365,25.505 4.894,45.392c5.769,18.565 11.824,24.537 20.306,19.675c7.825,-4.55 12.921,-26.641 11.542,-50.621c-0.894,-16.304 -3.088,-25.359 -8.945,-36.753c-5.073,-9.685 -10.386,-12.459 -16.907,-8.668Z" style="fill:#ae862a;fill-rule:nonzero;"/><path id="robot-ear2" d="M135.081,254.824c-5.099,2.756 -8.872,13.675 -10.89,30.974c-2.076,18.52 -1.364,25.506 4.894,45.392c5.769,18.565 11.825,24.538 20.306,19.676c7.826,-4.551 12.921,-26.641 11.543,-50.621c-0.894,-16.304 -3.088,-25.36 -8.946,-36.753c-5.073,-9.685 -10.386,-12.46 -16.907,-8.668Z" style="fill:none;stroke-width:9px;stroke:#000;"/><path id="robot-neck-side" d="M204.339,442.403c-5.462,1.291 -17.068,3.782 -25.602,5.673l-15.747,3.292l0.297,4.714c0.29,4.579 0.29,4.579 5.365,3.582c2.668,-0.574 11.783,-1.825 20.233,-2.9c8.459,-0.939 16.362,-2.114 17.431,-2.317c1.195,-0.346 4.68,-0.836 7.912,-1.04l5.647,-0.492l-0.425,-6.733c-0.484,-7.677 0.476,-7.467 -15.111,-3.779Z" style="fill:#fff;fill-rule:nonzero;"/><path id="robot-neck-side1" d="M206.093,439.044c-5.462,1.291 -17.068,3.781 -25.602,5.672l-15.747,3.293l0.297,4.713c0.289,4.579 0.289,4.579 5.364,3.583c2.668,-0.574 11.784,-1.826 20.234,-2.9c8.459,-0.94 16.362,-2.115 17.431,-2.317c1.195,-0.346 4.679,-0.837 7.912,-1.041l5.647,-0.491l-0.425,-6.734c-0.484,-7.676 0.475,-7.467 -15.111,-3.778Z" style="fill:#000;fill-rule:nonzero;"/><path id="robot-neck-front" d="M236.958,445.076l0.425,6.734l16.565,-1.046c9.023,-0.569 53.12,-2.407 98.034,-4.16c44.914,-1.754 99.803,-4.002 122.058,-4.866c22.254,-0.864 42.346,-1.727 44.779,-1.745c3.914,-0.112 4.292,-0.541 4.66,-5.432c0.443,-3.679 0.047,-5.682 -1.216,-6.413c-0.977,-0.48 -7.61,-0.602 -14.613,-0.16c-7.003,0.442 -66.487,2.71 -132.192,4.965c-65.704,2.255 -123.842,4.438 -129.094,4.769l-9.831,0.621l0.425,6.733Z" style="fill:#fff;fill-rule:nonzero;"/><path id="robot-neck-front1" d="M238.712,441.717l0.425,6.733l16.564,-1.045c9.024,-0.57 53.121,-2.407 98.035,-4.161c44.914,-1.753 99.802,-4.001 122.057,-4.866c22.255,-0.864 42.347,-1.726 44.78,-1.745c3.914,-0.112 4.292,-0.541 4.659,-5.432c0.444,-3.678 0.047,-5.682 -1.216,-6.413c-0.976,-0.479 -7.609,-0.601 -14.612,-0.159c-7.003,0.442 -66.487,2.71 -132.192,4.964c-65.705,2.255 -123.842,4.438 -129.094,4.77l-9.831,0.62l0.425,6.734Z" style="fill:#000;fill-rule:nonzero;"/><path id="robot-body" d="M145.084,467.718c-7.364,3.3 -14.432,13.419 -15.865,22.848c-0.68,4.212 1.686,50.257 7.201,137.627l7.144,89.612l242.225,-0.771l241.637,-0.264c0.289,-1.852 -3.316,-52.324 -8.021,-122.568c-8.226,-123.888 -8.612,-127.866 -11.58,-134.183c-4.047,-8.416 -10.691,-12.999 -19.518,-13.61c-3.937,-0.251 -57.071,1.936 -118.276,4.799c-61.204,2.863 -154.648,6.927 -207.658,8.939c-113.448,4.16 -109.543,3.914 -117.289,7.571Z" style="fill:#e47b00;fill-rule:nonzero;stroke-width:9px;stroke:#000;"/><path id="robot-arm" d="M81.833,483.145c-17.374,7.492 -33.472,28.795 -38.67,51.395c-2.553,10.967 -2.773,16.052 -1.982,43.567c0.529,16.946 2.402,55.197 4.274,84.848l3.263,53.82l82.439,-0.213l-4.748,-64.892c-6.301,-110.52 -8.875,-149.168 -10.462,-155.022c-1.071,-4.122 -4.018,-10.11 -6.367,-13.049c-3.658,-4.4 -5.734,-5.151 -12.05,-4.532c-4.174,0.264 -11.215,2.252 -15.697,4.078Z" style="fill:#fff;fill-rule:nonzero;"/><path id="robot-arm1" d="M87.269,486.581c-17.375,7.491 -33.472,28.795 -38.671,51.395c-2.552,10.966 -2.772,16.052 -1.982,43.566c0.529,16.946 2.403,55.198 4.275,84.849l3.262,53.82l82.44,-0.213l-4.748,-64.892c-6.301,-110.521 -8.876,-149.169 -10.462,-155.022c-1.072,-4.122 -4.019,-10.111 -6.368,-13.05c-3.658,-4.4 -5.733,-5.151 -12.049,-4.531c-4.175,0.263 -11.215,2.251 -15.697,4.078Z" style="fill:#a35800;fill-rule:nonzero;"/><path id="robot-arm2" d="M81.833,483.145c-17.374,7.492 -33.472,28.795 -38.67,51.395c-2.553,10.967 -2.773,16.052 -1.982,43.567c0.529,16.946 2.402,55.197 4.274,84.848l3.263,53.82l82.439,-0.213l-4.748,-64.892c-6.301,-110.52 -8.875,-149.168 -10.462,-155.022c-1.071,-4.122 -4.018,-10.11 -6.367,-13.049c-3.658,-4.4 -5.734,-5.151 -12.05,-4.532c-4.174,0.264 -11.215,2.252 -15.697,4.078Z" style="fill:none;stroke-width:9px;stroke:#000;"/><path id="heart" d="M515.451,511.123c-7.646,0.57 -14.258,4.754 -18.642,10.977c-5.257,-5.505 -12.416,-8.663 -20.061,-8.094c-14.579,1.086 -25.403,15.309 -24.177,31.768c0.329,4.422 1.338,8.626 2.853,12.599c0,0 1.372,3.585 2.496,5.531c13.049,24.979 44.941,39.431 44.941,39.431c0,0 29.398,-19.018 38.602,-45.654c0,0 1.18,-3.546 1.649,-5.84c0.853,-4.168 1.285,-8.461 0.955,-12.883c-1.226,-16.459 -14.038,-28.92 -28.616,-27.835Z" style="fill:#fff;fill-rule:nonzero;"/><path id="heart1" d="M522.378,509.535c-7.645,0.569 -14.277,4.486 -18.693,10.283c-5.225,-5.079 -12.364,-7.97 -20.01,-7.4c-14.578,1.086 -25.475,14.337 -24.338,29.599c0.305,4.1 1.291,7.995 2.784,11.673c0,0 1.352,3.318 2.465,5.117c12.909,23.101 44.71,36.335 44.71,36.335c0,0 29.489,-17.8 38.833,-42.558c0,0 1.199,-3.296 1.68,-5.426c0.876,-3.872 1.33,-7.856 1.024,-11.957c-1.137,-15.261 -13.877,-26.752 -28.455,-25.666Z" style="fill:#f4bd40;fill-rule:nonzero;"/><path id="heart2" d="M522.961,516.556c-7.646,0.57 -14.277,4.486 -18.693,10.283c-5.226,-5.079 -12.365,-7.969 -20.01,-7.4c-14.578,1.086 -25.475,14.338 -24.339,29.599c0.306,4.1 1.292,7.995 2.784,11.673c0,0 1.353,3.318 2.466,5.117c12.909,23.101 44.71,36.336 44.71,36.336c0,0 29.489,-17.801 38.833,-42.559c0,0 1.198,-3.296 1.68,-5.426c0.875,-3.872 1.329,-7.856 1.024,-11.956c-1.137,-15.262 -13.877,-26.753 -28.455,-25.667Z" style="fill:none;stroke-width:6px;stroke-linecap:round;stroke:#000;"/><path id="title-color" d="M1241.26,238.817l-614.95,17.241l2.55,90.975l614.95,-17.241l-2.55,-90.975Z" style="fill:#fff;"/><rect id="title-color1" x="637.729" y="244.332" width="610.979" height="91.011" style="fill:#f4bd40;"/><g id="welcome-our-new-mobile-automation-overlords" transform="matrix(1.24577,0,0,1.13679,-1801.71,109.262)"><path d="M2059.85,29.29c-1.584,-0.144 -3.168,-0.216 -4.824,-0.216c-1.728,0 -3.456,0.072 -5.112,0.432l0,0.072c-0.792,8.424 -0.504,22.32 -1.296,30.6c-1.152,-2.88 -3.096,-13.392 -3.96,-14.04c-0.072,0.072 -0.072,0.144 -0.144,0.36c-1.08,4.32 -2.016,8.424 -3.24,12.744c-2.088,-8.28 -0.72,-21.528 -1.512,-30.024c-1.728,-0.072 -3.672,-0.216 -5.616,-0.216c-1.656,0 -3.24,0.144 -4.68,0.36l0,0.072c0.288,16.632 2.952,33.264 5.256,49.68l0.072,0c1.08,0.144 1.944,0.216 2.736,0.216c1.368,0 2.304,-0.144 3.528,-0.36c1.512,-2.448 2.16,-10.224 3.888,-11.952l0.072,0c1.728,2.664 2.592,10.008 4.248,12.24l3.456,0c0.936,0 1.8,0.072 2.448,-0.144c1.368,-16.704 3.312,-33.12 4.752,-49.752l-0.072,-0.072Z" style="fill:#fff;fill-rule:nonzero;"/><path d="M2075.04,61.402c3.024,0.576 17.28,0 19.296,-0.576c0.576,-8.064 -0.72,-16.344 -9.648,-17.856c-6.84,-1.728 -15.264,0.36 -17.784,6.048c-1.152,3.168 -1.296,6.48 -1.584,10.008c-0.36,7.776 1.44,16.272 6.552,19.872c1.152,0.648 2.376,1.08 3.744,1.296c5.472,0 13.32,1.44 16.56,-3.168c1.368,-1.152 1.656,-6.336 2.016,-11.232c-2.088,-0.576 -7.128,0.072 -9.072,-0.144c0.36,7.776 -6.696,7.704 -9,3.24c-1.08,-1.728 -1.008,-3.312 -1.08,-6.192l0,-1.296ZM2083.76,50.242c1.728,0.864 2.808,2.736 2.808,4.68c0,1.44 0.432,0.864 -4.536,0.864c-7.128,0 -7.128,0.432 -6.768,-1.584c0.36,-2.592 1.44,-4.68 5.976,-4.68c1.08,0 1.728,0.216 2.52,0.72Z" style="fill:#fff;fill-rule:nonzero;"/><path d="M2103.05,27.13c-1.728,17.424 0.936,34.992 -0.432,52.344c1.296,-0.36 9.216,0.648 10.152,-0.432c-0.576,-11.592 0.072,-39.888 0.072,-51.696l-9.792,-0.216Z" style="fill:#fff;fill-rule:nonzero;"/><path d="M2150.07,65.65c-2.016,-0.576 -7.2,0.072 -9.144,-0.144c-0.288,1.224 -0.792,3.168 -1.728,3.816c-2.232,1.512 -8.64,1.224 -8.28,-3.24c0.216,-3.384 0.072,-6.408 0.432,-9.36c0.144,-0.792 0.36,-1.224 0.648,-1.44c0.648,-0.792 1.44,-1.296 2.448,-1.584c3.744,-0.936 6.12,1.224 6.624,4.608c2.448,0.36 6.696,0.936 9.144,0.36c-0.216,-6.336 -0.072,-11.016 -2.808,-12.96c-2.016,-1.944 -4.896,-2.808 -7.992,-3.024c-2.016,-0.216 -3.672,0.144 -5.616,-0.072c-4.536,0 -9.432,1.224 -10.8,4.176c-0.288,0.936 -1.08,3.168 -1.152,4.248c-0.288,1.728 -0.432,3.456 -0.432,5.184c0.792,6.264 -1.44,16.128 3.744,20.736c1.656,1.656 3.744,2.736 6.192,3.168c5.544,0 13.392,1.512 16.704,-3.168c1.296,-1.296 1.656,-6.336 2.016,-11.304Z" style="fill:#fff;fill-rule:nonzero;"/><path d="M2160,46.642c-0.288,1.08 -1.08,3.168 -1.152,4.248c-0.288,1.8 -0.36,3.456 -0.36,5.184c0.576,6.264 -1.512,16.128 3.672,20.736c1.656,1.656 3.744,2.736 6.192,3.168c5.544,0 13.392,1.512 16.704,-3.168c1.872,-1.872 2.088,-11.304 2.304,-16.92c-0.216,-6.336 -0.216,-12.456 -2.952,-14.256c-2.016,-1.944 -4.896,-2.88 -7.992,-3.096c-2.016,-0.216 -3.672,0.144 -5.616,-0.072c-4.536,0 -9.432,1.224 -10.8,4.176ZM2169,55.138c0.648,-0.792 1.44,-1.296 2.448,-1.584c3.744,-0.864 6.12,0.792 6.624,4.176c0.576,2.808 0.144,5.976 -0.216,9.072c-0.288,1.224 -0.864,2.016 -1.656,2.376c-2.52,1.368 -8.496,1.152 -8.28,-3.24c0.216,-3.384 0.072,-6.264 0.432,-9.36c0.144,-0.792 0.36,-1.224 0.648,-1.44Z" style="fill:#fff;fill-rule:nonzero;"/><path d="M2204.86,47.362c-0.072,-1.368 0.072,-2.16 -0.144,-3.816c0,-0.648 -3.528,0.072 -4.32,0.072c-2.304,0.216 -2.736,0.216 -5.04,0c-0.36,12.672 0.072,24.264 0.072,36.072c4.608,-0.36 5.616,0.504 8.928,-0.432l0,-0.288c0.792,-6.336 -0.288,-12.672 0.072,-19.296c0.36,-5.184 5.256,-4.68 6.84,-3.888c0.072,0.072 0.216,0.072 0.288,0.144c1.512,1.152 1.584,4.608 1.8,6.984c0.36,5.184 -0.072,12.312 0.288,16.704c3.384,0 5.616,0.216 9,-0.288c-0.36,-5.832 0.36,-15.552 0.144,-23.04c1.8,-1.368 4.176,-1.08 5.4,-0.504c0.072,0.072 0.216,0.072 0.288,0.144c1.512,1.152 1.584,4.608 1.8,6.984c0.36,5.184 -0.072,12.312 0.288,16.704c3.384,0 5.616,0.216 9,-0.288c-0.576,-9.936 1.512,-30.528 -1.512,-33.264c-3.96,-3.384 -10.512,-2.664 -14.472,0.216c-0.504,0.36 -1.224,0.72 -1.728,1.008c-0.216,-0.576 -0.504,-1.008 -0.72,-1.224c-3.96,-3.384 -10.512,-2.664 -14.472,0.216c-0.504,0.36 -1.296,0.792 -1.8,1.08Z" style="fill:#fff;fill-rule:nonzero;"/><path d="M2258.07,61.402c3.024,0.576 17.28,0 19.296,-0.576c0.576,-8.064 -0.72,-16.344 -9.648,-17.856c-6.84,-1.728 -15.264,0.36 -17.784,6.048c-1.152,3.168 -1.296,6.48 -1.584,10.008c-0.36,7.776 1.44,16.272 6.552,19.872c1.152,0.648 2.376,1.08 3.744,1.296c5.472,0 13.32,1.44 16.56,-3.168c1.368,-1.152 1.656,-6.336 2.016,-11.232c-2.088,-0.576 -7.128,0.072 -9.072,-0.144c0.36,7.776 -6.696,7.704 -9,3.24c-1.08,-1.728 -1.008,-3.312 -1.08,-6.192l0,-1.296ZM2266.78,50.242c1.728,0.864 2.808,2.736 2.808,4.68c0,1.44 0.432,0.864 -4.536,0.864c-7.128,0 -7.128,0.432 -6.768,-1.584c0.36,-2.592 1.44,-4.68 5.976,-4.68c1.08,0 1.728,0.216 2.52,0.72Z" style="fill:#fff;fill-rule:nonzero;"/><path d="M2335.25,36.85c-0.576,-1.656 -1.584,-3.168 -2.952,-4.392c-5.544,-4.248 -14.472,-4.392 -20.808,-1.296c-0.648,0.36 -1.152,0.792 -1.656,1.296c-2.952,3.384 -3.744,7.992 -3.816,12.312c-0.504,7.56 0.072,15.12 0.36,22.608c0.072,2.808 0.36,5.616 1.728,7.992c1.728,3.816 5.544,4.68 9.504,5.04c2.808,0.216 5.544,0.072 8.208,-0.72c2.952,-0.792 5.76,-2.088 7.416,-4.392c1.728,-2.808 2.52,-6.336 2.736,-9.72l0.216,-2.376c0.36,-4.968 0.072,-9.648 0.36,-14.76c0.072,-2.376 0.072,-4.752 -0.144,-7.128c-0.216,-1.512 -0.504,-3.024 -1.152,-4.464ZM2327.55,54.418l0,3.456c0,0.216 -0.072,1.8 -0.144,3.744c-0.36,4.176 0.36,4.176 -1.44,6.552c-2.952,3.312 -9,2.88 -10.872,-0.936c-0.936,-3.168 -0.864,-6.768 -1.368,-10.152c-0.216,-4.032 -0.144,-8.136 0.648,-11.808c0.576,-2.016 1.728,-3.672 3.384,-4.968c1.512,-1.152 3.672,-1.8 5.616,-1.008c2.232,1.08 3.528,3.456 3.744,6.12c0.072,1.656 0.288,4.032 0.288,4.104l0.144,4.896Z" style="fill:#fff;fill-rule:nonzero;"/><path d="M2363.12,75.586c0.072,1.368 -0.072,2.16 0.144,3.816c0,0.648 3.528,-0.072 4.32,-0.072c2.304,-0.216 2.736,-0.216 5.04,0c0.36,-12.672 -0.072,-24.264 -0.072,-36.072c-4.608,0.36 -5.616,-0.504 -8.928,0.432l0,0.288c-0.936,6.264 0.288,12.744 -0.072,19.296c-0.36,5.184 -5.256,4.68 -6.84,3.888c-0.072,-0.072 -0.216,-0.072 -0.288,-0.144c-1.512,-1.152 -1.584,-4.608 -1.8,-6.984c-0.36,-5.184 0.072,-12.312 -0.288,-16.704c-3.384,0 -5.616,-0.216 -9,0.288c0.576,9.936 -1.512,30.528 1.512,33.264c3.96,3.384 10.512,2.664 14.472,-0.216c0.504,-0.36 1.296,-0.792 1.8,-1.08Z" style="fill:#fff;fill-rule:nonzero;"/><path d="M2390.98,45.994c0,-1.296 -0.072,-0.864 -0.072,-2.448c0,-0.432 -3.888,0.072 -4.68,0.072c-2.304,0.216 -2.736,0.216 -5.04,0c-0.36,12.672 0.072,24.264 0.072,36.072c4.608,-0.36 6.336,0.504 9.648,-0.432l0,-0.288c0,-7.128 -0.072,-12.24 -0.288,-18.864c-0.216,-5.328 3.672,-5.544 8.784,-4.968c0.072,0 1.584,0.216 2.736,0.504c0.504,0.216 1.008,0.288 1.512,0.504l0.648,0.216c-0.216,-2.952 0,-6.12 0,-12.672c0,-0.288 -6.264,-0.216 -9.936,0.936c-1.368,0.504 -3.024,1.152 -3.384,1.368Z" style="fill:#fff;fill-rule:nonzero;"/><path d="M2102.55,181.688c1.656,0 2.16,-0.288 2.376,-0.36l0,-1.44c0,-1.944 -0.072,-3.816 -0.072,-5.76c0,-2.664 0.072,-5.184 0.072,-7.992c0,-4.104 0,-8.28 -0.072,-12.312l0,-23.184c-1.368,-0.288 -2.952,-0.432 -4.752,-0.432c-1.8,0 -3.528,0.144 -5.184,0.432c-0.072,2.376 -0.144,4.392 -0.144,6.408c0,3.456 0.216,6.624 0.216,10.44c0,1.656 -0.216,3.744 -0.504,3.96c-0.216,0 -5.472,-10.656 -6.048,-12.024c-1.728,-4.032 -2.376,-4.536 -3.744,-8.064c0,-0.432 -4.752,-0.72 -5.976,-0.72c-1.152,0 -2.304,0.072 -3.24,0.288c-0.504,6.12 -0.648,12.672 -0.648,19.296c0,9 0.216,16.848 0.216,25.992l0,5.04c2.232,0 4.608,0.432 6.912,0.432c1.08,0 2.088,-0.072 3.168,-0.36c-0.072,-1.656 -0.072,-3.744 -0.072,-5.976c0,-8.064 0.216,-18.288 0.504,-18.288c0.216,0 0.576,1.08 0.936,2.16l0.72,2.16c2.232,6.12 5.544,12.816 8.712,19.944c1.944,0 4.68,0.36 6.624,0.36Z" style="fill:#000;fill-rule:nonzero;"/><path d="M2122.28,163.256c3.024,0.576 17.28,0 19.296,-0.576c0.576,-8.064 -0.72,-16.344 -9.648,-17.856c-6.84,-1.728 -15.264,0.36 -17.784,6.048c-1.152,3.168 -1.296,6.48 -1.584,10.008c-0.36,7.776 1.44,16.272 6.552,19.872c1.152,0.648 2.376,1.08 3.744,1.296c5.472,0 13.32,1.44 16.56,-3.168c1.368,-1.152 1.656,-6.336 2.016,-11.232c-2.088,-0.576 -7.128,0.072 -9.072,-0.144c0.36,7.776 -6.696,7.704 -9,3.24c-1.08,-1.728 -1.008,-3.312 -1.08,-6.192l0,-1.296ZM2130.99,152.096c1.728,0.864 2.808,2.736 2.808,4.68c0,1.44 0.432,0.864 -4.536,0.864c-7.128,0 -7.128,0.432 -6.768,-1.584c0.36,-2.592 1.44,-4.68 5.976,-4.68c1.08,0 1.728,0.216 2.52,0.72Z" style="fill:#000;fill-rule:nonzero;"/><path d="M2158.85,145.544c-3.096,-0.36 -6.624,0.144 -10.08,-0.216c3.096,11.304 5.544,24.192 7.488,36.216c3.672,0 9.792,0.432 13.536,-0.144c1.368,-5.184 1.656,-11.304 2.808,-16.56c1.08,5.4 1.944,11.52 2.808,16.704c3.672,0 8.928,0.432 12.672,-0.144c3.24,-12.096 4.968,-25.128 9,-36c-3.816,-0.288 -6.264,0.216 -9.36,0.216c-1.728,4.392 -3.6,18.936 -5.904,24.552c-2.088,-5.76 -3.24,-17.856 -4.608,-24.768c-2.88,-0.576 -4.392,0.288 -7.992,-0.072c0,0 -0.864,5.04 -0.936,5.04c-2.304,10.512 -2.664,14.04 -4.752,19.8c-2.088,-5.76 -3.312,-17.784 -4.68,-24.624Z" style="fill:#000;fill-rule:nonzero;"/><path d="M2255.26,158.432c0.504,-9.216 -0.288,-18.072 0.072,-27.288c-3.024,0 -9.288,0.504 -10.656,0.288c-1.728,2.232 -3.672,11.448 -4.248,11.232c-0.144,0 -0.288,-0.072 -0.432,-0.216c-1.512,-2.232 -2.952,-8.856 -4.752,-10.872l-0.072,0c-3.168,0.216 -7.2,-0.432 -9.792,0.36c-0.288,39.096 -0.288,47.88 0.072,49.176c0.072,0.144 0.144,0.216 0.216,0.216c3.096,0 6.984,0.288 10.08,-0.216c-0.576,-8.928 -1.008,-18.288 -0.216,-27.288c0.072,-0.144 3.024,9.936 4.464,10.008c0.792,0 3.312,-8.568 4.536,-10.512c0.936,8.064 0.648,19.8 1.008,28.008c2.304,0 6.624,-0.288 9.504,0.072l0.216,-22.968Z" style="fill:#000;fill-rule:nonzero;"/><path d="M2265.92,148.496c-0.288,1.08 -1.08,3.168 -1.152,4.248c-0.288,1.8 -0.36,3.456 -0.36,5.184c0.576,6.264 -1.512,16.128 3.672,20.736c1.656,1.656 3.744,2.736 6.192,3.168c5.544,0 13.392,1.512 16.704,-3.168c1.872,-1.872 2.088,-11.304 2.304,-16.92c-0.216,-6.336 -0.216,-12.456 -2.952,-14.256c-2.016,-1.944 -4.896,-2.88 -7.992,-3.096c-2.016,-0.216 -3.672,0.144 -5.616,-0.072c-4.536,0 -9.432,1.224 -10.8,4.176ZM2274.92,156.992c0.648,-0.792 1.44,-1.296 2.448,-1.584c3.744,-0.864 6.12,0.792 6.624,4.176c0.576,2.808 0.144,5.976 -0.216,9.072c-0.288,1.224 -0.864,2.016 -1.656,2.376c-2.52,1.368 -8.496,1.152 -8.28,-3.24c0.216,-3.384 0.072,-6.264 0.432,-9.36c0.144,-0.792 0.36,-1.224 0.648,-1.44Z" style="fill:#000;fill-rule:nonzero;"/><path d="M2310.84,130.712c0,-0.216 -5.904,-0.648 -9.072,-0.072l0,4.752c0,15.984 -0.792,32.04 -0.432,45.864c2.952,0 6.84,0.288 9.72,-0.072c0.072,-0.072 0.072,-0.288 0.072,-0.504c0,-0.936 0.072,-1.296 0.072,-2.376c0.216,-0.504 0.432,-0.864 0.72,-0.288c1.44,2.88 4.032,3.456 6.696,3.096c11.016,-0.792 11.736,-10.656 12.096,-20.304c0,-6.696 -1.584,-13.104 -5.832,-14.616c-5.184,-1.944 -13.464,-0.792 -13.824,0.936c0.288,-13.536 0.072,-9.936 -0.216,-15.624l0,-0.792ZM2322,158.648c0.504,1.368 0.504,2.808 0.504,4.176c0,4.824 -2.448,9.432 -6.552,9.432c-4.896,0 -5.184,-4.392 -5.184,-10.44c0,-7.416 0.288,-8.28 4.392,-8.28c3.96,0 6.336,1.728 6.84,5.112Z" style="fill:#000;fill-rule:nonzero;"/><path d="M2346.56,145.112c-3.096,0.072 -5.328,-0.072 -6.552,-0.144c-0.504,0 -1.656,-0.144 -2.016,-0.072l0,0.072c-1.152,11.304 0.504,24.192 -0.432,36.36c1.296,-0.36 9.216,0.648 10.152,-0.432c-0.648,-11.592 0,-23.976 0.072,-35.568l0,-0.216l-1.224,0ZM2337.7,129.416c-0.072,4.392 0.288,7.128 0.288,9.936c3.744,-0.216 8.856,0.792 9.72,-0.504c0,-2.88 -0.216,-7.992 -0.216,-9.216l-9.792,-0.216Z" style="fill:#000;fill-rule:nonzero;"/><path d="M2356.56,128.984c-1.728,17.424 0.936,34.992 -0.432,52.344c1.296,-0.36 9.216,0.648 10.152,-0.432c-0.576,-11.592 0.072,-39.888 0.072,-51.696l-9.792,-0.216Z" style="fill:#000;fill-rule:nonzero;"/><path d="M2383.56,163.256c3.024,0.576 17.28,0 19.296,-0.576c0.576,-8.064 -0.72,-16.344 -9.648,-17.856c-6.84,-1.728 -15.264,0.36 -17.784,6.048c-1.152,3.168 -1.296,6.48 -1.584,10.008c-0.36,7.776 1.44,16.272 6.552,19.872c1.152,0.648 2.376,1.08 3.744,1.296c5.472,0 13.32,1.44 16.56,-3.168c1.368,-1.152 1.656,-6.336 2.016,-11.232c-2.088,-0.576 -7.128,0.072 -9.072,-0.144c0.36,7.776 -6.696,7.704 -9,3.24c-1.08,-1.728 -1.008,-3.312 -1.08,-6.192l0,-1.296ZM2392.28,152.096c1.728,0.864 2.808,2.736 2.808,4.68c0,1.44 0.432,0.864 -4.536,0.864c-7.128,0 -7.128,0.432 -6.768,-1.584c0.36,-2.592 1.44,-4.68 5.976,-4.68c1.08,0 1.728,0.216 2.52,0.72Z" style="fill:#000;fill-rule:nonzero;"/><path d="M2076.99,257.91c-1.152,-4.824 -5.04,-21.744 -5.904,-25.488c-6.336,0.576 -7.488,0.144 -8.856,0.36c-6.912,23.04 -10.44,48.312 -11.016,50.256c0.072,0.072 0.072,0.072 0.144,0.072c6.552,-0.072 9.288,0.288 10.08,0.072c0.072,0 0.144,-0.072 0.216,-0.072c1.656,-3.168 1.872,-9 3.168,-12.024c2.16,0 2.016,-0.288 4.464,0.072c1.296,2.808 2.232,8.64 3.384,11.736l0.072,0c3.096,0.648 6.768,0.864 9.648,0.288l0,-0.072l-5.4,-25.2ZM2069.64,262.59c-1.8,0 -3.672,0.072 -5.328,0c2.016,-14.76 2.448,-24.84 5.328,0Z" style="fill:#fff;fill-rule:nonzero;"/><path d="M2105.07,279.294c0.072,1.368 -0.072,2.16 0.144,3.816c0,0.648 3.528,-0.072 4.32,-0.072c2.304,-0.216 2.736,-0.216 5.04,0c0.36,-12.672 -0.072,-24.264 -0.072,-36.072c-4.608,0.36 -5.616,-0.504 -8.928,0.432l0,0.288c-0.936,6.264 0.288,12.744 -0.072,19.296c-0.36,5.184 -5.256,4.68 -6.84,3.888c-0.072,-0.072 -0.216,-0.072 -0.288,-0.144c-1.512,-1.152 -1.584,-4.608 -1.8,-6.984c-0.36,-5.184 0.072,-12.312 -0.288,-16.704c-3.384,0 -5.616,-0.216 -9,0.288c0.576,9.936 -1.512,30.528 1.512,33.264c3.96,3.384 10.512,2.664 14.472,-0.216c0.504,-0.36 1.296,-0.792 1.8,-1.08Z" style="fill:#fff;fill-rule:nonzero;"/><path d="M2136.39,233.934c-3.168,0.36 -6.768,-0.576 -9.288,-0.216c-0.36,3.6 -0.072,9.648 -0.072,13.824c-1.512,0 -3.168,0 -5.112,-0.072l-0.216,8.784c2.016,0 3.672,0 5.184,-0.072c-0.072,6.984 -0.072,13.248 1.152,20.664c2.448,5.832 12.096,6.696 19.728,6.336c1.008,-2.952 0.36,-7.056 0,-9.72c-3.24,0.216 -9.216,-0.216 -11.088,-2.88c-0.072,-4.32 -0.072,-9.36 -0.072,-14.544l11.16,0c-0.36,-2.592 0.936,-7.488 -0.432,-9c-4.896,0.288 -7.92,0.504 -10.872,0.576c0,-1.44 -0.072,-2.808 -0.072,-4.032l0,-9.648Z" style="fill:#fff;fill-rule:nonzero;"/><path d="M2157.12,250.35c-0.288,1.08 -1.08,3.168 -1.152,4.248c-0.288,1.8 -0.36,3.456 -0.36,5.184c0.576,6.264 -1.512,16.128 3.672,20.736c1.656,1.656 3.744,2.736 6.192,3.168c5.544,0 13.392,1.512 16.704,-3.168c1.872,-1.872 2.088,-11.304 2.304,-16.92c-0.216,-6.336 -0.216,-12.456 -2.952,-14.256c-2.016,-1.944 -4.896,-2.88 -7.992,-3.096c-2.016,-0.216 -3.672,0.144 -5.616,-0.072c-4.536,0 -9.432,1.224 -10.8,4.176ZM2166.12,258.846c0.648,-0.792 1.44,-1.296 2.448,-1.584c3.744,-0.864 6.12,0.792 6.624,4.176c0.576,2.808 0.144,5.976 -0.216,9.072c-0.288,1.224 -0.864,2.016 -1.656,2.376c-2.52,1.368 -8.496,1.152 -8.28,-3.24c0.216,-3.384 0.072,-6.264 0.432,-9.36c0.144,-0.792 0.36,-1.224 0.648,-1.44Z" style="fill:#fff;fill-rule:nonzero;"/><path d="M2201.98,251.07c-0.072,-1.368 0.072,-2.16 -0.144,-3.816c0,-0.648 -3.528,0.072 -4.32,0.072c-2.304,0.216 -2.736,0.216 -5.04,0c-0.36,12.672 0.072,24.264 0.072,36.072c4.608,-0.36 5.616,0.504 8.928,-0.432l0,-0.288c0.792,-6.336 -0.288,-12.672 0.072,-19.296c0.36,-5.184 5.256,-4.68 6.84,-3.888c0.072,0.072 0.216,0.072 0.288,0.144c1.512,1.152 1.584,4.608 1.8,6.984c0.36,5.184 -0.072,12.312 0.288,16.704c3.384,0 5.616,0.216 9,-0.288c-0.36,-5.832 0.36,-15.552 0.144,-23.04c1.8,-1.368 4.176,-1.08 5.4,-0.504c0.072,0.072 0.216,0.072 0.288,0.144c1.512,1.152 1.584,4.608 1.8,6.984c0.36,5.184 -0.072,12.312 0.288,16.704c3.384,0 5.616,0.216 9,-0.288c-0.576,-9.936 1.512,-30.528 -1.512,-33.264c-3.96,-3.384 -10.512,-2.664 -14.472,0.216c-0.504,0.36 -1.224,0.72 -1.728,1.008c-0.216,-0.576 -0.504,-1.008 -0.72,-1.224c-3.96,-3.384 -10.512,-2.664 -14.472,0.216c-0.504,0.36 -1.296,0.792 -1.8,1.08Z" style="fill:#fff;fill-rule:nonzero;"/><path d="M2274.12,247.326c-3.096,-0.216 -5.4,-0.288 -7.056,-0.36c-0.576,0 -3.456,-0.144 -3.456,0.072c0,1.152 -0.36,2.16 -0.288,3.672c-1.368,-3.312 -3.888,-3.312 -7.344,-3.312c-6.768,0.216 -12.096,7.056 -12.096,16.632c0,7.704 3.168,19.296 10.584,19.296c3.384,0 7.2,-1.872 9.504,-4.176c0,0.936 -0.288,1.44 -0.288,2.52c0,0.792 0.216,1.368 0.864,1.584c1.08,0 2.016,-0.216 3.096,-0.216c1.512,0 3.168,0.216 4.68,0.216l0.864,0c1.152,-0.216 0.936,-1.728 0.936,-2.952c0.648,-10.296 -0.144,-20.16 0.144,-30.528l0,-0.72c0,-0.576 -0.072,-1.152 -0.144,-1.728ZM2253.17,261.654c0.504,-2.376 2.736,-4.608 6.696,-4.608c3.96,0 3.744,0.792 3.744,7.488c0,5.4 0.288,8.712 -4.464,8.712c-4.032,0 -6.408,-3.456 -6.408,-7.776c0,-1.224 0.072,-2.592 0.432,-3.816Z" style="fill:#fff;fill-rule:nonzero;"/><path d="M2297.16,233.934c-3.168,0.36 -6.768,-0.576 -9.288,-0.216c-0.36,3.6 -0.072,9.648 -0.072,13.824c-1.512,0 -3.168,0 -5.112,-0.072l-0.216,8.784c2.016,0 3.672,0 5.184,-0.072c-0.072,6.984 -0.072,13.248 1.152,20.664c2.448,5.832 12.096,6.696 19.728,6.336c1.008,-2.952 0.36,-7.056 0,-9.72c-3.24,0.216 -9.216,-0.216 -11.088,-2.88c-0.072,-4.32 -0.072,-9.36 -0.072,-14.544l11.16,0c-0.36,-2.592 0.936,-7.488 -0.432,-9c-4.896,0.288 -7.92,0.504 -10.872,0.576c0,-1.44 -0.072,-2.808 -0.072,-4.032l0,-9.648Z" style="fill:#fff;fill-rule:nonzero;"/><path d="M2327.69,246.966c-3.096,0.072 -5.328,-0.072 -6.552,-0.144c-0.504,0 -1.656,-0.144 -2.016,-0.072l0,0.072c-1.152,11.304 0.504,24.192 -0.432,36.36c1.296,-0.36 9.216,0.648 10.152,-0.432c-0.648,-11.592 0,-23.976 0.072,-35.568l0,-0.216l-1.224,0ZM2318.84,231.27c-0.072,4.392 0.288,7.128 0.288,9.936c3.744,-0.216 8.856,0.792 9.72,-0.504c0,-2.88 -0.216,-7.992 -0.216,-9.216l-9.792,-0.216Z" style="fill:#fff;fill-rule:nonzero;"/><path d="M2339.07,250.35c-0.288,1.08 -1.08,3.168 -1.152,4.248c-0.288,1.8 -0.36,3.456 -0.36,5.184c0.576,6.264 -1.512,16.128 3.672,20.736c1.656,1.656 3.744,2.736 6.192,3.168c5.544,0 13.392,1.512 16.704,-3.168c1.872,-1.872 2.088,-11.304 2.304,-16.92c-0.216,-6.336 -0.216,-12.456 -2.952,-14.256c-2.016,-1.944 -4.896,-2.88 -7.992,-3.096c-2.016,-0.216 -3.672,0.144 -5.616,-0.072c-4.536,0 -9.432,1.224 -10.8,4.176ZM2348.07,258.846c0.648,-0.792 1.44,-1.296 2.448,-1.584c3.744,-0.864 6.12,0.792 6.624,4.176c0.576,2.808 0.144,5.976 -0.216,9.072c-0.288,1.224 -0.864,2.016 -1.656,2.376c-2.52,1.368 -8.496,1.152 -8.28,-3.24c0.216,-3.384 0.072,-6.264 0.432,-9.36c0.144,-0.792 0.36,-1.224 0.648,-1.44Z" style="fill:#fff;fill-rule:nonzero;"/><path d="M2383.85,251.07c-0.072,-1.368 0.072,-2.16 -0.144,-3.816c0,-0.648 -3.528,0.072 -4.32,0.072c-2.304,0.216 -2.736,0.216 -5.04,0c-0.36,12.672 0.072,24.264 0.072,36.072c4.608,-0.36 5.616,0.504 8.928,-0.432l0,-0.288c0.792,-6.336 -0.288,-12.672 0.072,-19.296c0.36,-5.184 5.256,-4.68 6.84,-3.888c0.072,0.072 0.216,0.072 0.288,0.144c1.512,1.152 1.584,4.608 1.8,6.984c0.36,5.184 -0.072,12.312 0.288,16.704c3.384,0 5.616,0.216 9,-0.288c-0.576,-9.936 1.512,-30.528 -1.512,-33.264c-3.96,-3.384 -10.512,-2.664 -14.472,0.216c-0.504,0.36 -1.296,0.792 -1.8,1.08Z" style="fill:#fff;fill-rule:nonzero;"/><path d="M2136.46,342.412c-0.576,-1.656 -1.584,-3.168 -2.952,-4.392c-5.544,-4.248 -14.472,-4.392 -20.808,-1.296c-0.648,0.36 -1.152,0.792 -1.656,1.296c-2.952,3.384 -3.744,7.992 -3.816,12.312c-0.504,7.56 0.072,15.12 0.36,22.608c0.072,2.808 0.36,5.616 1.728,7.992c1.728,3.816 5.544,4.68 9.504,5.04c2.808,0.216 5.544,0.072 8.208,-0.72c2.952,-0.792 5.76,-2.088 7.416,-4.392c1.728,-2.808 2.52,-6.336 2.736,-9.72l0.216,-2.376c0.36,-4.968 0.072,-9.648 0.36,-14.76c0.072,-2.376 0.072,-4.752 -0.144,-7.128c-0.216,-1.512 -0.504,-3.024 -1.152,-4.464ZM2128.76,359.98l0,3.456c0,0.216 -0.072,1.8 -0.144,3.744c-0.36,4.176 0.36,4.176 -1.44,6.552c-2.952,3.312 -9,2.88 -10.872,-0.936c-0.936,-3.168 -0.864,-6.768 -1.368,-10.152c-0.216,-4.032 -0.144,-8.136 0.648,-11.808c0.576,-2.016 1.728,-3.672 3.384,-4.968c1.512,-1.152 3.672,-1.8 5.616,-1.008c2.232,1.08 3.528,3.456 3.744,6.12c0.072,1.656 0.288,4.032 0.288,4.104l0.144,4.896Z" style="fill:#fff;fill-rule:nonzero;"/><path d="M2154.53,349.252c-3.096,-0.36 -6.552,0.144 -10.008,-0.216c3.096,11.304 5.544,24.192 7.488,36.216c3.672,0 9.792,0.432 13.536,-0.144c3.24,-12.096 4.968,-25.128 9,-36c-3.96,-0.216 -6.408,0.216 -9.648,0.216c-2.304,5.832 -3.528,18.864 -5.616,24.552c-2.088,-5.688 -3.384,-17.784 -4.752,-24.624Z" style="fill:#fff;fill-rule:nonzero;"/><path d="M2190.82,366.964c3.024,0.576 17.28,0 19.296,-0.576c0.576,-8.064 -0.72,-16.344 -9.648,-17.856c-6.84,-1.728 -15.264,0.36 -17.784,6.048c-1.152,3.168 -1.296,6.48 -1.584,10.008c-0.36,7.776 1.44,16.272 6.552,19.872c1.152,0.648 2.376,1.08 3.744,1.296c5.472,0 13.32,1.44 16.56,-3.168c1.368,-1.152 1.656,-6.336 2.016,-11.232c-2.088,-0.576 -7.128,0.072 -9.072,-0.144c0.36,7.776 -6.696,7.704 -9,3.24c-1.08,-1.728 -1.008,-3.312 -1.08,-6.192l0,-1.296ZM2199.53,355.804c1.728,0.864 2.808,2.736 2.808,4.68c0,1.44 0.432,0.864 -4.536,0.864c-7.128,0 -7.128,0.432 -6.768,-1.584c0.36,-2.592 1.44,-4.68 5.976,-4.68c1.08,0 1.728,0.216 2.52,0.72Z" style="fill:#fff;fill-rule:nonzero;"/><path d="M2229.05,351.556c0,-1.296 -0.072,-0.864 -0.072,-2.448c0,-0.432 -3.888,0.072 -4.68,0.072c-2.304,0.216 -2.736,0.216 -5.04,0c-0.36,12.672 0.072,24.264 0.072,36.072c4.608,-0.36 6.336,0.504 9.648,-0.432l0,-0.288c0,-7.128 -0.072,-12.24 -0.288,-18.864c-0.216,-5.328 3.672,-5.544 8.784,-4.968c0.072,0 1.584,0.216 2.736,0.504c0.504,0.216 1.008,0.288 1.512,0.504l0.648,0.216c-0.216,-2.952 0,-6.12 0,-12.672c0,-0.288 -6.264,-0.216 -9.936,0.936c-1.368,0.504 -3.024,1.152 -3.384,1.368Z" style="fill:#fff;fill-rule:nonzero;"/><path d="M2249.64,332.692c-1.728,17.424 0.936,34.992 -0.432,52.344c1.296,-0.36 9.216,0.648 10.152,-0.432c-0.576,-11.592 0.072,-39.888 0.072,-51.696l-9.792,-0.216Z" style="fill:#fff;fill-rule:nonzero;"/><path d="M2269.59,352.204c-0.288,1.08 -1.08,3.168 -1.152,4.248c-0.288,1.8 -0.36,3.456 -0.36,5.184c0.576,6.264 -1.512,16.128 3.672,20.736c1.656,1.656 3.744,2.736 6.192,3.168c5.544,0 13.392,1.512 16.704,-3.168c1.872,-1.872 2.088,-11.304 2.304,-16.92c-0.216,-6.336 -0.216,-12.456 -2.952,-14.256c-2.016,-1.944 -4.896,-2.88 -7.992,-3.096c-2.016,-0.216 -3.672,0.144 -5.616,-0.072c-4.536,0 -9.432,1.224 -10.8,4.176ZM2278.59,360.7c0.648,-0.792 1.44,-1.296 2.448,-1.584c3.744,-0.864 6.12,0.792 6.624,4.176c0.576,2.808 0.144,5.976 -0.216,9.072c-0.288,1.224 -0.864,2.016 -1.656,2.376c-2.52,1.368 -8.496,1.152 -8.28,-3.24c0.216,-3.384 0.072,-6.264 0.432,-9.36c0.144,-0.792 0.36,-1.224 0.648,-1.44Z" style="fill:#fff;fill-rule:nonzero;"/><path d="M2316.89,351.556c0,-1.296 -0.072,-0.864 -0.072,-2.448c0,-0.432 -3.888,0.072 -4.68,0.072c-2.304,0.216 -2.736,0.216 -5.04,0c-0.36,12.672 0.072,24.264 0.072,36.072c4.608,-0.36 6.336,0.504 9.648,-0.432l0,-0.288c0,-7.128 -0.072,-12.24 -0.288,-18.864c-0.216,-5.328 3.672,-5.544 8.784,-4.968c0.072,0 1.584,0.216 2.736,0.504c0.504,0.216 1.008,0.288 1.512,0.504l0.648,0.216c-0.216,-2.952 0,-6.12 0,-12.672c0,-0.288 -6.264,-0.216 -9.936,0.936c-1.368,0.504 -3.024,1.152 -3.384,1.368Z" style="fill:#fff;fill-rule:nonzero;"/><path d="M2356.2,335.212c-0.288,5.688 -0.504,2.088 -0.216,15.624c-0.36,-1.728 -8.64,-2.88 -13.824,-0.936c-4.248,1.512 -5.832,7.92 -5.832,14.616c0.216,9.648 1.224,19.512 12.096,20.304c2.664,0.36 5.256,-0.216 6.696,-3.096c0.288,-0.576 0.504,-0.216 0.72,0.288c0,1.08 0.072,1.44 0.072,2.376c0,0.216 0,0.432 0.072,0.504c2.88,0.36 6.768,0.072 9.72,0.072c0.36,-13.824 -0.432,-29.808 -0.432,-45.864l0,-4.752c-3.168,-0.576 -9.072,-0.144 -9.072,0.072l0,0.792ZM2345.04,362.356c0.504,-3.384 2.88,-5.112 6.84,-5.112c4.104,0 4.392,0.864 4.392,8.28c0,6.048 -0.288,10.44 -5.184,10.44c-4.104,0 -6.552,-4.608 -6.552,-9.432c0,-1.368 0,-2.808 0.504,-4.176Z" style="fill:#fff;fill-rule:nonzero;"/><path d="M2402.93,360.124c0,-5.184 -1.728,-9.648 -6.264,-11.592c-5.04,-1.152 -12.384,-1.152 -16.128,-0.144c-9.288,2.448 -10.656,16.056 0.144,19.728c5.328,2.304 11.88,1.224 11.304,5.976c0.216,5.544 -8.784,3.96 -9,-0.432c-2.952,0 -7.488,-0.288 -10.656,0.072l0,0.36c0,7.704 6.552,12.456 16.2,12.096c5.544,0.072 10.656,-1.8 12.888,-6.48c1.8,-5.256 1.152,-8.496 -0.936,-11.952c-2.232,-2.88 -7.344,-3.888 -12.744,-4.68c-4.536,-1.584 -4.464,-6.624 -0.072,-7.416c2.448,-0.216 5.544,2.016 4.968,4.464c3.24,0.648 7.2,0.504 10.296,0Z" style="fill:#fff;fill-rule:nonzero;"/></g><g id="i-for-one" transform="matrix(1.20611,0,0,1.20611,-293.544,-22.992)"><path d="M742.343,154.207c-1.461,0.024 -2.094,-0.049 -2.679,-0.073c-0.219,0 -0.828,-0.073 -0.998,-0.049l0,0.049c-0.584,5.455 0.268,11.421 -0.195,17.29c0.682,-0.195 3.897,0.317 4.432,-0.219c-0.316,-5.528 0.025,-11.324 0.025,-16.901l0,-0.097l-0.585,0Z" style="fill:#000;fill-rule:nonzero;"/><path d="M746.921,171.838c0.025,-0.17 0.098,-0.414 0.098,-0.536c0,-0.024 0.024,-0.048 0.024,-0.073l0.049,0l0.097,-2.8l-0.024,0c-1.145,-0.073 -2.07,-0.293 -2.922,-0.025l-0.025,0l0,0.025c-0.121,2.654 -0.097,2.727 -0.097,2.8c0.024,0.025 0.049,0.025 0.073,0.025l1.145,0.097c-0.122,0.877 -0.585,2.265 -0.487,2.362c0.949,0.025 1.509,-0.024 1.68,0.049c0.073,-0.317 0.122,-0.633 0.195,-0.95l0.194,-0.974Z" style="fill:#2e2e2e;fill-rule:nonzero;"/><path d="M761.898,164.971c0.049,0 0.073,-0.025 0.073,-0.049c-0.121,-1.169 0.122,-3.507 -0.073,-3.994c-0.73,0.073 -2.143,0.122 -3.068,0c-0.024,0 -0.024,0 -0.049,-0.024c-0.292,-0.512 -0.414,-1.34 -0.049,-2.192c2.022,-0.195 4.749,-0.268 6.503,-0.39c0.073,-0.828 0,-2.751 0,-3.604c-2.728,-0.682 -9.206,-0.243 -10.886,0.049l0,0.024c0,7.574 -0.049,10.594 -0.049,16.487l0.025,0.024c0.268,0.146 2.971,0.122 4.237,0c0.024,-1.85 0.024,-3.92 0.195,-5.966l0.024,0c0.974,-0.171 2.119,-0.195 3.117,-0.365Z" style="fill:#000;fill-rule:nonzero;"/><path d="M765.186,160.222c-0.098,0.365 -0.365,1.071 -0.39,1.437c-0.097,0.609 -0.122,1.169 -0.122,1.753c0.195,2.119 -0.511,5.455 1.242,7.014c0.561,0.56 1.267,0.925 2.095,1.071c1.875,0 4.529,0.512 5.65,-1.071c0.633,-0.634 0.706,-3.824 0.779,-5.723c-0.073,-2.143 -0.073,-4.213 -0.999,-4.822c-0.682,-0.658 -1.656,-0.974 -2.703,-1.047c-0.682,-0.073 -1.242,0.049 -1.899,-0.025c-1.534,0 -3.19,0.414 -3.653,1.413ZM768.23,163.096c0.219,-0.268 0.487,-0.439 0.828,-0.536c1.266,-0.292 2.07,0.268 2.24,1.412c0.195,0.95 0.049,2.021 -0.073,3.069c-0.097,0.414 -0.292,0.681 -0.56,0.803c-0.852,0.463 -2.873,0.39 -2.8,-1.096c0.073,-1.144 0.024,-2.118 0.146,-3.165c0.048,-0.268 0.122,-0.414 0.219,-0.487Z" style="fill:#000;fill-rule:nonzero;"/><path d="M779.968,160.003c0,-0.439 -0.025,-0.292 -0.025,-0.828c0,-0.146 -1.315,0.024 -1.582,0.024c-0.78,0.073 -0.926,0.073 -1.705,0c-0.122,4.286 0.024,8.207 0.024,12.201c1.559,-0.122 2.143,0.17 3.263,-0.146l0,-0.098c0,-2.411 -0.024,-4.14 -0.097,-6.38c-0.073,-1.802 1.242,-1.875 2.971,-1.68c0.024,0 0.536,0.073 0.925,0.17c0.171,0.073 0.341,0.097 0.512,0.17l0.219,0.073c-0.073,-0.998 0,-2.069 0,-4.286c0,-0.097 -2.119,-0.073 -3.361,0.317c-0.462,0.171 -1.022,0.39 -1.144,0.463Z" style="fill:#000;fill-rule:nonzero;"/><path d="M801.13,156.91c-0.195,-0.56 -0.536,-1.072 -0.998,-1.486c-1.875,-1.436 -4.895,-1.485 -7.038,-0.438c-0.219,0.122 -0.39,0.268 -0.56,0.438c-0.999,1.145 -1.267,2.704 -1.291,4.165c-0.17,2.557 0.024,5.114 0.122,7.646c0.024,0.95 0.122,1.9 0.584,2.704c0.585,1.29 1.875,1.582 3.215,1.704c0.95,0.073 1.875,0.025 2.776,-0.243c0.998,-0.268 1.948,-0.707 2.508,-1.486c0.585,-0.95 0.853,-2.143 0.926,-3.287l0.073,-0.804c0.122,-1.68 0.024,-3.263 0.122,-4.992c0.024,-0.804 0.024,-1.608 -0.049,-2.411c-0.073,-0.512 -0.171,-1.023 -0.39,-1.51ZM798.524,162.852l0,1.169c0,0.073 -0.024,0.609 -0.048,1.266c-0.122,1.413 0.122,1.413 -0.487,2.216c-0.999,1.121 -3.044,0.974 -3.678,-0.316c-0.316,-1.072 -0.292,-2.289 -0.462,-3.434c-0.073,-1.364 -0.049,-2.752 0.219,-3.994c0.195,-0.682 0.584,-1.242 1.145,-1.68c0.511,-0.39 1.241,-0.609 1.899,-0.341c0.755,0.365 1.193,1.169 1.266,2.07c0.025,0.56 0.098,1.364 0.098,1.388l0.048,1.656Z" style="fill:#000;fill-rule:nonzero;"/><path d="M806.269,160.465c-0.025,-0.462 0.024,-0.73 -0.049,-1.29c0,-0.219 -1.193,0.024 -1.461,0.024c-0.78,0.073 -0.926,0.073 -1.705,0c-0.122,4.286 0.024,8.207 0.024,12.201c1.559,-0.122 1.9,0.17 3.02,-0.146l0,-0.098c0.268,-2.143 -0.097,-4.286 0.024,-6.526c0.122,-1.754 1.778,-1.583 2.314,-1.315c0.024,0.024 0.073,0.024 0.097,0.048c0.512,0.39 0.536,1.559 0.609,2.363c0.122,1.753 -0.024,4.164 0.098,5.649c1.144,0 1.899,0.073 3.044,-0.097c-0.195,-3.361 0.511,-10.326 -0.512,-11.251c-1.339,-1.144 -3.555,-0.901 -4.895,0.073c-0.17,0.122 -0.438,0.268 -0.608,0.365Z" style="fill:#000;fill-rule:nonzero;"/><path d="M817.276,165.214c1.023,0.195 5.844,0 6.526,-0.195c0.195,-2.727 -0.243,-5.528 -3.263,-6.039c-2.313,-0.585 -5.163,0.122 -6.015,2.046c-0.39,1.071 -0.438,2.191 -0.536,3.385c-0.121,2.63 0.487,5.503 2.216,6.721c0.39,0.219 0.804,0.365 1.267,0.438c1.85,0 4.505,0.487 5.601,-1.071c0.462,-0.39 0.56,-2.143 0.682,-3.799c-0.707,-0.195 -2.411,0.024 -3.069,-0.049c0.122,2.63 -2.265,2.606 -3.044,1.096c-0.365,-0.585 -0.341,-1.12 -0.365,-2.094l0,-0.439ZM820.223,161.44c0.584,0.292 0.949,0.925 0.949,1.582c0,0.487 0.146,0.293 -1.534,0.293c-2.411,0 -2.411,0.146 -2.289,-0.536c0.122,-0.877 0.487,-1.583 2.021,-1.583c0.365,0 0.585,0.073 0.853,0.244Z" style="fill:#000;fill-rule:nonzero;"/><path d="M827.796,171.838c0.025,-0.17 0.098,-0.414 0.098,-0.536c0,-0.024 0.024,-0.048 0.024,-0.073l0.049,0l0.097,-2.8l-0.024,0c-1.145,-0.073 -2.07,-0.293 -2.923,-0.025l-0.024,0l0,0.025c-0.122,2.654 -0.097,2.727 -0.097,2.8c0.024,0.025 0.048,0.025 0.073,0.025l1.144,0.097c-0.122,0.877 -0.584,2.265 -0.487,2.362c0.95,0.025 1.51,-0.024 1.681,0.049c0.073,-0.317 0.121,-0.633 0.194,-0.95l0.195,-0.974Z" style="fill:#000;fill-rule:nonzero;"/></g><path id="robot-head-front3" d="M345.95,237.427c9.175,4.015 11.694,15.441 4.918,23.059c-3.661,4.226 -7.499,5.666 -12.61,4.857c-12.846,-2.052 -16.756,-18.649 -6.192,-26.373c2.42,-1.751 3.592,-2.158 7.107,-2.38c2.852,-0.18 5.065,0.08 6.777,0.837Z" style="fill:#fff;fill-rule:nonzero;"/><path id="robot-head-front4" d="M348.875,233.917c9.175,4.014 11.694,15.44 4.918,23.058c-3.661,4.226 -7.499,5.667 -12.61,4.858c-12.846,-2.052 -16.756,-18.65 -6.192,-26.374c2.42,-1.751 3.592,-2.158 7.107,-2.38c2.852,-0.18 5.065,0.08 6.777,0.838Z" style="fill:#000;fill-rule:nonzero;"/><path id="robot-head-front5" d="M404.108,229.232c9.175,4.014 11.694,15.44 4.918,23.058c-3.662,4.226 -7.499,5.667 -12.61,4.858c-12.846,-2.052 -16.757,-18.65 -6.192,-26.374c2.419,-1.751 3.592,-2.158 7.107,-2.379c2.851,-0.18 5.065,0.079 6.777,0.837Z" style="fill:#fff;fill-rule:nonzero;"/><path id="robot-head-front6" d="M406.447,231.574c9.175,4.015 11.694,15.441 4.918,23.059c-3.661,4.226 -7.499,5.666 -12.61,4.857c-12.846,-2.052 -16.756,-18.649 -6.192,-26.374c2.42,-1.75 3.592,-2.157 7.107,-2.379c2.852,-0.18 5.065,0.08 6.777,0.837Z" style="fill:#000;fill-rule:nonzero;"/><path id="robot-head-front7" d="M399.037,341.393c0.82,1.23 1.401,0.977 4.267,-2.307l3.196,-3.674l9.943,-0.498c6.224,-0.387 10.867,-0.994 12.73,-1.76c4.89,-2.039 10.43,-1.943 14.585,0.39c6.411,3.492 2.885,7.556 -7.592,8.903c-5.715,0.735 -6.445,0.622 -9.217,-0.958c-2.526,-1.518 -3.987,-1.744 -8.282,-1.304l-5.134,0.481l-7.154,8.358c-3.957,4.684 -7.387,8.444 -7.746,8.462c-0.48,0.024 -3.453,-4.088 -6.748,-9.23c-3.17,-5.074 -6.28,-9.404 -6.663,-9.684c-0.383,-0.28 -3.298,3.903 -6.478,9.296c-3.18,5.392 -6.173,10.103 -6.509,10.419c-0.449,0.396 -5.111,-3.781 -10.353,-9.2c-5.242,-5.419 -9.945,-10.117 -10.448,-10.391c-0.509,-0.348 -1.989,0.698 -3.195,2.179l-2.302,2.807l-8.985,0.45c-7.787,0.39 -9.327,0.692 -11.724,2.307c-2.392,1.69 -3.338,1.887 -9.124,1.728c-10.248,-0.308 -14.293,-4.292 -8.348,-8.178c3.542,-2.346 9.389,-2.938 14.922,-1.421c2.329,0.556 5.953,0.748 9.774,0.407l5.973,-0.524l5.086,-7.132c2.693,-3.948 5.451,-7.077 6.056,-7.032c0.491,0.125 5.159,4.376 10.263,9.578c5.104,5.201 9.629,9.161 10.084,8.839c0.336,-0.316 3.011,-4.487 5.771,-9.111c2.754,-4.698 5.741,-9.483 6.719,-10.803l1.625,-2.249l7.023,9.665c3.792,5.342 7.441,10.392 7.985,11.187Z" style="fill:#fff;fill-rule:nonzero;"/><path id="robot-head-front8" d="M400.623,336.282c0.819,1.23 1.401,0.977 4.267,-2.307l3.196,-3.674l9.943,-0.498c6.224,-0.387 10.866,-0.994 12.73,-1.76c4.889,-2.039 10.43,-1.943 14.584,0.39c6.412,3.492 2.886,7.556 -7.591,8.903c-5.715,0.735 -6.446,0.623 -9.217,-0.958c-2.527,-1.518 -3.988,-1.744 -8.283,-1.304l-5.133,0.481l-7.154,8.358c-3.958,4.684 -7.387,8.444 -7.747,8.462c-0.479,0.024 -3.452,-4.088 -6.747,-9.23c-3.17,-5.074 -6.28,-9.404 -6.664,-9.684c-0.383,-0.28 -3.298,3.903 -6.477,9.296c-3.18,5.392 -6.173,10.103 -6.509,10.419c-0.45,0.396 -5.112,-3.781 -10.353,-9.2c-5.242,-5.419 -9.946,-10.117 -10.448,-10.391c-0.509,-0.348 -1.99,0.698 -3.195,2.179l-2.303,2.807l-8.985,0.45c-7.787,0.39 -9.326,0.692 -11.724,2.307c-2.391,1.69 -3.338,1.887 -9.123,1.728c-10.248,-0.308 -14.294,-4.292 -8.348,-8.178c3.542,-2.346 9.388,-2.938 14.921,-1.421c2.33,0.556 5.953,0.748 9.775,0.407l5.972,-0.524l5.086,-7.132c2.693,-3.948 5.452,-7.077 6.057,-7.032c0.491,0.125 5.158,4.376 10.263,9.578c5.104,5.201 9.628,9.161 10.084,8.839c0.336,-0.316 3.011,-4.487 5.771,-9.111c2.753,-4.698 5.741,-9.483 6.718,-10.803l1.626,-2.249l7.022,9.665c3.793,5.342 7.442,10.392 7.986,11.187Z" style="fill:#000;fill-rule:nonzero;"/></svg>