<?xml version="1.0" standalone="no"?><!DOCTYPE svg PUBLIC "-//W3C//DTD SVG 1.1//EN" "http://www.w3.org/Graphics/SVG/1.1/DTD/svg11.dtd"><svg width="100%" height="100%" viewBox="0 0 1280 720" version="1.1" xmlns="http://www.w3.org/2000/svg" xmlns:xlink="http://www.w3.org/1999/xlink" xml:space="preserve" style="fill-rule:evenodd;clip-rule:evenodd;stroke-linejoin:round;stroke-miterlimit:1.41421;"><rect x="0.271" y="0.16" width="1280.47" height="718.91" style="fill:#4cbdff;"/><path id="robot-head-front" d="M347.296,75.091c0.876,1.026 4.093,2.716 7.275,3.867c5.683,2.21 5.683,2.21 5.258,8.322c-0.183,3.527 -0.295,12.458 -0.358,20.033l-0.067,13.931l-7.542,0.476c-4.175,0.264 -18.223,0.475 -31.194,0.617c-39.326,0.32 -55.209,1.457 -61.638,4.567c-7.607,3.726 -13.822,12.366 -15.163,21.104c-0.771,4.916 1.671,47.894 7.9,142.282l8.948,135.321l6.12,0.56c6.389,0.543 220.925,-8.673 260.645,-11.316l22.491,-1.42l-5.339,-84.574c-3.843,-60.872 -5.583,-96.999 -6.024,-129.691c-0.218,-24.865 -1.175,-48.602 -1.969,-52.608c-2.204,-11.353 -8.716,-20.272 -17.473,-24.046c-7.232,-3.194 -7.367,-3.185 -76.254,-2.082c-37.819,0.63 -69.569,1.012 -70.402,0.659c-0.825,-0.218 -2.277,-6.076 -3.334,-14.257c-1.015,-7.508 -2.266,-16.623 -2.883,-19.964l-1.199,-6.144l5.067,-1.131c2.928,-0.726 6.984,-2.875 9.02,-4.896l3.836,-3.488l-18.728,1.047c-15.487,0.978 -18.433,1.434 -16.993,2.831Z" style="fill:#fff;fill-rule:nonzero;"/><path id="robot-head-front1" d="M359.579,80.352c0.876,1.027 4.092,2.716 7.275,3.868c5.683,2.21 5.683,2.21 5.257,8.321c-0.183,3.527 -0.295,12.458 -0.358,20.034l-0.067,13.93l-7.541,0.477c-4.175,0.263 -18.224,0.474 -31.195,0.617c-39.325,0.319 -55.208,1.457 -61.637,4.567c-7.607,3.725 -13.822,12.365 -15.164,21.103c-0.771,4.916 1.672,47.894 7.901,142.282l8.948,135.321l6.12,0.56c6.389,0.543 220.925,-8.673 260.645,-11.316l22.49,-1.419l-5.339,-84.575c-3.842,-60.872 -5.582,-96.998 -6.024,-129.691c-0.217,-24.865 -1.175,-48.601 -1.968,-52.607c-2.204,-11.354 -8.717,-20.272 -17.473,-24.046c-7.233,-3.194 -7.367,-3.186 -76.254,-2.082c-37.819,0.629 -69.569,1.011 -70.403,0.658c-0.825,-0.218 -2.276,-6.076 -3.334,-14.257c-1.014,-7.507 -2.266,-16.623 -2.882,-19.964l-1.199,-6.144l5.066,-1.131c2.929,-0.726 6.985,-2.875 9.02,-4.896l3.837,-3.487l-18.728,1.047c-15.488,0.977 -18.434,1.434 -16.993,2.83Z" style="fill:#fde000;fill-rule:nonzero;"/><path id="robot-head-front2" d="M350.939,73.242c0.876,1.026 4.093,2.716 7.275,3.867c5.683,2.21 5.683,2.21 5.258,8.321c-0.183,3.527 -0.295,12.458 -0.358,20.034l-0.067,13.931l-7.542,0.476c-4.174,0.263 -18.223,0.474 -31.194,0.617c-39.326,0.319 -55.209,1.457 -61.638,4.567c-7.607,3.725 -13.822,12.365 -15.163,21.103c-0.771,4.917 1.671,47.894 7.9,142.283l8.948,135.32l6.12,0.56c6.389,0.544 220.925,-8.673 260.645,-11.315l22.491,-1.42l-5.339,-84.575c-3.843,-60.872 -5.583,-96.998 -6.024,-129.691c-0.217,-24.864 -1.175,-48.601 -1.969,-52.607c-2.204,-11.354 -8.716,-20.272 -17.472,-24.046c-7.233,-3.194 -7.368,-3.186 -76.255,-2.082c-37.819,0.63 -69.569,1.012 -70.402,0.659c-0.825,-0.219 -2.277,-6.076 -3.334,-14.257c-1.015,-7.508 -2.266,-16.623 -2.883,-19.965l-1.199,-6.144l5.067,-1.131c2.928,-0.725 6.984,-2.874 9.02,-4.896l3.836,-3.487l-18.728,1.047c-15.487,0.978 -18.433,1.434 -16.993,2.831Z" style="fill:none;stroke-width:9px;stroke:#000;"/><path id="robot-head-side" d="M214.962,148.889c-18.149,12.368 -30.078,22.586 -33.223,28.463c-2.051,3.916 -2.116,7.165 -0.459,33.426l1.828,28.955l4.297,5.948c17.624,24.307 21.453,76.391 7.946,108.747l-4.933,11.805l1.908,36.656c1.066,21.161 2.321,36.766 2.995,36.723c2.424,-0.153 52.861,-12.937 53.896,-13.678c1.296,-0.893 -16.661,-287.485 -18.008,-287.4c-0.673,0.043 -7.951,4.694 -16.247,10.355Z" style="fill:#fff;fill-rule:nonzero;"/><path id="robot-head-side1" d="M222.566,154.739c-18.149,12.368 -30.078,22.586 -33.223,28.463c-2.051,3.916 -2.117,7.165 -0.459,33.426l1.828,28.955l4.297,5.948c17.624,24.307 21.453,76.391 7.946,108.747l-4.933,11.805l1.908,36.656c1.065,21.161 2.321,36.766 2.994,36.723c2.424,-0.153 52.862,-12.937 53.897,-13.678c1.295,-0.893 -16.661,-287.485 -18.008,-287.4c-0.673,0.043 -7.951,4.694 -16.247,10.355Z" style="fill:#feac00;fill-rule:nonzero;"/><path id="robot-head-side2" d="M214.962,148.889c-18.149,12.368 -30.078,22.586 -33.223,28.463c-2.051,3.916 -2.116,7.165 -0.459,33.426l1.828,28.955l4.297,5.948c17.624,24.307 21.453,76.391 7.946,108.747l-4.933,11.805l1.908,36.656c1.066,21.161 2.321,36.766 2.995,36.723c2.424,-0.153 52.861,-12.937 53.896,-13.678c1.296,-0.893 -16.661,-287.485 -18.008,-287.4c-0.673,0.043 -7.951,4.694 -16.247,10.355Z" style="fill:none;stroke-width:9px;stroke:#000;"/><path id="robot-ear" d="M161.816,253.653c-5.099,2.755 -8.871,13.675 -10.889,30.974c-2.076,18.52 -1.365,25.506 4.894,45.392c5.769,18.565 11.824,24.538 20.306,19.675c7.825,-4.55 12.921,-26.64 11.542,-50.62c-0.894,-16.304 -3.088,-25.36 -8.945,-36.753c-5.073,-9.686 -10.386,-12.46 -16.908,-8.668Z" style="fill:#fff;fill-rule:nonzero;"/><path id="robot-ear1" d="M170.592,263.013c-5.1,2.756 -8.872,13.676 -10.89,30.975c-2.076,18.519 -1.365,25.505 4.894,45.392c5.769,18.565 11.824,24.537 20.306,19.675c7.825,-4.55 12.921,-26.641 11.542,-50.621c-0.894,-16.304 -3.088,-25.359 -8.945,-36.753c-5.073,-9.685 -10.386,-12.459 -16.907,-8.668Z" style="fill:#feac00;fill-rule:nonzero;"/><path id="robot-ear2" d="M167.081,254.824c-5.099,2.756 -8.872,13.675 -10.89,30.974c-2.076,18.52 -1.364,25.506 4.894,45.392c5.769,18.565 11.825,24.538 20.306,19.676c7.826,-4.551 12.921,-26.641 11.543,-50.621c-0.894,-16.304 -3.088,-25.36 -8.946,-36.753c-5.073,-9.685 -10.386,-12.46 -16.907,-8.668Z" style="fill:none;stroke-width:9px;stroke:#000;"/><path id="robot-neck-side" d="M236.339,442.403c-5.462,1.291 -17.068,3.782 -25.602,5.673l-15.747,3.292l0.297,4.714c0.29,4.579 0.29,4.579 5.365,3.582c2.668,-0.574 11.783,-1.825 20.233,-2.9c8.459,-0.939 16.362,-2.114 17.431,-2.317c1.195,-0.346 4.68,-0.836 7.912,-1.04l5.647,-0.492l-0.425,-6.733c-0.484,-7.677 0.476,-7.467 -15.111,-3.779Z" style="fill:#fff;fill-rule:nonzero;"/><path id="robot-neck-side1" d="M238.093,439.044c-5.462,1.291 -17.068,3.781 -25.602,5.672l-15.747,3.293l0.297,4.713c0.289,4.579 0.289,4.579 5.364,3.583c2.668,-0.574 11.784,-1.826 20.234,-2.9c8.459,-0.94 16.362,-2.115 17.431,-2.317c1.195,-0.346 4.679,-0.837 7.912,-1.041l5.647,-0.491l-0.425,-6.734c-0.484,-7.676 0.475,-7.467 -15.111,-3.778Z" style="fill:#000;fill-rule:nonzero;"/><path id="robot-neck-front" d="M268.958,445.076l0.425,6.734l16.565,-1.046c9.023,-0.569 53.12,-2.407 98.034,-4.16c44.914,-1.754 99.803,-4.002 122.058,-4.866c22.254,-0.864 42.346,-1.727 44.779,-1.745c3.914,-0.112 4.292,-0.541 4.66,-5.432c0.443,-3.679 0.047,-5.682 -1.216,-6.413c-0.977,-0.48 -7.61,-0.602 -14.613,-0.16c-7.003,0.442 -66.487,2.71 -132.192,4.965c-65.704,2.255 -123.842,4.438 -129.094,4.769l-9.831,0.621l0.425,6.733Z" style="fill:#fff;fill-rule:nonzero;"/><path id="robot-neck-front1" d="M270.712,441.717l0.425,6.733l16.564,-1.045c9.024,-0.57 53.121,-2.407 98.035,-4.161c44.914,-1.753 99.802,-4.001 122.057,-4.866c22.255,-0.864 42.347,-1.726 44.78,-1.745c3.914,-0.112 4.292,-0.541 4.659,-5.432c0.444,-3.678 0.047,-5.682 -1.216,-6.413c-0.976,-0.479 -7.609,-0.601 -14.612,-0.159c-7.003,0.442 -66.487,2.71 -132.192,4.964c-65.705,2.255 -123.842,4.438 -129.094,4.77l-9.831,0.62l0.425,6.734Z" style="fill:#000;fill-rule:nonzero;"/><path id="robot-body" d="M177.084,467.718c-7.364,3.3 -14.432,13.419 -15.865,22.848c-0.68,4.212 1.686,50.257 7.201,137.627l7.144,89.612l242.225,-0.771l241.637,-0.264c0.289,-1.852 -3.316,-52.324 -8.021,-122.568c-8.226,-123.888 -8.612,-127.866 -11.58,-134.183c-4.047,-8.416 -10.691,-12.999 -19.518,-13.61c-3.937,-0.251 -57.071,1.936 -118.276,4.799c-61.204,2.863 -154.648,6.927 -207.658,8.939c-113.448,4.16 -109.543,3.914 -117.289,7.571Z" style="fill:#ff8900;fill-rule:nonzero;stroke-width:9px;stroke:#000;"/><path id="robot-arm" d="M113.833,483.145c-17.374,7.492 -33.472,28.795 -38.67,51.395c-2.553,10.967 -2.773,16.052 -1.982,43.567c0.529,16.946 2.402,55.197 4.274,84.848l3.263,53.82l82.439,-0.213l-4.748,-64.892c-6.301,-110.52 -8.875,-149.168 -10.462,-155.022c-1.071,-4.122 -4.018,-10.11 -6.367,-13.049c-3.658,-4.4 -5.734,-5.151 -12.05,-4.532c-4.174,0.264 -11.215,2.252 -15.697,4.078Z" style="fill:#fff;fill-rule:nonzero;"/><path id="robot-arm1" d="M119.269,486.581c-17.375,7.491 -33.472,28.795 -38.671,51.395c-2.552,10.966 -2.772,16.052 -1.982,43.566c0.529,16.946 2.403,55.198 4.275,84.849l3.262,53.82l82.44,-0.213l-4.748,-64.892c-6.301,-110.521 -8.876,-149.169 -10.462,-155.022c-1.072,-4.122 -4.019,-10.111 -6.368,-13.05c-3.658,-4.4 -5.733,-5.151 -12.049,-4.531c-4.175,0.263 -11.215,2.251 -15.697,4.078Z" style="fill:#ff5d00;fill-rule:nonzero;"/><path id="robot-arm2" d="M113.833,483.145c-17.374,7.492 -33.472,28.795 -38.67,51.395c-2.553,10.967 -2.773,16.052 -1.982,43.567c0.529,16.946 2.402,55.197 4.274,84.848l3.263,53.82l82.439,-0.213l-4.748,-64.892c-6.301,-110.52 -8.875,-149.168 -10.462,-155.022c-1.071,-4.122 -4.018,-10.11 -6.367,-13.049c-3.658,-4.4 -5.734,-5.151 -12.05,-4.532c-4.174,0.264 -11.215,2.252 -15.697,4.078Z" style="fill:none;stroke-width:9px;stroke:#000;"/><path id="heart" d="M547.451,511.123c-7.646,0.57 -14.258,4.754 -18.642,10.977c-5.257,-5.505 -12.416,-8.663 -20.061,-8.094c-14.579,1.086 -25.403,15.309 -24.177,31.768c0.329,4.422 1.338,8.626 2.853,12.599c0,0 1.372,3.585 2.496,5.531c13.049,24.979 44.941,39.431 44.941,39.431c0,0 29.398,-19.018 38.602,-45.654c0,0 1.18,-3.546 1.649,-5.84c0.853,-4.168 1.285,-8.461 0.955,-12.883c-1.226,-16.459 -14.038,-28.92 -28.616,-27.835Z" style="fill:#fff;fill-rule:nonzero;"/><path id="heart1" d="M554.378,509.535c-7.645,0.569 -14.277,4.486 -18.693,10.283c-5.225,-5.079 -12.364,-7.97 -20.01,-7.4c-14.578,1.086 -25.475,14.337 -24.338,29.599c0.305,4.1 1.291,7.995 2.784,11.673c0,0 1.352,3.318 2.465,5.117c12.909,23.101 44.71,36.335 44.71,36.335c0,0 29.489,-17.8 38.833,-42.558c0,0 1.199,-3.296 1.68,-5.426c0.876,-3.872 1.33,-7.856 1.024,-11.957c-1.137,-15.261 -13.877,-26.752 -28.455,-25.666Z" style="fill:#feac00;fill-rule:nonzero;"/><path id="heart2" d="M554.961,516.556c-7.646,0.57 -14.277,4.486 -18.693,10.283c-5.226,-5.079 -12.365,-7.969 -20.01,-7.4c-14.578,1.086 -25.475,14.338 -24.339,29.599c0.306,4.1 1.292,7.995 2.784,11.673c0,0 1.353,3.318 2.466,5.117c12.909,23.101 44.71,36.336 44.71,36.336c0,0 29.489,-17.801 38.833,-42.559c0,0 1.198,-3.296 1.68,-5.426c0.875,-3.872 1.329,-7.856 1.024,-11.956c-1.137,-15.262 -13.877,-26.753 -28.455,-25.667Z" style="fill:none;stroke-width:6px;stroke-linecap:round;stroke:#000;"/><path id="title-color" d="M1274.49,230.409l-589.388,16.524l2.444,87.194l589.388,-16.525l-2.444,-87.193Z" style="fill:#fff;"/><rect id="title-color1" x="696.052" y="235.695" width="585.582" height="87.228" style="fill:#fde000;"/><g id="welcome-our-new-mobile-automation-overlords" transform="matrix(1.08953,0,0,1.08953,-1390.79,106.239)"><text x="1928.81px" y="79.474px" style="font-family:'WorkSans-Black';font-size:72px;fill:#fff;">W<tspan x="1997.57px " y="79.474px ">e</tspan>lcome Our</text><text x="1980.8px" y="181.328px" style="font-family:'WorkSans-Black';font-size:72px;fill:#000;">Ne<tspan x="2075.33px 2141.72px " y="181.328px 181.328px ">w </tspan>Mobile</text><text x="1985.55px" y="283.182px" style="font-family:'WorkSans-Black';font-size:72px;fill:#fff;">Automa<tspan x="2262.96px " y="283.182px ">t</tspan>ion</text><text x="2054.02px" y="385.036px" style="font-family:'WorkSans-Black';font-size:72px;fill:#fff;">Ov<tspan x="2147.55px " y="385.036px ">e</tspan>rlords</text></g><g id="i-for-one" transform="matrix(1.15597,0,0,1.15597,-109.289,-85.4438)"><text x="707.446px" y="171.327px" style="font-family:'WorkSans-Black';font-size:24.353px;fill:#000;">I</text><text x="715.555px" y="171.327px" style="font-family:'WorkSans-Black';font-size:24.353px;fill:#2e2e2e;">,</text><text x="729.095px" y="171.327px" style="font-family:'WorkSans-Black';font-size:24.353px;fill:#000;">F<tspan x="742.928px 757.49px 768.059px " y="171.327px 171.327px 171.327px ">or </tspan>One,</text></g><path id="robot-head-front3" d="M377.95,237.427c9.175,4.015 11.694,15.441 4.918,23.059c-3.661,4.226 -7.499,5.666 -12.61,4.857c-12.846,-2.052 -16.756,-18.649 -6.192,-26.373c2.42,-1.751 3.592,-2.158 7.107,-2.38c2.852,-0.18 5.065,0.08 6.777,0.837Z" style="fill:#fff;fill-rule:nonzero;"/><path id="robot-head-front4" d="M380.875,233.917c9.175,4.014 11.694,15.44 4.918,23.058c-3.661,4.226 -7.499,5.667 -12.61,4.858c-12.846,-2.052 -16.756,-18.65 -6.192,-26.374c2.42,-1.751 3.592,-2.158 7.107,-2.38c2.852,-0.18 5.065,0.08 6.777,0.838Z" style="fill:#000;fill-rule:nonzero;"/><path id="robot-head-front5" d="M436.108,229.232c9.175,4.014 11.694,15.44 4.918,23.058c-3.662,4.226 -7.499,5.667 -12.61,4.858c-12.846,-2.052 -16.757,-18.65 -6.192,-26.374c2.419,-1.751 3.592,-2.158 7.107,-2.379c2.851,-0.18 5.065,0.079 6.777,0.837Z" style="fill:#fff;fill-rule:nonzero;"/><path id="robot-head-front6" d="M438.447,231.574c9.175,4.015 11.694,15.441 4.918,23.059c-3.661,4.226 -7.499,5.666 -12.61,4.857c-12.846,-2.052 -16.756,-18.649 -6.192,-26.374c2.42,-1.75 3.592,-2.157 7.107,-2.379c2.852,-0.18 5.065,0.08 6.777,0.837Z" style="fill:#000;fill-rule:nonzero;"/><path id="robot-head-front7" d="M431.037,341.393c0.82,1.23 1.401,0.977 4.267,-2.307l3.196,-3.674l9.943,-0.498c6.224,-0.387 10.867,-0.994 12.73,-1.76c4.89,-2.039 10.43,-1.943 14.585,0.39c6.411,3.492 2.885,7.556 -7.592,8.903c-5.715,0.735 -6.445,0.622 -9.217,-0.958c-2.526,-1.518 -3.987,-1.744 -8.282,-1.304l-5.134,0.481l-7.154,8.358c-3.957,4.684 -7.387,8.444 -7.746,8.462c-0.48,0.024 -3.453,-4.088 -6.748,-9.23c-3.17,-5.074 -6.28,-9.404 -6.663,-9.684c-0.383,-0.28 -3.298,3.903 -6.478,9.296c-3.18,5.392 -6.173,10.103 -6.509,10.419c-0.449,0.396 -5.111,-3.781 -10.353,-9.2c-5.242,-5.419 -9.945,-10.117 -10.448,-10.391c-0.509,-0.348 -1.989,0.698 -3.195,2.179l-2.302,2.807l-8.985,0.45c-7.787,0.39 -9.327,0.692 -11.724,2.307c-2.392,1.69 -3.338,1.887 -9.124,1.728c-10.248,-0.308 -14.293,-4.292 -8.348,-8.178c3.542,-2.346 9.389,-2.938 14.922,-1.421c2.329,0.556 5.953,0.748 9.774,0.407l5.973,-0.524l5.086,-7.132c2.693,-3.948 5.451,-7.077 6.056,-7.032c0.491,0.125 5.159,4.376 10.263,9.578c5.104,5.201 9.629,9.161 10.084,8.839c0.336,-0.316 3.011,-4.487 5.771,-9.111c2.754,-4.698 5.741,-9.483 6.719,-10.803l1.625,-2.249l7.023,9.665c3.792,5.342 7.441,10.392 7.985,11.187Z" style="fill:#fff;fill-rule:nonzero;"/><path id="robot-head-front8" d="M432.623,336.282c0.819,1.23 1.401,0.977 4.267,-2.307l3.196,-3.674l9.943,-0.498c6.224,-0.387 10.866,-0.994 12.73,-1.76c4.889,-2.039 10.43,-1.943 14.584,0.39c6.412,3.492 2.886,7.556 -7.591,8.903c-5.715,0.735 -6.446,0.623 -9.217,-0.958c-2.527,-1.518 -3.988,-1.744 -8.283,-1.304l-5.133,0.481l-7.154,8.358c-3.958,4.684 -7.387,8.444 -7.747,8.462c-0.479,0.024 -3.452,-4.088 -6.747,-9.23c-3.17,-5.074 -6.28,-9.404 -6.664,-9.684c-0.383,-0.28 -3.298,3.903 -6.477,9.296c-3.18,5.392 -6.173,10.103 -6.509,10.419c-0.45,0.396 -5.112,-3.781 -10.353,-9.2c-5.242,-5.419 -9.946,-10.117 -10.448,-10.391c-0.509,-0.348 -1.99,0.698 -3.195,2.179l-2.303,2.807l-8.985,0.45c-7.787,0.39 -9.326,0.692 -11.724,2.307c-2.391,1.69 -3.338,1.887 -9.123,1.728c-10.248,-0.308 -14.294,-4.292 -8.348,-8.178c3.542,-2.346 9.388,-2.938 14.921,-1.421c2.33,0.556 5.953,0.748 9.775,0.407l5.972,-0.524l5.086,-7.132c2.693,-3.948 5.452,-7.077 6.057,-7.032c0.491,0.125 5.158,4.376 10.263,9.578c5.104,5.201 9.628,9.161 10.084,8.839c0.336,-0.316 3.011,-4.487 5.771,-9.111c2.753,-4.698 5.741,-9.483 6.718,-10.803l1.626,-2.249l7.022,9.665c3.793,5.342 7.442,10.392 7.986,11.187Z" style="fill:#000;fill-rule:nonzero;"/></svg>