<?xml version="1.0" encoding="UTF-8" standalone="no"?><!DOCTYPE svg PUBLIC "-//W3C//DTD SVG 1.1//EN" "http://www.w3.org/Graphics/SVG/1.1/DTD/svg11.dtd"><svg width="100%" height="100%" viewBox="0 0 476 290" version="1.1" xmlns="http://www.w3.org/2000/svg" xmlns:xlink="http://www.w3.org/1999/xlink" xml:space="preserve" style="fill-rule:evenodd;clip-rule:evenodd;stroke-linecap:round;stroke-linejoin:round;"><path id="STROKE_F5C6C87E.-56ED.-445C.-8194.-BEA23AC5AF8C" d="M438.163,66.68c-0.206,1.046 -3.166,-0.749 -8.88,-5.387c-5.713,-4.637 -10.463,-8.921 -14.25,-12.85c-3.787,-3.929 -6.615,-7.361 -8.484,-10.294c-1.87,-2.934 -3.32,-6.588 -4.35,-10.963c-1.031,-4.375 -0.966,-8.097 0.194,-11.167c1.16,-3.071 2.845,-5.765 5.054,-8.084c2.21,-2.319 4.101,-3.581 5.673,-3.785c1.573,-0.205 4.317,0.918 8.233,3.37c3.916,2.452 7.091,5.155 9.526,8.11c2.435,2.955 3.588,3.674 3.459,2.157c-0.13,-1.517 1.332,-3.66 4.386,-6.428c3.053,-2.768 6.274,-4.292 9.663,-4.573c3.389,-0.28 6.44,0.88 9.153,3.479c2.713,2.599 4.136,5.994 4.27,10.186c0.135,4.192 -0.239,7.867 -1.121,11.027c-0.882,3.16 -2.577,7.012 -5.084,11.556c-2.507,4.544 -5.924,9.022 -10.252,13.433c-4.329,4.411 -6.558,6.954 -6.687,7.63c-0.13,0.676 -0.297,1.537 -0.503,2.583Z" style="fill:#e85764;fill-rule:nonzero;stroke:#e85764;stroke-width:0.75px;"/><path id="STROKE_EE3682BC.-1D78.-46AB.-B800.-8E16810422EF" d="M180.865,286.179c-1.031,-0.69 0.335,-1.633 4.098,-2.83c3.762,-1.198 9.672,-4.574 17.73,-10.128c8.057,-5.554 15.832,-11.8 23.324,-18.738c7.492,-6.939 14.056,-14.438 19.693,-22.497c5.637,-8.06 9.355,-14.242 11.152,-18.546c1.798,-4.303 2.735,-10.268 2.811,-17.897c0.077,-7.628 -2.114,-13.547 -6.571,-17.757c-4.458,-4.21 -8.993,-6.969 -13.604,-8.278c-4.611,-1.308 -9.033,-1.896 -13.265,-1.763c-4.233,0.133 -8.062,1.003 -11.489,2.61c-3.428,1.607 -9.027,5.159 -16.797,10.655c-7.769,5.497 -12.488,9.116 -14.157,10.856c-1.668,1.74 -3.626,0.244 -5.874,-4.487c-2.248,-4.731 -6.116,-8.939 -11.604,-12.624c-5.488,-3.685 -10.723,-5.77 -15.703,-6.255c-4.98,-0.485 -9.177,0.441 -12.59,2.778c-3.412,2.336 -6.42,5.74 -9.023,10.212c-2.602,4.473 -4.587,9.457 -5.953,14.954c-1.366,5.496 -2.265,11.264 -2.696,17.304c-0.431,6.039 0.832,13.763 3.789,23.171c2.958,9.408 6.198,16.506 9.721,21.295c3.523,4.788 7.794,9.397 12.812,13.826c5.019,4.429 10.572,7.972 16.659,10.629c6.088,2.657 10.79,4.078 14.107,4.265c3.317,0.187 4.46,-0.064 3.43,-0.755Z" style="fill:#e85764;fill-rule:nonzero;stroke:#e85764;stroke-width:0.75px;"/><path id="ERASER_23002D9E.-F218.-4018.-940B.-18EC7BE9D522" d="M180.325,230.723c0,0 -0.009,0 -0.029,0c-0.019,0 -0.038,0 -0.057,0c-0.019,0 -0.036,-0.009 -0.05,-0.027c-0.015,-0.018 -0.032,-0.037 -0.051,-0.059c-0.019,-0.021 -0.038,-0.05 -0.057,-0.086c-0.02,-0.036 -0.048,-0.063 -0.086,-0.081c-0.039,-0.018 -0.068,-0.047 -0.087,-0.086c-0.019,-0.04 -0.038,-0.087 -0.057,-0.141c-0.019,-0.054 -0.048,-0.1 -0.087,-0.14c-0.038,-0.039 -0.067,-0.086 -0.086,-0.14c-0.019,-0.054 -0.036,-0.118 -0.05,-0.194c-0.015,-0.075 -0.031,-0.142 -0.05,-0.199c-0.02,-0.058 -0.039,-0.133 -0.058,-0.227c-0.019,-0.093 -0.038,-0.178 -0.058,-0.253c-0.019,-0.076 -0.038,-0.16 -0.057,-0.254c-0.019,-0.093 -0.039,-0.187 -0.058,-0.28c-0.019,-0.094 -0.038,-0.176 -0.057,-0.248c-0.019,-0.072 -0.048,-0.155 -0.087,-0.249c-0.038,-0.093 -0.066,-0.178 -0.086,-0.253c-0.019,-0.076 -0.045,-0.151 -0.079,-0.227c-0.033,-0.075 -0.079,-0.131 -0.136,-0.166c-0.058,-0.036 -0.106,-0.083 -0.144,-0.14c-0.039,-0.058 -0.087,-0.105 -0.144,-0.141c-0.058,-0.036 -0.113,-0.073 -0.165,-0.113c-0.053,-0.039 -0.108,-0.068 -0.166,-0.086c-0.057,-0.018 -0.115,-0.036 -0.172,-0.054c-0.058,-0.018 -0.115,-0.027 -0.173,-0.027l-0.892,0c-0.057,0 -0.105,0.018 -0.143,0.054c-0.038,0.036 -0.086,0.083 -0.144,0.14c-0.057,0.058 -0.122,0.133 -0.194,0.227c-0.072,0.093 -0.146,0.167 -0.223,0.22c-0.077,0.054 -0.17,0.139 -0.28,0.254c-0.111,0.115 -0.214,0.228 -0.309,0.339c-0.096,0.112 -0.209,0.223 -0.339,0.335c-0.129,0.111 -0.27,0.232 -0.423,0.361c-0.154,0.13 -0.286,0.27 -0.396,0.421c-0.11,0.151 -0.24,0.291 -0.388,0.42c-0.149,0.13 -0.3,0.27 -0.453,0.421c-0.154,0.151 -0.295,0.293 -0.425,0.426c-0.129,0.133 -0.259,0.273 -0.388,0.421c-0.13,0.147 -0.261,0.287 -0.395,0.42c-0.134,0.133 -0.257,0.274 -0.367,0.421c-0.11,0.147 -0.204,0.287 -0.281,0.42c-0.076,0.134 -0.15,0.265 -0.222,0.394c-0.072,0.129 -0.137,0.259 -0.195,0.388c-0.057,0.13 -0.115,0.27 -0.172,0.421c-0.058,0.151 -0.096,0.302 -0.115,0.453c-0.019,0.151 -0.039,0.3 -0.058,0.448c-0.019,0.147 -0.028,0.276 -0.028,0.388l0,1.181c0,0.115 0.029,0.21 0.086,0.286c0.058,0.075 0.144,0.169 0.259,0.28c0.115,0.112 0.237,0.205 0.367,0.281c0.129,0.075 0.268,0.14 0.417,0.194c0.148,0.053 0.306,0.109 0.474,0.166c0.168,0.058 0.345,0.096 0.532,0.114c0.187,0.018 0.376,0.036 0.568,0.054c0.192,0.018 0.381,0.036 0.568,0.054c0.187,0.018 0.374,0.027 0.561,0.027l1.934,0c0.134,0 0.247,-0.018 0.338,-0.054c0.091,-0.036 0.175,-0.083 0.251,-0.141c0.077,-0.057 0.152,-0.113 0.223,-0.167c0.072,-0.053 0.137,-0.109 0.194,-0.166c0.058,-0.058 0.115,-0.143 0.173,-0.254c0.057,-0.111 0.105,-0.214 0.144,-0.307c0.038,-0.094 0.067,-0.196 0.086,-0.308c0.019,-0.111 0.046,-0.243 0.08,-0.394c0.033,-0.151 0.059,-0.302 0.078,-0.453c0.019,-0.151 0.039,-0.3 0.058,-0.447c0.019,-0.147 0.048,-0.305 0.086,-0.474c0.038,-0.169 0.077,-0.338 0.115,-0.507c0.039,-0.169 0.077,-0.347 0.115,-0.534c0.038,-0.187 0.077,-0.374 0.115,-0.561c0.039,-0.187 0.084,-0.354 0.137,-0.501c0.053,-0.148 0.098,-0.306 0.136,-0.475c0.039,-0.169 0.077,-0.329 0.116,-0.48c0.038,-0.151 0.076,-0.291 0.115,-0.421c0.038,-0.129 0.076,-0.261 0.114,-0.394c0.039,-0.133 0.065,-0.246 0.08,-0.339c0.014,-0.094 0.041,-0.187 0.079,-0.281c0.038,-0.093 0.067,-0.186 0.086,-0.28c0.019,-0.093 0.048,-0.178 0.086,-0.253c0.039,-0.076 0.067,-0.14 0.086,-0.194c0.02,-0.054 0.03,-0.101 0.03,-0.141c0,-0.039 0.009,-0.068 0.028,-0.086c0.019,-0.018 0.029,-0.045 0.029,-0.081l0,-0.253c0,-0.018 -0.019,-0.027 -0.057,-0.027l-0.676,0c-0.077,0 -0.144,0.009 -0.202,0.027c-0.057,0.018 -0.112,0.036 -0.165,0.054c-0.053,0.018 -0.118,0.046 -0.194,0.086c-0.077,0.039 -0.144,0.097 -0.202,0.172c-0.057,0.076 -0.112,0.141 -0.165,0.195c-0.053,0.054 -0.118,0.118 -0.194,0.194c-0.077,0.075 -0.153,0.151 -0.23,0.226c-0.077,0.076 -0.151,0.178 -0.223,0.308c-0.072,0.129 -0.146,0.249 -0.223,0.361c-0.076,0.111 -0.16,0.233 -0.252,0.366c-0.091,0.133 -0.175,0.275 -0.251,0.426c-0.077,0.151 -0.153,0.301 -0.23,0.448c-0.077,0.148 -0.151,0.306 -0.223,0.475c-0.072,0.169 -0.137,0.329 -0.194,0.48c-0.058,0.151 -0.115,0.309 -0.173,0.474c-0.057,0.165 -0.105,0.333 -0.144,0.502c-0.038,0.169 -0.064,0.329 -0.079,0.48c-0.014,0.151 -0.031,0.311 -0.05,0.48c-0.019,0.169 -0.029,0.327 -0.029,0.474l0,1.316c0,0.133 0.026,0.264 0.079,0.394c0.053,0.129 0.118,0.24 0.195,0.333c0.076,0.094 0.153,0.187 0.229,0.281c0.077,0.093 0.171,0.178 0.281,0.253c0.11,0.076 0.213,0.133 0.309,0.173c0.096,0.039 0.189,0.068 0.28,0.086c0.092,0.018 0.202,0.036 0.331,0.054c0.129,0.018 0.252,0.027 0.367,0.027l0.676,0c0.115,0 0.237,-0.009 0.366,-0.027c0.13,-0.018 0.269,-0.074 0.417,-0.167c0.149,-0.094 0.291,-0.207 0.425,-0.34c0.134,-0.133 0.275,-0.264 0.424,-0.393c0.149,-0.129 0.307,-0.27 0.474,-0.421c0.168,-0.151 0.326,-0.311 0.475,-0.48c0.148,-0.169 0.299,-0.336 0.453,-0.501c0.153,-0.166 0.304,-0.333 0.453,-0.502c0.148,-0.169 0.278,-0.337 0.388,-0.506c0.11,-0.169 0.223,-0.347 0.338,-0.534c0.115,-0.187 0.228,-0.365 0.338,-0.534c0.11,-0.169 0.213,-0.328 0.309,-0.475c0.096,-0.147 0.18,-0.305 0.251,-0.474c0.072,-0.169 0.137,-0.32 0.195,-0.453c0.057,-0.133 0.105,-0.273 0.144,-0.421c0.038,-0.147 0.067,-0.288 0.086,-0.421c0.019,-0.133 0.038,-0.255 0.058,-0.366c0.019,-0.112 0.028,-0.223 0.028,-0.335l0,-1.321c0,-0.093 -0.009,-0.178 -0.028,-0.253c-0.02,-0.076 -0.058,-0.149 -0.116,-0.221c-0.057,-0.072 -0.115,-0.137 -0.172,-0.195c-0.058,-0.057 -0.123,-0.104 -0.195,-0.14c-0.071,-0.036 -0.145,-0.074 -0.222,-0.113c-0.077,-0.04 -0.17,-0.068 -0.281,-0.086c-0.11,-0.018 -0.213,-0.027 -0.309,-0.027l-1.402,0c-0.129,0 -0.261,0.018 -0.395,0.054c-0.134,0.036 -0.276,0.091 -0.424,0.167c-0.149,0.075 -0.278,0.151 -0.389,0.226c-0.11,0.076 -0.232,0.151 -0.367,0.227c-0.134,0.075 -0.265,0.151 -0.395,0.226c-0.129,0.076 -0.259,0.15 -0.388,0.222c-0.129,0.072 -0.242,0.154 -0.338,0.248c-0.096,0.093 -0.192,0.178 -0.288,0.253c-0.095,0.076 -0.198,0.16 -0.309,0.253c-0.11,0.094 -0.194,0.178 -0.251,0.254c-0.058,0.075 -0.113,0.142 -0.166,0.199c-0.052,0.058 -0.098,0.133 -0.136,0.227c-0.039,0.093 -0.077,0.178 -0.115,0.253c-0.039,0.076 -0.067,0.16 -0.086,0.254c-0.02,0.093 -0.039,0.187 -0.058,0.28c-0.019,0.094 -0.029,0.196 -0.029,0.308l0,1.035c0,0.133 0.039,0.246 0.115,0.339c0.077,0.094 0.16,0.205 0.251,0.335c0.092,0.129 0.185,0.25 0.281,0.361c0.096,0.112 0.199,0.205 0.31,0.281c0.11,0.075 0.222,0.16 0.337,0.253c0.115,0.094 0.237,0.169 0.367,0.227c0.129,0.057 0.252,0.104 0.367,0.14c0.115,0.036 0.246,0.082 0.395,0.14c0.148,0.058 0.278,0.095 0.388,0.113c0.11,0.018 0.223,0.027 0.338,0.027l0.899,0c0.072,0 0.166,-0.009 0.281,-0.027c0.115,-0.018 0.218,-0.064 0.309,-0.14c0.091,-0.075 0.184,-0.169 0.28,-0.28c0.096,-0.112 0.189,-0.214 0.281,-0.308c0.091,-0.093 0.184,-0.197 0.28,-0.312c0.096,-0.115 0.189,-0.238 0.28,-0.367c0.091,-0.13 0.185,-0.25 0.28,-0.362c0.096,-0.111 0.183,-0.233 0.259,-0.366c0.077,-0.133 0.142,-0.265 0.194,-0.394c0.053,-0.129 0.109,-0.258 0.166,-0.388c0.058,-0.129 0.096,-0.261 0.115,-0.394c0.019,-0.133 0.038,-0.255 0.058,-0.366c0.019,-0.112 0.028,-0.243 0.028,-0.394l0,-1.148c0,-0.133 -0.019,-0.256 -0.058,-0.367c-0.038,-0.112 -0.076,-0.214 -0.114,-0.308c-0.039,-0.093 -0.094,-0.205 -0.165,-0.334c-0.072,-0.13 -0.147,-0.241 -0.224,-0.335c-0.076,-0.093 -0.143,-0.197 -0.201,-0.312c-0.057,-0.115 -0.122,-0.2 -0.194,-0.254c-0.072,-0.053 -0.146,-0.118 -0.223,-0.193c-0.076,-0.076 -0.163,-0.142 -0.259,-0.2c-0.096,-0.057 -0.18,-0.095 -0.252,-0.113c-0.072,-0.018 -0.146,-0.036 -0.222,-0.054c-0.077,-0.018 -0.161,-0.027 -0.252,-0.027l-0.618,0c-0.091,0 -0.194,0.009 -0.309,0.027c-0.115,0.018 -0.218,0.074 -0.309,0.167c-0.091,0.093 -0.204,0.186 -0.339,0.28c-0.134,0.093 -0.246,0.187 -0.337,0.28c-0.092,0.094 -0.195,0.207 -0.31,0.34c-0.115,0.133 -0.227,0.255 -0.337,0.367c-0.111,0.111 -0.224,0.223 -0.339,0.334c-0.115,0.112 -0.218,0.223 -0.309,0.335c-0.091,0.111 -0.184,0.234 -0.28,0.367c-0.096,0.133 -0.19,0.264 -0.281,0.393c-0.091,0.129 -0.174,0.26 -0.251,0.393c-0.077,0.133 -0.151,0.274 -0.223,0.421c-0.072,0.148 -0.136,0.297 -0.194,0.448c-0.057,0.151 -0.125,0.3 -0.202,0.448c-0.076,0.147 -0.134,0.296 -0.172,0.447c-0.039,0.151 -0.075,0.302 -0.108,0.453c-0.034,0.151 -0.06,0.291 -0.079,0.42c-0.019,0.13 -0.038,0.259 -0.058,0.389c-0.019,0.129 -0.028,0.252 -0.028,0.367l0,0.9c0,0.076 0.009,0.16 0.028,0.253c0.02,0.094 0.056,0.176 0.108,0.248c0.053,0.072 0.118,0.128 0.195,0.168c0.076,0.039 0.162,0.077 0.258,0.113c0.096,0.036 0.18,0.063 0.252,0.081c0.072,0.018 0.156,0.038 0.252,0.059c0.096,0.022 0.189,0.032 0.28,0.032l0.928,0c0.115,0 0.218,-0.028 0.309,-0.086c0.091,-0.057 0.184,-0.115 0.28,-0.172c0.096,-0.058 0.189,-0.133 0.281,-0.227c0.091,-0.093 0.175,-0.187 0.251,-0.28c0.077,-0.094 0.154,-0.187 0.23,-0.281c0.077,-0.093 0.161,-0.196 0.252,-0.307c0.091,-0.111 0.185,-0.223 0.28,-0.334c0.096,-0.112 0.18,-0.232 0.252,-0.362c0.072,-0.129 0.137,-0.26 0.194,-0.393c0.058,-0.133 0.115,-0.265 0.173,-0.394c0.057,-0.13 0.096,-0.261 0.115,-0.394c0.019,-0.133 0.038,-0.273 0.057,-0.42c0.019,-0.147 0.029,-0.288 0.029,-0.421l0,-1.235c0,-0.129 -0.01,-0.261 -0.029,-0.394c-0.019,-0.133 -0.067,-0.264 -0.144,-0.393c-0.076,-0.129 -0.162,-0.25 -0.258,-0.361c-0.096,-0.112 -0.19,-0.223 -0.281,-0.335c-0.091,-0.111 -0.184,-0.205 -0.28,-0.28c-0.096,-0.076 -0.18,-0.142 -0.252,-0.2c-0.072,-0.057 -0.165,-0.113 -0.28,-0.167c-0.115,-0.054 -0.218,-0.092 -0.309,-0.113c-0.092,-0.022 -0.204,-0.041 -0.338,-0.059c-0.134,-0.018 -0.257,-0.027 -0.367,-0.027c-0.11,0 -0.22,0 -0.331,0c-0.11,0 -0.232,0.009 -0.367,0.027c-0.134,0.018 -0.256,0.084 -0.366,0.199c-0.11,0.115 -0.233,0.228 -0.367,0.34c-0.134,0.111 -0.256,0.232 -0.367,0.361c-0.11,0.13 -0.23,0.261 -0.359,0.394c-0.13,0.133 -0.242,0.264 -0.338,0.394c-0.096,0.129 -0.199,0.269 -0.309,0.42c-0.11,0.151 -0.213,0.3 -0.309,0.448c-0.096,0.147 -0.183,0.287 -0.259,0.42c-0.077,0.133 -0.151,0.274 -0.223,0.421c-0.072,0.148 -0.137,0.288 -0.194,0.421c-0.058,0.133 -0.106,0.264 -0.144,0.394c-0.038,0.129 -0.067,0.26 -0.086,0.393c-0.019,0.133 -0.038,0.264 -0.057,0.393c-0.02,0.13 -0.03,0.259 -0.03,0.389l0,0.76c0,0.112 0.02,0.223 0.058,0.334c0.039,0.112 0.106,0.214 0.201,0.308c0.096,0.093 0.18,0.196 0.252,0.307c0.072,0.112 0.166,0.205 0.281,0.281c0.115,0.075 0.227,0.16 0.337,0.253c0.111,0.094 0.233,0.16 0.367,0.2c0.134,0.039 0.266,0.077 0.395,0.113c0.13,0.036 0.269,0.063 0.417,0.081c0.149,0.018 0.307,0.036 0.475,0.054c0.168,0.018 0.328,0.027 0.481,0.027l0.986,0c0.167,0 0.326,-0.036 0.475,-0.108c0.148,-0.072 0.289,-0.166 0.423,-0.281c0.135,-0.115 0.257,-0.208 0.367,-0.28c0.111,-0.072 0.223,-0.175 0.338,-0.308c0.115,-0.133 0.218,-0.264 0.309,-0.393c0.091,-0.129 0.166,-0.26 0.223,-0.393c0.058,-0.133 0.106,-0.265 0.144,-0.394c0.038,-0.13 0.074,-0.27 0.108,-0.421c0.034,-0.151 0.05,-0.291 0.05,-0.421l0,-1.369c0,-0.151 -0.016,-0.302 -0.05,-0.453c-0.034,-0.151 -0.099,-0.3 -0.194,-0.448c-0.096,-0.147 -0.19,-0.288 -0.281,-0.421c-0.091,-0.133 -0.194,-0.264 -0.309,-0.393c-0.115,-0.129 -0.227,-0.25 -0.338,-0.361c-0.11,-0.112 -0.232,-0.214 -0.367,-0.308c-0.134,-0.093 -0.256,-0.169 -0.366,-0.226c-0.11,-0.058 -0.223,-0.115 -0.338,-0.173c-0.115,-0.057 -0.228,-0.086 -0.338,-0.086l-0.726,0c-0.115,0 -0.237,0.011 -0.367,0.032c-0.129,0.022 -0.261,0.097 -0.395,0.227c-0.135,0.129 -0.257,0.27 -0.367,0.421c-0.11,0.151 -0.221,0.32 -0.331,0.507c-0.11,0.186 -0.232,0.373 -0.366,0.56c-0.135,0.187 -0.248,0.374 -0.339,0.561c-0.091,0.187 -0.184,0.365 -0.28,0.534c-0.096,0.169 -0.172,0.347 -0.23,0.534c-0.057,0.187 -0.112,0.363 -0.165,0.528c-0.053,0.165 -0.089,0.306 -0.108,0.421c-0.019,0.115 -0.038,0.246 -0.057,0.393c-0.02,0.148 -0.03,0.268 -0.03,0.362l0,0.787c0,0.057 0.039,0.104 0.116,0.14c0.076,0.036 0.179,0.074 0.309,0.113c0.129,0.04 0.249,0.068 0.359,0.086c0.111,0.018 0.233,0.027 0.367,0.027l0.647,0" style="fill:none;stroke:#fff;stroke-width:8.78px;"/><path id="ERASER_A91F8F47.-B47E.-4D02.-BF9F.-62FBD10CF633" d="M185.099,227.639c0,0 -0.007,0 -0.022,0c-0.014,0 -0.021,-0.011 -0.021,-0.033l0,-0.113c0,-0.018 0.007,-0.027 0.021,-0.027c0.015,0 0.041,0 0.08,0c0.038,0 0.067,0.009 0.086,0.027c0.019,0.018 0.048,0.056 0.086,0.113c0.039,0.058 0.068,0.114 0.087,0.168c0.019,0.054 0.047,0.109 0.086,0.167c0.038,0.057 0.067,0.124 0.086,0.199c0.019,0.076 0.045,0.151 0.079,0.227c0.034,0.075 0.06,0.14 0.079,0.194c0.019,0.054 0.048,0.11 0.087,0.167c0.038,0.058 0.067,0.114 0.086,0.168c0.019,0.054 0.048,0.109 0.086,0.167c0.039,0.057 0.077,0.124 0.115,0.199c0.038,0.076 0.067,0.132 0.086,0.168c0.02,0.036 0.046,0.091 0.08,0.167c0.033,0.075 0.059,0.142 0.078,0.199c0.02,0.058 0.039,0.113 0.058,0.167c0.019,0.054 0.038,0.11 0.058,0.167c0.019,0.058 0.038,0.115 0.058,0.173c0.019,0.057 0.038,0.113 0.057,0.167c0.019,0.054 0.038,0.11 0.057,0.167c0.019,0.058 0.029,0.113 0.029,0.167c0,0.054 0.01,0.101 0.029,0.141c0.019,0.039 0.029,0.077 0.029,0.113l0,1.095c0,0.053 -0.01,0.118 -0.029,0.193c-0.019,0.076 -0.039,0.151 -0.058,0.227c-0.019,0.075 -0.047,0.16 -0.086,0.253c-0.038,0.094 -0.077,0.187 -0.115,0.281c-0.038,0.093 -0.074,0.187 -0.108,0.28c-0.033,0.094 -0.079,0.178 -0.136,0.254c-0.058,0.075 -0.097,0.16 -0.116,0.253c-0.019,0.094 -0.047,0.177 -0.086,0.249c-0.038,0.071 -0.077,0.145 -0.115,0.22c-0.038,0.076 -0.077,0.151 -0.115,0.227c-0.038,0.075 -0.064,0.131 -0.079,0.167c-0.014,0.036 -0.041,0.074 -0.079,0.113c-0.038,0.04 -0.067,0.086 -0.087,0.14c-0.019,0.054 -0.038,0.092 -0.057,0.114c-0.019,0.021 -0.048,0.041 -0.086,0.059c-0.038,0.018 -0.067,0.045 -0.086,0.081c-0.02,0.036 -0.039,0.074 -0.058,0.113c-0.019,0.04 -0.048,0.077 -0.086,0.113c-0.039,0.036 -0.094,0.072 -0.166,0.108c-0.071,0.036 -0.136,0.083 -0.193,0.141c-0.058,0.057 -0.116,0.115 -0.174,0.172c-0.057,0.058 -0.112,0.113 -0.165,0.167c-0.052,0.054 -0.107,0.11 -0.165,0.168c-0.058,0.057 -0.115,0.115 -0.173,0.172c-0.057,0.058 -0.115,0.104 -0.172,0.14c-0.058,0.036 -0.113,0.083 -0.165,0.141c-0.053,0.057 -0.109,0.104 -0.166,0.14c-0.058,0.035 -0.115,0.071 -0.173,0.107c-0.057,0.036 -0.112,0.065 -0.165,0.086c-0.053,0.022 -0.108,0.051 -0.165,0.087c-0.058,0.036 -0.115,0.063 -0.173,0.081c-0.057,0.018 -0.105,0.036 -0.143,0.054c-0.039,0.018 -0.084,0.037 -0.137,0.059c-0.053,0.021 -0.108,0.041 -0.165,0.059c-0.058,0.018 -0.115,0.036 -0.173,0.054c-0.057,0.018 -0.105,0.036 -0.144,0.054c-0.038,0.018 -0.084,0.027 -0.136,0.027c-0.053,0 -0.099,0 -0.137,0c-0.038,0 -0.077,0.009 -0.115,0.027c-0.038,0.018 -0.086,0.027 -0.144,0.027c-0.057,0 -0.112,0.011 -0.165,0.032c-0.053,0.022 -0.118,0.033 -0.195,0.033c-0.076,0 -0.143,0.009 -0.201,0.027c-0.057,0.018 -0.115,0.036 -0.172,0.054c-0.058,0.018 -0.122,0.027 -0.194,0.027c-0.072,0 -0.137,0.009 -0.195,0.027c-0.057,0.018 -0.124,0.036 -0.201,0.054c-0.077,0.018 -0.141,0.037 -0.194,0.059c-0.053,0.021 -0.108,0.041 -0.166,0.059c-0.057,0.018 -0.115,0.036 -0.172,0.054c-0.058,0.018 -0.113,0.036 -0.165,0.054c-0.053,0.018 -0.099,0.036 -0.137,0.054c-0.038,0.018 -0.077,0.038 -0.115,0.059c-0.038,0.022 -0.067,0.042 -0.086,0.06c-0.019,0.018 -0.048,0.036 -0.087,0.054c-0.038,0.018 -0.076,0.036 -0.114,0.054c-0.039,0.018 -0.065,0.036 -0.08,0.054c-0.014,0.018 -0.04,0.037 -0.079,0.059c-0.038,0.021 -0.077,0.041 -0.115,0.059c-0.038,0.018 -0.067,0.036 -0.086,0.054c-0.019,0.018 -0.038,0.027 -0.057,0.027l-1.065,0c-0.019,0 -0.047,-0.009 -0.086,-0.027c-0.038,-0.018 -0.067,-0.027 -0.086,-0.027c-0.019,0 -0.048,-0.009 -0.086,-0.027c-0.039,-0.018 -0.068,-0.027 -0.087,-0.027c-0.019,0 -0.046,-0.011 -0.079,-0.032c-0.034,-0.022 -0.069,-0.032 -0.107,-0.032c-0.039,0 -0.077,-0.009 -0.116,-0.027c-0.038,-0.018 -0.076,-0.027 -0.115,-0.027c-0.038,0 -0.067,-0.009 -0.086,-0.027c-0.019,-0.018 -0.048,-0.036 -0.086,-0.054c-0.039,-0.018 -0.067,-0.027 -0.086,-0.027c-0.02,0 -0.046,-0.009 -0.08,-0.027c-0.033,-0.018 -0.06,-0.038 -0.079,-0.06c-0.019,-0.021 -0.048,-0.041 -0.086,-0.059c-0.038,-0.018 -0.067,-0.045 -0.086,-0.081c-0.02,-0.036 -0.048,-0.063 -0.086,-0.081c-0.039,-0.018 -0.068,-0.038 -0.087,-0.059c-0.019,-0.022 -0.038,-0.032 -0.057,-0.032c-0.019,0 -0.036,-0.018 -0.051,-0.054c-0.014,-0.036 -0.031,-0.054 -0.05,-0.054c-0.019,0 -0.048,-0.009 -0.086,-0.027c-0.039,-0.018 -0.067,-0.027 -0.086,-0.027c-0.02,0 -0.039,-0.009 -0.058,-0.027c-0.019,-0.018 -0.048,-0.027 -0.086,-0.027l-0.173,0c-0.038,0 -0.074,-0.011 -0.108,-0.033c-0.033,-0.021 -0.06,-0.032 -0.079,-0.032c-0.019,0 -0.048,-0.018 -0.086,-0.054c-0.038,-0.036 -0.067,-0.054 -0.086,-0.054c-0.02,0 -0.039,0 -0.058,0c-0.019,0 -0.048,-0.009 -0.086,-0.027c-0.039,-0.018 -0.067,-0.036 -0.086,-0.054c-0.02,-0.018 -0.039,-0.038 -0.058,-0.059c-0.019,-0.022 -0.036,-0.032 -0.05,-0.032c-0.015,0 -0.032,0 -0.051,0c-0.019,0 -0.038,-0.009 -0.057,-0.027c-0.019,-0.018 -0.039,-0.036 -0.058,-0.054c-0.019,-0.018 -0.038,-0.036 -0.057,-0.054c-0.02,-0.018 -0.029,-0.036 -0.029,-0.054l0,-0.534c0,-0.036 0.019,-0.073 0.057,-0.113c0.039,-0.039 0.058,-0.077 0.058,-0.113c0,-0.036 0.01,-0.074 0.029,-0.113c0.019,-0.04 0.038,-0.069 0.057,-0.087c0.019,-0.018 0.036,-0.036 0.051,-0.054c0.014,-0.018 0.021,-0.036 0.021,-0.054c0,-0.018 0.01,-0.027 0.029,-0.027c0.019,0 0.028,-0.01 0.028,-0.032c0,-0.021 0,-0.041 0,-0.059c0,-0.018 0.01,-0.045 0.03,-0.081c0.019,-0.036 0.038,-0.074 0.057,-0.113c0.019,-0.04 0.038,-0.078 0.057,-0.114c0.02,-0.036 0.049,-0.082 0.087,-0.14c0.038,-0.057 0.067,-0.104 0.086,-0.14c0.019,-0.036 0.039,-0.072 0.058,-0.108c0.019,-0.036 0.047,-0.083 0.086,-0.14c0.038,-0.058 0.065,-0.096 0.079,-0.114c0.014,-0.018 0.021,-0.046 0.021,-0.086c0,-0.039 0.01,-0.059 0.03,-0.059c0.019,0 0.028,-0.009 0.028,-0.027c0,-0.018 0,-0.018 0,0c0,0.018 0,0.047 0,0.086c0,0.04 -0.009,0.097 -0.028,0.173c-0.02,0.075 -0.03,0.14 -0.03,0.194c0,0.054 -0.007,0.128 -0.021,0.221c-0.014,0.094 -0.031,0.187 -0.051,0.281c-0.019,0.093 -0.038,0.197 -0.057,0.312c-0.019,0.115 -0.038,0.22 -0.057,0.313c-0.019,0.094 -0.048,0.196 -0.087,0.308c-0.038,0.111 -0.067,0.213 -0.086,0.306c-0.019,0.094 -0.038,0.214 -0.058,0.362c-0.019,0.147 -0.038,0.268 -0.057,0.361c-0.019,0.094 -0.038,0.207 -0.057,0.34c-0.02,0.133 -0.039,0.246 -0.058,0.34c-0.019,0.093 -0.029,0.187 -0.029,0.28l0,0.809c0,0.036 0.01,0.083 0.029,0.14c0.019,0.058 0.057,0.095 0.115,0.113c0.058,0.018 0.125,0.036 0.201,0.054c0.077,0.018 0.161,0.027 0.252,0.027l1.352,0c0.129,0 0.259,-0.036 0.388,-0.108c0.129,-0.072 0.271,-0.136 0.424,-0.194c0.154,-0.057 0.295,-0.133 0.425,-0.226c0.129,-0.094 0.268,-0.187 0.417,-0.28c0.148,-0.094 0.297,-0.178 0.445,-0.254c0.149,-0.075 0.3,-0.16 0.453,-0.253c0.154,-0.094 0.305,-0.187 0.453,-0.281c0.149,-0.093 0.288,-0.178 0.417,-0.253c0.13,-0.076 0.271,-0.16 0.425,-0.254c0.153,-0.093 0.303,-0.196 0.452,-0.307c0.149,-0.112 0.288,-0.214 0.417,-0.308c0.129,-0.093 0.269,-0.187 0.418,-0.28c0.148,-0.094 0.289,-0.205 0.423,-0.334c0.134,-0.129 0.276,-0.241 0.425,-0.334c0.148,-0.094 0.297,-0.207 0.445,-0.34c0.149,-0.133 0.3,-0.264 0.453,-0.394c0.154,-0.129 0.305,-0.25 0.453,-0.361c0.149,-0.112 0.288,-0.225 0.417,-0.34c0.13,-0.115 0.252,-0.228 0.367,-0.34c0.115,-0.111 0.218,-0.213 0.309,-0.307c0.091,-0.093 0.165,-0.167 0.223,-0.221c0.057,-0.054 0.115,-0.11 0.172,-0.167c0.058,-0.058 0.103,-0.104 0.137,-0.14l0.051,-0.054" style="fill:none;stroke:#fff;stroke-width:8.67px;"/><path id="STROKE_98050420.-F2AB.-4C4F.-92D2.-ED8383C45CFF" d="M41.712,45.019c0.101,-8.374 -0.13,-14.837 -0.694,-19.389c-0.564,-4.553 -1.268,-7.921 -2.113,-10.103c-0.844,-2.182 -1.705,-3.695 -2.583,-4.539c-0.878,-0.843 -2.403,-1.77 -4.575,-2.781c-2.172,-1.012 -4.31,-1.625 -6.414,-1.838c-2.104,-0.213 -4.424,0.458 -6.96,2.014c-2.537,1.556 -4.503,3.632 -5.899,6.228c-1.396,2.596 -2.747,6.468 -4.053,11.615c-1.307,5.148 -2.308,10.443 -3.003,15.887c-0.696,5.443 -1.468,13.271 -2.316,23.484c-0.849,10.212 -1.438,19.068 -1.769,26.567c-0.331,7.498 -0.505,13.737 -0.522,18.716c-0.017,4.979 0.299,9.497 0.948,13.553c0.649,4.056 1.47,7.061 2.463,9.015c0.992,1.953 2.252,3.674 3.779,5.163c1.527,1.489 4.064,2.903 7.61,4.242c3.546,1.34 6.289,1.911 8.228,1.714c1.938,-0.197 3.745,-1.058 5.421,-2.582c1.675,-1.524 2.952,-3.079 3.83,-4.667c0.878,-1.588 1.822,-4.526 2.831,-8.814c1.01,-4.289 2.028,-10.695 3.055,-19.218c1.026,-8.523 2.867,-11.534 5.523,-9.033c2.655,2.5 4.604,4.686 5.847,6.556c1.243,1.871 2.577,3.311 4.003,4.319c1.425,1.009 2.833,2.813 4.224,5.412c1.392,2.599 4.582,6.282 9.57,11.047c4.989,4.766 9,8.15 12.033,10.151c3.033,2.001 5.817,3.085 8.354,3.25c2.537,0.165 5.057,-0.298 7.559,-1.389c2.503,-1.091 4.211,-2.167 5.123,-3.226c0.912,-1.059 1.69,-2.623 2.334,-4.691c0.645,-2.068 0.771,-4.476 0.376,-7.225c-0.394,-2.749 -2.117,-6.266 -5.167,-10.551c-3.05,-4.286 -6.265,-8.299 -9.646,-12.041c-3.381,-3.741 -6.946,-7.209 -10.696,-10.403c-3.75,-3.194 -6.933,-5.766 -9.55,-7.717c-2.618,-1.95 -3.952,-3.439 -4.003,-4.466c-0.051,-1.028 1.001,-2.7 3.156,-5.016c2.155,-2.316 5.313,-5.286 9.475,-8.909c4.161,-3.624 8.604,-7.911 13.329,-12.861c4.726,-4.951 8.406,-9.23 11.04,-12.838c2.634,-3.608 4.69,-7.133 6.166,-10.575c1.476,-3.442 2.163,-6.28 2.062,-8.513c-0.102,-2.234 -0.601,-4.443 -1.496,-6.629c-0.895,-2.186 -1.822,-3.775 -2.781,-4.768c-0.958,-0.992 -2.757,-1.636 -5.395,-1.932c-2.639,-0.296 -4.603,-0.23 -5.892,0.2c-1.29,0.429 -4.762,2.257 -10.416,5.483c-5.655,3.226 -10.503,6.544 -14.546,9.955c-4.042,3.41 -8.575,7.465 -13.597,12.164c-5.023,4.699 -8.571,7.803 -10.646,9.311l-3.111,2.262" style="fill:none;stroke:#000;stroke-width:1.62px;"/><path id="STROKE_34B4065B.-26D0.-4BBA.-982C.-3D37E1C06C93" d="M210.736,19.994c-3.215,-3.042 -6.687,-5.663 -10.416,-7.865c-3.729,-2.201 -6.405,-3.526 -8.03,-3.975c-1.624,-0.448 -4.475,-0.73 -8.551,-0.844c-4.077,-0.115 -7.218,-0.007 -9.424,0.324c-2.206,0.331 -5.68,1.746 -10.423,4.247c-4.742,2.5 -8.539,5.09 -11.389,7.769c-2.851,2.679 -5.279,5.334 -7.286,7.965c-2.006,2.631 -4.079,5.892 -6.217,9.783c-2.137,3.891 -4.474,9.196 -7.011,15.915c-2.537,6.72 -4.161,11.742 -4.874,15.066c-0.713,3.325 -1.301,7.379 -1.763,12.164c-0.462,4.785 -0.553,10.264 -0.273,16.436c0.28,6.172 1.092,12.121 2.437,17.848c1.344,5.726 3.393,10.502 6.146,14.326c2.753,3.824 6.399,7.142 10.938,9.955c4.539,2.812 9.137,5.094 13.795,6.847c4.658,1.753 9.315,2.805 13.973,3.155c4.657,0.35 8.52,0.243 11.587,-0.32c3.067,-0.563 6.176,-1.374 9.327,-2.433c3.152,-1.06 6.758,-2.832 10.818,-5.316c4.059,-2.485 7.183,-4.091 9.372,-4.816c2.189,-0.725 5.305,-3.669 9.348,-8.833c4.042,-5.163 7.158,-10.088 9.347,-14.775c2.188,-4.686 3.556,-8.461 4.104,-11.324c0.547,-2.864 0.977,-7.001 1.291,-12.413c0.314,-5.411 0.157,-11.567 -0.471,-18.468c-0.628,-6.901 -1.374,-11.741 -2.239,-14.522c-0.866,-2.78 -3.154,-7.43 -6.866,-13.949c-3.712,-6.519 -6.802,-11.194 -9.27,-14.025c-2.469,-2.832 -4.582,-5 -6.338,-6.505l-2.635,-2.257" style="fill:none;stroke:#000;stroke-width:1.62px;"/><path id="STROKE_654AE53D.-1D27.-45B2.-8DEA.-EC6686B20F0F" d="M186.57,63.488c-2.783,-0.923 -5.285,-1.071 -7.508,-0.444c-2.223,0.627 -3.973,1.578 -5.25,2.853c-1.277,1.276 -2.562,3.139 -3.855,5.589c-1.294,2.449 -1.982,4.31 -2.062,5.583c-0.081,1.273 0.102,2.795 0.547,4.567c0.445,1.772 1.166,3.411 2.163,4.916c0.997,1.504 2.597,2.654 4.798,3.45c2.202,0.795 4.057,1.226 5.567,1.293c1.51,0.067 3.385,-0.305 5.625,-1.116c2.24,-0.812 4.005,-1.98 5.295,-3.504c1.289,-1.524 2.093,-3.063 2.411,-4.619c0.318,-1.556 0.435,-3.029 0.35,-4.419c-0.085,-1.39 -0.509,-3.078 -1.273,-5.063c-0.763,-1.986 -1.957,-3.938 -3.582,-5.856l-2.437,-2.877" style="fill:none;stroke:#000;stroke-width:1.62px;"/><path id="STROKE_1F22AD23.-C8BD.-46DA.-BF22.-0849F0D37081" d="M310.473,51.133c-0.399,9.894 -0.573,20.088 -0.522,30.58c0.051,10.493 -0.24,17.23 -0.872,20.211c-0.632,2.981 -1.718,5.704 -3.258,8.169c-1.54,2.466 -3.686,4.162 -6.439,5.088c-2.753,0.926 -5.247,1.29 -7.483,1.092c-2.235,-0.197 -5.391,-1.083 -9.468,-2.658c-4.076,-1.575 -7.192,-2.551 -9.347,-2.93c-2.155,-0.378 -4.757,-0.27 -7.807,0.325c-3.05,0.595 -5.404,1.934 -7.063,4.018c-1.659,2.084 -2.613,4.177 -2.863,6.28c-0.251,2.103 0.371,4.811 1.864,8.123c1.493,3.311 3.591,6.397 6.293,9.258c2.702,2.86 6.042,5.201 10.021,7.024c3.979,1.823 8.38,3.264 13.203,4.324c4.823,1.059 9.581,1.729 14.273,2.008c4.691,0.28 9.763,-0.068 15.214,-1.044c5.45,-0.977 9.27,-2.052 11.459,-3.226c2.189,-1.174 4.569,-3.565 7.139,-7.173c2.571,-3.608 4.369,-6.644 5.396,-9.11c1.026,-2.466 1.921,-5.362 2.685,-8.69c0.764,-3.328 1.319,-7.383 1.667,-12.165c0.348,-4.781 0.462,-10.35 0.343,-16.707c-0.118,-6.356 -0.417,-12.075 -0.897,-17.156c-0.479,-5.081 -0.67,-9.996 -0.572,-14.746c0.098,-4.75 0.819,-7.828 2.163,-9.234c1.345,-1.406 3.152,-2.3 5.421,-2.682c2.27,-0.382 6.372,-0.622 12.306,-0.721c5.935,-0.098 10.601,-0.478 13.999,-1.14c3.397,-0.662 6.538,-1.522 9.423,-2.582c2.884,-1.059 4.931,-2.06 6.14,-3.002c1.209,-0.942 2.395,-2.531 3.557,-4.767c1.162,-2.237 1.752,-4.935 1.769,-8.094c0.017,-3.159 -0.747,-6.899 -2.291,-11.219c-1.544,-4.321 -3.955,-7.688 -7.234,-10.103c-3.279,-2.415 -6.495,-4.036 -9.647,-4.863c-3.151,-0.827 -7.295,-1.481 -12.432,-1.961c-5.137,-0.481 -12.033,-0.754 -20.686,-0.821c-8.654,-0.067 -16.875,-0.017 -24.663,0.148c-7.788,0.166 -15.122,0.935 -22.003,2.309c-6.88,1.375 -11.746,2.22 -14.596,2.535c-2.851,0.315 -5.85,1.042 -8.997,2.181c-3.148,1.139 -6.049,2.95 -8.705,5.435c-2.655,2.485 -4.397,4.787 -5.224,6.905c-0.827,2.119 -1.489,4.808 -1.985,8.066c-0.496,3.257 -0.745,6.459 -0.745,9.606c0,3.146 0.647,5.911 1.941,8.294c1.294,2.383 3.415,4.112 6.363,5.188c2.948,1.075 5.616,1.728 8.004,1.961c2.389,0.232 4.544,0.074 6.465,-0.473c1.922,-0.547 5.634,-1.168 11.136,-1.861c5.501,-0.694 9.645,-0.983 12.432,-0.869l4.181,0.172" style="fill:none;stroke:#000;stroke-width:1.62px;"/><path id="STROKE_55EDB6D3.-1FD5.-4694.-A830.-FE9E3985131E" d="M439.208,15.534c2.742,-3.008 5.074,-5.3 6.996,-6.876c1.923,-1.575 3.486,-2.583 4.691,-3.024c1.204,-0.44 3.373,-0.718 6.506,-0.834c3.133,-0.116 5.776,0.73 7.93,2.537c2.154,1.807 3.857,4.239 5.109,7.296c1.252,3.057 1.878,5.812 1.878,8.264c0,2.452 -0.207,4.455 -0.622,6.008c-0.416,1.553 -1.608,3.95 -3.578,7.19c-1.97,3.24 -4.558,6.677 -7.762,10.313c-3.204,3.636 -6.29,6.958 -9.257,9.967c-2.967,3.008 -5.631,5.543 -7.992,7.603c-2.362,2.061 -4.032,3.218 -5.011,3.471c-0.979,0.254 -2.071,0.045 -3.276,-0.627c-1.205,-0.672 -2.792,-1.851 -4.762,-3.538c-1.97,-1.687 -4.729,-5.042 -8.277,-10.067c-3.548,-5.024 -6.575,-9.691 -9.079,-13.999c-2.504,-4.307 -3.975,-7.654 -4.415,-10.039c-0.439,-2.386 -0.658,-4.526 -0.658,-6.422c0,-1.896 0.219,-3.48 0.658,-4.753c0.44,-1.273 1.529,-2.848 3.267,-4.727c1.739,-1.878 3.35,-3.07 4.833,-3.577c1.484,-0.508 3.712,-0.797 6.684,-0.868c2.973,-0.071 4.979,0.16 6.017,0.694c1.039,0.534 2.81,2.052 5.314,4.553l3.756,3.752" style="fill:none;stroke:#000;stroke-width:1.62px;"/><path id="STROKE_82F413D5.-42A4.-458A.-B0ED.-7EE850F0CB4D" d="M447.7,103.383c0.047,-7.307 -0.184,-13.092 -0.695,-17.356c-0.51,-4.263 -3.141,-6.406 -7.894,-6.429c-4.753,-0.022 -7.815,0.061 -9.186,0.248c-1.371,0.187 -2.658,0.779 -3.863,1.775c-1.204,0.997 -2.05,2.061 -2.536,3.191c-0.487,1.131 -1.428,7.219 -2.822,18.264c-1.394,11.046 -2.347,17.784 -2.857,20.214c-0.511,2.43 -0.902,4.953 -1.175,7.57c-0.273,2.617 -0.282,5.035 -0.027,7.256c0.255,2.221 0.798,3.689 1.629,4.406c0.831,0.716 2.637,1.584 5.42,2.603c2.783,1.019 5.474,1.749 8.073,2.19c2.599,0.441 5.035,0.661 7.308,0.661c2.272,0 4.31,-0.543 6.114,-1.629c1.804,-1.086 3.08,-2.811 3.828,-5.174c0.747,-2.363 1.121,-5.175 1.121,-8.437c0,-3.263 -0.246,-6.342 -0.739,-9.239c-0.492,-2.897 -0.759,-6.591 -0.801,-11.082c-0.041,-4.49 -0.145,-7.972 -0.311,-10.446l-0.249,-3.712" style="fill:none;stroke:#000;stroke-width:1.62px;"/><path id="STROKE_EE6263EA.-5BFF.-41DB.-BB28.-DC28AB302AA3" d="M37.98,253.408c1.183,-11.304 1.775,-19.237 1.775,-23.799c0,-4.562 0.239,-11.08 0.717,-19.554c0.478,-8.475 0.663,-14.459 0.554,-17.952c-0.109,-3.493 -0.949,-7.98 -2.521,-13.462c-1.572,-5.481 -3.19,-8.741 -4.856,-9.778c-1.667,-1.036 -3.369,-1.563 -5.106,-1.581c-1.737,-0.018 -3.845,0.721 -6.326,2.215c-2.48,1.495 -4.192,2.945 -5.134,4.351c-0.942,1.406 -2.033,4.298 -3.273,8.675c-1.24,4.377 -2.277,9.133 -3.11,14.267c-0.833,5.133 -1.526,10.895 -2.08,17.285c-0.554,6.39 -0.933,11.911 -1.137,16.562c-0.203,4.651 -0.665,10.31 -1.384,16.977c-0.72,6.667 -1.127,11.572 -1.221,14.714c-0.095,3.142 0.033,6.836 0.383,11.082c0.351,4.246 1.321,6.988 2.912,8.227c1.59,1.239 3.673,2.347 6.248,3.323c2.575,0.976 6.016,1.816 10.324,2.519c4.307,0.703 8.958,1.054 13.952,1.054c4.994,0 9.784,-0.378 14.371,-1.134c4.587,-0.756 8.165,-1.143 10.736,-1.161c2.57,-0.018 6.502,-0.305 11.794,-0.863c5.292,-0.557 8.854,-0.835 10.686,-0.835c1.832,0 4.745,-0.379 8.74,-1.135c3.995,-0.756 7.38,-1.576 10.154,-2.46c2.774,-0.884 4.475,-1.585 5.105,-2.104c0.629,-0.518 1.638,-2.061 3.025,-4.627c1.387,-2.567 2.411,-5.061 3.074,-7.482c0.663,-2.422 0.949,-4.841 0.859,-7.259c-0.09,-2.417 -0.532,-4.347 -1.328,-5.788c-0.795,-1.442 -2.636,-2.763 -5.524,-3.963c-2.887,-1.2 -7.05,-2.233 -12.489,-3.099c-5.439,-0.866 -9.046,-1.31 -10.821,-1.331c-1.775,-0.021 -6.473,0.311 -14.094,0.996c-7.621,0.685 -12.374,1.028 -14.258,1.028c-1.884,0 -5.202,0.507 -9.955,1.523c-4.752,1.015 -7.573,1.782 -8.463,2.3l-1.335,0.778" style="fill:none;stroke:#000;stroke-width:1.56px;"/><path id="STROKE_0612992C.-7DBD.-489B.-B6A5.-044104C0A84C" d="M185.526,196.512c-4.403,-7.462 -7.908,-12.69 -10.516,-15.682c-2.608,-2.993 -5.051,-5.534 -7.327,-7.621c-2.277,-2.088 -5.404,-3.685 -9.381,-4.793c-3.976,-1.107 -7.777,-1.523 -11.403,-1.246c-3.626,0.277 -6.456,1.053 -8.492,2.327c-2.035,1.275 -4.087,3.085 -6.156,5.432c-2.068,2.347 -3.964,5.109 -5.687,8.286c-1.723,3.178 -3.444,7.74 -5.162,13.686c-1.718,5.947 -2.724,11.338 -3.018,16.173c-0.293,4.835 0.133,9.784 1.278,14.847c1.146,5.062 2.966,10.29 5.46,15.683c2.495,5.392 4.926,9.583 7.293,12.573c2.367,2.989 7.879,7.448 16.536,13.377c8.658,5.929 15.55,10.372 20.676,13.329c5.127,2.957 8.68,4.056 10.659,3.296c1.978,-0.759 6.731,-3.216 14.257,-7.369c7.527,-4.154 13.131,-7.552 16.814,-10.194c3.682,-2.641 8.03,-6.011 13.043,-10.112c5.013,-4.1 8.554,-7.175 10.622,-9.223c2.069,-2.049 4.159,-4.477 6.27,-7.285c2.111,-2.809 4.191,-6.078 6.241,-9.809c2.049,-3.732 3.99,-8.404 5.822,-14.016c1.832,-5.613 2.831,-11.061 2.996,-16.344c0.166,-5.283 -0.295,-9.586 -1.384,-12.909c-1.089,-3.323 -2.298,-5.982 -3.628,-7.977c-1.33,-1.995 -3.051,-3.935 -5.162,-5.82c-2.111,-1.885 -4.471,-3.169 -7.079,-3.85c-2.608,-0.682 -5.032,-1.069 -7.271,-1.161c-2.239,-0.093 -4.653,0.037 -7.243,0.388c-2.589,0.352 -5.649,1.174 -9.18,2.466c-3.531,1.292 -7.867,3.969 -13.008,8.031c-5.141,4.061 -9.136,7.56 -11.985,10.496l-4.275,4.404" style="fill:none;stroke:#000;stroke-width:1.62px;"/><path id="STROKE_E2DB5399.-5079.-4D20.-9F60.-62134B569DC8" d="M188.351,223.714c-3.029,-1.74 -5.349,-2.609 -6.958,-2.609c-1.609,0 -3.514,0.665 -5.715,1.997c-2.202,1.331 -3.885,2.643 -5.049,3.935c-1.165,1.292 -1.915,2.299 -2.251,3.02c-0.336,0.72 -0.54,1.929 -0.611,3.626c-0.071,1.697 0.273,3.303 1.03,4.819c0.758,1.516 1.932,2.736 3.522,3.659c1.591,0.923 3.219,1.413 4.885,1.47c1.666,0.056 3.053,-0.091 4.161,-0.443c1.107,-0.351 2.615,-1.21 4.522,-2.577c1.908,-1.367 3.314,-2.696 4.218,-3.989c0.904,-1.292 1.43,-2.621 1.577,-3.988c0.146,-1.367 -0.223,-3.103 -1.108,-5.208c-0.885,-2.105 -1.939,-3.444 -3.16,-4.016l-1.832,-0.857" style="fill:none;stroke:#000;stroke-width:1.62px;"/><path id="STROKE_ABC96438.-124A.-49F5.-9EFC.-8E90BA749E62" d="M329.407,249.308c-1.477,-6.128 -3.668,-12.203 -6.575,-18.224c-2.906,-6.021 -4.728,-10.066 -5.467,-12.136c-0.738,-2.07 -1.855,-4.573 -3.351,-7.509c-1.496,-2.936 -3.198,-5.558 -5.106,-7.866c-1.907,-2.307 -4.626,-5.955 -8.157,-10.943c-3.532,-4.988 -6.583,-8.423 -9.153,-10.304c-2.57,-1.882 -4.634,-3.044 -6.192,-3.488c-1.557,-0.444 -3.555,-0.472 -5.992,-0.085c-2.438,0.387 -4.417,1.512 -5.936,3.376c-1.52,1.864 -2.519,3.479 -2.997,4.846c-0.478,1.367 -0.608,3.463 -0.39,6.289c0.218,2.826 1.252,6.548 3.103,11.167c1.851,4.619 4.108,9.245 6.773,13.878c2.665,4.633 5.153,9.702 7.463,15.209c2.31,5.506 4.575,10.299 6.795,14.378c2.22,4.079 4.201,7.993 5.943,11.742c1.742,3.749 3.316,6.474 4.722,8.174c1.406,1.701 3.032,4.703 4.878,9.006c1.846,4.303 3.185,6.869 4.018,7.7c0.833,0.831 2.102,1.569 3.807,2.215c1.704,0.646 3.526,1.016 5.466,1.108c1.941,0.092 3.513,-0.213 4.716,-0.916c1.202,-0.703 3.476,-3.953 6.823,-9.75c3.347,-5.798 6.953,-12.455 10.82,-19.971c3.868,-7.515 8.41,-16.824 13.626,-27.925c5.217,-11.102 8.814,-18.885 10.793,-23.351c1.978,-4.466 3.642,-8.686 4.991,-12.659c1.35,-3.972 2.088,-7.049 2.216,-9.229c0.128,-2.179 -0.095,-4.561 -0.668,-7.146c-0.572,-2.584 -1.209,-4.145 -1.909,-4.681c-0.701,-0.536 -2.486,-0.98 -5.355,-1.331c-2.868,-0.352 -5.976,0.49 -9.322,2.524c-3.347,2.034 -5.825,4.084 -7.434,6.151c-1.61,2.066 -2.895,4.125 -3.856,6.177c-0.961,2.052 -2.653,7.196 -5.077,15.433c-2.423,8.236 -4.716,15.363 -6.879,21.381c-2.164,6.017 -4.228,10.505 -6.192,13.462l-2.947,4.436" style="fill:none;stroke:#000;stroke-width:1.59px;"/><path id="STROKE_4F3A8607.-1FD9.-4214.-8284.-A4FEE4ABB5E8" d="M409.599,194.681c4.658,0.113 11.074,-0.421 19.249,-1.603c8.175,-1.183 13.223,-1.987 15.145,-2.413c1.922,-0.426 4.651,-0.815 8.187,-1.166c3.536,-0.352 6.293,-1.22 8.272,-2.604c1.978,-1.385 3.42,-3.037 4.324,-4.958c0.904,-1.921 1.006,-4.507 0.306,-7.759c-0.701,-3.252 -1.7,-5.228 -2.997,-5.927c-1.297,-0.699 -4.036,-1.225 -8.215,-1.576c-4.18,-0.352 -9.988,-0.565 -17.424,-0.639c-7.437,-0.075 -12.44,0 -15.011,0.223c-2.57,0.224 -6.139,0.824 -10.707,1.8c-4.568,0.977 -7.971,2.065 -10.21,3.265c-2.239,1.2 -3.922,2.466 -5.048,3.797c-1.127,1.331 -2.126,3.096 -2.997,5.293c-0.871,2.198 -1.444,4.727 -1.719,7.589c-0.274,2.861 -0.44,11.069 -0.496,24.624c-0.057,13.554 0.071,24.1 0.383,31.637c0.313,7.537 0.663,13.004 1.051,16.402c0.388,3.398 0.842,6.213 1.363,8.446c0.521,2.233 1.761,4.505 3.721,6.816c1.96,2.312 4.364,4.002 7.214,5.07c2.849,1.069 6.705,1.603 11.566,1.603c4.862,0 10.18,-0.202 15.955,-0.607c5.775,-0.405 12.74,-1.355 20.896,-2.849c8.156,-1.495 13.205,-2.723 15.145,-3.686c1.941,-0.962 3.541,-2.605 4.8,-4.931c1.259,-2.325 2.009,-4.975 2.251,-7.95c0.241,-2.975 -0.128,-5.285 -1.108,-6.928c-0.98,-1.644 -2.608,-3.037 -4.885,-4.181c-2.277,-1.143 -6.984,-1.752 -14.122,-1.826c-7.139,-0.075 -12.234,-0.039 -15.287,0.106c-3.054,0.146 -8.216,0.764 -15.486,1.854c-7.271,1.09 -11.304,0.758 -12.099,-0.996c-0.796,-1.754 -1.212,-3.932 -1.25,-6.534c-0.038,-2.603 0.674,-4.238 2.137,-4.905c1.463,-0.668 4.109,-1.149 7.939,-1.443c3.829,-0.295 7.741,-0.875 11.736,-1.742c3.995,-0.866 7.03,-2.057 9.103,-3.573c2.073,-1.516 3.339,-3.012 3.799,-4.489c0.459,-1.477 0.688,-3.193 0.688,-5.15c0,-1.956 -0.916,-3.507 -2.748,-4.654c-1.832,-1.147 -4.542,-1.562 -8.13,-1.246c-3.588,0.316 -6.463,0.843 -8.626,1.582c-2.164,0.738 -4.89,1.272 -8.18,1.602c-3.29,0.33 -5.231,-0.335 -5.823,-1.997c-0.591,-1.661 -0.989,-5.318 -1.192,-10.969c-0.204,-5.652 -0.668,-9.041 -1.392,-10.167l-1.086,-1.688" style="fill:none;stroke:#000;stroke-width:1.62px;"/></svg>