<?xml version="1.0" encoding="UTF-8"?>
<svg xmlns="http://www.w3.org/2000/svg" xmlns:xlink="http://www.w3.org/1999/xlink" width="10.866239in" height="2.773160in" version="1.1" viewBox="-165.387634 208.564650 1434.343551 366.057124">
  <!--
	Exported with Concepts: Smarter Sketching
	Version: 414
	iOS Version: 11.0
	https://concepts.tophatch.com/
	-->
  <title>Untitled</title>
  <desc>Drawing exported from Concepts: Smarter Sketching</desc>
  <g id="Fill" opacity="1.000">
    <path id="STROKE_5B64CFBF-138C-4D81-8504-9CD97BCDD329" opacity="0.404" fill="#e85764" stroke="#e85764" stroke-width="1.000" stroke-opacity="1.000" stroke-linecap="round" stroke-linejoin="round" d="M -122.584 291.910 Q -119.982 292.314 -125.179 299.819 Q -130.376 307.324 -135.132 316.695 Q -139.888 326.065 -139.652 333.385 Q -139.416 340.704 -133.716 343.772 Q -128.017 346.839 -114.113 346.059 Q -100.209 345.278 -95.248 342.706 Q -90.287 340.133 -85.864 332.319 Q -81.441 324.505 -81.604 319.976 Q -81.768 315.447 -87.467 305.128 Q -93.167 294.809 -92.646 292.354 Q -92.126 289.899 -84.678 280.647 Q -77.230 271.394 -75.294 267.338 Q -73.358 263.281 -74.489 256.647 Q -75.621 250.012 -79.100 247.771 Q -82.579 245.529 -89.125 244.821 Q -95.672 244.113 -104.445 245.738 Q -113.218 247.362 -118.917 249.491 Q -124.617 251.619 -129.009 255.512 Q -133.402 259.406 -135.580 264.034 Q -137.758 268.663 -136.058 272.601 Q -134.358 276.540 -129.033 283.129 Q -123.709 289.718 -124.447 290.612 Q -125.185 291.506 -122.584 291.910 Z"></path>
    <path id="STROKE_C71D6896-531C-436C-AEF7-6BA38E2734ED" opacity="0.404" fill="#e85764" stroke="#e85764" stroke-width="1.000" stroke-opacity="1.000" stroke-linecap="round" stroke-linejoin="round" d="M -32.052 247.907 Q -32.687 247.979 -39.948 254.446 Q -47.208 260.912 -52.151 269.316 Q -57.094 277.720 -59.412 285.557 Q -61.729 293.394 -63.096 305.219 Q -64.464 317.044 -63.496 321.696 Q -62.528 326.347 -60.495 329.891 Q -58.462 333.435 -53.071 338.603 Q -47.680 343.772 -43.874 344.761 Q -40.069 345.750 -33.540 345.537 Q -27.012 345.324 -19.685 342.470 Q -12.358 339.615 -9.430 337.065 Q -6.501 334.515 -2.714 327.245 Q 1.074 319.976 1.261 314.925 Q 1.449 309.875 -2.762 305.977 Q -6.973 302.079 -15.129 299.365 Q -23.285 296.652 -33.571 297.196 Q -43.856 297.741 -40.801 290.185 Q -37.745 282.630 -27.889 269.765 Q -18.033 256.901 -17.846 254.469 Q -17.658 252.036 -24.537 249.935 Q -31.417 247.834 -32.052 247.907 Z"></path>
    <path id="STROKE_3556458E-BF2A-4FDF-90DD-098B33A94305" opacity="0.404" fill="#e85764" stroke="#e85764" stroke-width="1.000" stroke-opacity="1.000" stroke-linecap="round" stroke-linejoin="round" d="M 30.097 258.153 Q 29.861 259.024 29.250 256.760 Q 28.639 254.496 26.909 251.805 Q 25.178 249.114 21.113 248.687 Q 17.047 248.261 14.306 249.559 Q 11.565 250.856 10.736 252.535 Q 9.907 254.214 10.379 257.377 Q 10.851 260.540 12.842 262.900 Q 14.832 265.259 17.289 266.462 Q 19.745 267.664 23.152 267.333 Q 26.558 267.002 28.494 264.810 Q 30.430 262.618 30.382 259.950 Q 30.333 257.282 30.097 258.153 Z"></path>
    <path id="STROKE_AC69B823-C96A-41E0-A8F8-F3B9257BF7B5" opacity="0.404" fill="#e85764" stroke="#e85764" stroke-width="1.000" stroke-opacity="1.000" stroke-linecap="round" stroke-linejoin="round" d="M 87.243 247.203 Q 89.252 246.518 88.520 253.057 Q 87.788 259.596 72.371 260.349 Q 56.955 261.103 59.181 264.197 Q 61.408 267.292 71.361 267.315 Q 81.314 267.338 81.380 272.647 Q 81.447 277.956 70.078 280.720 Q 58.710 283.483 58.897 292.949 Q 59.085 302.415 54.311 302.932 Q 49.537 303.449 48.896 301.870 Q 48.255 300.291 47.311 275.433 Q 46.367 250.575 50.082 248.878 Q 53.797 247.181 69.516 247.535 Q 85.234 247.889 87.243 247.203 Z"></path>
    <path id="STROKE_7F1CD67F-DDBA-430A-9B4C-65EF1169080B" opacity="0.404" fill="#e85764" stroke="#e85764" stroke-width="1.000" stroke-opacity="1.000" stroke-linecap="round" stroke-linejoin="round" d="M 151.813 282.280 Q 155.241 279.885 146.657 276.051 Q 138.073 272.217 132.522 272.788 Q 126.970 273.360 120.847 279.303 Q 114.725 285.246 112.029 293.596 Q 109.334 301.945 111.106 310.800 Q 112.879 319.655 117.405 322.511 Q 121.931 325.367 133.210 325.257 Q 144.489 325.148 152.502 319.138 Q 160.514 313.129 179.747 309.701 Q 198.980 306.274 223.076 306.614 Q 247.172 306.955 263.475 305.988 Q 279.778 305.021 329.464 304.911 Q 379.150 304.802 436.556 305.087 Q 493.961 305.373 521.895 304.164 Q 549.829 302.956 556.421 302.044 Q 563.012 301.132 599.530 301.539 Q 636.047 301.945 647.941 301.198 Q 659.836 300.451 695.211 300.330 Q 730.586 300.209 737.338 301.132 Q 744.091 302.055 794.465 302.286 Q 844.840 302.516 868.189 301.363 Q 891.538 300.209 915.297 300.330 Q 939.056 300.451 947.303 302.560 Q 955.550 304.670 959.783 309.701 Q 964.016 314.733 971.457 315.304 Q 978.898 315.875 988.229 309.536 Q 997.560 303.198 1000.534 289.992 Q 1003.507 276.787 997.267 270.965 Q 991.027 265.142 983.410 265.592 Q 975.793 266.043 967.839 273.415 Q 959.885 280.786 955.359 280.841 Q 950.833 280.896 929.491 277.468 Q 908.149 274.041 890.234 273.931 Q 872.320 273.821 855.606 275.018 Q 838.893 276.216 789.090 275.700 Q 739.286 275.183 723.379 273.931 Q 707.471 272.678 682.862 272.678 Q 658.254 272.678 577.602 274.502 Q 496.950 276.326 468.108 275.985 Q 439.266 275.645 402.748 278.051 Q 366.231 280.457 343.043 280.511 Q 319.855 280.566 303.025 279.589 Q 286.194 278.611 247.904 277.589 Q 209.614 276.568 181.168 278.732 Q 152.721 280.896 150.554 282.786 Q 148.386 284.675 151.813 282.280 Z"></path>
    <path id="STROKE_2805FFE9-8D47-4070-B9AC-B5855FFB1A07" opacity="0.693" fill="#e85764" stroke="#e85764" stroke-width="1.000" stroke-opacity="1.000" stroke-linecap="round" stroke-linejoin="round" d="M 1050.441 340.099 Q 1047.823 337.649 1051.699 340.797 Q 1055.575 343.944 1058.432 344.770 Q 1061.289 345.595 1070.715 330.820 Q 1080.141 316.046 1082.253 311.191 Q 1084.365 306.336 1087.120 294.709 Q 1089.875 283.082 1090.271 278.309 Q 1090.668 273.536 1089.547 266.205 Q 1088.426 258.874 1084.502 255.162 Q 1080.579 251.451 1074.194 249.241 Q 1067.810 247.032 1061.344 246.601 Q 1054.877 246.170 1049.218 247.293 Q 1043.558 248.416 1039.306 251.374 Q 1035.055 254.332 1030.386 261.002 Q 1025.717 267.671 1025.177 272.203 Q 1024.637 276.735 1026.401 280.365 Q 1028.165 283.994 1031.876 286.793 Q 1035.588 289.592 1041.897 291.376 Q 1048.206 293.161 1058.459 292.817 Q 1068.712 292.474 1069.034 295.221 Q 1069.355 297.969 1057.468 315.969 Q 1045.581 333.968 1045.103 336.183 Q 1044.624 338.397 1048.842 340.474 Q 1053.059 342.550 1050.441 340.099 Z"></path>
    <path id="STROKE_9B4C83D2-EFB1-41BA-9468-E1C0EF685777" opacity="0.693" fill="#e85764" stroke="#e85764" stroke-width="1.000" stroke-opacity="1.000" stroke-linecap="round" stroke-linejoin="round" d="M 1131.079 244.494 Q 1131.694 243.617 1128.488 244.925 Q 1125.282 246.232 1120.238 251.430 Q 1115.193 256.629 1113.484 259.510 Q 1111.776 262.391 1106.751 274.233 Q 1101.727 286.076 1099.854 297.036 Q 1097.982 307.997 1097.906 315.543 Q 1097.831 323.089 1100.477 327.437 Q 1103.122 331.784 1110.361 336.608 Q 1117.599 341.432 1125.474 342.073 Q 1133.348 342.714 1140.881 339.515 Q 1148.413 336.316 1152.077 332.845 Q 1155.741 329.375 1158.646 324.633 Q 1161.551 319.891 1162.091 313.380 Q 1162.631 306.869 1161.585 304.096 Q 1160.540 301.322 1156.937 298.441 Q 1153.335 295.560 1146.042 293.960 Q 1138.748 292.361 1134.127 292.151 Q 1129.507 291.940 1124.161 293.407 Q 1118.816 294.873 1122.159 285.512 Q 1125.501 276.151 1135.358 262.176 Q 1145.214 248.200 1137.839 246.786 Q 1130.464 245.371 1131.079 244.494 Z"></path>
    <path id="STROKE_257A0B01-44D9-4215-89B7-B021CCF997B1" opacity="0.693" fill="#e85764" stroke="#e85764" stroke-width="1.000" stroke-opacity="1.000" stroke-linecap="round" stroke-linejoin="round" d="M 1187.041 256.680 Q 1186.610 256.465 1186.371 254.921 Q 1186.131 253.378 1184.580 251.856 Q 1183.028 250.333 1179.638 249.882 Q 1176.247 249.431 1174.962 249.938 Q 1173.677 250.446 1172.775 252.497 Q 1171.873 254.547 1171.763 257.428 Q 1171.654 260.309 1173.472 262.816 Q 1175.290 265.323 1178.893 265.749 Q 1182.495 266.174 1184.846 263.590 Q 1187.198 261.007 1187.334 258.951 Q 1187.471 256.895 1187.041 256.680 Z"></path>
    <path id="STROKE_5432A903-6332-4773-BE93-D20961CAD1D4" opacity="0.693" fill="#e85764" stroke="#e85764" stroke-width="1.000" stroke-opacity="1.000" stroke-linecap="round" stroke-linejoin="round" d="M 1240.644 253.963 Q 1242.428 253.747 1241.416 260.120 Q 1240.405 266.492 1226.112 266.974 Q 1211.819 267.456 1213.077 271.803 Q 1214.334 276.151 1223.309 275.566 Q 1232.284 274.982 1232.551 281.113 Q 1232.817 287.244 1224.300 288.362 Q 1215.783 289.480 1215.701 299.189 Q 1215.619 308.899 1207.923 310.632 Q 1200.226 312.365 1198.599 298.872 Q 1196.972 285.378 1197.376 273.403 Q 1197.779 261.427 1199.221 258.228 Q 1200.664 255.029 1219.762 254.604 Q 1238.860 254.178 1240.644 253.963 Z"></path>
    <circle id="ERASER_E6A66EC2-573F-4437-A29E-36FDD2B9FF58" opacity="1.000" fill="#ffffff" stroke="#ffffff" stroke-width="0.1" stroke-opacity="1.000" fill-opacity="1.000" cx="1055.834" cy="271.834" r="5.032"></circle>
    <path id="ERASER_3E3D304A-212C-495B-9D6E-143688176D7F" opacity="1.000" fill="none" stroke="#ffffff" stroke-width="8.988" stroke-opacity="1.000" stroke-linecap="round" stroke-linejoin="round" d="M 1131.434 318.496 Q 1131.434 318.496 1131.407 318.496 Q 1131.380 318.496 1131.407 318.496 Q 1131.434 318.496 1131.482 318.496 Q 1131.530 318.496 1131.612 318.470 Q 1131.694 318.445 1131.749 318.394 Q 1131.803 318.342 1131.885 318.286 Q 1131.967 318.229 1132.015 318.178 Q 1132.063 318.127 1132.118 318.045 Q 1132.172 317.963 1132.227 317.912 Q 1132.282 317.860 1132.309 317.753 Q 1132.337 317.645 1132.391 317.594 Q 1132.446 317.543 1132.446 317.486 Q 1132.446 317.430 1132.446 317.378 Q 1132.446 317.327 1132.446 317.271 Q 1132.446 317.214 1132.446 317.189 Q 1132.446 317.163 1132.446 317.138 Q 1132.446 317.112 1132.419 317.112 Q 1132.391 317.112 1132.337 317.112 Q 1132.282 317.112 1132.200 317.112 Q 1132.118 317.112 1132.043 317.112 Q 1131.967 317.112 1131.885 317.138 Q 1131.803 317.163 1131.721 317.189 Q 1131.639 317.214 1131.557 317.322 Q 1131.475 317.430 1131.400 317.512 Q 1131.325 317.594 1131.243 317.701 Q 1131.161 317.809 1131.052 317.912 Q 1130.942 318.014 1130.894 318.122 Q 1130.846 318.229 1130.792 318.363 Q 1130.737 318.496 1130.710 318.604 Q 1130.682 318.711 1130.655 318.793 Q 1130.628 318.875 1130.600 318.952 Q 1130.573 319.029 1130.573 319.086 Q 1130.573 319.142 1130.573 319.193 Q 1130.573 319.245 1130.573 319.270 Q 1130.573 319.296 1130.573 319.327 Q 1130.573 319.357 1130.655 319.357 Q 1130.737 319.357 1130.840 319.357 Q 1130.942 319.357 1131.079 319.357 Q 1131.216 319.357 1131.345 319.301 Q 1131.475 319.245 1131.585 319.168 Q 1131.694 319.091 1131.831 318.927 Q 1131.967 318.763 1132.097 318.655 Q 1132.227 318.547 1132.309 318.445 Q 1132.391 318.342 1132.473 318.209 Q 1132.555 318.076 1132.603 317.994 Q 1132.651 317.912 1132.678 317.830 Q 1132.706 317.748 1132.733 317.671 Q 1132.760 317.594 1132.760 317.537 Q 1132.760 317.481 1132.760 317.455 Q 1132.760 317.430 1132.760 317.404 Q 1132.760 317.378 1132.733 317.378 Q 1132.706 317.378 1132.658 317.378 Q 1132.610 317.378 1132.555 317.378 Q 1132.501 317.378 1132.446 317.378 Q 1132.391 317.378 1132.337 317.378 Q 1132.282 317.378 1132.255 317.378 Q 1132.227 317.378 1132.200 317.378 Q 1132.172 317.378 1132.145 317.378 Q 1132.118 317.378 1132.118 317.353 Q 1132.118 317.327 1132.118 317.245 Q 1132.118 317.163 1132.145 317.086 L 1132.172 317.009 "></path>
    <path id="ERASER_2A09337E-6353-4F96-B707-376BD98D0EBA" opacity="1.000" fill="none" stroke="#ffffff" stroke-width="6.881" stroke-opacity="1.000" stroke-linecap="round" stroke-linejoin="round" d="M -104.456 270.023 Q -104.456 269.945 -104.498 269.882 Q -104.540 269.819 -104.577 269.760 Q -104.613 269.701 -104.634 269.639 Q -104.655 269.576 -104.697 269.513 Q -104.739 269.450 -104.781 269.391 Q -104.823 269.332 -104.844 269.250 Q -104.865 269.168 -104.927 269.003 Q -104.990 268.838 -105.006 268.760 Q -105.022 268.681 -105.042 268.599 Q -105.063 268.516 -105.084 268.434 Q -105.105 268.352 -105.126 268.269 Q -105.147 268.187 -105.189 268.104 Q -105.231 268.022 -105.273 267.943 Q -105.314 267.865 -105.356 267.802 Q -105.398 267.739 -105.435 267.677 Q -105.471 267.614 -105.534 267.575 Q -105.597 267.535 -105.660 267.496 Q -105.723 267.457 -105.785 267.457 Q -105.848 267.457 -105.948 267.457 Q -106.047 267.457 -106.173 267.457 Q -106.298 267.457 -106.418 267.457 Q -106.539 267.457 -106.701 267.516 Q -106.863 267.575 -107.030 267.696 Q -107.198 267.818 -107.381 267.963 Q -107.564 268.108 -107.789 268.269 Q -108.014 268.430 -108.218 268.595 Q -108.422 268.760 -108.626 268.944 Q -108.830 269.128 -108.971 269.289 Q -109.113 269.450 -109.296 269.615 Q -109.479 269.780 -109.646 269.945 Q -109.814 270.109 -109.976 270.294 Q -110.138 270.478 -110.258 270.619 Q -110.379 270.761 -110.504 270.945 Q -110.630 271.130 -110.708 271.290 Q -110.787 271.451 -110.891 271.636 Q -110.996 271.820 -111.038 272.005 Q -111.080 272.189 -111.158 272.373 Q -111.237 272.558 -111.279 272.742 Q -111.320 272.927 -111.341 273.107 Q -111.362 273.288 -111.362 273.492 Q -111.362 273.696 -111.362 273.880 Q -111.362 274.065 -111.362 274.229 Q -111.362 274.394 -111.341 274.559 Q -111.320 274.724 -111.221 274.865 Q -111.122 275.006 -110.996 275.128 Q -110.871 275.250 -110.750 275.352 Q -110.630 275.454 -110.468 275.516 Q -110.306 275.579 -110.117 275.638 Q -109.929 275.697 -109.746 275.720 Q -109.563 275.744 -109.338 275.744 Q -109.113 275.744 -108.909 275.744 Q -108.705 275.744 -108.438 275.744 Q -108.171 275.744 -107.946 275.681 Q -107.721 275.618 -107.439 275.477 Q -107.156 275.336 -106.910 275.191 Q -106.664 275.045 -106.418 274.861 Q -106.173 274.677 -105.906 274.496 Q -105.639 274.316 -105.393 274.131 Q -105.147 273.947 -104.901 273.743 Q -104.655 273.539 -104.430 273.335 Q -104.205 273.131 -104.001 272.927 Q -103.797 272.723 -103.656 272.558 Q -103.515 272.393 -103.353 272.189 Q -103.190 271.985 -103.044 271.801 Q -102.897 271.616 -102.798 271.432 Q -102.699 271.247 -102.615 271.067 Q -102.531 270.886 -102.489 270.721 Q -102.448 270.557 -102.406 270.392 Q -102.364 270.227 -102.348 270.066 Q -102.332 269.905 -102.332 269.760 Q -102.332 269.615 -102.332 269.513 Q -102.332 269.411 -102.332 269.289 Q -102.332 269.168 -102.332 269.026 Q -102.332 268.885 -102.332 268.783 Q -102.332 268.681 -102.332 268.579 Q -102.332 268.477 -102.332 268.352 Q -102.332 268.226 -102.348 268.167 Q -102.364 268.108 -102.406 268.006 Q -102.448 267.904 -102.510 267.822 Q -102.573 267.739 -102.636 267.677 Q -102.699 267.614 -102.756 267.555 Q -102.814 267.496 -102.897 267.433 Q -102.981 267.371 -103.065 267.331 Q -103.149 267.292 -103.227 267.249 Q -103.306 267.206 -103.389 267.167 Q -103.473 267.127 -103.557 267.108 Q -103.640 267.088 -103.740 267.045 Q -103.839 267.002 -103.923 267.002 Q -104.007 267.002 -104.106 267.002 Q -104.205 267.002 -104.310 266.982 Q -104.415 266.963 -104.514 266.963 Q -104.613 266.963 -104.739 266.963 Q -104.865 266.963 -104.985 266.963 Q -105.105 266.963 -105.210 266.963 Q -105.314 266.963 -105.435 266.963 Q -105.555 266.963 -105.702 266.982 Q -105.848 267.002 -105.948 267.045 Q -106.047 267.088 -106.173 267.147 Q -106.298 267.206 -106.418 267.288 Q -106.539 267.371 -106.659 267.453 Q -106.779 267.535 -106.905 267.618 Q -107.031 267.700 -107.151 267.822 Q -107.271 267.943 -107.418 268.085 Q -107.564 268.226 -107.705 268.391 Q -107.847 268.556 -107.972 268.720 Q -108.098 268.885 -108.239 269.066 Q -108.380 269.246 -108.501 269.411 Q -108.621 269.576 -108.746 269.760 Q -108.872 269.945 -108.971 270.109 Q -109.071 270.274 -109.155 270.415 Q -109.238 270.557 -109.280 270.659 Q -109.322 270.761 -109.364 270.863 Q -109.406 270.965 -109.421 271.047 Q -109.437 271.130 -109.437 271.169 Q -109.437 271.208 -109.437 271.251 Q -109.437 271.294 -109.437 271.314 Q -109.437 271.334 -109.359 271.334 Q -109.280 271.334 -109.134 271.334 Q -108.987 271.334 -108.804 271.334 Q -108.621 271.334 -108.417 271.334 L -108.213 271.334 "></path>
    <path id="ERASER_B391266F-6BC2-45D4-8528-B0EC639973A8" opacity="1.000" fill="none" stroke="#ffffff" stroke-width="6.915" stroke-opacity="1.000" stroke-linecap="round" stroke-linejoin="round" d="M -106.340 320.726 Q -106.298 320.396 -106.256 320.338 Q -106.214 320.279 -106.173 320.216 Q -106.131 320.153 -106.089 320.071 Q -106.047 319.988 -105.984 319.910 Q -105.921 319.831 -105.864 319.769 Q -105.806 319.706 -105.785 319.623 Q -105.764 319.541 -105.702 319.459 Q -105.639 319.376 -105.618 319.298 Q -105.597 319.219 -105.576 319.137 Q -105.555 319.055 -105.534 318.972 Q -105.513 318.890 -105.513 318.788 Q -105.513 318.686 -105.513 318.603 Q -105.513 318.521 -105.513 318.419 Q -105.513 318.317 -105.513 318.234 Q -105.513 318.152 -105.513 318.050 Q -105.513 317.948 -105.513 317.870 Q -105.513 317.791 -105.513 317.709 Q -105.513 317.626 -105.534 317.544 Q -105.555 317.461 -105.576 317.379 Q -105.597 317.297 -105.660 317.238 Q -105.723 317.179 -105.785 317.116 Q -105.848 317.053 -105.927 316.991 Q -106.005 316.928 -106.110 316.908 Q -106.214 316.889 -106.335 316.849 Q -106.455 316.810 -106.560 316.810 Q -106.664 316.810 -106.806 316.810 Q -106.947 316.810 -107.072 316.810 Q -107.198 316.810 -107.360 316.810 Q -107.522 316.810 -107.664 316.830 Q -107.805 316.849 -107.967 316.971 Q -108.129 317.093 -108.297 317.214 Q -108.464 317.336 -108.605 317.481 Q -108.746 317.626 -108.909 317.768 Q -109.071 317.909 -109.217 318.054 Q -109.364 318.199 -109.505 318.360 Q -109.646 318.521 -109.788 318.666 Q -109.929 318.811 -110.054 318.972 Q -110.180 319.133 -110.258 319.278 Q -110.337 319.423 -110.442 319.565 Q -110.546 319.706 -110.630 319.871 Q -110.714 320.035 -110.750 320.177 Q -110.787 320.318 -110.850 320.483 Q -110.912 320.648 -110.954 320.789 Q -110.996 320.930 -111.017 321.075 Q -111.038 321.220 -111.038 321.362 Q -111.038 321.503 -111.038 321.625 Q -111.038 321.746 -111.038 321.911 Q -111.038 322.076 -111.038 322.197 Q -111.038 322.319 -111.017 322.460 Q -110.996 322.602 -110.933 322.704 Q -110.871 322.806 -110.771 322.931 Q -110.672 323.057 -110.567 323.159 Q -110.462 323.261 -110.363 323.320 Q -110.264 323.379 -110.117 323.422 Q -109.971 323.465 -109.829 323.484 Q -109.688 323.504 -109.526 323.524 Q -109.364 323.543 -109.196 323.543 Q -109.029 323.543 -108.825 323.543 Q -108.621 323.543 -108.438 323.504 Q -108.255 323.465 -108.072 323.320 Q -107.889 323.174 -107.705 323.033 Q -107.522 322.892 -107.339 322.747 Q -107.156 322.602 -106.989 322.421 Q -106.821 322.241 -106.680 322.056 Q -106.539 321.872 -106.418 321.707 Q -106.298 321.542 -106.193 321.358 Q -106.089 321.173 -106.026 321.032 Q -105.963 320.891 -105.906 320.726 Q -105.848 320.561 -105.848 320.440 Q -105.848 320.318 -105.848 320.196 Q -105.848 320.075 -105.848 319.953 Q -105.848 319.831 -105.848 319.749 Q -105.848 319.667 -105.869 319.565 Q -105.890 319.463 -105.989 319.400 Q -106.089 319.337 -106.214 319.278 Q -106.340 319.219 -106.481 319.176 Q -106.622 319.133 -106.785 319.113 Q -106.947 319.094 -107.130 319.074 Q -107.313 319.055 -107.517 319.055 Q -107.721 319.055 -107.925 319.055 Q -108.129 319.055 -108.375 319.055 Q -108.621 319.055 -108.825 319.074 Q -109.029 319.094 -109.296 319.215 Q -109.563 319.337 -109.788 319.482 Q -110.013 319.627 -110.217 319.769 Q -110.421 319.910 -110.604 320.051 Q -110.787 320.192 -110.996 320.396 Q -111.205 320.601 -111.347 320.765 Q -111.488 320.930 -111.629 321.115 Q -111.770 321.299 -111.875 321.464 Q -111.980 321.629 -112.037 321.789 Q -112.095 321.950 -112.116 322.033 Q -112.137 322.115 -112.137 322.217 Q -112.137 322.319 -112.137 322.402 Q -112.137 322.484 -112.100 322.523 Q -112.063 322.562 -111.896 322.582 Q -111.729 322.602 -111.566 322.602 Q -111.404 322.602 -111.221 322.602 Q -111.038 322.602 -110.834 322.562 Q -110.630 322.523 -110.405 322.401 Q -110.180 322.280 -109.976 322.135 Q -109.772 321.990 -109.589 321.868 L -109.406 321.746 "></path>
    <path id="ERASER_578585B1-2174-4B9C-9387-3B9B240EC69F" opacity="1.000" fill="none" stroke="#ffffff" stroke-width="6.846" stroke-opacity="1.000" stroke-linecap="round" stroke-linejoin="round" d="M -28.492 321.542 Q -28.607 321.338 -28.670 321.236 Q -28.733 321.134 -28.796 321.032 Q -28.858 320.930 -28.916 320.848 Q -28.974 320.765 -29.036 320.683 Q -29.099 320.601 -29.183 320.542 Q -29.267 320.483 -29.345 320.400 Q -29.423 320.318 -29.486 320.216 Q -29.549 320.114 -29.633 320.032 Q -29.716 319.949 -29.795 319.890 Q -29.873 319.831 -29.936 319.769 Q -29.999 319.706 -30.083 319.643 Q -30.166 319.580 -30.245 319.521 Q -30.323 319.463 -30.407 319.419 Q -30.491 319.376 -30.595 319.357 Q -30.700 319.337 -30.778 319.337 Q -30.857 319.337 -30.941 319.337 Q -31.024 319.337 -31.124 319.337 Q -31.223 319.337 -31.307 319.337 Q -31.391 319.337 -31.511 319.357 Q -31.631 319.376 -31.715 319.459 Q -31.799 319.541 -31.903 319.643 Q -32.008 319.745 -32.128 319.890 Q -32.249 320.035 -32.353 320.177 Q -32.458 320.318 -32.557 320.459 Q -32.657 320.601 -32.761 320.785 Q -32.866 320.969 -32.944 321.134 Q -33.023 321.299 -33.107 321.483 Q -33.190 321.668 -33.253 321.852 Q -33.316 322.037 -33.373 322.217 Q -33.431 322.398 -33.452 322.582 Q -33.473 322.766 -33.494 322.951 Q -33.515 323.135 -33.515 323.300 Q -33.515 323.465 -33.515 323.606 Q -33.515 323.747 -33.515 323.869 Q -33.515 323.991 -33.515 324.073 Q -33.515 324.155 -33.394 324.257 Q -33.274 324.359 -33.169 324.399 Q -33.065 324.438 -32.923 324.461 Q -32.782 324.485 -32.599 324.505 Q -32.416 324.524 -32.228 324.524 Q -32.039 324.524 -31.856 324.524 Q -31.673 324.524 -31.490 324.461 Q -31.307 324.399 -31.124 324.257 Q -30.941 324.116 -30.758 323.971 Q -30.574 323.826 -30.412 323.685 Q -30.250 323.543 -30.083 323.379 Q -29.915 323.214 -29.816 323.053 Q -29.716 322.892 -29.612 322.747 Q -29.507 322.602 -29.450 322.421 Q -29.392 322.241 -29.329 322.076 Q -29.267 321.911 -29.246 321.789 Q -29.225 321.668 -29.225 321.523 Q -29.225 321.377 -29.225 321.256 Q -29.225 321.134 -29.225 320.993 Q -29.225 320.852 -29.225 320.726 Q -29.225 320.601 -29.246 320.499 Q -29.267 320.396 -29.329 320.294 Q -29.392 320.192 -29.471 320.134 Q -29.549 320.075 -29.633 320.012 Q -29.716 319.949 -29.837 319.910 Q -29.957 319.871 -30.062 319.851 Q -30.166 319.831 -30.287 319.831 Q -30.407 319.831 -30.512 319.831 Q -30.616 319.831 -30.737 319.831 Q -30.857 319.831 -30.962 319.890 Q -31.066 319.949 -31.187 320.071 Q -31.307 320.192 -31.432 320.338 Q -31.558 320.483 -31.678 320.644 Q -31.799 320.805 -31.903 320.969 Q -32.008 321.134 -32.086 321.319 Q -32.165 321.503 -32.228 321.625 Q -32.290 321.746 -32.332 321.911 Q -32.374 322.076 -32.395 322.158 Q -32.416 322.241 -32.416 322.319 Q -32.416 322.398 -32.416 322.480 Q -32.416 322.562 -32.416 322.606 Q -32.416 322.649 -32.332 322.668 Q -32.249 322.688 -32.144 322.708 Q -32.039 322.727 -31.898 322.727 Q -31.757 322.727 -31.616 322.727 Q -31.474 322.727 -31.312 322.645 Q -31.150 322.562 -30.983 322.441 Q -30.815 322.319 -30.632 322.197 Q -30.449 322.076 -30.266 321.931 Q -30.083 321.785 -29.941 321.664 Q -29.800 321.542 -29.633 321.381 L -29.465 321.220 "></path>
    <path id="STROKE_DD2DF4B8-644D-4982-B2E8-547A831FDFA8" opacity="0.693" fill="#e85764" stroke="#e85764" stroke-width="1.000" stroke-opacity="1.000" stroke-linecap="round" stroke-linejoin="round" d="M 547.754 275.574 Q 546.112 275.574 538.107 289.685 Q 530.101 303.796 560.917 300.516 Q 591.733 297.236 604.344 297.520 Q 616.955 297.803 676.392 297.400 Q 735.830 296.997 751.783 298.021 Q 767.735 299.045 784.821 299.100 Q 801.907 299.154 827.173 300.178 Q 852.438 301.203 881.511 301.312 Q 910.583 301.421 933.233 303.404 Q 955.884 305.387 958.615 309.920 Q 961.347 314.453 967.696 315.368 Q 974.045 316.284 978.767 314.638 Q 983.489 312.993 987.281 308.678 Q 991.073 304.363 995.678 294.338 Q 1000.284 284.313 998.468 276.489 Q 996.652 268.665 988.763 267.641 Q 980.873 266.617 971.386 272.403 Q 961.899 278.189 946.963 275.977 Q 932.027 273.765 913.242 272.457 Q 894.456 271.150 877.995 271.662 Q 861.533 272.174 841.600 270.420 Q 821.666 268.665 794.643 269.341 Q 767.619 270.017 734.580 270.136 Q 701.542 270.256 662.256 271.161 Q 622.970 272.065 586.183 273.819 Q 549.396 275.574 547.754 275.574 Z"></path>
    <path id="STROKE_2A7B0636-5BB7-4804-844D-A3664D595D64" opacity="0.693" fill="#e85764" stroke="#e85764" stroke-width="1.000" stroke-opacity="1.000" stroke-linecap="round" stroke-linejoin="round" d="M 925.036 494.779 Q 924.931 494.639 925.901 504.055 Q 926.870 513.472 939.292 513.013 Q 951.716 512.554 951.956 519.097 Q 952.196 525.640 953.952 529.034 Q 955.708 532.428 972.177 520.686 Q 988.646 508.944 992.353 504.786 Q 996.059 500.628 987.078 491.922 Q 978.096 483.216 968.883 477.201 Q 959.670 471.186 960.194 480.142 Q 960.718 489.097 958.570 490.180 Q 956.423 491.262 940.782 493.091 Q 925.140 494.919 925.036 494.779 Z"></path>
    <path id="STROKE_F7B9A8C0-5659-4C14-87E1-7F7FBD99B4EC" opacity="0.407" fill="#e85764" stroke="#e85764" stroke-width="1.000" stroke-opacity="1.000" stroke-linecap="round" stroke-linejoin="round" d="M 106.276 512.667 Q 106.285 513.134 106.636 522.373 Q 106.987 531.612 115.074 530.297 Q 123.161 528.981 123.001 537.970 Q 122.840 546.959 125.997 544.708 Q 129.154 542.457 140.496 530.938 Q 151.837 519.420 151.295 518.236 Q 150.753 517.051 140.521 506.419 Q 130.288 495.788 129.394 501.919 Q 128.500 508.051 126.981 509.809 Q 125.463 511.568 115.864 511.884 Q 106.266 512.200 106.276 512.667 Z"></path>
  </g>
  <g id="Pen" opacity="1.000">
    <path id="STROKE_5A1A384D-21CE-4A25-BC17-AD25F8D7AEA5" opacity="1.000" fill="none" stroke="#000000" stroke-width="3.145" stroke-opacity="1.000" stroke-linecap="round" stroke-linejoin="round" d="M 153.383 277.848 Q 140.083 271.423 135.820 271.410 Q 131.557 271.398 124.916 274.065 Q 118.276 276.733 115.779 278.867 Q 113.283 281.001 110.166 288.049 Q 107.050 295.096 106.766 300.223 Q 106.481 305.350 109.783 310.243 Q 113.085 315.135 118.524 318.272 Q 123.963 321.409 128.074 322.036 Q 132.184 322.663 137.161 321.849 Q 142.137 321.036 145.335 319.600 Q 148.533 318.163 150.906 315.534 L 153.278 312.905 "></path>
    <path id="STROKE_50C43DBF-9116-49A6-9734-36F47B25C877" opacity="1.000" fill="none" stroke="#000000" stroke-width="3.201" stroke-opacity="1.000" stroke-linecap="round" stroke-linejoin="round" d="M 151.481 277.413 Q 172.377 278.143 196.261 276.821 Q 220.145 275.498 240.038 273.803 Q 259.930 272.107 271.243 271.692 Q 282.556 271.276 302.383 271.946 Q 322.209 272.616 342.038 273.007 Q 361.867 273.398 394.131 273.024 Q 426.396 272.650 469.802 272.525 Q 513.208 272.400 535.590 271.785 Q 557.972 271.169 597.784 269.187 Q 637.595 267.204 671.126 266.934 Q 704.656 266.664 754.268 267.157 Q 803.879 267.651 847.234 268.616 Q 890.588 269.582 924.346 271.140 Q 958.104 272.699 958.640 272.952 L 959.176 273.205 "></path>
    <path id="STROKE_14C73F0A-EB60-43C6-917B-BB82AEEAADF7" opacity="1.000" fill="none" stroke="#000000" stroke-width="3.201" stroke-opacity="1.000" stroke-linecap="round" stroke-linejoin="round" d="M 153.981 312.634 Q 185.751 311.153 189.937 311.352 Q 194.123 311.551 206.183 310.620 Q 218.243 309.689 234.537 308.915 Q 250.831 308.141 271.961 309.101 Q 293.091 310.060 307.573 310.153 Q 322.055 310.246 345.627 309.591 Q 369.200 308.936 376.967 309.304 Q 384.735 309.673 412.388 308.486 Q 440.042 307.299 465.429 306.957 Q 490.816 306.615 507.813 305.289 Q 524.809 303.963 546.940 303.239 Q 569.071 302.515 579.168 301.675 Q 589.266 300.834 610.355 299.703 Q 631.445 298.571 650.092 298.320 Q 668.739 298.069 692.361 298.325 Q 715.984 298.581 730.707 299.236 Q 745.430 299.891 764.683 300.123 Q 783.937 300.356 813.961 300.050 Q 843.985 299.745 862.908 300.049 Q 881.832 300.353 908.303 301.976 Q 934.774 303.600 945.434 304.648 L 956.095 305.696 "></path>
    <path id="STROKE_A1B8D17D-C52D-4DBF-B2F6-87B66E79CAA7" opacity="1.000" fill="none" stroke="#000000" stroke-width="3.201" stroke-opacity="1.000" stroke-linecap="round" stroke-linejoin="round" d="M 959.139 275.930 Q 962.435 271.803 967.510 268.504 Q 972.585 265.205 977.246 263.740 Q 981.907 262.274 985.189 262.386 Q 988.470 262.498 991.898 264.164 Q 995.327 265.830 997.104 267.689 Q 998.880 269.548 1000.309 274.065 Q 1001.738 278.581 1001.716 282.723 Q 1001.694 286.865 1000.674 291.179 Q 999.653 295.492 998.289 298.198 Q 996.925 300.904 994.009 303.903 Q 991.093 306.903 985.613 310.148 Q 980.133 313.392 976.371 313.852 Q 972.608 314.311 968.313 313.697 Q 964.019 313.082 960.383 310.139 L 956.746 307.195 "></path>
    <path id="STROKE_001C8983-C24D-441D-9BD7-744C384A112D" opacity="1.000" fill="none" stroke="#000000" stroke-width="2.308" stroke-opacity="1.000" stroke-linecap="round" stroke-linejoin="round" d="M -122.706 291.076 Q -126.978 287.125 -132.394 280.147 Q -137.810 273.168 -137.433 267.420 Q -137.056 261.672 -133.146 257.567 Q -129.236 253.462 -124.431 251.125 Q -119.626 248.789 -115.111 247.419 Q -110.596 246.050 -102.113 244.884 Q -93.630 243.719 -88.271 244.238 Q -82.913 244.756 -78.920 248.630 Q -74.928 252.504 -74.623 257.199 Q -74.318 261.894 -75.320 264.899 Q -76.322 267.905 -78.831 272.339 Q -81.341 276.773 -87.601 283.321 Q -93.860 289.870 -93.597 291.632 Q -93.333 293.394 -87.681 303.855 Q -82.029 314.317 -81.318 321.633 Q -80.608 328.948 -81.410 331.016 Q -82.212 333.083 -86.484 337.305 Q -90.756 341.526 -96.970 344.398 Q -103.184 347.270 -107.391 347.898 Q -111.598 348.526 -117.512 348.468 Q -123.427 348.410 -127.481 346.807 Q -131.536 345.203 -133.406 343.696 Q -135.276 342.189 -136.923 338.338 Q -138.569 334.487 -138.080 328.507 Q -137.590 322.526 -134.308 315.987 Q -131.026 309.447 -126.408 301.672 Q -121.791 293.897 -121.577 292.493 L -121.362 291.089 "></path>
    <path id="STROKE_3711A9F4-5BF1-470E-9C52-601E55ED714E" opacity="1.000" fill="none" stroke="#000000" stroke-width="2.308" stroke-opacity="1.000" stroke-linecap="round" stroke-linejoin="round" d="M -100.436 265.157 Q -101.827 263.820 -104.612 263.673 Q -107.398 263.525 -110.278 265.806 Q -113.157 268.086 -113.713 269.569 Q -114.269 271.053 -114.288 273.007 Q -114.307 274.962 -113.148 276.342 Q -111.988 277.722 -109.993 277.666 Q -107.997 277.610 -105.166 276.149 Q -102.334 274.688 -101.024 273.017 Q -99.715 271.345 -99.218 268.696 Q -98.721 266.046 -99.932 265.839 L -101.143 265.632 "></path>
    <path id="STROKE_37DB2C13-CC78-4A3E-B9AA-69E929125B16" opacity="1.000" fill="none" stroke="#000000" stroke-width="2.308" stroke-opacity="1.000" stroke-linecap="round" stroke-linejoin="round" d="M -104.767 316.366 Q -106.555 314.694 -108.078 314.642 Q -109.602 314.589 -110.942 315.358 Q -112.283 316.127 -113.798 318.300 Q -115.313 320.473 -115.414 322.548 Q -115.514 324.622 -113.718 325.504 Q -111.923 326.386 -110.980 326.396 Q -110.038 326.405 -108.697 325.674 Q -107.357 324.942 -106.091 323.699 Q -104.826 322.456 -103.950 321.058 Q -103.074 319.661 -103.060 318.217 Q -103.046 316.773 -103.940 315.862 L -104.833 314.951 "></path>
    <path id="STROKE_CC75F703-B726-4FB9-9736-F80D16A3AD1A" opacity="1.000" fill="none" stroke="#000000" stroke-width="2.308" stroke-opacity="1.000" stroke-linecap="round" stroke-linejoin="round" d="M -32.406 246.979 Q -34.357 247.652 -38.281 252.155 Q -42.205 256.659 -45.076 261.164 Q -47.948 265.670 -52.816 275.518 Q -57.684 285.366 -58.499 287.666 Q -59.313 289.967 -61.039 298.326 Q -62.765 306.685 -63.100 313.209 Q -63.434 319.732 -62.621 324.710 Q -61.807 329.688 -59.539 333.583 Q -57.271 337.478 -53.738 341.151 Q -50.205 344.825 -44.778 346.517 Q -39.350 348.210 -33.083 348.113 Q -26.817 348.016 -21.311 345.807 Q -15.805 343.597 -11.573 340.353 Q -7.341 337.108 -3.567 331.551 Q 0.207 325.994 0.963 320.482 Q 1.718 314.970 -0.191 310.297 Q -2.100 305.624 -4.505 303.450 Q -6.910 301.276 -9.444 300.003 Q -11.978 298.730 -16.517 297.430 Q -21.056 296.130 -25.555 295.891 Q -30.054 295.651 -33.987 296.981 Q -37.920 298.311 -40.754 299.968 Q -43.587 301.625 -43.404 298.341 Q -43.222 295.056 -41.812 291.273 Q -40.401 287.490 -37.368 281.775 Q -34.334 276.060 -26.549 265.218 Q -18.763 254.376 -20.346 252.173 Q -21.928 249.969 -26.780 248.907 L -31.632 247.844 "></path>
    <path id="STROKE_C75572DC-0C34-4AB5-8085-6B7BA84F588A" opacity="1.000" fill="none" stroke="#000000" stroke-width="2.308" stroke-opacity="1.000" stroke-linecap="round" stroke-linejoin="round" d="M -25.502 318.148 Q -26.562 315.792 -28.955 315.535 Q -31.349 315.279 -33.402 317.093 Q -35.455 318.908 -36.028 321.135 Q -36.601 323.363 -35.470 324.547 Q -34.338 325.731 -32.266 326.022 Q -30.194 326.313 -28.976 325.859 Q -27.758 325.404 -26.218 323.698 Q -24.677 321.991 -24.667 320.976 Q -24.658 319.961 -25.687 317.605 L -26.717 315.249 "></path>
    <path id="STROKE_897E43CF-52EB-4F62-8BD9-9ED63886FC6D" opacity="1.000" fill="none" stroke="#000000" stroke-width="2.308" stroke-opacity="1.000" stroke-linecap="round" stroke-linejoin="round" d="M 22.501 248.298 Q 19.142 247.393 17.405 248.669 Q 15.668 249.946 14.479 251.536 Q 13.291 253.126 12.689 255.157 Q 12.088 257.189 12.177 259.378 Q 12.266 261.567 14.398 263.979 Q 16.530 266.391 18.714 267.585 Q 20.898 268.780 22.350 268.907 Q 23.802 269.034 25.940 266.746 Q 28.078 264.459 29.040 261.378 Q 30.003 258.297 30.105 256.072 Q 30.207 253.847 28.744 251.683 Q 27.282 249.518 23.762 248.506 L 20.243 247.494 "></path>
    <path id="STROKE_E5A3F888-439D-409B-AEA4-4E2046823EF5" opacity="1.000" fill="none" stroke="#000000" stroke-width="2.270" stroke-opacity="1.000" stroke-linecap="round" stroke-linejoin="round" d="M 1131.576 243.824 Q 1129.640 244.434 1125.665 248.759 Q 1121.690 253.083 1118.749 257.438 Q 1115.809 261.793 1110.766 271.347 Q 1105.723 280.902 1104.862 283.142 Q 1104.001 285.382 1102.086 293.555 Q 1100.171 301.729 1099.672 308.133 Q 1099.173 314.537 1099.843 319.453 Q 1100.513 324.368 1102.641 328.256 Q 1104.769 332.144 1108.146 335.848 Q 1111.524 339.552 1116.815 341.357 Q 1122.107 343.162 1128.270 343.231 Q 1134.434 343.299 1139.904 341.271 Q 1145.374 339.242 1149.620 336.163 Q 1153.865 333.084 1157.721 327.719 Q 1161.576 322.354 1162.462 316.955 Q 1163.349 311.556 1161.594 306.913 Q 1159.839 302.269 1157.531 300.069 Q 1155.224 297.869 1152.766 296.551 Q 1150.308 295.233 1145.880 293.837 Q 1141.451 292.440 1137.034 292.087 Q 1132.618 291.735 1128.716 292.939 Q 1124.815 294.144 1121.986 295.699 Q 1119.158 297.254 1119.423 294.030 Q 1119.688 290.806 1121.173 287.123 Q 1122.659 283.441 1125.790 277.902 Q 1128.921 272.362 1136.858 261.907 Q 1144.795 251.452 1143.297 249.244 Q 1141.799 247.036 1137.056 245.865 L 1132.314 244.694 "></path>
    <path id="STROKE_FA57510E-8000-4D8A-A891-5C3946B75004" opacity="1.000" fill="none" stroke="#000000" stroke-width="2.270" stroke-opacity="1.000" stroke-linecap="round" stroke-linejoin="round" d="M 1136.506 313.970 Q 1135.525 311.626 1133.179 311.311 Q 1130.833 310.997 1128.767 312.727 Q 1126.701 314.457 1126.080 316.632 Q 1125.458 318.807 1126.539 320.001 Q 1127.621 321.194 1129.651 321.535 Q 1131.680 321.875 1132.889 321.460 Q 1134.098 321.045 1135.657 319.407 Q 1137.216 317.769 1137.252 316.772 Q 1137.289 315.774 1136.338 313.431 L 1135.387 311.088 "></path>
    <path id="STROKE_6FDE371E-9ED6-4EAE-9FD4-A137C72930C4" opacity="1.000" fill="none" stroke="#000000" stroke-width="2.280" stroke-opacity="1.000" stroke-linecap="round" stroke-linejoin="round" d="M 1056.706 345.490 Q 1058.664 344.919 1062.752 340.662 Q 1066.839 336.405 1069.887 332.095 Q 1072.936 327.785 1078.210 318.298 Q 1083.484 308.812 1084.398 306.580 Q 1085.312 304.349 1087.414 296.181 Q 1089.516 288.013 1090.157 281.591 Q 1090.798 275.170 1090.232 270.218 Q 1089.667 265.266 1087.615 261.314 Q 1085.562 257.363 1082.250 253.568 Q 1078.939 249.774 1073.663 247.845 Q 1068.388 245.917 1062.198 245.713 Q 1056.009 245.510 1050.470 247.427 Q 1044.931 249.345 1040.599 252.346 Q 1036.268 255.346 1032.278 260.650 Q 1028.289 265.955 1027.280 271.358 Q 1026.271 276.762 1027.933 281.465 Q 1029.594 286.168 1031.864 288.428 Q 1034.134 290.688 1036.574 292.065 Q 1039.014 293.442 1043.432 294.942 Q 1047.849 296.441 1052.278 296.892 Q 1056.707 297.343 1060.652 296.218 Q 1064.597 295.093 1067.472 293.593 Q 1070.347 292.094 1070.010 295.326 Q 1069.674 298.558 1068.101 302.225 Q 1066.529 305.891 1063.262 311.387 Q 1059.996 316.882 1051.796 327.211 Q 1043.595 337.539 1045.052 339.789 Q 1046.508 342.040 1051.246 343.320 L 1055.984 344.600 "></path>
    <path id="STROKE_ABD51E93-A44F-48CF-9AE2-633E20E50F64" opacity="1.000" fill="none" stroke="#000000" stroke-width="2.280" stroke-opacity="1.000" stroke-linecap="round" stroke-linejoin="round" d="M 1053.287 274.924 Q 1054.220 277.300 1056.570 277.667 Q 1058.920 278.035 1061.033 276.342 Q 1063.146 274.649 1063.818 272.478 Q 1064.489 270.306 1063.429 269.084 Q 1062.369 267.862 1060.338 267.476 Q 1058.306 267.090 1057.083 267.480 Q 1055.860 267.870 1054.258 269.481 Q 1052.656 271.092 1052.598 272.093 Q 1052.540 273.095 1053.444 275.469 L 1054.348 277.843 "></path>
    <path id="STROKE_DB297B49-2234-4889-B3A8-EA81BDC8DA65" opacity="1.000" fill="none" stroke="#000000" stroke-width="2.270" stroke-opacity="1.000" stroke-linecap="round" stroke-linejoin="round" d="M 1183.728 251.947 Q 1180.468 250.437 1178.389 250.362 Q 1176.310 250.286 1175.069 251.588 Q 1173.828 252.889 1172.896 255.164 Q 1171.965 257.439 1171.613 259.816 Q 1171.260 262.193 1174.095 263.717 Q 1176.930 265.240 1179.936 265.350 Q 1182.941 265.459 1184.674 264.449 Q 1186.408 263.439 1187.146 259.959 Q 1187.884 256.478 1187.220 254.649 Q 1186.557 252.819 1184.212 251.654 L 1181.867 250.488 "></path>
    <path id="STROKE_6F328423-D050-4DEE-B7A3-BC8B50742A55" opacity="1.000" fill="none" stroke="#000000" stroke-width="2.270" stroke-opacity="1.000" stroke-linecap="round" stroke-linejoin="round" d="M 1241.062 253.172 Q 1220.627 255.137 1211.804 254.965 Q 1202.980 254.792 1201.857 255.025 Q 1200.734 255.258 1200.649 257.600 Q 1200.564 259.943 1201.235 265.894 Q 1201.907 271.845 1201.601 280.262 Q 1201.295 288.679 1200.004 300.877 Q 1198.712 313.076 1207.962 312.103 Q 1217.212 311.129 1215.437 299.440 Q 1213.661 287.752 1222.463 287.450 Q 1231.264 287.148 1233.021 286.561 Q 1234.779 285.973 1234.788 280.313 Q 1234.796 274.653 1234.310 274.177 Q 1233.824 273.700 1229.282 273.535 Q 1224.740 273.370 1220.605 273.679 Q 1216.470 273.987 1214.870 272.390 Q 1213.271 270.793 1213.151 268.946 Q 1213.030 267.100 1214.347 266.718 Q 1215.663 266.337 1223.562 266.431 Q 1231.461 266.526 1237.151 266.045 Q 1242.841 265.563 1242.516 259.580 L 1242.191 253.597 "></path>
    <path id="STROKE_881732FD-1044-4711-861A-8E1F969530DD" opacity="1.000" fill="none" stroke="#000000" stroke-width="2.300" stroke-opacity="1.000" stroke-linecap="round" stroke-linejoin="round" d="M 87.188 245.626 Q 66.506 247.823 57.566 247.737 Q 48.626 247.651 47.490 247.898 Q 46.355 248.145 46.292 250.519 Q 46.229 252.893 46.970 258.915 Q 47.710 264.937 47.485 273.467 Q 47.260 281.996 46.074 294.367 Q 44.888 306.738 54.249 305.659 Q 63.610 304.579 61.694 292.756 Q 59.777 280.933 68.691 280.538 Q 77.604 280.144 79.378 279.531 Q 81.153 278.919 81.105 273.185 Q 81.056 267.451 80.559 266.973 Q 80.062 266.495 75.459 266.374 Q 70.856 266.252 66.670 266.607 Q 62.484 266.961 60.848 265.359 Q 59.212 263.757 59.071 261.887 Q 58.931 260.018 60.260 259.618 Q 61.590 259.218 69.593 259.235 Q 77.596 259.251 83.355 258.706 Q 89.115 258.161 88.725 252.103 L 88.335 246.046 "></path>
    <path id="STROKE_8F00B75C-F01A-44A3-8EE4-09FFD5EBCA0C" opacity="1.000" fill="none" stroke="#000000" stroke-width="5.422" stroke-opacity="1.000" stroke-linecap="round" stroke-linejoin="round" d="M 21.902 381.842 Q 21.079 391.421 21.655 395.543 Q 22.232 399.665 25.495 418.085 L 28.758 436.505 "></path>
    <path id="STROKE_6F877B04-BD87-41C3-9850-C61A36F831DE" opacity="1.000" fill="none" stroke="#000000" stroke-width="5.422" stroke-opacity="1.000" stroke-linecap="round" stroke-linejoin="round" d="M 9.555 381.817 Q 5.010 377.985 8.118 376.312 Q 11.226 374.640 16.902 373.516 Q 22.578 372.392 28.413 372.576 Q 34.248 372.760 37.889 374.068 Q 41.530 375.376 45.033 378.273 Q 48.537 381.170 49.225 385.743 Q 49.913 390.317 45.276 394.932 Q 40.638 399.547 36.097 402.288 Q 31.557 405.028 24.995 407.918 Q 18.433 410.809 21.469 410.211 L 24.505 409.613 "></path>
    <path id="STROKE_384940C3-909C-4102-BB00-5A59FEB966EA" opacity="1.000" fill="none" stroke="#000000" stroke-width="5.422" stroke-opacity="1.000" stroke-linecap="round" stroke-linejoin="round" d="M 56.255 404.771 Q 55.665 405.115 55.624 408.362 Q 55.583 411.609 56.909 420.129 Q 58.234 428.650 59.345 431.012 L 60.456 433.374 "></path>
    <path id="STROKE_124D03AE-C8B8-47EE-88DE-B75727A6FDB1" opacity="1.000" fill="none" stroke="#000000" stroke-width="5.422" stroke-opacity="1.000" stroke-linecap="round" stroke-linejoin="round" d="M 48.934 405.249 Q 50.793 401.739 52.983 400.911 Q 55.173 400.083 61.393 399.931 Q 67.612 399.780 70.335 401.987 Q 73.057 404.194 73.028 406.476 Q 72.999 408.758 68.405 414.581 Q 63.810 420.404 63.392 422.220 Q 62.974 424.036 71.430 428.653 Q 79.886 433.270 85.015 434.937 L 90.143 436.604 "></path>
    <path id="STROKE_6A37F90D-7B9E-480D-916A-AD6B3D0AD0E4" opacity="1.000" fill="none" stroke="#000000" stroke-width="5.422" stroke-opacity="1.000" stroke-linecap="round" stroke-linejoin="round" d="M 129.837 407.526 Q 128.748 403.408 125.693 400.912 Q 122.638 398.415 117.961 398.016 Q 113.285 397.616 110.390 399.752 Q 107.496 401.888 105.729 406.254 Q 103.961 410.621 103.598 416.212 Q 103.234 421.803 105.818 425.720 Q 108.402 429.637 111.357 430.761 Q 114.313 431.885 118.551 432.224 Q 122.790 432.563 126.252 429.469 Q 129.715 426.375 130.024 420.443 Q 130.334 414.510 128.286 408.713 L 126.238 402.916 "></path>
    <path id="STROKE_3760DD82-CEC1-41F7-8D4B-8DE0FD91BC72" opacity="1.000" fill="none" stroke="#000000" stroke-width="5.422" stroke-opacity="1.000" stroke-linecap="round" stroke-linejoin="round" d="M 164.194 402.388 Q 164.584 408.537 164.572 414.133 Q 164.560 419.729 164.799 422.760 Q 165.039 425.791 165.808 428.599 Q 166.577 431.407 167.312 432.217 L 168.048 433.027 "></path>
    <path id="STROKE_F30E6DFC-7479-41B8-AB6D-58FF3EA134FF" opacity="1.000" fill="none" stroke="#000000" stroke-width="5.422" stroke-opacity="1.000" stroke-linecap="round" stroke-linejoin="round" d="M 149.688 401.853 Q 149.000 403.095 153.227 403.148 Q 157.454 403.202 165.649 401.879 Q 173.844 400.557 180.201 398.816 Q 186.558 397.075 188.515 396.124 L 190.473 395.172 "></path>
    <path id="STROKE_9C2C4976-4D8F-4854-B651-5302D595AF0B" opacity="1.000" fill="none" stroke="#000000" stroke-width="5.422" stroke-opacity="1.000" stroke-linecap="round" stroke-linejoin="round" d="M 232.018 393.197 Q 206.899 398.914 204.874 400.545 Q 202.849 402.176 202.731 411.479 Q 202.613 420.782 205.259 424.414 Q 207.904 428.047 215.150 428.885 Q 222.396 429.723 225.833 428.680 Q 229.269 427.638 231.655 425.210 L 234.042 422.783 "></path>
    <path id="STROKE_CC8ABCD4-53F7-4935-9C71-D89CFDAA2149" opacity="1.000" fill="none" stroke="#000000" stroke-width="5.422" stroke-opacity="1.000" stroke-linecap="round" stroke-linejoin="round" d="M 203.604 414.189 Q 206.488 412.843 212.051 411.432 L 217.613 410.022 "></path>
    <path id="STROKE_DF8C744F-C1E6-4553-B54D-DBE8571645B7" opacity="1.000" fill="none" stroke="#000000" stroke-width="5.422" stroke-opacity="1.000" stroke-linecap="round" stroke-linejoin="round" d="M 243.754 432.144 Q 243.465 417.986 245.676 406.373 Q 247.886 394.759 250.489 392.510 Q 253.092 390.261 255.833 394.465 Q 258.574 398.669 260.716 405.148 Q 262.857 411.627 265.297 422.323 Q 267.736 433.019 269.075 435.834 L 270.415 438.649 "></path>
    <path id="STROKE_544896F5-C244-473B-9B28-87C204B747BA" opacity="1.000" fill="none" stroke="#000000" stroke-width="5.422" stroke-opacity="1.000" stroke-linecap="round" stroke-linejoin="round" d="M 247.829 424.559 Q 250.165 422.636 255.553 421.168 L 260.941 419.700 "></path>
    <path id="STROKE_4ACF9D4F-A85C-4FFD-B0D2-8D093014C6F9" opacity="1.000" fill="none" stroke="#000000" stroke-width="5.422" stroke-opacity="1.000" stroke-linecap="round" stroke-linejoin="round" d="M 302.766 393.283 Q 297.658 392.319 291.320 396.056 Q 284.981 399.794 284.090 402.011 Q 283.199 404.227 288.026 406.570 Q 292.854 408.914 296.351 412.272 Q 299.849 415.630 299.987 418.594 Q 300.125 421.558 298.847 423.144 Q 297.569 424.730 293.943 426.856 Q 290.317 428.983 288.943 428.910 L 287.568 428.838 "></path>
    <path id="STROKE_DB1F0AFB-7445-49B7-AECC-67D2CE13A0AA" opacity="1.000" fill="none" stroke="#000000" stroke-width="5.422" stroke-opacity="1.000" stroke-linecap="round" stroke-linejoin="round" d="M 338.175 397.507 Q 332.008 396.968 327.177 398.388 Q 322.346 399.808 319.292 401.777 Q 316.239 403.746 315.013 410.402 Q 313.788 417.057 314.200 420.321 Q 314.612 423.585 316.091 424.625 Q 317.570 425.664 323.912 426.260 Q 330.254 426.856 333.306 425.007 L 336.357 423.159 "></path>
    <path id="STROKE_CF3F3DD2-EC8F-4A2C-B73C-67EE2B365FFC" opacity="1.000" fill="none" stroke="#000000" stroke-width="5.422" stroke-opacity="1.000" stroke-linecap="round" stroke-linejoin="round" d="M 312.533 416.822 Q 314.153 415.921 318.753 414.322 Q 323.352 412.724 324.617 412.169 L 325.883 411.615 "></path>
    <path id="STROKE_3B6360B8-0482-4374-9840-A26F0D2D5601" opacity="1.000" fill="none" stroke="#000000" stroke-width="5.422" stroke-opacity="1.000" stroke-linecap="round" stroke-linejoin="round" d="M 369.718 397.446 Q 363.542 397.609 356.482 400.537 Q 349.423 403.465 347.673 405.330 Q 345.923 407.195 351.108 409.027 Q 356.293 410.860 359.853 413.933 Q 363.413 417.007 364.605 422.212 Q 365.797 427.417 364.914 428.953 Q 364.032 430.488 360.522 432.671 Q 357.013 434.854 353.349 435.312 L 349.686 435.771 "></path>
    <path id="STROKE_E1287D1C-5CB9-41F0-BCF9-D028A600BB00" opacity="1.000" fill="none" stroke="#000000" stroke-width="5.992" stroke-opacity="1.000" stroke-linecap="round" stroke-linejoin="round" d="M 747.611 426.192 Q 745.674 419.720 747.973 411.741 Q 750.272 403.762 754.904 382.990 Q 759.536 362.218 761.328 359.399 Q 763.120 356.581 766.076 358.443 Q 769.031 360.305 770.777 363.415 Q 772.523 366.526 784.683 398.691 Q 796.843 430.856 797.354 429.916 L 797.865 428.975 "></path>
    <path id="STROKE_E0670BAF-B1B8-4B4C-9371-CB2BB4826244" opacity="1.000" fill="none" stroke="#000000" stroke-width="5.992" stroke-opacity="1.000" stroke-linecap="round" stroke-linejoin="round" d="M 757.450 403.838 Q 774.563 400.113 778.688 398.386 L 782.812 396.658 "></path>
    <path id="STROKE_65B7C118-378D-48E3-8F11-3079CF881006" opacity="1.000" fill="none" stroke="#000000" stroke-width="5.992" stroke-opacity="1.000" stroke-linecap="round" stroke-linejoin="round" d="M 818.028 424.288 Q 815.905 420.094 815.659 414.283 Q 815.413 408.472 816.839 405.080 Q 818.265 401.687 820.422 401.080 Q 822.579 400.472 826.980 407.842 Q 831.381 415.213 834.232 408.549 Q 837.083 401.885 839.515 398.188 Q 841.947 394.491 845.302 395.169 Q 848.658 395.847 851.576 405.906 Q 854.494 415.965 855.927 418.114 L 857.359 420.263 "></path>
    <path id="STROKE_2F3F340E-326F-458C-B1E1-DDB64682CAC4" opacity="1.000" fill="none" stroke="#000000" stroke-width="5.992" stroke-opacity="1.000" stroke-linecap="round" stroke-linejoin="round" d="M 878.199 421.889 Q 877.382 413.537 881.611 401.856 Q 885.840 390.174 886.859 390.124 Q 887.879 390.074 890.186 393.627 Q 892.493 397.180 895.492 405.664 Q 898.491 414.147 902.096 420.369 L 905.701 426.592 "></path>
    <path id="STROKE_21B0E5EB-785F-4531-80D6-8533EA7EAED5" opacity="1.000" fill="none" stroke="#000000" stroke-width="5.992" stroke-opacity="1.000" stroke-linecap="round" stroke-linejoin="round" d="M 881.751 407.035 Q 883.925 406.306 889.678 404.972 Q 895.432 403.638 897.784 402.911 L 900.136 402.184 "></path>
    <path id="STROKE_9AD37AA7-1CD8-48E5-8C97-50A7ED347023" opacity="1.000" fill="none" stroke="#000000" stroke-width="5.992" stroke-opacity="1.000" stroke-linecap="round" stroke-linejoin="round" d="M 927.765 394.762 Q 929.538 392.258 929.108 403.871 Q 928.679 415.483 933.767 417.549 Q 938.854 419.616 941.899 419.138 L 944.943 418.661 "></path>
    <path id="STROKE_044DBA87-2BD6-4713-8C77-00242B48A3EE" opacity="1.000" fill="none" stroke="#000000" stroke-width="5.992" stroke-opacity="1.000" stroke-linecap="round" stroke-linejoin="round" d="M 960.604 417.710 Q 959.699 408.485 961.783 402.443 Q 963.868 396.402 967.099 390.446 Q 970.331 384.489 971.463 384.501 Q 972.594 384.513 975.070 388.953 Q 977.546 393.393 979.534 402.630 Q 981.523 411.867 983.615 417.370 L 985.708 422.873 "></path>
    <path id="STROKE_0A2580E0-D20F-49B8-ACB5-A5BBC967E93F" opacity="1.000" fill="none" stroke="#000000" stroke-width="5.992" stroke-opacity="1.000" stroke-linecap="round" stroke-linejoin="round" d="M 959.678 410.497 Q 959.947 409.482 963.242 408.255 Q 966.537 407.029 972.116 405.389 L 977.695 403.750 "></path>
    <path id="STROKE_A316B687-5893-406C-A596-3FFB586FA7D9" opacity="1.000" fill="none" stroke="#000000" stroke-width="5.992" stroke-opacity="1.000" stroke-linecap="round" stroke-linejoin="round" d="M 1024.251 386.196 Q 1022.881 384.168 1016.793 386.566 Q 1010.705 388.964 1006.262 391.694 Q 1001.820 394.424 1001.539 396.495 Q 1001.259 398.565 1008.311 401.416 Q 1015.362 404.267 1018.220 407.705 Q 1021.078 411.142 1021.370 414.116 Q 1021.663 417.090 1018.929 418.699 Q 1016.196 420.307 1012.913 420.394 Q 1009.630 420.481 1007.878 417.940 L 1006.126 415.399 "></path>
    <path id="STROKE_353D0519-DD1B-4ED7-912E-0A07DF2FBA90" opacity="1.000" fill="none" stroke="#000000" stroke-width="5.992" stroke-opacity="1.000" stroke-linecap="round" stroke-linejoin="round" d="M 1067.361 385.654 Q 1052.663 387.246 1049.754 388.731 Q 1046.844 390.216 1045.288 393.668 Q 1043.732 397.120 1043.189 401.092 Q 1042.646 405.063 1045.750 409.764 Q 1048.853 414.466 1054.403 415.591 Q 1059.953 416.716 1066.663 415.150 L 1073.373 413.583 "></path>
    <path id="STROKE_6D15ABB7-2976-4154-B0CE-44391478015C" opacity="1.000" fill="none" stroke="#000000" stroke-width="5.992" stroke-opacity="1.000" stroke-linecap="round" stroke-linejoin="round" d="M 1042.995 405.698 Q 1043.787 404.202 1045.314 403.515 Q 1046.841 402.828 1051.708 401.302 L 1056.574 399.777 "></path>
    <path id="STROKE_B0F497DF-6488-475F-988E-BB949B4F3458" opacity="1.000" fill="none" stroke="#000000" stroke-width="5.992" stroke-opacity="1.000" stroke-linecap="round" stroke-linejoin="round" d="M 1112.988 382.593 Q 1111.991 382.073 1105.707 384.662 Q 1099.422 387.252 1098.005 389.820 Q 1096.587 392.388 1102.964 399.513 Q 1109.340 406.637 1111.381 410.890 Q 1113.422 415.144 1113.401 417.096 Q 1113.381 419.048 1111.459 420.423 Q 1109.536 421.797 1103.918 422.550 Q 1098.300 423.304 1097.359 422.093 L 1096.417 420.883 "></path>
    <path id="STROKE_04942C5B-6620-45E0-BBD9-87FB0BF9B621" opacity="1.000" fill="none" stroke="#000000" stroke-width="5.422" stroke-opacity="1.000" stroke-linecap="round" stroke-linejoin="round" d="M 3.468 464.954 Q -2.171 466.594 6.123 466.699 Q 14.417 466.804 30.091 465.171 Q 45.766 463.537 73.292 461.780 Q 100.818 460.022 116.271 458.616 Q 131.723 457.210 154.664 455.965 Q 177.604 454.720 200.589 454.606 Q 223.574 454.491 268.787 455.065 Q 314.001 455.639 340.167 456.146 Q 366.333 456.654 371.182 457.286 L 376.031 457.918 "></path>
    <path id="STROKE_8071A7CA-F4C0-48A6-85D9-7D9CDF8C408E" opacity="1.000" fill="none" stroke="#000000" stroke-width="5.992" stroke-opacity="1.000" stroke-linecap="round" stroke-linejoin="round" d="M 718.989 457.420 Q 738.819 456.633 796.267 450.289 Q 853.715 443.944 884.940 442.004 Q 916.166 440.065 932.969 439.611 Q 949.773 439.157 973.719 439.093 Q 997.665 439.029 1042.899 439.504 Q 1088.132 439.980 1106.196 441.176 Q 1124.260 442.372 1131.562 444.474 L 1138.864 446.576 "></path>
    <path id="STROKE_1688FFA5-5F4A-4F78-9837-AFE6E0A9D4F5" opacity="1.000" fill="none" stroke="#000000" stroke-width="2.266" stroke-opacity="1.000" stroke-linecap="round" stroke-linejoin="round" d="M -81.599 504.438 Q -82.253 504.652 -82.272 507.388 Q -82.291 510.124 -81.627 516.266 Q -80.962 522.408 -79.509 530.807 Q -78.056 539.207 -77.421 541.568 L -76.786 543.928 "></path>
    <path id="STROKE_63BA0B74-4A27-4D6D-9CA3-40CA196D5FE3" opacity="1.000" fill="none" stroke="#000000" stroke-width="2.160" stroke-opacity="1.000" stroke-linecap="round" stroke-linejoin="round" d="M -95.661 508.074 Q -95.650 506.504 -93.278 504.466 Q -90.906 502.428 -86.347 501.081 Q -81.788 499.735 -78.044 499.787 Q -74.299 499.840 -71.383 501.374 Q -68.468 502.908 -67.678 505.971 Q -66.888 509.035 -70.353 512.719 Q -73.819 516.404 -78.537 519.777 Q -83.256 523.151 -86.597 524.834 Q -89.937 526.516 -89.800 525.789 L -89.663 525.062 "></path>
    <path id="STROKE_4604FACF-B07A-4406-AB25-A40F42561183" opacity="1.000" fill="none" stroke="#000000" stroke-width="2.837" stroke-opacity="1.000" stroke-linecap="round" stroke-linejoin="round" d="M -67.606 526.402 Q -68.014 529.270 -66.994 535.041 Q -65.973 540.811 -65.253 542.007 L -64.534 543.203 "></path>
    <path id="STROKE_301C6EFD-FD0F-433C-81F1-F7492DA25F16" opacity="1.000" fill="none" stroke="#000000" stroke-width="2.837" stroke-opacity="1.000" stroke-linecap="round" stroke-linejoin="round" d="M -69.030 527.745 Q -66.798 525.867 -64.322 524.880 Q -61.846 523.894 -59.815 524.043 Q -57.784 524.193 -58.067 525.980 Q -58.350 527.767 -62.637 531.820 Q -66.923 535.873 -67.360 536.900 Q -67.798 537.927 -65.227 538.241 Q -62.656 538.556 -59.841 539.605 Q -57.026 540.655 -54.064 542.569 L -51.103 544.483 "></path>
    <path id="STROKE_BA0D557E-A986-4330-B969-95E338277393" opacity="1.000" fill="none" stroke="#000000" stroke-width="2.828" stroke-opacity="1.000" stroke-linecap="round" stroke-linejoin="round" d="M -36.358 522.564 Q -40.342 524.971 -41.599 527.261 Q -42.856 529.551 -43.317 532.902 Q -43.777 536.254 -42.809 537.670 Q -41.841 539.087 -38.191 539.731 Q -34.541 540.376 -32.093 539.394 Q -29.645 538.413 -28.824 537.035 Q -28.003 535.657 -28.584 533.463 Q -29.165 531.270 -32.231 528.460 Q -35.298 525.651 -35.969 524.429 L -36.640 523.207 "></path>
    <path id="STROKE_2D958E6F-BF08-4EAB-BAEC-858495C9688D" opacity="1.000" fill="none" stroke="#000000" stroke-width="2.837" stroke-opacity="1.000" stroke-linecap="round" stroke-linejoin="round" d="M -14.077 521.795 Q -14.840 521.685 -14.879 523.365 Q -14.919 525.045 -13.809 532.979 L -12.700 540.914 "></path>
    <path id="STROKE_5D1FBBAE-84E5-477E-86E0-189B54F48A37" opacity="1.000" fill="none" stroke="#000000" stroke-width="2.476" stroke-opacity="1.000" stroke-linecap="round" stroke-linejoin="round" d="M -25.916 524.801 Q -25.820 525.072 -22.178 523.881 Q -18.536 522.689 -15.194 521.844 Q -11.853 520.999 -8.679 520.428 Q -5.506 519.857 -2.033 518.987 L 1.441 518.117 "></path>
    <path id="STROKE_97504DA0-6278-4F0B-9EE4-DCDE69C4F634" opacity="1.000" fill="none" stroke="#000000" stroke-width="2.837" stroke-opacity="1.000" stroke-linecap="round" stroke-linejoin="round" d="M 22.206 517.888 Q 4.173 522.141 4.102 528.309 Q 4.031 534.477 4.671 536.214 Q 5.310 537.950 7.499 539.318 Q 9.688 540.686 11.366 540.755 Q 13.043 540.823 18.428 538.422 L 23.812 536.020 "></path>
    <path id="STROKE_272E2F42-C58C-48FF-B125-14E736338F8B" opacity="1.000" fill="none" stroke="#000000" stroke-width="2.837" stroke-opacity="1.000" stroke-linecap="round" stroke-linejoin="round" d="M 5.893 531.952 Q 13.548 530.113 14.772 529.715 L 15.995 529.318 "></path>
    <path id="STROKE_78C860F9-93EF-4F31-A865-C640C0093D53" opacity="1.000" fill="none" stroke="#000000" stroke-width="2.837" stroke-opacity="1.000" stroke-linecap="round" stroke-linejoin="round" d="M 32.914 519.752 Q 32.539 519.854 31.949 526.804 Q 31.360 533.753 31.346 535.730 Q 31.332 537.706 31.543 538.327 L 31.753 538.947 "></path>
    <path id="STROKE_794F4E5B-75FA-455F-8552-8B34A2D9463E" opacity="1.000" fill="none" stroke="#000000" stroke-width="2.837" stroke-opacity="1.000" stroke-linecap="round" stroke-linejoin="round" d="M 40.765 537.439 Q 40.232 536.354 40.043 528.670 Q 39.854 520.987 41.273 523.379 Q 42.692 525.771 44.839 528.163 Q 46.986 530.555 51.221 533.835 Q 55.456 537.116 57.373 537.644 Q 59.290 538.173 59.363 535.708 Q 59.436 533.243 58.780 529.832 Q 58.124 526.420 57.974 521.114 L 57.824 515.807 "></path>
    <path id="STROKE_C69B25D5-9F91-4535-BBD1-566B84D53BE2" opacity="1.000" fill="none" stroke="#000000" stroke-width="2.837" stroke-opacity="1.000" stroke-linecap="round" stroke-linejoin="round" d="M 80.160 515.049 Q 76.152 515.021 73.677 515.950 Q 71.201 516.879 69.646 518.137 Q 68.091 519.396 68.897 521.081 Q 69.704 522.767 73.699 524.662 Q 77.694 526.557 78.443 527.452 Q 79.193 528.347 78.642 529.778 Q 78.091 531.210 75.640 532.706 Q 73.188 534.203 69.664 535.369 L 66.140 536.535 "></path>
    <path id="STROKE_62A710C7-556F-4EC3-BD55-AA6BF958D90C" opacity="1.000" fill="none" stroke="#000000" stroke-width="2.836" stroke-opacity="1.000" stroke-linecap="round" stroke-linejoin="round" d="M 105.858 513.492 Q 103.716 532.201 111.753 530.281 Q 119.790 528.361 122.063 528.647 Q 124.335 528.933 123.489 533.936 Q 122.643 538.939 122.609 543.755 Q 122.575 548.571 125.907 545.183 Q 129.238 541.794 136.133 535.700 Q 143.027 529.605 148.321 524.369 Q 153.614 519.132 148.609 514.930 Q 143.603 510.729 140.354 506.296 Q 137.105 501.862 134.385 499.165 Q 131.664 496.467 130.515 494.243 Q 129.365 492.019 128.425 502.452 Q 127.485 512.884 121.395 512.061 Q 115.305 511.238 110.588 511.475 L 105.870 511.713 "></path>
    <path id="STROKE_3CB3ABA6-7A52-42B0-92B6-538BD54B31D3" opacity="1.000" fill="none" stroke="#000000" stroke-width="2.650" stroke-opacity="1.000" stroke-linecap="round" stroke-linejoin="round" d="M 193.757 498.910 Q 191.443 496.615 188.654 496.648 Q 185.866 496.680 180.268 498.971 Q 174.669 501.262 173.114 502.520 Q 171.558 503.779 171.062 505.320 Q 170.566 506.861 175.003 507.974 Q 179.441 509.087 183.085 510.574 Q 186.729 512.061 188.319 513.778 Q 189.909 515.495 190.191 517.874 Q 190.472 520.253 187.827 522.726 Q 185.181 525.199 179.659 527.376 Q 174.138 529.553 171.376 529.752 Q 168.615 529.951 168.224 527.296 L 167.834 524.641 "></path>
    <path id="STROKE_9FAD7474-D0EA-44DD-9C3A-C771587EE4DD" opacity="1.000" fill="none" stroke="#000000" stroke-width="2.737" stroke-opacity="1.000" stroke-linecap="round" stroke-linejoin="round" d="M 195.677 527.655 Q 194.412 522.174 195.807 516.099 Q 197.202 510.023 199.342 506.387 Q 201.483 502.750 202.775 504.491 Q 204.066 506.233 205.067 509.917 Q 206.067 513.601 207.533 521.158 Q 208.999 528.716 209.198 530.912 L 209.398 533.108 "></path>
    <path id="STROKE_897FF856-595A-4F2F-B889-1543C6D5AE77" opacity="1.000" fill="none" stroke="#000000" stroke-width="2.837" stroke-opacity="1.000" stroke-linecap="round" stroke-linejoin="round" d="M 196.413 521.595 Q 202.232 520.554 202.878 520.340 L 203.525 520.126 "></path>
    <path id="STROKE_501857E3-623C-40E2-A172-7143D533F2F9" opacity="1.000" fill="none" stroke="#000000" stroke-width="2.837" stroke-opacity="1.000" stroke-linecap="round" stroke-linejoin="round" d="M 212.876 509.758 Q 214.757 518.478 217.384 522.585 Q 220.012 526.691 221.638 527.244 Q 223.263 527.796 224.185 523.985 Q 225.106 520.174 225.204 513.142 L 225.302 506.111 "></path>
    <path id="STROKE_79AD362B-4A99-43B6-A4AA-F9BBFEA8FE84" opacity="1.000" fill="none" stroke="#000000" stroke-width="2.837" stroke-opacity="1.000" stroke-linecap="round" stroke-linejoin="round" d="M 242.269 521.324 Q 242.350 517.694 240.146 515.463 Q 237.943 513.232 235.504 512.918 Q 233.065 512.604 231.180 514.349 Q 229.296 516.094 229.235 517.794 Q 229.175 519.495 230.869 521.135 Q 232.564 522.774 234.992 523.603 Q 237.420 524.431 239.022 524.495 Q 240.623 524.558 241.144 523.531 L 241.664 522.505 "></path>
    <path id="STROKE_6070F82E-9713-4EE9-9EF1-76977B8A35ED" opacity="1.000" fill="none" stroke="#000000" stroke-width="2.837" stroke-opacity="1.000" stroke-linecap="round" stroke-linejoin="round" d="M 248.946 512.549 Q 248.769 514.067 249.996 517.186 Q 251.222 520.305 251.887 522.421 L 252.552 524.537 "></path>
    <path id="STROKE_67D97F4F-1888-4A7C-8075-7CD90AD78BC5" opacity="1.000" fill="none" stroke="#000000" stroke-width="2.837" stroke-opacity="1.000" stroke-linecap="round" stroke-linejoin="round" d="M 246.802 509.830 Q 246.761 507.770 247.988 506.832 Q 249.215 505.894 253.199 505.407 Q 257.183 504.920 258.910 505.826 Q 260.638 506.733 260.574 507.898 Q 260.511 509.062 255.719 512.898 Q 250.928 516.735 251.107 517.953 Q 251.285 519.171 256.174 521.177 Q 261.063 523.182 264.844 525.076 L 268.624 526.970 "></path>
    <path id="STROKE_DB1058F0-98E9-473F-9B01-5CE999046E87" opacity="1.000" fill="none" stroke="#000000" stroke-width="2.837" stroke-opacity="1.000" stroke-linecap="round" stroke-linejoin="round" d="M 270.112 508.526 Q 270.105 509.608 272.121 511.869 Q 274.137 514.130 276.076 515.418 L 278.016 516.706 "></path>
    <path id="STROKE_A69C13B0-5B2B-4231-B3B2-F6C3652DE4DB" opacity="1.000" fill="none" stroke="#000000" stroke-width="2.535" stroke-opacity="1.000" stroke-linecap="round" stroke-linejoin="round" d="M 286.946 503.235 Q 286.031 503.177 284.742 504.926 Q 283.454 506.675 280.934 511.016 Q 278.414 515.356 276.651 519.510 Q 274.888 523.664 274.403 526.553 L 273.919 529.441 "></path>
    <path id="STROKE_D059AD41-7654-4F21-862D-ACAAA95AD650" opacity="1.000" fill="none" stroke="#000000" stroke-width="2.657" stroke-opacity="1.000" stroke-linecap="round" stroke-linejoin="round" d="M 302.098 530.075 Q 301.272 525.201 305.198 513.214 Q 309.124 501.227 310.310 498.260 Q 311.496 495.293 315.062 512.826 Q 318.629 530.358 319.562 532.741 L 320.495 535.125 "></path>
    <path id="STROKE_92D88381-4EB2-4DB0-B35B-7993CC37BF26" opacity="1.000" fill="none" stroke="#000000" stroke-width="2.837" stroke-opacity="1.000" stroke-linecap="round" stroke-linejoin="round" d="M 303.780 521.589 Q 304.712 521.168 308.889 519.897 Q 313.066 518.626 314.158 518.093 L 315.251 517.560 "></path>
    <path id="STROKE_04C23F47-625E-4DAC-8F54-BB68C8F675A1" opacity="1.000" fill="none" stroke="#000000" stroke-width="2.837" stroke-opacity="1.000" stroke-linecap="round" stroke-linejoin="round" d="M 327.323 526.736 Q 326.468 526.023 326.217 522.287 Q 325.965 518.550 327.041 516.503 Q 328.116 514.457 330.412 519.289 Q 332.709 524.121 335.345 519.079 Q 337.980 514.037 339.507 512.992 Q 341.033 511.946 341.949 516.826 Q 342.864 521.706 343.907 523.336 L 344.950 524.966 "></path>
    <path id="STROKE_67D1B5FA-B3E1-44E0-AC68-03579F5D93D0" opacity="1.000" fill="none" stroke="#000000" stroke-width="2.837" stroke-opacity="1.000" stroke-linecap="round" stroke-linejoin="round" d="M 353.102 513.498 Q 352.670 513.921 352.821 519.040 Q 352.972 524.159 353.191 524.619 L 353.410 525.078 "></path>
    <path id="STROKE_5017EA01-EECA-4A98-AF0E-F8C8AB20A579" opacity="1.000" fill="none" stroke="#000000" stroke-width="2.837" stroke-opacity="1.000" stroke-linecap="round" stroke-linejoin="round" d="M 361.094 524.965 Q 360.428 513.112 362.546 515.728 Q 364.664 518.343 367.445 520.334 Q 370.225 522.325 371.845 522.716 Q 373.465 523.107 373.891 520.728 Q 374.317 518.348 372.776 513.578 L 371.236 508.809 "></path>
    <path id="STROKE_3277D32A-69F5-4396-84CD-443DF40B3C57" opacity="1.000" fill="none" stroke="#000000" stroke-width="2.837" stroke-opacity="1.000" stroke-linecap="round" stroke-linejoin="round" d="M 387.914 519.692 Q 388.870 513.967 387.501 512.361 Q 386.132 510.754 384.400 510.550 Q 382.667 510.345 381.797 510.802 Q 380.927 511.259 379.750 512.982 Q 378.573 514.706 378.366 516.572 Q 378.158 518.438 379.398 519.663 Q 380.638 520.889 382.509 521.116 Q 384.380 521.342 385.765 520.566 Q 387.150 519.791 387.539 518.795 L 387.927 517.799 "></path>
    <path id="STROKE_02E0D81E-4395-4058-A693-7EC67C905824" opacity="1.000" fill="none" stroke="#000000" stroke-width="2.225" stroke-opacity="1.000" stroke-linecap="round" stroke-linejoin="round" d="M 400.222 534.768 Q 401.902 518.604 403.515 509.144 Q 405.128 499.684 405.995 491.706 Q 406.863 483.728 407.532 485.143 Q 408.202 486.557 409.662 493.979 Q 411.122 501.401 413.379 508.828 Q 415.636 516.256 417.209 523.387 Q 418.782 530.519 420.124 532.016 L 421.466 533.513 "></path>
    <path id="STROKE_FBCEA2AE-B4BD-409D-90D6-4E8CF9943295" opacity="1.000" fill="none" stroke="#000000" stroke-width="2.837" stroke-opacity="1.000" stroke-linecap="round" stroke-linejoin="round" d="M 405.116 515.319 Q 406.537 514.361 409.684 513.541 L 412.832 512.720 "></path>
    <path id="STROKE_E6D28CDE-1C51-4A68-AC7A-A3ECC86BDF91" opacity="1.000" fill="none" stroke="#000000" stroke-width="2.837" stroke-opacity="1.000" stroke-linecap="round" stroke-linejoin="round" d="M 431.000 510.850 Q 430.316 509.545 428.685 509.695 Q 427.055 509.845 425.527 511.025 Q 424.000 512.206 423.018 513.795 Q 422.036 515.385 422.025 516.982 Q 422.014 518.579 423.954 519.835 Q 425.894 521.092 428.382 521.245 Q 430.871 521.397 432.040 520.755 L 433.210 520.114 "></path>
    <path id="STROKE_54BE4298-00F1-456A-B2C9-FE07EC744295" opacity="1.000" fill="none" stroke="#000000" stroke-width="2.837" stroke-opacity="1.000" stroke-linecap="round" stroke-linejoin="round" d="M 442.124 508.921 Q 442.062 511.791 443.282 514.884 Q 444.501 517.977 445.091 518.902 L 445.681 519.826 "></path>
    <path id="STROKE_A22C6C81-57D7-4B60-9A80-A3D0DBA449A5" opacity="1.000" fill="none" stroke="#000000" stroke-width="2.837" stroke-opacity="1.000" stroke-linecap="round" stroke-linejoin="round" d="M 452.857 509.214 Q 452.411 511.541 454.119 515.178 L 455.827 518.816 "></path>
    <path id="STROKE_7179B5E7-34E1-4AD2-9E06-43E366D8DCC6" opacity="1.000" fill="none" stroke="#000000" stroke-width="2.837" stroke-opacity="1.000" stroke-linecap="round" stroke-linejoin="round" d="M 450.364 508.656 Q 450.115 506.605 453.745 506.193 Q 457.375 505.782 459.352 506.607 Q 461.330 507.432 463.295 509.017 Q 465.261 510.601 465.574 512.336 Q 465.888 514.070 464.875 515.228 Q 463.861 516.386 460.598 517.850 L 457.335 519.315 "></path>
    <path id="STROKE_E77CA5BB-CD42-4BF5-817E-48536552A51C" opacity="1.000" fill="none" stroke="#000000" stroke-width="2.837" stroke-opacity="1.000" stroke-linecap="round" stroke-linejoin="round" d="M 480.821 502.971 Q 477.077 502.841 473.780 505.169 Q 470.484 507.497 470.688 508.960 Q 470.893 510.423 474.815 511.886 Q 478.737 513.349 480.975 514.607 Q 483.213 515.866 483.497 517.871 Q 483.781 519.875 482.097 520.758 Q 480.412 521.641 477.912 522.164 L 475.412 522.687 "></path>
    <path id="STROKE_32C05057-DC16-4981-8AC1-0B8200980FFD" opacity="1.000" fill="none" stroke="#000000" stroke-width="2.716" stroke-opacity="1.000" stroke-linecap="round" stroke-linejoin="round" d="M 732.188 489.661 Q 726.904 488.507 719.387 491.592 Q 711.871 494.677 706.979 497.380 Q 702.088 500.082 698.778 502.530 Q 695.469 504.977 695.146 506.417 Q 694.821 507.857 703.369 508.363 Q 711.916 508.870 717.425 510.338 Q 722.935 511.806 724.432 512.960 Q 725.929 514.115 726.429 516.152 Q 726.928 518.189 725.948 519.900 Q 724.968 521.611 721.871 524.021 Q 718.774 526.431 711.980 529.597 Q 705.186 532.762 702.217 533.108 Q 699.248 533.454 699.282 530.251 L 699.315 527.047 "></path>
    <path id="STROKE_A37E17BB-F085-4DD5-A93E-07CF60F74055" opacity="1.000" fill="none" stroke="#000000" stroke-width="3.112" stroke-opacity="1.000" stroke-linecap="round" stroke-linejoin="round" d="M 743.250 506.988 Q 742.230 513.319 741.133 518.643 Q 740.036 523.967 739.835 527.063 L 739.635 530.159 "></path>
    <path id="STROKE_48F18621-8EEE-436F-A883-A076708AFDEF" opacity="1.000" fill="none" stroke="#000000" stroke-width="3.112" stroke-opacity="1.000" stroke-linecap="round" stroke-linejoin="round" d="M 730.601 509.689 Q 733.170 508.749 737.065 508.479 Q 740.960 508.209 743.488 507.858 Q 746.016 507.507 748.015 507.078 L 750.015 506.649 "></path>
    <path id="STROKE_818D4347-E92E-4AB3-BC17-A40B019D1047" opacity="1.000" fill="none" stroke="#000000" stroke-width="3.112" stroke-opacity="1.000" stroke-linecap="round" stroke-linejoin="round" d="M 753.508 528.649 Q 753.090 523.071 754.439 518.955 Q 755.789 514.839 758.391 510.768 Q 760.994 506.698 762.548 505.781 Q 764.102 504.864 765.822 505.816 Q 767.542 506.767 768.366 509.768 Q 769.191 512.768 769.457 517.663 Q 769.724 522.558 770.986 526.735 L 772.248 530.911 "></path>
    <path id="STROKE_83905D3C-EFDE-4D69-8630-3D3894DD644F" opacity="1.000" fill="none" stroke="#000000" stroke-width="3.112" stroke-opacity="1.000" stroke-linecap="round" stroke-linejoin="round" d="M 754.584 518.678 Q 756.448 517.665 759.183 516.939 Q 761.917 516.214 766.969 515.095 L 772.020 513.976 "></path>
    <path id="STROKE_44FA7E2D-72DB-44C7-93D5-A63C57D3A86E" opacity="1.000" fill="none" stroke="#000000" stroke-width="3.112" stroke-opacity="1.000" stroke-linecap="round" stroke-linejoin="round" d="M 782.349 508.710 Q 781.373 509.256 781.191 510.558 Q 781.010 511.860 781.053 517.030 Q 781.095 522.201 781.736 524.239 L 782.376 526.278 "></path>
    <path id="STROKE_DC575B12-EC66-488D-87B3-26A1A884C75C" opacity="1.000" fill="none" stroke="#000000" stroke-width="3.112" stroke-opacity="1.000" stroke-linecap="round" stroke-linejoin="round" d="M 776.267 509.679 Q 776.074 507.889 777.818 506.531 Q 779.562 505.172 781.562 504.604 Q 783.563 504.036 787.774 503.981 Q 791.984 503.926 793.045 504.592 Q 794.106 505.259 793.923 506.700 Q 793.741 508.141 789.634 511.745 Q 785.527 515.349 785.193 516.968 Q 784.858 518.586 789.532 520.594 Q 794.207 522.603 797.320 524.463 L 800.434 526.322 "></path>
    <path id="STROKE_E3119081-2DD9-4F09-A93E-657B6724C9F6" opacity="1.000" fill="none" stroke="#000000" stroke-width="3.112" stroke-opacity="1.000" stroke-linecap="round" stroke-linejoin="round" d="M 819.111 502.688 Q 815.040 502.103 811.976 504.685 Q 808.913 507.268 807.480 509.219 Q 806.048 511.170 805.434 514.089 Q 804.821 517.009 805.734 518.395 Q 806.646 519.781 808.947 520.838 Q 811.248 521.895 814.248 521.993 Q 817.248 522.090 819.084 521.249 L 820.919 520.408 "></path>
    <path id="STROKE_A59E3A58-AC2A-41A9-B011-84797CF98C1E" opacity="1.000" fill="none" stroke="#000000" stroke-width="3.112" stroke-opacity="1.000" stroke-linecap="round" stroke-linejoin="round" d="M 833.569 497.545 Q 833.478 512.901 832.978 518.509 L 832.478 524.117 "></path>
    <path id="STROKE_04A39406-64D9-4388-BC74-2B72BD0D1936" opacity="1.000" fill="none" stroke="#000000" stroke-width="3.112" stroke-opacity="1.000" stroke-linecap="round" stroke-linejoin="round" d="M 845.447 496.081 Q 845.169 497.322 845.039 509.646 L 844.910 521.971 "></path>
    <path id="STROKE_DD8D5ED3-8BF7-447F-B651-4BEE73981558" opacity="1.000" fill="none" stroke="#000000" stroke-width="3.112" stroke-opacity="1.000" stroke-linecap="round" stroke-linejoin="round" d="M 832.671 510.761 Q 831.709 511.638 832.980 511.651 Q 834.250 511.665 835.534 511.301 Q 836.818 510.937 839.655 509.689 L 842.492 508.441 "></path>
    <path id="STROKE_91893DC1-A4AF-4AE8-8247-7E9515E7541E" opacity="1.000" fill="none" stroke="#000000" stroke-width="3.112" stroke-opacity="1.000" stroke-linecap="round" stroke-linejoin="round" d="M 869.940 496.828 Q 860.766 496.308 856.966 496.784 Q 853.166 497.261 852.430 498.424 Q 851.694 499.588 851.648 503.930 Q 851.603 508.272 852.848 511.555 Q 854.093 514.839 855.769 515.783 Q 857.445 516.727 859.545 516.822 Q 861.644 516.917 864.459 515.259 L 867.275 513.600 "></path>
    <path id="STROKE_43B31738-96CB-4F5A-BD7E-91F62AD491B1" opacity="1.000" fill="none" stroke="#000000" stroke-width="3.112" stroke-opacity="1.000" stroke-linecap="round" stroke-linejoin="round" d="M 852.639 508.760 Q 851.809 508.751 853.261 508.356 Q 854.713 507.961 857.866 506.855 Q 861.020 505.750 861.641 505.478 L 862.261 505.207 "></path>
    <path id="STROKE_D6ACD1D7-6698-4D71-87BF-29B51BADBD80" opacity="1.000" fill="none" stroke="#000000" stroke-width="3.112" stroke-opacity="1.000" stroke-linecap="round" stroke-linejoin="round" d="M 894.103 493.706 Q 889.216 493.443 884.787 495.011 Q 880.357 496.580 878.615 497.806 Q 876.872 499.032 877.722 500.418 Q 878.573 501.804 882.384 503.631 Q 886.195 505.458 888.654 507.483 Q 891.113 509.508 891.985 512.132 Q 892.858 514.756 891.362 516.018 Q 889.866 517.280 885.266 518.264 L 880.666 519.248 "></path>
    <path id="STROKE_1A31A57E-C6F6-49F1-845A-927B50FE1D90" opacity="1.000" fill="none" stroke="#000000" stroke-width="3.112" stroke-opacity="1.000" stroke-linecap="round" stroke-linejoin="round" d="M 925.621 494.513 Q 923.536 516.535 933.891 515.505 Q 944.246 514.475 948.468 513.381 Q 952.689 512.287 953.769 523.770 Q 954.849 535.253 957.962 531.287 Q 961.075 527.322 968.245 521.095 Q 975.416 514.869 986.965 508.516 Q 998.514 502.164 989.619 495.358 Q 980.723 488.552 973.272 482.000 Q 965.821 475.448 962.798 471.696 Q 959.775 467.944 959.409 475.824 Q 959.044 483.704 957.545 488.646 Q 956.046 493.589 940.697 493.639 L 925.347 493.690 "></path>
    <path id="STROKE_8F5095A7-5813-4656-9E55-FCFA47BE05E5" opacity="1.000" fill="none" stroke="#000000" stroke-width="2.776" stroke-opacity="1.000" stroke-linecap="round" stroke-linejoin="round" d="M 1048.290 479.002 Q 1042.013 478.247 1033.742 480.881 Q 1025.471 483.515 1022.046 485.266 Q 1018.620 487.017 1017.809 488.664 Q 1016.997 490.310 1020.017 491.891 Q 1023.036 493.471 1030.738 495.446 Q 1038.440 497.420 1042.592 499.601 Q 1046.744 501.783 1046.369 504.738 Q 1045.993 507.693 1042.248 509.686 Q 1038.502 511.679 1032.482 513.509 Q 1026.461 515.339 1021.558 515.698 Q 1016.656 516.057 1016.118 514.330 Q 1015.580 512.603 1017.729 511.388 L 1019.878 510.172 "></path>
    <path id="STROKE_CFE4E360-345B-4D05-9432-DC7AB7FE6123" opacity="1.000" fill="none" stroke="#000000" stroke-width="3.112" stroke-opacity="1.000" stroke-linecap="round" stroke-linejoin="round" d="M 1061.766 496.698 Q 1060.227 498.747 1060.015 502.154 Q 1059.802 505.561 1062.327 508.037 Q 1064.852 510.513 1067.887 510.544 Q 1070.923 510.576 1072.943 508.976 Q 1074.964 507.375 1075.839 505.524 Q 1076.715 503.673 1076.777 501.092 Q 1076.840 498.511 1076.060 494.644 L 1075.280 490.777 "></path>
    <path id="STROKE_20E302C5-43E0-4073-969B-A020D0EC16FF" opacity="1.000" fill="none" stroke="#000000" stroke-width="3.105" stroke-opacity="1.000" stroke-linecap="round" stroke-linejoin="round" d="M 1108.108 491.201 Q 1108.057 489.268 1106.197 489.076 Q 1104.337 488.884 1101.761 490.406 Q 1099.186 491.928 1096.181 495.723 Q 1093.175 499.517 1092.265 501.328 Q 1091.354 503.139 1090.868 506.543 Q 1090.382 509.947 1091.164 511.193 Q 1091.945 512.439 1094.859 513.952 Q 1097.774 515.466 1100.975 515.671 Q 1104.177 515.877 1106.466 514.769 Q 1108.755 513.661 1109.650 510.778 Q 1110.545 507.895 1108.887 505.223 L 1107.229 502.551 "></path>
    <path id="STROKE_EB2E6867-D590-4716-B695-7D48DCAE61AA" opacity="1.000" fill="none" stroke="#000000" stroke-width="3.112" stroke-opacity="1.000" stroke-linecap="round" stroke-linejoin="round" d="M 1101.139 504.274 Q 1103.972 503.483 1106.835 503.096 Q 1109.699 502.709 1113.086 502.129 L 1116.472 501.549 "></path>
    <path id="STROKE_7CC5700F-5751-465C-A580-989CD841863C" opacity="1.000" fill="none" stroke="#000000" stroke-width="3.100" stroke-opacity="1.000" stroke-linecap="round" stroke-linejoin="round" d="M 1121.386 512.682 Q 1120.336 508.474 1123.325 499.483 Q 1126.315 490.492 1128.518 487.417 Q 1130.721 484.342 1135.049 502.565 L 1139.376 520.788 "></path>
    <path id="STROKE_B23C8673-6E2E-4EEF-A540-36C9257E6EDA" opacity="1.000" fill="none" stroke="#000000" stroke-width="3.112" stroke-opacity="1.000" stroke-linecap="round" stroke-linejoin="round" d="M 1122.778 506.156 Q 1126.091 505.092 1129.477 504.473 Q 1132.864 503.853 1134.220 503.384 L 1135.575 502.915 "></path>
    <path id="STROKE_02636675-82E3-456E-ABD3-C7C96FE8E38E" opacity="1.000" fill="none" stroke="#000000" stroke-width="3.112" stroke-opacity="1.000" stroke-linecap="round" stroke-linejoin="round" d="M 1152.789 511.013 Q 1150.111 503.756 1149.487 497.653 Q 1148.863 491.550 1148.892 488.763 Q 1148.921 485.977 1150.205 484.785 Q 1151.488 483.594 1153.457 483.509 Q 1155.427 483.424 1156.555 484.369 Q 1157.684 485.314 1158.042 487.317 Q 1158.401 489.320 1154.334 492.514 Q 1150.267 495.708 1149.525 497.382 Q 1148.784 499.055 1153.477 501.759 Q 1158.171 504.463 1162.622 507.608 L 1167.072 510.752 "></path>
    <path id="STROKE_69321085-68E3-4572-8855-A1D8F35DC498" opacity="1.000" fill="none" stroke="#000000" stroke-width="3.112" stroke-opacity="1.000" stroke-linecap="round" stroke-linejoin="round" d="M 1193.549 485.625 Q 1189.693 484.684 1185.057 486.601 Q 1180.421 488.519 1178.711 490.050 Q 1177.000 491.581 1176.909 493.473 Q 1176.819 495.365 1183.493 500.287 Q 1190.166 505.210 1190.256 506.759 Q 1190.346 508.309 1185.913 510.156 Q 1181.481 512.003 1178.099 512.139 L 1174.717 512.276 "></path>
  </g>
</svg>